<svg width="399" height="128" viewBox="0 0 399 128" fill="none" xmlns="http://www.w3.org/2000/svg">
<path d="M3.50051 31.6195C5.36628 51.5592 7.02737 71.5263 9.18995 91.4368C9.94573 98.3951 11.2952 105.361 11.7988 112.346L12.3196 119.57C30.7951 113.509 48.7361 116.273 67.7964 118.598C80.4188 120.138 92.4642 122.634 105.065 120.936C131.315 117.397 157.733 115.311 183.951 111.462C206.402 108.166 228.26 103.904 250.967 102.983C277.859 101.892 304.484 99.6061 331.234 96.92C342.224 95.8164 353.307 95.3183 364.263 93.9191C375.101 92.535 385.873 90.2415 396.655 88.7615M395.118 93.2088C393.652 65.6453 394.356 36.2073 388.497 9.0235C388.195 7.62149 387.634 6.58974 387.531 5.16977C355.423 9.04961 323.648 12.2814 291.393 14.0287C272.387 15.0584 253.401 16.6991 234.416 18.0679C205.777 20.1328 176.95 20.2542 148.268 18.9447C137.397 18.4484 126.866 18.5513 116.035 20.0986C94.7989 23.1324 73.8416 28.9513 52.4327 30.5694C42.3221 31.3336 32.251 31.8086 22.1246 32.1696C15.5486 32.4039 8.96147 33.0842 2.40116 33.5572" stroke="white" stroke-width="3" stroke-linecap="round"/>
<g filter="url(#filter0_b_10_142)">
<path d="M25.1731 85.6513C25.6751 70.6027 24.4318 60.4679 25.2375 44.3645C25.3431 42.2539 24.3751 40.6898 25.5422 38.9617C26.3118 37.8221 27.1402 37.6338 28.5204 37.6264C33.3948 37.6 38.3063 38.0776 43.1813 38.1209C79.3158 38.4422 115.233 34.3595 151.322 33.5709C169.955 33.1637 187.801 31.6577 206.051 27.8722C223.387 24.2762 240.412 25.1543 258.004 24.7298C281.602 24.1604 305.132 22.0797 328.705 20.9827C345.155 20.2172 360.657 18.7529 376.644 15.0005C377.717 42.7522 375.104 17.3199 377.167 45.9346C378.047 58.137 379.452 66.1703 381.224 78.2833C373.649 79.8545 366.255 81.8524 358.74 83.6685C348.589 86.1216 338.96 85.5379 328.622 85.1791C317.149 84.7811 305.645 84.7289 294.173 85.2205C280.346 85.8131 267.056 88.6534 253.357 90.2034C238.913 91.8378 224.515 91.895 210.018 92.4662C194.318 93.0847 178.6 92.2278 162.925 92.8733C149.453 93.4281 136.13 97.7289 122.763 99.3606C90.2614 103.328 57.5367 104.972 24.8791 107.079C24.3626 99.9146 24.9339 92.8232 25.1731 85.6513Z" fill="#D9D9D9" fill-opacity="0.01"/>
<path d="M376.624 14.4819C377.75 43.0674 375.092 17.1438 377.167 45.9346C378.047 58.137 379.452 66.1703 381.224 78.2833C373.649 79.8545 366.255 81.8524 358.74 83.6685C348.589 86.1216 338.96 85.5379 328.622 85.1791C317.149 84.7811 305.645 84.7289 294.173 85.2205C280.346 85.8131 267.056 88.6534 253.357 90.2034C238.913 91.8378 224.515 91.895 210.018 92.4662C194.318 93.0847 178.6 92.2278 162.925 92.8733C149.453 93.4281 136.13 97.7289 122.763 99.3606C90.2614 103.328 57.5367 104.972 24.8791 107.079C24.3626 99.9146 24.9339 92.8232 25.1731 85.6513C25.6751 70.6027 24.4318 60.4679 25.2375 44.3645C25.3431 42.2539 24.3751 40.6898 25.5422 38.9617C26.3118 37.8221 27.1402 37.6338 28.5204 37.6264C33.3948 37.6 38.3063 38.0776 43.1813 38.1209C79.3158 38.4422 115.233 34.3595 151.322 33.5709C169.955 33.1637 187.801 31.6577 206.051 27.8722C223.387 24.2762 240.412 25.1543 258.004 24.7298C281.602 24.1604 305.132 22.0797 328.705 20.9827C345.161 20.2169 360.668 18.7519 376.661 14.9966" stroke="white" stroke-width="3" stroke-linecap="round"/>
</g>
<path d="M100.582 56.3694C101.438 56.1608 102.653 56.0292 104.225 55.9746C105.797 55.9102 106.701 55.9625 106.939 56.1314C107.146 56.2829 107.277 56.4839 107.335 56.7344C107.392 56.9848 107.376 57.2454 107.288 57.5161C107.199 57.7771 107.042 58.0381 106.816 58.2991C106.6 58.5595 106.336 58.7743 106.025 58.9436C105.79 59.0683 105.584 59.2006 105.408 59.3406C105.231 59.4708 105.145 59.5603 105.148 59.609C105.152 59.6577 104.893 59.74 104.373 59.8558C103.852 59.9619 103.223 60.066 102.486 60.1681C101.749 60.2604 101.1 60.3611 100.54 60.47C99.9798 60.5789 99.6772 60.6594 99.632 60.7117C99.5868 60.7639 99.5936 60.9935 99.6523 61.4005C99.7201 61.797 99.8265 62.2544 99.9716 62.7727C100.297 64.022 100.481 64.748 100.525 64.9504C100.543 65.0568 100.733 65.1214 101.097 65.1441C101.47 65.1564 102.085 65.1317 102.942 65.0699C103.877 65.0024 104.606 64.9939 105.129 65.0444C105.661 65.0941 106.071 65.2114 106.358 65.3963C106.646 65.5812 106.872 65.8635 107.036 66.2433C107.167 66.557 107.228 66.7925 107.219 66.9498C107.21 67.0973 107.126 67.2796 106.965 67.4968C106.643 67.9214 106.226 68.2452 105.713 68.4682C105.201 68.6912 104.446 68.8779 103.448 69.0281C102.16 69.2287 101.524 69.4361 101.54 69.6504C101.545 69.7283 101.571 69.8097 101.616 69.8945C101.671 69.9787 101.729 70.0381 101.79 70.0729C101.902 70.1236 102.048 70.6565 102.229 71.6715C102.419 72.6858 102.572 73.786 102.687 74.9723C102.735 75.4975 102.735 75.9087 102.688 76.2059C102.641 76.503 102.525 76.8002 102.341 77.0974C102.209 77.3125 102.07 77.4841 101.923 77.6122C101.776 77.75 101.663 77.812 101.584 77.7982C101.385 77.7538 101.067 77.6983 100.632 77.6318C100.444 77.6062 100.216 77.5051 99.9489 77.3286C99.6816 77.152 99.4519 76.9532 99.2597 76.7321C98.9192 76.3552 98.6974 75.9942 98.5942 75.6492C98.5007 75.3035 98.3969 74.5423 98.2827 73.3659C98.0467 71.0428 97.625 68.8605 97.0176 66.8188C96.2582 64.2985 95.7444 62.3333 95.4763 60.9232C95.3004 59.9763 95.1295 59.3718 94.9637 59.1096C94.807 58.837 94.8457 58.4915 95.0799 58.0732C95.2189 57.8282 95.3733 57.6604 95.543 57.5698C95.712 57.4695 95.9815 57.406 96.3517 57.3794C96.9751 57.3344 97.6172 57.2098 98.278 57.0055C98.9479 56.7907 99.7159 56.5787 100.582 56.3694ZM109.065 55.4787C109.418 55.0812 109.954 54.9104 110.673 54.9663C111.401 55.0117 112.002 55.2621 112.475 55.7175C112.949 56.1729 113.292 56.721 113.504 57.3616C113.716 57.9926 113.766 58.6107 113.653 59.2161C113.565 59.6336 113.57 60.8523 113.667 62.8721C113.772 64.8814 113.916 66.8145 114.099 68.6714C114.291 70.5178 114.447 71.4563 114.567 71.4868C114.766 71.541 115.304 71.463 116.18 71.253C116.912 71.0828 118.423 70.9983 120.715 70.9995C123.015 70.9903 124.269 71.0713 124.477 71.2423C124.54 71.2965 124.655 71.3371 124.824 71.3642C124.992 71.3912 125.159 71.3987 125.325 71.3868C125.51 71.3734 125.724 71.4265 125.968 71.546C126.22 71.6551 126.447 71.8052 126.646 71.9964C126.929 72.2502 127.117 72.4814 127.21 72.6901C127.303 72.889 127.348 73.1697 127.345 73.5322C127.343 73.7869 127.306 74.0196 127.233 74.2305C127.17 74.4407 127.092 74.5736 126.998 74.6293C126.763 74.7638 126.387 74.9916 125.872 75.3127C125.563 75.5014 125.248 75.6269 124.93 75.689C124.621 75.7504 124.163 75.7786 123.555 75.7734C123.134 75.7646 122.72 75.7308 122.314 75.672C121.919 75.6221 121.651 75.5632 121.509 75.4951C121.215 75.3596 120.398 75.3647 119.057 75.5103C117.716 75.6559 116.634 75.8514 115.81 76.0969C115.111 76.3138 114.36 76.5 113.559 76.6557C113.018 76.7632 112.629 76.7913 112.39 76.74C112.151 76.6887 111.791 76.509 111.308 76.2011C111.02 76.0065 110.766 75.8046 110.545 75.5953C110.335 75.395 110.226 75.2462 110.219 75.1488C110.203 74.9248 110.058 74.6758 109.783 74.4018C109.595 74.2294 109.478 73.9049 109.434 73.4283C109.39 72.9518 109.365 71.8619 109.36 70.1586C109.357 66.4481 109.321 63.9197 109.254 62.5734C109.185 61.2174 109.039 60.0774 108.816 59.1536C108.576 58.1331 108.472 57.3671 108.504 56.8557C108.535 56.3345 108.722 55.8755 109.065 55.4787ZM128.491 54.4012C128.583 54.3163 128.697 54.264 128.832 54.2444C128.967 54.2151 129.095 54.2206 129.215 54.2609C130.043 54.6026 130.661 54.8958 131.071 55.1405C131.479 55.3754 131.863 55.6708 132.221 56.0268L133.026 56.8059L132.9 58.7242L132.727 61.8209C132.676 62.6078 132.778 64.0251 133.034 66.0725C133.313 68.3141 133.695 69.9413 134.179 70.954C134.663 71.9667 135.284 72.4311 136.042 72.3471C136.469 72.3065 137.491 71.8803 139.107 71.0686C140.723 70.257 141.808 69.6256 142.363 69.1743C142.825 68.7983 143.216 68.1729 143.535 67.2981C143.863 66.4128 144.062 65.4438 144.133 64.3911C144.213 63.3279 144.149 62.3681 143.94 61.5118L143.277 58.8279C143.044 57.9048 142.917 57.1747 142.898 56.6375C142.889 56.0997 142.984 55.5837 143.183 55.0896C143.249 54.9184 143.294 54.7977 143.319 54.7274C143.352 54.6466 143.4 54.5649 143.463 54.482C143.525 54.3992 143.575 54.3466 143.613 54.3243C143.65 54.302 143.722 54.2822 143.829 54.2647C143.945 54.2465 144.052 54.2388 144.15 54.2415C144.248 54.2442 144.401 54.2528 144.607 54.2673C144.883 54.2866 145.065 54.298 145.153 54.3014C145.251 54.3041 145.381 54.3388 145.543 54.4055C145.713 54.4617 145.814 54.5034 145.845 54.5305C145.886 54.5569 145.977 54.6532 146.116 54.8194C146.265 54.9849 146.373 55.124 146.44 55.2367C146.506 55.3493 146.645 55.5695 146.854 55.897C147.65 57.1517 148.278 58.668 148.739 60.4461C149.2 62.2242 149.383 63.8118 149.288 65.209C149.222 66.0558 149.03 67.1956 148.712 68.6284C148.394 70.0515 148.156 70.8274 147.999 70.9563C147.888 71.0426 147.65 71.4122 147.286 72.0651C146.99 72.5857 146.399 73.2158 145.513 73.9553C144.626 74.6948 143.993 75.0831 143.614 75.1203C143.293 75.1532 142.894 75.3239 142.417 75.6324C141.52 76.2161 140.839 76.6177 140.375 76.8371C139.911 77.0664 139.301 77.2915 138.544 77.5126C137.48 77.834 136.791 77.9229 136.477 77.779C136.164 77.645 135.881 77.5871 135.628 77.6053C135.365 77.6243 134.769 77.3686 133.839 76.8384C132.911 76.3179 132.236 75.8525 131.815 75.4423L130.412 74.1188C129.782 73.5278 129.296 72.6964 128.955 71.6244C128.612 70.5427 128.243 68.6797 127.847 66.0353C127.648 64.6397 127.524 63.5913 127.473 62.89C127.422 62.1789 127.438 61.5169 127.521 60.9039C127.64 59.8476 127.666 58.7736 127.597 57.682C127.548 56.8631 127.593 56.2039 127.733 55.7042C127.873 55.1948 128.125 54.7605 128.491 54.4012ZM161.173 49.9741C161.381 49.6066 161.673 49.3848 162.05 49.3087C162.435 49.2222 162.972 49.2716 163.661 49.4569C164.32 49.6346 164.876 49.9372 165.328 50.3648C165.779 50.7924 166.085 51.2991 166.245 51.8848C166.445 52.6243 166.636 54.3239 166.818 56.9837C167.009 59.6331 167.06 61.4309 166.972 62.3772C166.891 63.421 166.84 64.8247 166.82 66.5885C166.817 67.9007 166.734 68.9886 166.571 69.8522C166.417 70.7053 166.222 71.1845 165.984 71.2897C165.909 71.3245 165.849 71.3827 165.806 71.4641C165.763 71.5455 165.745 71.6301 165.751 71.7178C165.78 72.1171 165.258 72.3554 164.187 72.4327C163.924 72.4516 163.505 72.3496 162.931 72.1267C162.358 71.9134 161.831 71.6675 161.351 71.3888C160.88 71.1094 160.639 70.8918 160.628 70.736C160.618 70.5996 160.53 70.5374 160.365 70.5493C160.209 70.5606 159.832 70.2842 159.233 69.7204C158.644 69.1558 158.338 68.7813 158.315 68.597C158.309 68.519 158.269 68.4387 158.195 68.356C158.129 68.2628 158.056 68.1946 157.974 68.1515C157.882 68.0994 157.745 67.9527 157.561 67.7114C157.376 67.4604 157.195 67.1895 157.018 66.8988C156.569 66.1087 156.261 65.7147 156.095 65.7169C155.91 65.7302 155.834 66.3085 155.868 67.4516C155.881 68.0479 155.93 68.9256 156.014 70.0847C156.077 70.9613 156.113 71.6685 156.122 72.2064C156.142 72.7532 156.13 73.1996 156.087 73.5454C156.053 73.8905 155.987 74.1303 155.889 74.2646C155.801 74.408 155.68 74.4853 155.524 74.4965C155.427 74.5036 155.336 74.5346 155.252 74.5896C155.177 74.6439 155.133 74.7108 155.119 74.7901C155.087 74.8903 154.974 74.9523 154.78 74.9761C154.587 75.0096 154.346 74.9976 154.058 74.94C153.78 74.8915 153.486 74.8197 153.176 74.7246C152.876 74.6385 152.584 74.5225 152.299 74.3766C152.025 74.2397 151.814 74.0983 151.666 73.9522C151.203 73.5059 150.966 73.1999 150.954 73.0343C150.942 72.8687 150.67 69.3636 150.137 62.5189L149.351 52.2363L150.77 52.1487C151.804 52.0938 152.575 52.2046 153.085 52.4812C153.594 52.748 154.101 53.3331 154.607 54.2366C155.158 55.2249 155.769 56.1649 156.44 57.0564C157.12 57.9375 157.75 58.8565 158.328 59.8135C159.903 62.3827 160.89 63.8389 161.286 64.1824C161.443 64.318 161.535 64.3016 161.562 64.1332C161.582 64.0044 161.582 63.7352 161.562 63.3254C161.526 62.5545 161.512 61.1309 161.519 59.0547C161.528 57.1448 161.491 55.4733 161.407 54.04C161.322 52.5971 161.201 51.6659 161.044 51.2464C160.886 50.827 160.929 50.4029 161.173 49.9741ZM179.458 49.9922C179.692 49.7012 179.929 49.5225 180.169 49.4563C180.408 49.3803 180.593 49.4355 180.724 49.6219C180.767 49.6775 180.873 49.7237 181.043 49.7605C181.212 49.7972 181.384 49.8093 181.559 49.7966C181.998 49.765 182.453 49.9672 182.925 50.4031C183.396 50.8293 183.696 51.3169 183.823 51.8657C183.92 52.2504 183.927 52.5632 183.847 52.804C183.775 53.0343 183.558 53.4123 183.194 53.9378C182.52 54.9068 181.686 55.9705 180.693 57.1289C179.698 58.2776 179.037 58.9519 178.709 59.1518C178.203 59.4625 177.725 59.8347 177.277 60.2684C176.838 60.7015 176.625 61.0057 176.638 61.181C176.652 61.3856 176.797 61.6297 177.072 61.9134C177.347 62.1971 177.568 62.3329 177.733 62.321C177.801 62.3161 178.153 62.5747 178.788 63.0968C179.432 63.6182 180.183 64.2494 181.039 64.9906C183.967 67.5699 185.312 69.25 185.074 70.0308C185.002 70.2514 184.773 70.4687 184.387 70.6825C184.011 70.9054 183.643 71.0299 183.283 71.0558C182.835 71.0881 182.061 70.7376 180.96 70.0043C179.86 69.2808 178.779 68.4041 177.716 67.3744C177.116 66.7911 176.228 66.0179 175.052 65.0551C173.886 64.0915 173.249 63.6136 173.142 63.6213C173.093 63.6151 173.084 64.1787 173.117 65.3121C173.159 66.435 173.219 67.6105 173.298 68.8385C173.377 70.0665 173.46 71.0885 173.548 71.9046C173.588 72.1856 173.579 72.3968 173.52 72.5381C173.472 72.6787 173.362 72.7845 173.191 72.8556C173.067 72.9037 172.95 72.9806 172.84 73.0865C172.731 73.1923 172.66 73.3002 172.629 73.4101C172.55 73.6704 172.275 73.7979 171.805 73.7927C171.335 73.7972 170.944 73.6736 170.632 73.4219C170.258 73.116 169.988 72.9691 169.822 72.981C169.744 72.9866 169.678 72.9571 169.625 72.8924C169.572 72.8375 169.542 72.7613 169.535 72.6639C169.529 72.5762 169.483 72.4865 169.398 72.3947C169.323 72.312 169.226 72.2554 169.107 72.2248C169.006 72.1929 168.932 72.1101 168.883 71.9766C168.834 71.843 168.778 71.4701 168.714 70.8579C168.65 70.2359 168.59 69.4668 168.533 68.5505C168.487 67.6335 168.418 66.2089 168.328 64.2768C168.221 62.1207 168.149 60.2363 168.111 58.6235C168.073 57.001 168.079 56.134 168.129 56.0227C168.179 55.9016 168.207 55.6059 168.212 55.1355C168.218 54.6652 168.201 54.1621 168.162 53.6264C168.117 53.003 168.102 52.5195 168.116 52.1758C168.14 51.8216 168.212 51.5276 168.332 51.2937C168.452 51.0599 168.617 50.9011 168.826 50.8175C169.036 50.7339 169.33 50.6783 169.71 50.651C170.256 50.6116 170.807 50.7236 171.365 50.987C171.932 51.2496 172.348 51.5867 172.612 51.9985C172.768 52.2516 172.861 52.524 172.892 52.8155C172.922 53.0972 172.898 53.5885 172.822 54.2892C172.753 54.9697 172.714 55.5844 172.705 56.1334C172.705 56.6816 172.731 57.1106 172.783 57.4202C172.844 57.7193 172.928 57.865 173.035 57.8573C173.113 57.8517 173.183 57.8123 173.247 57.7392C173.32 57.6654 173.372 57.5735 173.403 57.4636C173.434 57.3536 173.56 57.1977 173.78 56.9958C174 56.7841 174.245 56.5804 174.515 56.3847C174.898 56.1319 175.457 55.6021 176.192 54.7952C176.926 53.9785 177.583 53.1821 178.164 52.406C178.754 51.6291 179.042 51.1481 179.029 50.963C179.021 50.8559 179.06 50.7063 179.144 50.5142C179.228 50.3221 179.333 50.1481 179.458 49.9922ZM201.183 47.7943C202.324 47.4672 203.176 47.3324 203.738 47.3898C204.31 47.4464 204.869 47.7244 205.414 48.2236C205.655 48.4412 205.868 48.6755 206.052 48.9266C206.237 49.1776 206.333 49.3616 206.342 49.4785C206.35 49.5954 206.383 49.7105 206.44 49.8239C206.496 49.9275 206.56 49.9963 206.631 50.0304C206.784 50.1172 206.882 50.2473 206.924 50.4205C206.965 50.584 206.943 50.7618 206.859 50.9539C206.784 51.1355 206.675 51.3196 206.532 51.5062C206.398 51.6823 206.223 51.832 206.006 51.9553C205.8 52.0779 205.585 52.1521 205.361 52.178C204.213 52.2804 203.09 52.5229 201.992 52.9056C200.903 53.2779 200.315 53.6189 200.23 53.9285C200.208 54.028 200.281 54.0913 200.449 54.1183C200.697 54.1592 201.297 54.1355 202.25 54.0472C203.485 53.9191 204.725 53.8688 205.97 53.8965C207.225 53.9235 207.907 54.0114 208.016 54.1602C208.114 54.3 208.348 54.3566 208.718 54.3299C209.02 54.3081 209.544 54.4417 210.289 54.7306C211.044 55.0091 211.738 55.3312 212.371 55.6967C213.004 56.0525 213.326 56.3181 213.339 56.4934C213.345 56.5714 213.568 56.8147 214.008 57.2236C214.177 57.3876 214.344 57.5959 214.509 57.8484C214.684 58.1001 214.797 58.3171 214.849 58.4994C214.901 58.6719 214.967 58.8385 215.047 58.9992C215.136 59.1494 215.211 59.2419 215.273 59.2766C215.548 59.4233 215.601 60.0265 215.432 61.0862C215.274 62.1453 214.98 63.0917 214.55 63.9256C214.224 64.5562 213.968 65.0788 213.782 65.4937C213.706 65.6656 213.551 65.8873 213.316 66.1588C213.091 66.4296 212.854 66.6767 212.606 66.9002C212.017 67.4225 211.631 67.7734 211.448 67.953C211.21 68.1856 210.767 68.4868 210.118 68.8567C209.47 69.2363 209.053 69.4328 208.868 69.4461C208.771 69.4532 208.685 69.479 208.609 69.5235C208.544 69.5674 208.513 69.6137 208.517 69.6624C208.53 69.8475 208.039 70.0983 207.043 70.4148C206.058 70.7307 205.195 70.9153 204.455 70.9686C204.036 70.9988 203.619 71.0631 203.205 71.1615C202.801 71.2592 202.501 71.369 202.304 71.4909C201.789 71.812 201.027 71.9843 200.021 72.008C199.014 72.0316 198.05 71.9004 197.128 71.6143C196.698 71.479 196.259 71.3686 195.812 71.2833C195.375 71.1974 195.069 71.1607 194.894 71.1733C194.689 71.1881 194.521 71.1708 194.391 71.1215C194.27 71.0715 194.205 70.9929 194.197 70.8857C194.191 70.7981 194.145 70.7084 194.06 70.6166C193.986 70.5338 193.899 70.4765 193.798 70.4445C193.629 70.398 193.501 70.1918 193.416 69.8259C193.332 69.4697 193.313 69.0745 193.36 68.6404C193.417 68.2055 193.525 67.8697 193.684 67.633C193.764 67.5195 193.822 67.4419 193.858 67.4002C193.893 67.3486 193.958 67.2999 194.053 67.2539C194.147 67.1982 194.223 67.1633 194.28 67.1494C194.348 67.1347 194.485 67.1298 194.691 67.1345C194.896 67.1295 195.082 67.1356 195.25 67.1529C195.427 67.1695 195.718 67.1926 196.122 67.2223C196.673 67.2706 197.301 67.289 198.005 67.2774C198.709 67.2658 199.27 67.2302 199.687 67.1708C200.81 67.0017 202.019 66.7236 203.313 66.3366C204.616 65.9489 205.478 65.6077 205.897 65.3131C206.372 64.9754 206.747 64.7476 207.023 64.6298C207.137 64.5825 207.231 64.5219 207.304 64.4481C207.377 64.3743 207.411 64.3081 207.407 64.2497C207.403 64.1913 207.433 64.1401 207.498 64.0962C207.563 64.0426 207.644 64.0123 207.742 64.0053C207.839 63.9982 207.961 63.9258 208.108 63.7879C208.264 63.6396 208.403 63.4729 208.527 63.2877C208.827 62.8255 209.048 62.4963 209.19 62.3C209.332 62.0939 209.397 61.913 209.386 61.7572C209.382 61.6987 209.411 61.6329 209.474 61.5598C209.547 61.4763 209.63 61.4115 209.725 61.3656C209.99 61.2388 210.084 60.9774 210.006 60.5816C209.938 60.1753 209.741 59.8957 209.417 59.7429C209.001 59.5379 208.156 59.3638 206.883 59.2207C205.609 59.0677 204.908 59.0595 204.781 59.196C204.663 59.3317 204.302 59.4165 203.697 59.4503C203.092 59.4744 202.451 59.4717 201.773 59.4422C201.095 59.403 200.477 59.33 199.921 59.2232C199.374 59.106 199.096 58.9792 199.086 58.8428C199.082 58.7844 199.03 58.7392 198.93 58.7073C198.829 58.6656 198.715 58.6493 198.588 58.6584C198.452 58.6683 198.262 58.6134 198.018 58.4939C197.784 58.3737 197.563 58.2184 197.353 58.0279C196.861 57.5836 196.566 57.365 196.469 57.372C196.254 57.3874 196.013 57.2237 195.743 56.8809C195.483 56.5374 195.247 56.1089 195.034 55.5956C194.829 55.0718 194.654 54.5459 194.509 54.0179C194.362 53.4802 194.294 53.0054 194.303 52.5935C194.313 52.1816 194.412 51.9296 194.601 51.8377C194.705 51.791 194.789 51.7311 194.852 51.658C194.926 51.5842 194.96 51.5132 194.955 51.445C194.946 51.3281 195.081 51.0932 195.359 50.7403C195.637 50.3873 195.835 50.2067 195.952 50.1982C196.029 50.1926 196.365 49.9628 196.959 49.5087C197.424 49.1619 197.908 48.8871 198.413 48.6843C198.926 48.4711 199.849 48.1744 201.183 47.7943ZM227.702 46.5138C227.936 46.2228 228.173 46.0442 228.413 45.9779C228.652 45.9019 228.837 45.9571 228.968 46.1435C229.011 46.1991 229.117 46.2453 229.286 46.2821C229.456 46.3188 229.628 46.3309 229.803 46.3183C230.241 46.2867 230.697 46.4888 231.169 46.9248C231.64 47.3509 231.939 47.8385 232.067 48.3874C232.163 48.7721 232.171 49.0848 232.091 49.3256C232.019 49.5559 231.802 49.9339 231.438 50.4594C230.764 51.4284 229.93 52.4921 228.937 53.6505C227.942 54.7992 227.281 55.4735 226.953 55.6734C226.447 55.9841 225.969 56.3563 225.521 56.7901C225.082 57.2231 224.869 57.5273 224.882 57.7026C224.896 57.9072 225.041 58.1513 225.316 58.435C225.591 58.7187 225.812 58.8546 225.977 58.8426C226.045 58.8377 226.397 59.0963 227.032 59.6184C227.676 60.1398 228.427 60.7711 229.283 61.5122C232.211 64.0915 233.556 65.7716 233.318 66.5524C233.246 66.773 233.017 66.9903 232.631 67.2041C232.255 67.427 231.887 67.5515 231.527 67.5775C231.079 67.6098 230.305 67.2593 229.204 66.526C228.104 65.8024 227.023 64.9258 225.96 63.896C225.359 63.3127 224.471 62.5396 223.296 61.5767C222.13 60.6131 221.493 60.1352 221.386 60.143C221.336 60.1367 221.328 60.7003 221.361 61.8337C221.403 62.9566 221.463 64.1321 221.542 65.3601C221.62 66.5881 221.704 67.6101 221.792 68.4262C221.832 68.7073 221.823 68.9184 221.764 69.0597C221.716 69.2003 221.606 69.3061 221.435 69.3772C221.311 69.4253 221.194 69.5023 221.084 69.6081C220.974 69.7139 220.904 69.8218 220.873 69.9318C220.794 70.192 220.519 70.3195 220.048 70.3143C219.579 70.3188 219.188 70.1952 218.876 69.9435C218.502 69.6376 218.232 69.4907 218.066 69.5026C217.988 69.5082 217.922 69.4787 217.869 69.414C217.816 69.3591 217.786 69.2829 217.779 69.1855C217.772 69.0979 217.727 69.0081 217.642 68.9164C217.567 68.8336 217.47 68.777 217.351 68.7464C217.25 68.7145 217.176 68.6318 217.127 68.4982C217.078 68.3646 217.022 67.9917 216.958 67.3795C216.894 66.7575 216.834 65.9884 216.777 65.0721C216.731 64.1551 216.662 62.7306 216.572 60.7985C216.465 58.6423 216.393 56.7579 216.355 55.1451C216.317 53.5226 216.323 52.6557 216.373 52.5443C216.423 52.4232 216.451 52.1275 216.456 51.6571C216.461 51.1868 216.445 50.6838 216.406 50.148C216.361 49.5247 216.346 49.0411 216.36 48.6974C216.384 48.3432 216.456 48.0492 216.576 47.8153C216.696 47.5815 216.861 47.4227 217.07 47.3391C217.28 47.2555 217.574 47.2 217.954 47.1726C218.499 47.1332 219.051 47.2452 219.608 47.5086C220.176 47.7712 220.592 48.1084 220.856 48.5201C221.012 48.7732 221.105 49.0456 221.135 49.3371C221.166 49.6189 221.142 50.1101 221.065 50.8108C220.997 51.4913 220.958 52.106 220.949 52.655C220.949 53.2033 220.975 53.6322 221.027 53.9418C221.088 54.2409 221.172 54.3866 221.279 54.3789C221.357 54.3733 221.427 54.3339 221.49 54.2608C221.563 54.187 221.616 54.0952 221.647 53.9852C221.678 53.8752 221.804 53.7193 222.024 53.5174C222.244 53.3057 222.489 53.102 222.759 52.9064C223.142 52.6535 223.701 52.1237 224.436 51.3168C225.17 50.5002 225.827 49.7038 226.408 48.9276C226.998 48.1507 227.286 47.6697 227.273 47.4847C227.265 47.3775 227.303 47.2279 227.388 47.0358C227.472 46.8437 227.577 46.6697 227.702 46.5138ZM242.695 46.8868C243.24 46.7104 244.022 46.6932 245.041 46.8351C246.059 46.9673 247.096 47.2352 248.154 47.6388C249.24 48.0402 249.837 48.237 249.944 48.2293C250.061 48.2209 250.415 48.4548 251.008 48.931C251.257 49.1284 251.53 49.3192 251.827 49.5034C252.125 49.6876 252.354 49.813 252.516 49.8797C252.887 50.0096 253.256 50.5117 253.623 51.386C253.989 52.2506 254.204 53.1358 254.27 54.0417C254.318 54.7138 254.255 55.5995 254.079 56.699C253.914 57.7977 253.734 58.4912 253.539 58.7793C253.372 59.0362 253.211 59.3856 253.057 59.8275C252.911 60.259 252.353 61.063 251.38 62.2395C250.417 63.4153 249.729 64.1306 249.317 64.3856C248.885 64.6419 248.345 65.0235 247.696 65.5305C247.427 65.7359 247.085 65.9515 246.67 66.1772C246.266 66.4119 245.917 66.5889 245.622 66.7081C244.993 66.9492 244.115 67.13 242.988 67.2505C241.871 67.3702 241.199 67.355 240.973 67.2048C240.767 67.0728 240.331 66.928 239.664 66.7705C239.385 66.7025 238.977 66.5459 238.44 66.3006C237.914 66.0644 237.416 65.8066 236.945 65.5272C236.179 65.0831 235.664 64.7286 235.4 64.4637C235.136 64.1988 234.85 63.7593 234.541 63.1451C234.276 62.5866 234.095 62.1247 234.001 61.7595C233.915 61.3936 233.877 60.9264 233.885 60.358C233.896 59.9655 233.924 59.6061 233.969 59.2798C234.023 58.943 234.081 58.7381 234.145 58.665C234.218 58.5912 234.273 58.4746 234.31 58.3152C234.358 58.1552 234.376 58.0021 234.365 57.856C234.355 57.7099 234.404 57.442 234.513 57.0523C234.631 56.6521 234.773 56.2453 234.939 55.8319C235.347 54.8332 235.544 54.2462 235.532 54.0709C235.511 53.7884 235.783 53.1374 236.346 52.1177C236.917 51.0875 237.456 50.2703 237.961 49.6661C238.286 49.2901 238.974 48.7901 240.026 48.166C241.087 47.5412 241.977 47.1148 242.695 46.8868ZM248.164 52.0586C247.631 51.5977 247.039 51.3222 246.386 51.2322C245.742 51.1317 245.098 51.2223 244.452 51.5038C243.864 51.7616 243.387 52.0065 243.022 52.2384C242.657 52.4704 242.312 52.7792 241.987 53.1649C241.663 53.5505 241.376 53.9922 241.128 54.4898C240.89 54.9868 240.61 55.6532 240.288 56.489L239.631 58.1666C239.514 58.4492 239.464 58.7025 239.48 58.9265C239.496 59.1505 239.399 59.5051 239.19 59.9902C238.846 60.7885 238.845 61.3955 239.189 61.8114C239.541 62.2168 240.199 62.3847 241.164 62.3152C241.602 62.2836 242.159 62.1357 242.835 61.8715C243.511 61.5976 244.101 61.2956 244.606 60.9655C245.111 60.6354 245.356 60.3778 245.343 60.1927C245.336 60.0953 245.36 60.0153 245.414 59.9526C245.467 59.8802 245.538 59.8409 245.626 59.8345C245.859 59.8177 246.317 59.3783 246.999 58.5165C247.681 57.6547 248.134 56.9465 248.359 56.3918C248.476 56.119 248.577 55.7543 248.662 55.2978C248.756 54.8406 248.814 54.4252 248.836 54.0516C248.869 53.4128 248.853 52.9978 248.791 52.8065C248.728 52.6152 248.519 52.3659 248.164 52.0586ZM264.348 45.3256C264.893 45.1492 265.675 45.132 266.694 45.274C267.712 45.4062 268.749 45.6741 269.806 46.0776C270.893 46.479 271.49 46.6759 271.597 46.6681C271.714 46.6597 272.068 46.8936 272.661 47.3698C272.91 47.5673 273.183 47.7581 273.48 47.9422C273.777 48.1264 274.007 48.2519 274.168 48.3185C274.54 48.4484 274.909 48.9505 275.276 49.8248C275.641 50.6894 275.857 51.5747 275.922 52.4805C275.971 53.1526 275.907 54.0384 275.732 55.1378C275.567 56.2365 275.386 56.93 275.192 57.2182C275.024 57.475 274.863 57.8244 274.709 58.2663C274.564 58.6978 274.005 59.5018 273.033 60.6783C272.07 61.8541 271.382 62.5695 270.97 62.8244C270.538 63.0807 269.998 63.4624 269.349 63.9693C269.08 64.1748 268.738 64.3903 268.323 64.616C267.919 64.8508 267.57 65.0277 267.275 65.1469C266.646 65.3881 265.768 65.5689 264.641 65.6893C263.524 65.809 262.852 65.7938 262.626 65.6437C262.42 65.5116 261.984 65.3668 261.316 65.2093C261.037 65.1413 260.63 64.9847 260.093 64.7395C259.567 64.5033 259.068 64.2455 258.598 63.9661C257.832 63.522 257.317 63.1675 257.053 62.9026C256.789 62.6377 256.503 62.1981 256.194 61.584C255.928 61.0254 255.748 60.5636 255.653 60.1983C255.568 59.8324 255.53 59.3652 255.538 58.7968C255.549 58.4044 255.576 58.045 255.621 57.7186C255.675 57.3818 255.734 57.1769 255.797 57.1038C255.87 57.03 255.926 56.9134 255.963 56.7541C256.01 56.594 256.029 56.4409 256.018 56.2948C256.008 56.1487 256.057 55.8808 256.166 55.4911C256.284 55.091 256.426 54.6842 256.592 54.2708C257 53.2721 257.197 52.6851 257.185 52.5097C257.164 52.2273 257.435 51.5762 257.998 50.5565C258.57 49.5264 259.109 48.7092 259.613 48.1049C259.939 47.729 260.627 47.229 261.679 46.6048C262.74 45.98 263.63 45.5536 264.348 45.3256ZM269.817 50.4975C269.284 50.0365 268.691 49.7611 268.039 49.671C267.395 49.5706 266.751 49.6611 266.105 49.9426C265.517 50.2005 265.04 50.4454 264.675 50.6773C264.31 50.9092 263.965 51.218 263.64 51.6037C263.315 51.9894 263.029 52.431 262.781 52.9287C262.543 53.4256 262.263 54.092 261.941 54.9278L261.284 56.6054C261.167 56.888 261.117 57.1413 261.133 57.3653C261.149 57.5894 261.052 57.9439 260.842 58.429C260.498 59.2273 260.498 59.8344 260.841 60.2502C261.194 60.6556 261.852 60.8235 262.816 60.754C263.255 60.7224 263.812 60.5745 264.488 60.3104C265.163 60.0365 265.754 59.7345 266.258 59.4043C266.763 59.0742 267.009 58.8166 266.996 58.6315C266.989 58.5341 267.012 58.4541 267.067 58.3915C267.12 58.3191 267.191 58.2797 267.278 58.2734C267.512 58.2565 267.97 57.8172 268.652 56.9554C269.334 56.0935 269.787 55.3853 270.012 54.8306C270.129 54.5578 270.23 54.1931 270.315 53.7367C270.409 53.2795 270.467 52.8641 270.489 52.4904C270.521 51.8517 270.506 51.4367 270.443 51.2454C270.381 51.0541 270.172 50.8048 269.817 50.4975ZM277.086 43.3644C277.439 42.9669 277.975 42.7961 278.694 42.852C279.422 42.8974 280.023 43.1478 280.496 43.6032C280.969 44.0587 281.312 44.6067 281.525 45.2474C281.737 45.8783 281.786 46.4964 281.673 47.1018C281.586 47.5194 281.591 48.738 281.687 50.7578C281.793 52.7671 281.937 54.7002 282.12 56.5571C282.312 58.4035 282.468 59.342 282.588 59.3726C282.787 59.4267 283.325 59.3488 284.201 59.1388C284.933 58.9685 286.444 58.884 288.735 58.8852C291.036 58.8761 292.29 58.957 292.498 59.128C292.561 59.1822 292.676 59.2228 292.845 59.2499C293.013 59.2769 293.18 59.2844 293.346 59.2725C293.531 59.2592 293.745 59.3122 293.989 59.4317C294.241 59.5408 294.467 59.6909 294.667 59.8822C294.95 60.1359 295.138 60.3671 295.231 60.5758C295.324 60.7747 295.369 61.0554 295.365 61.4179C295.364 61.6726 295.327 61.9054 295.254 62.1162C295.191 62.3264 295.112 62.4593 295.019 62.5151C294.783 62.6495 294.408 62.8773 293.893 63.1984C293.583 63.3871 293.269 63.5126 292.951 63.5747C292.642 63.6362 292.184 63.6643 291.576 63.6591C291.155 63.6504 290.741 63.6165 290.335 63.5577C289.94 63.5078 289.671 63.4489 289.53 63.3808C289.236 63.2453 288.419 63.2504 287.078 63.396C285.737 63.5416 284.655 63.7372 283.83 63.9826C283.131 64.1995 282.381 64.3857 281.58 64.5414C281.039 64.6489 280.65 64.677 280.411 64.6257C280.172 64.5744 279.812 64.3948 279.329 64.0869C279.041 63.8922 278.787 63.6903 278.566 63.481C278.356 63.2808 278.247 63.1319 278.24 63.0345C278.224 62.8105 278.079 62.5615 277.804 62.2876C277.616 62.1151 277.499 61.7906 277.455 61.3141C277.411 60.8375 277.386 59.7476 277.381 58.0443C277.378 54.3338 277.342 51.8054 277.275 50.4591C277.206 49.1031 277.06 47.9632 276.837 47.0393C276.597 46.0188 276.493 45.2528 276.525 44.7414C276.556 44.2202 276.743 43.7613 277.086 43.3644Z" fill="white"/>
<defs>
<filter id="filter0_b_10_142" x="16.17" y="5.98192" width="373.743" height="109.69" filterUnits="userSpaceOnUse" color-interpolation-filters="sRGB">
<feFlood flood-opacity="0" result="BackgroundImageFix"/>
<feGaussianBlur in="BackgroundImageFix" stdDeviation="3.5"/>
<feComposite in2="SourceAlpha" operator="in" result="effect1_backgroundBlur_10_142"/>
<feBlend mode="normal" in="SourceGraphic" in2="effect1_backgroundBlur_10_142" result="shape"/>
</filter>
</defs>
</svg>
