<svg width="292" height="78" viewBox="0 0 292 78" fill="none" xmlns="http://www.w3.org/2000/svg">
<path d="M2.9134 4.75302C3.22901 19.5513 3.39226 34.359 3.92822 49.1515C4.11553 54.3212 4.74008 59.5281 4.74008 64.7037V70.0569C18.6819 66.5714 31.7608 69.562 45.6881 72.2894C54.9112 74.0956 63.6582 76.5759 73.0376 75.9935C92.5769 74.7803 112.163 74.6465 131.694 73.2027C148.42 71.9663 164.76 69.9855 181.548 70.5134C201.43 71.1387 221.179 70.8689 241.042 70.3105C249.202 70.0811 257.398 70.3029 265.55 69.8538C273.613 69.4096 281.675 68.2913 289.702 67.7734M288.332 70.9701C288.717 50.5729 290.8 28.9092 287.927 8.55848C287.778 7.50889 287.419 6.71845 287.419 5.66624C263.543 6.81982 239.948 7.51334 216.077 7.08707C202.011 6.8359 187.928 7.03633 173.86 7.03633C152.638 7.03633 131.381 5.59369 110.307 3.10389C102.32 2.16025 94.5507 1.67631 86.484 2.24129C70.6679 3.34904 54.9093 6.52476 39.041 6.57966C31.5471 6.60559 24.0977 6.42052 16.6135 6.14836C11.7533 5.97163 6.86127 6.12299 2 6.12299" stroke="#BEB2A1" stroke-width="3" stroke-linecap="round"/>
<g filter="url(#filter0_b_18_208)">
<path d="M16.0182 45.7362C17.1881 34.6693 16.8102 27.132 18.2601 15.3038C18.4501 13.7535 17.8196 12.549 18.7718 11.3371C19.3998 10.538 20.0205 10.4432 21.0383 10.511C24.633 10.7507 28.2283 11.3638 31.8198 11.6548C58.4403 13.8122 85.1345 12.7116 111.781 14.0484C125.538 14.7386 138.774 14.5769 152.428 12.7563C165.399 11.0268 177.903 12.579 190.894 13.2011C208.321 14.0356 225.777 13.7524 243.213 14.1967C255.381 14.5067 266.886 14.2512 278.871 12.3347C278.187 32.8498 277.612 13.9627 277.612 35.1665C277.612 44.2087 278.221 50.2053 278.883 59.229C273.216 59.9846 267.659 61.0644 262.023 62.0038C254.409 63.2727 247.342 62.3305 239.74 61.5166C231.303 60.6133 222.825 59.9634 214.343 59.7161C204.118 59.418 194.17 60.8055 183.989 61.22C173.254 61.6571 162.637 60.9341 151.92 60.5846C140.313 60.2061 128.772 58.739 117.182 58.3817C107.222 58.0746 97.1716 60.537 87.2311 61.0294C63.0604 62.2267 38.8491 61.6991 14.6626 61.5166C14.6626 56.2077 15.4606 51.0104 16.0182 45.7362Z" fill="#D9D9D9" fill-opacity="0.01"/>
<path d="M278.883 11.9513C278.194 33.0838 277.612 13.8321 277.612 35.1665C277.612 44.2087 278.221 50.2053 278.883 59.229C273.216 59.9846 267.659 61.0644 262.023 62.0038C254.409 63.2727 247.342 62.3305 239.74 61.5166C231.303 60.6134 222.825 59.9634 214.343 59.7161C204.118 59.418 194.17 60.8055 183.989 61.22C173.254 61.6571 162.637 60.9341 151.92 60.5846C140.313 60.2061 128.772 58.739 117.182 58.3817C107.222 58.0746 97.1716 60.537 87.2311 61.0294C63.0604 62.2267 38.8491 61.6991 14.6626 61.5166C14.6626 56.2077 15.4606 51.0104 16.0182 45.7362C17.1881 34.6693 16.8102 27.132 18.2601 15.3038C18.4501 13.7535 17.8196 12.549 18.7718 11.3371C19.3998 10.538 20.0205 10.4432 21.0383 10.511C24.633 10.7507 28.2283 11.3638 31.8198 11.6548C58.4403 13.8122 85.1345 12.7116 111.781 14.0484C125.538 14.7386 138.774 14.5769 152.428 12.7563C165.399 11.0268 177.903 12.579 190.894 13.2011C208.321 14.0356 225.777 13.7524 243.213 14.1967C255.385 14.5068 266.894 14.251 278.883 12.3327" stroke="#BEB2A1" stroke-width="3" stroke-linecap="round"/>
</g>
<path d="M64.0244 29.3354C64.7487 29.2134 65.766 29.1768 67.0762 29.2256C68.3864 29.2663 69.1351 29.3639 69.3223 29.5186C69.485 29.6569 69.5827 29.8319 69.6152 30.0435C69.6478 30.255 69.6193 30.4707 69.5298 30.6904C69.4403 30.902 69.2938 31.1095 69.0903 31.313C68.895 31.5164 68.6631 31.6792 68.3945 31.8013C68.1911 31.8908 68.012 31.9884 67.8574 32.0942C67.7028 32.1919 67.6255 32.2611 67.6255 32.3018C67.6255 32.3424 67.4058 32.3953 66.9663 32.4604C66.5269 32.5174 65.9979 32.5662 65.3794 32.6069C64.7609 32.6395 64.2157 32.6842 63.7437 32.7412C63.2716 32.7982 63.0153 32.847 62.9746 32.8877C62.9339 32.9284 62.9258 33.1196 62.9502 33.4614C62.9827 33.7951 63.0438 34.1816 63.1333 34.6211C63.3286 35.679 63.4385 36.2935 63.4629 36.4644C63.471 36.5539 63.6257 36.619 63.9268 36.6597C64.236 36.6922 64.7487 36.7085 65.4648 36.7085C66.2461 36.7085 66.8524 36.7451 67.2837 36.8184C67.7231 36.8916 68.0568 37.0137 68.2847 37.1846C68.5125 37.3555 68.6834 37.6037 68.7974 37.9292C68.8869 38.1978 68.9235 38.3971 68.9072 38.5273C68.891 38.6494 68.8096 38.7959 68.6631 38.9668C68.3701 39.3005 68.0039 39.5446 67.5645 39.6992C67.125 39.8538 66.4862 39.9637 65.6479 40.0288C64.5656 40.1183 64.0244 40.2526 64.0244 40.4316C64.0244 40.4967 64.0407 40.5659 64.0732 40.6392C64.1139 40.7124 64.1587 40.7653 64.2075 40.7979C64.297 40.8467 64.3866 41.2983 64.4761 42.1528C64.5737 43.0073 64.6348 43.931 64.6592 44.9238C64.6673 45.3633 64.6429 45.7051 64.5859 45.9492C64.529 46.1934 64.415 46.4334 64.2441 46.6694C64.1221 46.8403 63.9959 46.9746 63.8657 47.0723C63.7355 47.1781 63.6379 47.2228 63.5728 47.2065C63.41 47.1577 63.1496 47.0926 62.7915 47.0112C62.6369 46.9787 62.4538 46.881 62.2422 46.7183C62.0306 46.5555 61.8516 46.3765 61.7051 46.1812C61.4447 45.8475 61.2819 45.5342 61.2168 45.2412C61.1598 44.9482 61.1191 44.3094 61.0947 43.3247C61.0378 41.3797 60.818 39.5405 60.4355 37.8071C59.9554 35.6668 59.6462 34.0026 59.5078 32.8145C59.4183 32.0169 59.3125 31.5042 59.1904 31.2764C59.0765 31.0404 59.1294 30.7555 59.3491 30.4219C59.4793 30.2266 59.6177 30.0964 59.7642 30.0312C59.9106 29.958 60.1385 29.9214 60.4478 29.9214C60.9686 29.9214 61.5098 29.8563 62.0713 29.7261C62.641 29.5877 63.292 29.4575 64.0244 29.3354ZM71.1289 29.1035C71.4463 28.7943 71.902 28.6844 72.4961 28.7739C73.0983 28.8553 73.5825 29.0994 73.9487 29.5063C74.3149 29.9132 74.5672 30.3893 74.7056 30.9346C74.8439 31.4717 74.848 31.9884 74.7178 32.4849C74.6201 32.8267 74.5509 33.8398 74.5103 35.5244C74.4777 37.2008 74.4818 38.8162 74.5225 40.3706C74.5713 41.9168 74.6445 42.7062 74.7422 42.7388C74.9049 42.7957 75.3566 42.7632 76.0972 42.6411C76.7157 42.5435 77.9771 42.5638 79.8813 42.7021C81.7938 42.8324 82.8314 42.9748 82.9941 43.1294C83.043 43.1782 83.1366 43.2189 83.2749 43.2515C83.4132 43.284 83.5516 43.3003 83.6899 43.3003C83.8446 43.3003 84.0195 43.3573 84.2148 43.4712C84.4183 43.577 84.5973 43.7153 84.752 43.8862C84.9717 44.1141 85.1141 44.3175 85.1792 44.4966C85.2443 44.6675 85.2646 44.9035 85.2402 45.2046C85.224 45.4162 85.1792 45.6074 85.106 45.7783C85.0409 45.9492 84.9676 46.055 84.8862 46.0957C84.6828 46.1934 84.3573 46.3602 83.9097 46.5962C83.6411 46.7345 83.3726 46.82 83.104 46.8525C82.8436 46.8851 82.4611 46.881 81.9565 46.8403C81.6066 46.8078 81.2648 46.7549 80.9312 46.6816C80.6056 46.6165 80.3859 46.5514 80.272 46.4863C80.036 46.3561 79.3564 46.3114 78.2334 46.3521C77.1104 46.3927 76.1989 46.4904 75.499 46.645C74.9049 46.7834 74.2702 46.8932 73.5947 46.9746C73.139 47.0316 72.8135 47.0316 72.6182 46.9746C72.4229 46.9176 72.134 46.7467 71.7515 46.4619C71.5236 46.2829 71.3242 46.0998 71.1533 45.9126C70.9906 45.7336 70.9092 45.6034 70.9092 45.522C70.9092 45.3348 70.8034 45.1191 70.5918 44.875C70.4453 44.7204 70.368 44.4437 70.3599 44.0449C70.3517 43.6462 70.3965 42.7388 70.4941 41.3228C70.7139 38.2384 70.8359 36.1348 70.8604 35.0117C70.8848 33.8805 70.8319 32.9243 70.7017 32.1431C70.5633 31.2804 70.5226 30.6375 70.5796 30.2144C70.6366 29.783 70.8197 29.4128 71.1289 29.1035ZM87.3398 29.3721C87.4212 29.307 87.5189 29.2703 87.6328 29.2622C87.7467 29.2459 87.8525 29.2581 87.9502 29.2988C88.6175 29.6325 89.1139 29.9132 89.4395 30.1411C89.765 30.3608 90.0661 30.6294 90.3428 30.9468L90.9653 31.6426L90.7456 33.2295L90.416 35.793C90.3265 36.444 90.3265 37.6281 90.416 39.3452C90.5137 41.2251 90.7334 42.6004 91.0752 43.4712C91.417 44.342 91.9053 44.7651 92.54 44.7407C92.8981 44.7326 93.7729 44.4396 95.1646 43.8618C96.5562 43.284 97.4961 42.8242 97.9844 42.4824C98.3913 42.1976 98.7534 41.7012 99.0708 40.9932C99.3963 40.277 99.6201 39.4836 99.7422 38.6128C99.8724 37.7339 99.8765 36.9323 99.7544 36.208L99.3638 33.9375C99.2254 33.1562 99.1644 32.5418 99.1807 32.0942C99.2051 31.6466 99.3149 31.2235 99.5103 30.8247C99.5754 30.6864 99.6201 30.5887 99.6445 30.5317C99.6771 30.4666 99.7218 30.4015 99.7788 30.3364C99.8358 30.2713 99.8805 30.2306 99.9131 30.2144C99.9456 30.1981 100.007 30.1859 100.096 30.1777C100.194 30.1696 100.283 30.1696 100.365 30.1777C100.446 30.1859 100.572 30.2021 100.743 30.2266C100.971 30.2591 101.122 30.2795 101.195 30.2876C101.276 30.2957 101.382 30.3324 101.512 30.3975C101.651 30.4544 101.732 30.4951 101.756 30.5195C101.789 30.5439 101.858 30.6294 101.964 30.7759C102.078 30.9224 102.159 31.0444 102.208 31.1421C102.257 31.2397 102.359 31.431 102.513 31.7158C103.099 32.8063 103.53 34.1043 103.807 35.6099C104.084 37.1154 104.141 38.446 103.978 39.6016C103.872 40.3014 103.644 41.2373 103.294 42.4092C102.944 43.5729 102.7 44.2036 102.562 44.3013C102.464 44.3664 102.245 44.6593 101.903 45.1802C101.626 45.5952 101.097 46.0835 100.316 46.645C99.5347 47.2065 98.9854 47.4914 98.668 47.4995C98.3994 47.5076 98.0576 47.6257 97.6426 47.8535C96.8613 48.2848 96.2713 48.5778 95.8726 48.7324C95.4738 48.8952 94.953 49.0457 94.3101 49.1841C93.4067 49.3875 92.8289 49.4201 92.5767 49.2817C92.3244 49.1515 92.0924 49.0864 91.8809 49.0864C91.6611 49.0864 91.181 48.8382 90.4404 48.3418C89.6999 47.8535 89.1668 47.4263 88.8413 47.0601L87.7549 45.876C87.2666 45.347 86.9126 44.6268 86.6929 43.7153C86.4731 42.7957 86.2778 41.2251 86.1069 39.0034C86.0256 37.8315 85.9849 36.9526 85.9849 36.3667C85.9849 35.7726 86.0378 35.2233 86.1436 34.7188C86.3063 33.848 86.3918 32.9569 86.3999 32.0454C86.408 31.3618 86.4854 30.8166 86.6318 30.4097C86.7783 29.9946 87.0143 29.6488 87.3398 29.3721ZM114.769 27.6509C114.964 27.3579 115.221 27.1911 115.538 27.1504C115.864 27.1016 116.307 27.1748 116.869 27.3701C117.406 27.5573 117.849 27.8421 118.199 28.2246C118.549 28.6071 118.773 29.0465 118.871 29.543C118.993 30.1696 119.05 31.5937 119.042 33.8154C119.042 36.029 118.976 37.5264 118.846 38.3076C118.716 39.1702 118.59 40.334 118.468 41.7988C118.386 42.8893 118.252 43.7886 118.065 44.4966C117.886 45.1965 117.695 45.583 117.491 45.6562C117.426 45.6807 117.373 45.7254 117.333 45.7905C117.292 45.8556 117.271 45.9248 117.271 45.998C117.271 46.3317 116.824 46.4985 115.929 46.4985C115.709 46.4985 115.367 46.3887 114.903 46.1689C114.439 45.9574 114.016 45.7214 113.634 45.4609C113.259 45.2005 113.072 45.0052 113.072 44.875C113.072 44.7611 113.003 44.7041 112.865 44.7041C112.735 44.7041 112.438 44.4518 111.974 43.9473C111.518 43.4427 111.286 43.1131 111.278 42.9585C111.278 42.8934 111.249 42.8242 111.192 42.751C111.144 42.6696 111.087 42.6086 111.021 42.5679C110.948 42.519 110.842 42.3888 110.704 42.1772C110.566 41.9575 110.431 41.7215 110.301 41.4692C109.976 40.7856 109.744 40.4398 109.605 40.4316C109.451 40.4316 109.353 40.9077 109.312 41.8599C109.288 42.3563 109.276 43.0887 109.276 44.0571C109.276 44.7896 109.264 45.3796 109.239 45.8271C109.223 46.2829 109.186 46.6532 109.129 46.938C109.081 47.2228 109.011 47.4181 108.922 47.5239C108.84 47.6379 108.735 47.6948 108.604 47.6948C108.523 47.6948 108.446 47.7152 108.373 47.7559C108.307 47.7965 108.267 47.8494 108.25 47.9146C108.218 47.9959 108.12 48.0407 107.958 48.0488C107.795 48.0651 107.595 48.0407 107.359 47.9756C107.132 47.9186 106.891 47.8413 106.639 47.7437C106.395 47.6541 106.159 47.5402 105.931 47.4019C105.711 47.2716 105.545 47.1414 105.431 47.0112C105.073 46.6125 104.894 46.3439 104.894 46.2056C104.894 46.0672 104.877 43.1375 104.845 37.4165L104.808 28.8228L105.992 28.835C106.855 28.8512 107.49 28.9896 107.896 29.25C108.303 29.5023 108.69 30.019 109.056 30.8003C109.455 31.6548 109.907 32.4727 110.411 33.2539C110.924 34.027 111.392 34.8286 111.815 35.6587C112.971 37.8885 113.703 39.158 114.012 39.4673C114.134 39.5894 114.212 39.5812 114.244 39.4429C114.269 39.3371 114.285 39.1133 114.293 38.7715C114.309 38.1286 114.382 36.9445 114.513 35.2192C114.635 33.6323 114.704 32.2407 114.72 31.0444C114.736 29.84 114.692 29.0588 114.586 28.7007C114.48 28.3426 114.541 27.9927 114.769 27.6509ZM129.967 28.7617C130.178 28.5339 130.386 28.3996 130.589 28.3589C130.793 28.3101 130.943 28.367 131.041 28.5298C131.074 28.5786 131.159 28.6234 131.297 28.6641C131.436 28.7048 131.578 28.7251 131.725 28.7251C132.091 28.7251 132.457 28.9204 132.823 29.311C133.189 29.6935 133.409 30.1167 133.482 30.5806C133.539 30.9061 133.527 31.1665 133.446 31.3618C133.373 31.549 133.169 31.8501 132.835 32.2651C132.217 33.0301 131.46 33.8643 130.565 34.7676C129.67 35.6628 129.08 36.1836 128.795 36.3301C128.355 36.5579 127.936 36.8387 127.538 37.1724C127.147 37.506 126.952 37.7461 126.952 37.8926C126.952 38.0635 127.057 38.2751 127.269 38.5273C127.481 38.7796 127.656 38.9058 127.794 38.9058C127.851 38.9058 128.128 39.1418 128.624 39.6138C129.129 40.0858 129.715 40.6554 130.382 41.3228C132.66 43.6421 133.678 45.1191 133.434 45.7539C133.36 45.9329 133.157 46.0998 132.823 46.2544C132.498 46.4172 132.184 46.4985 131.883 46.4985C131.509 46.4985 130.886 46.1608 130.016 45.4854C129.145 44.818 128.299 44.0246 127.477 43.105C127.013 42.5841 126.321 41.8883 125.401 41.0176C124.49 40.1468 123.989 39.7114 123.9 39.7114C123.859 39.7033 123.819 40.1712 123.778 41.1152C123.745 42.0511 123.725 43.0317 123.717 44.0571C123.709 45.0825 123.717 45.937 123.741 46.6206C123.757 46.8566 123.737 47.0316 123.68 47.1455C123.631 47.2594 123.534 47.3408 123.387 47.3896C123.281 47.4222 123.18 47.4792 123.082 47.5605C122.984 47.6419 122.919 47.7274 122.887 47.8169C122.805 48.0285 122.569 48.118 122.179 48.0854C121.788 48.061 121.471 47.9349 121.227 47.707C120.934 47.4303 120.718 47.292 120.58 47.292C120.514 47.292 120.462 47.2635 120.421 47.2065C120.38 47.1577 120.36 47.0926 120.36 47.0112C120.36 46.938 120.327 46.8607 120.262 46.7793C120.205 46.7061 120.128 46.6532 120.03 46.6206C119.949 46.5881 119.892 46.5148 119.859 46.4009C119.827 46.2869 119.802 45.9736 119.786 45.4609C119.77 44.9401 119.766 44.2972 119.774 43.5322C119.79 42.7673 119.819 41.5791 119.859 39.9678C119.9 38.1693 119.953 36.5986 120.018 35.2559C120.083 33.9049 120.14 33.1847 120.189 33.0952C120.238 32.9976 120.278 32.7534 120.311 32.3628C120.344 31.9722 120.36 31.5531 120.36 31.1055C120.36 30.5846 120.376 30.1818 120.409 29.897C120.449 29.604 120.527 29.3639 120.641 29.1768C120.755 28.9896 120.901 28.8675 121.08 28.8105C121.259 28.7536 121.507 28.7251 121.825 28.7251C122.28 28.7251 122.732 28.8512 123.18 29.1035C123.635 29.3558 123.961 29.661 124.156 30.019C124.27 30.2388 124.331 30.4707 124.339 30.7148C124.347 30.9508 124.299 31.3577 124.193 31.9355C124.095 32.4971 124.026 33.0057 123.985 33.4614C123.953 33.9172 123.949 34.2752 123.973 34.5356C124.006 34.7879 124.067 34.9141 124.156 34.9141C124.221 34.9141 124.282 34.8856 124.339 34.8286C124.404 34.7716 124.453 34.6984 124.486 34.6089C124.518 34.5194 124.632 34.3973 124.828 34.2427C125.023 34.0799 125.239 33.9253 125.475 33.7788C125.808 33.5916 126.305 33.1847 126.964 32.5581C127.623 31.9233 128.217 31.3008 128.746 30.6904C129.283 30.0801 129.552 29.6976 129.552 29.543C129.552 29.4535 129.592 29.3314 129.674 29.1768C129.755 29.0221 129.853 28.8838 129.967 28.7617ZM148.155 28.2368C149.124 28.0334 149.84 27.9723 150.304 28.0537C150.776 28.1351 151.223 28.3996 151.646 28.8472C151.834 29.0425 151.996 29.25 152.135 29.4697C152.273 29.6895 152.342 29.8481 152.342 29.9458C152.342 30.0435 152.363 30.1411 152.403 30.2388C152.444 30.3283 152.493 30.3893 152.55 30.4219C152.672 30.5033 152.745 30.6172 152.77 30.7637C152.794 30.902 152.765 31.0485 152.684 31.2031C152.611 31.3496 152.509 31.4961 152.379 31.6426C152.257 31.7809 152.102 31.8949 151.915 31.9844C151.736 32.0739 151.553 32.1227 151.366 32.1309C150.405 32.1471 149.457 32.2814 148.521 32.5337C147.594 32.7778 147.085 33.026 146.996 33.2783C146.971 33.3597 147.028 33.4167 147.167 33.4492C147.37 33.498 147.87 33.5143 148.668 33.498C149.701 33.4655 150.735 33.498 151.769 33.5957C152.81 33.6934 153.372 33.8073 153.453 33.9375C153.526 34.0596 153.718 34.1206 154.027 34.1206C154.279 34.1206 154.706 34.263 155.309 34.5479C155.919 34.8245 156.476 35.1338 156.981 35.4756C157.486 35.8092 157.738 36.0493 157.738 36.1958C157.738 36.2609 157.909 36.4766 158.25 36.8428C158.381 36.9893 158.507 37.1724 158.629 37.3921C158.759 37.6118 158.84 37.799 158.873 37.9536C158.906 38.1001 158.95 38.2425 159.007 38.3809C159.072 38.5111 159.129 38.5924 159.178 38.625C159.398 38.7633 159.406 39.2679 159.203 40.1387C159.007 41.0094 158.706 41.7785 158.299 42.4458C157.99 42.9504 157.746 43.3695 157.567 43.7031C157.494 43.8415 157.351 44.0164 157.14 44.228C156.936 44.4396 156.725 44.6309 156.505 44.8018C155.984 45.2005 155.642 45.4691 155.479 45.6074C155.268 45.7865 154.881 46.0103 154.32 46.2788C153.758 46.5555 153.4 46.6938 153.246 46.6938C153.164 46.6938 153.091 46.7101 153.026 46.7427C152.969 46.7752 152.94 46.8118 152.94 46.8525C152.94 47.0072 152.517 47.1862 151.671 47.3896C150.833 47.5931 150.104 47.6948 149.486 47.6948C149.136 47.6948 148.786 47.7233 148.436 47.7803C148.094 47.8372 147.838 47.9105 147.667 48C147.219 48.236 146.576 48.3337 145.738 48.293C144.9 48.2523 144.107 48.0854 143.358 47.7925C143.008 47.6541 142.65 47.5361 142.284 47.4385C141.926 47.3408 141.673 47.292 141.527 47.292C141.356 47.292 141.218 47.2676 141.112 47.2187C141.014 47.1699 140.965 47.1007 140.965 47.0112C140.965 46.938 140.933 46.8607 140.868 46.7793C140.811 46.7061 140.742 46.6532 140.66 46.6206C140.522 46.5718 140.428 46.3927 140.379 46.0835C140.331 45.7824 140.339 45.4528 140.404 45.0947C140.477 44.7367 140.587 44.464 140.733 44.2769C140.807 44.1873 140.86 44.1263 140.892 44.0937C140.925 44.0531 140.982 44.0164 141.063 43.9839C141.144 43.9432 141.209 43.9188 141.258 43.9106C141.315 43.9025 141.429 43.9066 141.6 43.9229C141.771 43.931 141.926 43.9473 142.064 43.9717C142.21 43.9961 142.451 44.0327 142.784 44.0815C143.24 44.1548 143.761 44.2077 144.347 44.2402C144.933 44.2728 145.401 44.2769 145.75 44.2524C146.694 44.1792 147.716 44.0205 148.814 43.7764C149.921 43.5322 150.658 43.3003 151.024 43.0806C151.439 42.8283 151.764 42.6615 152 42.5801C152.098 42.5475 152.18 42.5028 152.245 42.4458C152.31 42.3888 152.342 42.3359 152.342 42.2871C152.342 42.2383 152.371 42.1976 152.428 42.165C152.485 42.1243 152.554 42.104 152.635 42.104C152.717 42.104 152.822 42.0511 152.953 41.9453C153.091 41.8314 153.217 41.7012 153.331 41.5547C153.608 41.1885 153.811 40.9281 153.941 40.7734C154.072 40.6107 154.137 40.4642 154.137 40.334C154.137 40.2852 154.165 40.2323 154.222 40.1753C154.287 40.1102 154.361 40.0614 154.442 40.0288C154.67 39.9393 154.763 39.7277 154.723 39.394C154.69 39.0522 154.544 38.8081 154.283 38.6616C153.95 38.4663 153.258 38.271 152.208 38.0757C151.158 37.8722 150.576 37.8234 150.462 37.9292C150.357 38.035 150.051 38.0838 149.547 38.0757C149.042 38.0594 148.509 38.0187 147.948 37.9536C147.386 37.8804 146.878 37.7827 146.422 37.6606C145.974 37.5304 145.75 37.4084 145.75 37.2944C145.75 37.2456 145.71 37.2049 145.628 37.1724C145.547 37.1317 145.453 37.1113 145.348 37.1113C145.234 37.1113 145.079 37.0544 144.884 36.9404C144.697 36.8265 144.522 36.6841 144.359 36.5132C143.976 36.1144 143.744 35.915 143.663 35.915C143.484 35.915 143.293 35.7645 143.089 35.4634C142.894 35.1623 142.723 34.792 142.577 34.3525C142.438 33.9049 142.324 33.4574 142.235 33.0098C142.145 32.554 142.117 32.1553 142.149 31.8135C142.182 31.4717 142.28 31.2682 142.442 31.2031C142.532 31.1706 142.605 31.1258 142.662 31.0688C142.727 31.0119 142.76 30.9549 142.76 30.8979C142.76 30.8003 142.886 30.6131 143.138 30.3364C143.39 30.0597 143.565 29.9214 143.663 29.9214C143.728 29.9214 144.021 29.7505 144.542 29.4087C144.949 29.1483 145.368 28.9489 145.799 28.8105C146.239 28.6641 147.024 28.4728 148.155 28.2368ZM170.274 28.7617C170.486 28.5339 170.694 28.3996 170.897 28.3589C171.1 28.3101 171.251 28.367 171.349 28.5298C171.381 28.5786 171.467 28.6234 171.605 28.6641C171.743 28.7048 171.886 28.7251 172.032 28.7251C172.398 28.7251 172.765 28.9204 173.131 29.311C173.497 29.6935 173.717 30.1167 173.79 30.5806C173.847 30.9061 173.835 31.1665 173.753 31.3618C173.68 31.549 173.477 31.8501 173.143 32.2651C172.525 33.0301 171.768 33.8643 170.873 34.7676C169.977 35.6628 169.387 36.1836 169.103 36.3301C168.663 36.5579 168.244 36.8387 167.845 37.1724C167.455 37.506 167.259 37.7461 167.259 37.8926C167.259 38.0635 167.365 38.2751 167.577 38.5273C167.788 38.7796 167.963 38.9058 168.102 38.9058C168.159 38.9058 168.435 39.1418 168.932 39.6138C169.436 40.0858 170.022 40.6554 170.689 41.3228C172.968 43.6421 173.985 45.1191 173.741 45.7539C173.668 45.9329 173.465 46.0998 173.131 46.2544C172.805 46.4172 172.492 46.4985 172.191 46.4985C171.817 46.4985 171.194 46.1608 170.323 45.4854C169.452 44.818 168.606 44.0246 167.784 43.105C167.32 42.5841 166.629 41.8883 165.709 41.0176C164.798 40.1468 164.297 39.7114 164.208 39.7114C164.167 39.7033 164.126 40.1712 164.085 41.1152C164.053 42.0511 164.033 43.0317 164.024 44.0571C164.016 45.0825 164.024 45.937 164.049 46.6206C164.065 46.8566 164.045 47.0316 163.988 47.1455C163.939 47.2594 163.841 47.3408 163.695 47.3896C163.589 47.4222 163.487 47.4792 163.39 47.5605C163.292 47.6419 163.227 47.7274 163.194 47.8169C163.113 48.0285 162.877 48.118 162.486 48.0854C162.096 48.061 161.778 47.9349 161.534 47.707C161.241 47.4303 161.026 47.292 160.887 47.292C160.822 47.292 160.769 47.2635 160.729 47.2065C160.688 47.1577 160.667 47.0926 160.667 47.0112C160.667 46.938 160.635 46.8607 160.57 46.7793C160.513 46.7061 160.436 46.6532 160.338 46.6206C160.257 46.5881 160.2 46.5148 160.167 46.4009C160.134 46.2869 160.11 45.9736 160.094 45.4609C160.077 44.9401 160.073 44.2972 160.082 43.5322C160.098 42.7673 160.126 41.5791 160.167 39.9678C160.208 38.1693 160.261 36.5986 160.326 35.2559C160.391 33.9049 160.448 33.1847 160.497 33.0952C160.545 32.9976 160.586 32.7534 160.619 32.3628C160.651 31.9722 160.667 31.5531 160.667 31.1055C160.667 30.5846 160.684 30.1818 160.716 29.897C160.757 29.604 160.834 29.3639 160.948 29.1768C161.062 28.9896 161.209 28.8675 161.388 28.8105C161.567 28.7536 161.815 28.7251 162.132 28.7251C162.588 28.7251 163.04 28.8512 163.487 29.1035C163.943 29.3558 164.269 29.661 164.464 30.019C164.578 30.2388 164.639 30.4707 164.647 30.7148C164.655 30.9508 164.606 31.3577 164.5 31.9355C164.403 32.4971 164.334 33.0057 164.293 33.4614C164.26 33.9172 164.256 34.2752 164.281 34.5356C164.313 34.7879 164.374 34.9141 164.464 34.9141C164.529 34.9141 164.59 34.8856 164.647 34.8286C164.712 34.7716 164.761 34.6984 164.793 34.6089C164.826 34.5194 164.94 34.3973 165.135 34.2427C165.331 34.0799 165.546 33.9253 165.782 33.7788C166.116 33.5916 166.612 33.1847 167.271 32.5581C167.931 31.9233 168.525 31.3008 169.054 30.6904C169.591 30.0801 169.859 29.6976 169.859 29.543C169.859 29.4535 169.9 29.3314 169.981 29.1768C170.063 29.0221 170.16 28.8838 170.274 28.7617ZM182.713 29.9702C183.177 29.8563 183.828 29.8888 184.667 30.0679C185.505 30.2388 186.351 30.5236 187.206 30.9224C188.084 31.3211 188.569 31.5205 188.658 31.5205C188.756 31.5205 189.037 31.7362 189.5 32.1675C189.696 32.3465 189.911 32.5215 190.147 32.6924C190.383 32.8633 190.567 32.9813 190.697 33.0464C190.998 33.1766 191.275 33.616 191.527 34.3647C191.779 35.1053 191.905 35.854 191.905 36.6108C191.905 37.1724 191.799 37.9048 191.588 38.8081C191.384 39.7114 191.193 40.277 191.014 40.5049C190.86 40.7083 190.705 40.9891 190.55 41.3472C190.404 41.6971 189.891 42.3319 189.012 43.2515C188.141 44.1711 187.527 44.7244 187.169 44.9116C186.795 45.0988 186.323 45.3836 185.753 45.7661C185.517 45.9207 185.22 46.0794 184.862 46.2422C184.512 46.4131 184.211 46.5392 183.958 46.6206C183.421 46.7834 182.681 46.881 181.737 46.9136C180.801 46.9461 180.243 46.8932 180.064 46.7549C179.902 46.6328 179.548 46.4863 179.002 46.3154C178.775 46.2422 178.445 46.0876 178.014 45.8516C177.59 45.6237 177.192 45.3796 176.817 45.1191C176.207 44.7041 175.8 44.3786 175.597 44.1426C175.393 43.9066 175.182 43.5241 174.962 42.9951C174.775 42.515 174.653 42.1203 174.596 41.811C174.547 41.5018 174.543 41.1112 174.583 40.6392C174.616 40.3136 174.661 40.0166 174.718 39.748C174.783 39.4714 174.844 39.3045 174.901 39.2476C174.966 39.1906 175.019 39.097 175.06 38.9668C175.108 38.8366 175.133 38.7104 175.133 38.5884C175.133 38.4663 175.19 38.2466 175.304 37.9292C175.426 37.6037 175.568 37.2741 175.731 36.9404C176.13 36.1348 176.329 35.6587 176.329 35.5122C176.329 35.2762 176.594 34.7513 177.123 33.9375C177.66 33.1156 178.156 32.4686 178.612 31.9966C178.905 31.7036 179.507 31.3293 180.418 30.8735C181.338 30.4178 182.103 30.1167 182.713 29.9702ZM186.949 34.5967C186.534 34.1816 186.058 33.9172 185.521 33.8032C184.992 33.6812 184.451 33.7178 183.897 33.9131C183.393 34.0921 182.982 34.2671 182.665 34.438C182.347 34.6089 182.042 34.8449 181.749 35.146C181.456 35.4471 181.192 35.797 180.956 36.1958C180.728 36.5946 180.455 37.1317 180.138 37.8071L179.491 39.1621C179.377 39.39 179.32 39.5975 179.32 39.7847C179.32 39.9718 179.218 40.2607 179.015 40.6514C178.681 41.2943 178.644 41.7988 178.905 42.165C179.173 42.5231 179.71 42.7021 180.516 42.7021C180.882 42.7021 181.354 42.6126 181.932 42.4336C182.51 42.2464 183.019 42.0308 183.458 41.7866C183.897 41.5425 184.117 41.3431 184.117 41.1885C184.117 41.1071 184.142 41.042 184.19 40.9932C184.239 40.9362 184.3 40.9077 184.374 40.9077C184.569 40.9077 184.976 40.57 185.594 39.8945C186.213 39.2191 186.632 38.6576 186.852 38.21C186.965 37.9902 187.071 37.6932 187.169 37.3188C187.275 36.9445 187.348 36.6027 187.389 36.2935C187.454 35.7645 187.466 35.4186 187.425 35.2559C187.385 35.0931 187.226 34.8734 186.949 34.5967ZM200.804 29.9702C201.268 29.8563 201.919 29.8888 202.757 30.0679C203.596 30.2388 204.442 30.5236 205.296 30.9224C206.175 31.3211 206.66 31.5205 206.749 31.5205C206.847 31.5205 207.127 31.7362 207.591 32.1675C207.787 32.3465 208.002 32.5215 208.238 32.6924C208.474 32.8633 208.657 32.9813 208.788 33.0464C209.089 33.1766 209.365 33.616 209.618 34.3647C209.87 35.1053 209.996 35.854 209.996 36.6108C209.996 37.1724 209.89 37.9048 209.679 38.8081C209.475 39.7114 209.284 40.277 209.105 40.5049C208.95 40.7083 208.796 40.9891 208.641 41.3472C208.495 41.6971 207.982 42.3319 207.103 43.2515C206.232 44.1711 205.618 44.7244 205.26 44.9116C204.885 45.0988 204.413 45.3836 203.844 45.7661C203.608 45.9207 203.311 46.0794 202.953 46.2422C202.603 46.4131 202.302 46.5392 202.049 46.6206C201.512 46.7834 200.772 46.881 199.828 46.9136C198.892 46.9461 198.334 46.8932 198.155 46.7549C197.993 46.6328 197.639 46.4863 197.093 46.3154C196.865 46.2422 196.536 46.0876 196.104 45.8516C195.681 45.6237 195.283 45.3796 194.908 45.1191C194.298 44.7041 193.891 44.3786 193.688 44.1426C193.484 43.9066 193.272 43.5241 193.053 42.9951C192.866 42.515 192.743 42.1203 192.687 41.811C192.638 41.5018 192.634 41.1112 192.674 40.6392C192.707 40.3136 192.752 40.0166 192.809 39.748C192.874 39.4714 192.935 39.3045 192.992 39.2476C193.057 39.1906 193.11 39.097 193.15 38.9668C193.199 38.8366 193.224 38.7104 193.224 38.5884C193.224 38.4663 193.281 38.2466 193.395 37.9292C193.517 37.6037 193.659 37.2741 193.822 36.9404C194.221 36.1348 194.42 35.6587 194.42 35.5122C194.42 35.2762 194.684 34.7513 195.213 33.9375C195.75 33.1156 196.247 32.4686 196.703 31.9966C196.996 31.7036 197.598 31.3293 198.509 30.8735C199.429 30.4178 200.194 30.1167 200.804 29.9702ZM205.04 34.5967C204.625 34.1816 204.149 33.9172 203.612 33.8032C203.083 33.6812 202.542 33.7178 201.988 33.9131C201.484 34.0921 201.073 34.2671 200.755 34.438C200.438 34.6089 200.133 34.8449 199.84 35.146C199.547 35.4471 199.282 35.797 199.046 36.1958C198.819 36.5946 198.546 37.1317 198.229 37.8071L197.582 39.1621C197.468 39.39 197.411 39.5975 197.411 39.7847C197.411 39.9718 197.309 40.2607 197.105 40.6514C196.772 41.2943 196.735 41.7988 196.996 42.165C197.264 42.5231 197.801 42.7021 198.607 42.7021C198.973 42.7021 199.445 42.6126 200.023 42.4336C200.601 42.2464 201.109 42.0308 201.549 41.7866C201.988 41.5425 202.208 41.3431 202.208 41.1885C202.208 41.1071 202.232 41.042 202.281 40.9932C202.33 40.9362 202.391 40.9077 202.464 40.9077C202.66 40.9077 203.067 40.57 203.685 39.8945C204.304 39.2191 204.723 38.6576 204.942 38.21C205.056 37.9902 205.162 37.6932 205.26 37.3188C205.366 36.9445 205.439 36.6027 205.479 36.2935C205.545 35.7645 205.557 35.4186 205.516 35.2559C205.475 35.0931 205.317 34.8734 205.04 34.5967ZM211.51 29.1035C211.827 28.7943 212.283 28.6844 212.877 28.7739C213.479 28.8553 213.963 29.0994 214.33 29.5063C214.696 29.9132 214.948 30.3893 215.086 30.9346C215.225 31.4717 215.229 31.9884 215.099 32.4849C215.001 32.8267 214.932 33.8398 214.891 35.5244C214.859 37.2008 214.863 38.8162 214.903 40.3706C214.952 41.9168 215.025 42.7062 215.123 42.7388C215.286 42.7957 215.737 42.7632 216.478 42.6411C217.097 42.5435 218.358 42.5638 220.262 42.7021C222.175 42.8324 223.212 42.9748 223.375 43.1294C223.424 43.1782 223.517 43.2189 223.656 43.2515C223.794 43.284 223.932 43.3003 224.071 43.3003C224.225 43.3003 224.4 43.3573 224.596 43.4712C224.799 43.577 224.978 43.7153 225.133 43.8862C225.353 44.1141 225.495 44.3175 225.56 44.4966C225.625 44.6675 225.646 44.9035 225.621 45.2046C225.605 45.4162 225.56 45.6074 225.487 45.7783C225.422 45.9492 225.348 46.055 225.267 46.0957C225.064 46.1934 224.738 46.3602 224.291 46.5962C224.022 46.7345 223.753 46.82 223.485 46.8525C223.224 46.8851 222.842 46.881 222.337 46.8403C221.987 46.8078 221.646 46.7549 221.312 46.6816C220.986 46.6165 220.767 46.5514 220.653 46.4863C220.417 46.3561 219.737 46.3114 218.614 46.3521C217.491 46.3927 216.58 46.4904 215.88 46.645C215.286 46.7834 214.651 46.8932 213.976 46.9746C213.52 47.0316 213.194 47.0316 212.999 46.9746C212.804 46.9176 212.515 46.7467 212.132 46.4619C211.904 46.2829 211.705 46.0998 211.534 45.9126C211.371 45.7336 211.29 45.6034 211.29 45.522C211.29 45.3348 211.184 45.1191 210.973 44.875C210.826 44.7204 210.749 44.4437 210.741 44.0449C210.733 43.6462 210.777 42.7388 210.875 41.3228C211.095 38.2384 211.217 36.1348 211.241 35.0117C211.266 33.8805 211.213 32.9243 211.083 32.1431C210.944 31.2804 210.903 30.6375 210.96 30.2144C211.017 29.783 211.201 29.4128 211.51 29.1035Z" fill="#BEB2A1"/>
<defs>
<filter id="filter0_b_18_208" x="6.16257" y="1.99292" width="281.32" height="69.1304" filterUnits="userSpaceOnUse" color-interpolation-filters="sRGB">
<feFlood flood-opacity="0" result="BackgroundImageFix"/>
<feGaussianBlur in="BackgroundImageFix" stdDeviation="3.5"/>
<feComposite in2="SourceAlpha" operator="in" result="effect1_backgroundBlur_18_208"/>
<feBlend mode="normal" in="SourceGraphic" in2="effect1_backgroundBlur_18_208" result="shape"/>
</filter>
</defs>
</svg>
