<svg width="401" height="162" viewBox="0 0 401 162" fill="none" xmlns="http://www.w3.org/2000/svg">
<path d="M16.6588 3.87459C13.8772 23.7072 10.8901 43.5194 8.40404 63.3921C7.53521 70.3372 7.24231 77.4266 6.12205 84.339L4.96334 91.4886C24.3383 89.8512 41.1589 96.6763 59.1696 103.334C71.0968 107.742 82.2423 112.948 94.8953 114.201C121.254 116.81 147.442 120.87 173.84 123.17C196.447 125.139 218.699 126.03 241.005 130.369C267.425 135.507 293.859 139.422 320.508 142.975C331.456 144.435 342.356 146.506 353.34 147.67C364.205 148.822 375.215 149.074 386.048 150.12M383.526 154.092C388.455 126.934 395.927 98.451 396.493 70.6488C396.523 69.2149 396.214 68.0815 396.442 66.6761C364.304 63.0489 332.64 58.8678 300.851 53.1316C282.119 49.7516 263.267 46.971 244.478 43.926C216.134 39.3324 188.056 32.8045 160.449 24.9176C149.985 21.9284 139.714 19.6005 128.818 18.609C107.454 16.6651 85.7201 17.4955 64.5149 14.1341C54.5005 12.5467 44.5912 10.687 34.6543 8.70359C28.2014 7.41556 21.635 6.55882 15.1424 5.50659" stroke="white" stroke-width="3" stroke-linecap="round"/>
<g filter="url(#filter0_b_22_267)">
<path d="M25.2905 61.4475C29.2485 46.92 30.3752 36.7716 34.8718 21.2877C35.4612 19.2583 34.8799 17.5132 36.4139 16.1007C37.4256 15.1693 38.2751 15.1771 39.6198 15.488C44.3689 16.5862 49.0381 18.1832 53.7718 19.3493C88.8587 27.9928 124.749 32.3008 160.048 39.8538C178.273 43.7535 195.985 46.4024 214.616 46.9264C232.314 47.4242 248.678 52.2038 265.894 55.8466C288.988 60.7331 312.364 64.1333 335.555 68.5007C351.738 71.5484 367.16 73.6975 383.581 73.732C378.228 100.984 381.548 75.634 376.959 103.953C375.002 116.03 374.516 124.171 373.448 136.366C365.715 136.148 358.059 136.388 350.328 136.422C339.885 136.469 330.65 133.681 320.673 130.948C309.601 127.916 298.419 125.213 287.143 123.047C273.552 120.435 259.965 120.135 246.278 118.485C231.846 116.745 217.823 113.481 203.585 110.695C188.165 107.677 173.068 103.22 157.666 100.234C144.43 97.6677 130.474 98.781 117.091 97.287C84.5498 93.6543 52.3278 87.709 20.0642 82.23C21.2133 75.1396 23.4042 68.371 25.2905 61.4475Z" fill="#D9D9D9" fill-opacity="0.01"/>
<path d="M383.681 73.2227C378.187 101.298 381.577 75.4596 376.959 103.953C375.002 116.03 374.516 124.171 373.448 136.366C365.715 136.148 358.059 136.388 350.328 136.422C339.885 136.469 330.65 133.681 320.673 130.948C309.601 127.916 298.419 125.213 287.143 123.047C273.552 120.435 259.965 120.135 246.278 118.485C231.846 116.745 217.823 113.481 203.585 110.695C188.165 107.677 173.068 103.22 157.666 100.234C144.43 97.6677 130.474 98.781 117.091 97.287C84.5498 93.6543 52.3278 87.709 20.0642 82.23C21.2133 75.1396 23.4042 68.371 25.2905 61.4475C29.2485 46.92 30.3752 36.7716 34.8718 21.2877C35.4612 19.2583 34.8799 17.5132 36.4139 16.1007C37.4256 15.1693 38.2751 15.1771 39.6198 15.488C44.3689 16.5862 49.0381 18.1832 53.7718 19.3493C88.8587 27.9928 124.749 32.3008 160.048 39.8538C178.273 43.7535 195.985 46.4024 214.616 46.9264C232.314 47.4242 248.678 52.2038 265.894 55.8466C288.988 60.7331 312.364 64.1333 335.555 68.5007C351.744 71.5495 367.17 73.699 383.599 73.7321" stroke="white" stroke-width="3" stroke-linecap="round"/>
</g>
<path d="M105.419 50.34C106.3 50.3345 107.512 50.4864 109.055 50.7957C110.599 51.0955 111.467 51.3549 111.659 51.574C111.825 51.7691 111.908 51.9951 111.905 52.252C111.903 52.5089 111.828 52.7588 111.68 53.0019C111.533 53.2354 111.32 53.4531 111.04 53.655C110.77 53.8585 110.464 54.0068 110.122 54.0998C109.864 54.1668 109.633 54.2481 109.43 54.3438C109.228 54.4298 109.123 54.4969 109.115 54.545C109.107 54.5932 108.837 54.6137 108.304 54.6065C107.772 54.5896 107.136 54.5459 106.396 54.4754C105.657 54.3952 105.002 54.3435 104.432 54.3204C103.862 54.2973 103.549 54.3059 103.493 54.3463C103.437 54.3867 103.391 54.6116 103.354 55.0212C103.329 55.4227 103.327 55.8923 103.349 56.43C103.377 57.7207 103.389 58.4696 103.385 58.6767C103.378 58.7843 103.548 58.8911 103.897 58.9971C104.257 59.0951 104.861 59.2128 105.71 59.3502C106.635 59.5002 107.346 59.66 107.843 59.8295C108.35 60.0007 108.721 60.2093 108.958 60.4555C109.196 60.7017 109.35 61.0285 109.423 61.436C109.477 61.7713 109.482 62.0145 109.438 62.1656C109.395 62.3071 109.271 62.465 109.065 62.6393C108.653 62.9783 108.173 63.1972 107.623 63.296C107.072 63.3947 106.295 63.4022 105.289 63.3184C103.99 63.2167 103.323 63.2719 103.289 63.4839C103.276 63.5611 103.282 63.6461 103.307 63.7391C103.341 63.8337 103.384 63.905 103.435 63.9529C103.532 64.0279 103.551 64.5801 103.493 65.6095C103.445 66.6404 103.34 67.7463 103.178 68.927C103.103 69.4491 103.009 69.8493 102.895 70.1276C102.78 70.4058 102.599 70.6683 102.351 70.9151C102.174 71.0941 101.999 71.2289 101.826 71.3196C101.651 71.4199 101.527 71.4542 101.453 71.4224C101.27 71.3333 100.974 71.2062 100.565 71.0411C100.388 70.9728 100.19 70.822 99.9707 70.5886C99.7513 70.3552 99.5736 70.1087 99.4375 69.8492C99.1931 69.404 99.0605 69.0016 99.0396 68.6421C99.0284 68.2841 99.1028 67.5196 99.2629 66.3485C99.5688 64.0336 99.6616 61.8128 99.5413 59.6861C99.3834 57.0587 99.3366 55.028 99.4008 53.594C99.4479 52.6321 99.421 52.0045 99.3202 51.7111C99.2305 51.4097 99.3478 51.0824 99.6722 50.7294C99.8639 50.523 100.053 50.3954 100.239 50.3464C100.426 50.2877 100.703 50.2881 101.07 50.3475C101.687 50.4474 102.34 50.4742 103.03 50.4278C103.732 50.3733 104.528 50.344 105.419 50.34ZM113.879 51.4292C114.314 51.1238 114.875 51.0811 115.562 51.3012C116.259 51.5132 116.786 51.8954 117.142 52.4477C117.498 53 117.705 53.6123 117.764 54.2847C117.825 54.9475 117.731 55.5604 117.481 56.1235C117.3 56.5096 117.023 57.6965 116.652 59.6841C116.291 61.6637 115.986 63.578 115.736 65.427C115.497 67.2679 115.432 68.2171 115.541 68.2744C115.723 68.3731 116.265 68.4213 117.165 68.4188C117.917 68.4219 119.407 68.6881 121.636 69.2176C123.876 69.739 125.078 70.1068 125.241 70.3213C125.29 70.3885 125.393 70.4546 125.55 70.5197C125.708 70.5849 125.869 70.6307 126.033 70.6573C126.216 70.6869 126.412 70.788 126.622 70.9605C126.842 71.1248 127.028 71.3231 127.178 71.5552C127.395 71.8673 127.524 72.1356 127.567 72.3602C127.611 72.5752 127.59 72.8586 127.503 73.2106C127.444 73.4581 127.354 73.6761 127.234 73.8644C127.124 74.0544 127.017 74.1656 126.913 74.1982C126.653 74.2748 126.236 74.41 125.66 74.6036C125.316 74.7159 124.981 74.7656 124.657 74.7526C124.342 74.7411 123.89 74.6629 123.3 74.5178C122.891 74.4121 122.497 74.2838 122.116 74.133C121.743 73.9934 121.495 73.8741 121.372 73.7751C121.118 73.5756 120.321 73.3921 118.983 73.2247C117.645 73.0573 116.547 72.998 115.688 73.0468C114.958 73.0966 114.185 73.1049 113.369 73.0716C112.818 73.0516 112.433 72.9891 112.212 72.8842C111.992 72.7792 111.682 72.5213 111.284 72.1105C111.048 71.8546 110.847 71.5995 110.681 71.3449C110.523 71.1016 110.451 70.9318 110.467 70.8354C110.503 70.6137 110.419 70.3379 110.215 70.0081C110.071 69.7968 110.033 69.4542 110.1 68.9803C110.167 68.5064 110.394 67.4401 110.781 65.7815C111.634 62.1702 112.182 59.7017 112.427 58.3761C112.673 57.0409 112.794 55.898 112.789 54.9476C112.791 53.8992 112.866 53.1299 113.015 52.6395C113.165 52.1396 113.453 51.7361 113.879 51.4292ZM133.03 54.8594C133.139 54.7979 133.262 54.7732 133.398 54.7855C133.536 54.788 133.659 54.8228 133.767 54.8898C134.493 55.4131 135.028 55.841 135.369 56.1734C135.713 56.4962 136.018 56.8721 136.285 57.3011L136.889 58.2449L136.324 60.0825L135.441 63.0557C135.21 63.8097 134.983 65.2123 134.759 67.2635C134.514 69.5091 134.51 71.1804 134.748 72.2775C134.986 73.3746 135.483 73.9696 136.239 74.0625C136.665 74.1216 137.758 73.9425 139.517 73.5252C141.276 73.108 142.478 72.7438 143.122 72.4326C143.659 72.1733 144.183 71.6548 144.695 70.8771C145.218 70.0913 145.635 69.1944 145.947 68.1863C146.27 67.1702 146.429 66.2215 146.423 65.3401L146.396 62.5756C146.383 61.6236 146.428 60.8841 146.533 60.357C146.648 59.8315 146.86 59.3513 147.167 58.9165C147.271 58.7651 147.343 58.658 147.383 58.5952C147.434 58.5243 147.499 58.4558 147.579 58.3896C147.659 58.3234 147.72 58.2838 147.762 58.2708C147.804 58.2578 147.878 58.255 147.986 58.2626C148.103 58.2717 148.209 58.2889 148.304 58.3141C148.399 58.3394 148.545 58.3829 148.743 58.4446C149.006 58.5269 149.181 58.5799 149.266 58.6036C149.361 58.6289 149.479 58.6926 149.621 58.7947C149.774 58.8887 149.862 58.9526 149.887 58.9862C149.921 59.0213 149.986 59.1358 150.083 59.3297C150.19 59.525 150.263 59.6853 150.302 59.8103C150.341 59.9354 150.425 60.1814 150.554 60.5485C151.038 61.9527 151.3 63.5731 151.339 65.4096C151.377 67.2461 151.189 68.8331 150.775 70.1707C150.515 70.9795 150.066 72.0443 149.426 73.3653C148.788 74.6766 148.378 75.3768 148.195 75.4659C148.067 75.5243 147.751 75.8291 147.246 76.3805C146.838 76.819 146.118 77.2958 145.085 77.811C144.052 78.3262 143.346 78.5581 142.969 78.5068C142.649 78.4649 142.221 78.5391 141.686 78.7293C140.678 79.0902 139.923 79.324 139.421 79.4306C138.917 79.5469 138.271 79.6252 137.483 79.6657C136.374 79.7332 135.683 79.6609 135.411 79.4486C135.137 79.2459 134.875 79.1243 134.624 79.0836C134.364 79.0415 133.843 78.6553 133.061 77.9251C132.278 77.2045 131.728 76.5961 131.413 76.0998L130.353 74.4886C129.876 73.7683 129.595 72.8472 129.51 71.7254C129.426 70.5939 129.496 68.6959 129.721 66.0314C129.849 64.6277 129.97 63.5787 130.082 62.8847C130.196 62.181 130.364 61.5404 130.586 60.9631C130.946 59.9629 131.219 58.9237 131.403 57.8456C131.544 57.0374 131.74 56.4064 131.992 55.9525C132.245 55.489 132.591 55.1246 133.03 54.8594ZM165.852 58.0862C166.139 57.7767 166.475 57.6283 166.859 57.641C167.254 57.6457 167.765 57.8176 168.392 58.1567C168.993 58.4815 169.463 58.9041 169.805 59.4243C170.146 59.9446 170.326 60.5081 170.347 61.1149C170.371 61.8806 170.165 63.5785 169.729 66.2086C169.304 68.8306 168.939 70.5919 168.635 71.4923C168.315 72.4891 167.943 73.8434 167.517 75.5552C167.211 76.8313 166.879 77.8707 166.522 78.6734C166.175 79.4681 165.875 79.8893 165.619 79.937C165.538 79.9534 165.466 79.9963 165.406 80.0656C165.345 80.1349 165.308 80.2129 165.294 80.2997C165.23 80.6949 164.667 80.8066 163.607 80.6347C163.347 80.5926 162.963 80.3968 162.456 80.0475C161.947 79.7078 161.491 79.347 161.088 78.9651C160.694 78.5847 160.51 78.3175 160.535 78.1632C160.557 78.0283 160.486 77.9475 160.322 77.9209C160.168 77.896 159.864 77.5401 159.412 76.8534C158.969 76.1682 158.757 75.7333 158.777 75.5486C158.79 75.4714 158.769 75.384 158.716 75.2863C158.674 75.1806 158.618 75.0973 158.549 75.0366C158.471 74.9647 158.371 74.7902 158.248 74.513C158.126 74.2262 158.012 73.9208 157.906 73.597C157.652 72.7247 157.444 72.2705 157.281 72.2343C157.098 72.2046 156.891 72.7498 156.66 73.8699C156.536 74.4532 156.381 75.3185 156.195 76.4656C156.054 77.3332 155.927 78.0297 155.812 78.5552C155.705 79.092 155.591 79.5235 155.468 79.85C155.356 80.178 155.237 80.3961 155.11 80.5042C154.992 80.6236 154.856 80.6707 154.701 80.6457C154.605 80.6301 154.51 80.6394 154.415 80.6735C154.33 80.7092 154.272 80.7641 154.24 80.838C154.186 80.9282 154.061 80.9625 153.867 80.9409C153.671 80.9289 153.44 80.8617 153.173 80.7393C152.914 80.6281 152.644 80.4904 152.364 80.3263C152.092 80.1734 151.834 79.9931 151.591 79.7855C151.356 79.5891 151.183 79.4028 151.073 79.2267C150.725 78.6856 150.565 78.3331 150.592 78.1692C150.618 78.0054 151.161 74.5319 152.221 67.7488L153.827 57.5621L155.228 57.8039C156.246 57.9888 156.972 58.2745 157.404 58.6611C157.837 59.038 158.196 59.7244 158.48 60.7201C158.788 61.8089 159.166 62.8644 159.614 63.8866C160.073 64.9009 160.473 65.9402 160.815 67.0047C161.756 69.8679 162.38 71.5123 162.687 71.938C162.808 72.106 162.901 72.1112 162.966 71.9536C163.015 71.833 163.077 71.571 163.153 71.1677C163.295 70.4093 163.609 69.0207 164.095 67.0021C164.544 65.1457 164.893 63.5106 165.142 62.0967C165.393 60.6731 165.49 59.7391 165.433 59.2946C165.376 58.8501 165.516 58.4473 165.852 58.0862ZM183.641 62.3196C183.935 62.0903 184.207 61.9711 184.455 61.962C184.706 61.9432 184.873 62.0396 184.958 62.2511C184.987 62.3152 185.079 62.3846 185.236 62.4594C185.392 62.5341 185.556 62.5856 185.73 62.6137C186.164 62.684 186.56 62.9857 186.919 63.5187C187.279 64.0421 187.458 64.5855 187.456 65.1491C187.461 65.5456 187.396 65.8517 187.263 66.0674C187.14 66.2751 186.841 66.5927 186.366 67.0203C185.487 67.8077 184.43 68.6505 183.196 69.5487C181.964 70.4372 181.165 70.9409 180.8 71.0597C180.235 71.2453 179.685 71.4974 179.149 71.8161C178.622 72.1363 178.344 72.3832 178.316 72.5567C178.283 72.7592 178.368 73.0301 178.57 73.3696C178.773 73.709 178.956 73.892 179.119 73.9186C179.187 73.9295 179.469 74.2622 179.967 74.9166C180.474 75.5726 181.059 76.3598 181.721 77.2784C183.975 80.4632 184.896 82.4081 184.485 83.1132C184.364 83.3112 184.091 83.4698 183.666 83.5889C183.249 83.7192 182.863 83.7554 182.506 83.6976C182.062 83.6257 181.39 83.1062 180.488 82.1389C179.585 81.1813 178.734 80.0789 177.937 78.8318C177.488 78.1258 176.802 77.1688 175.88 75.9608C174.967 74.7544 174.458 74.1426 174.352 74.1254C174.305 74.1079 174.167 74.6544 173.938 75.7648C173.72 76.8671 173.507 78.0248 173.301 79.2379C173.094 80.451 172.94 81.4647 172.838 82.2791C172.812 82.5618 172.754 82.7652 172.665 82.8892C172.585 83.0148 172.454 83.0924 172.271 83.1221C172.139 83.1404 172.008 83.1883 171.876 83.266C171.745 83.3436 171.652 83.4324 171.596 83.5321C171.459 83.7672 171.162 83.8279 170.706 83.7143C170.248 83.6104 169.896 83.4001 169.65 83.0833C169.357 82.6993 169.128 82.494 168.964 82.4675C168.887 82.455 168.829 82.4111 168.792 82.3358C168.753 82.2701 168.742 82.1891 168.757 82.0927C168.771 82.006 168.748 81.9081 168.686 81.7992C168.633 81.7015 168.551 81.624 168.442 81.5667C168.352 81.5125 168.298 81.4149 168.282 81.2736C168.265 81.1324 168.296 80.7566 168.375 80.1462C168.456 79.5261 168.575 78.7638 168.731 77.8592C168.897 76.9562 169.159 75.5542 169.517 73.6533C169.91 71.5307 170.274 69.6804 170.609 68.1023C170.946 66.5146 171.151 65.6724 171.226 65.5758C171.303 65.4695 171.398 65.1881 171.512 64.7316C171.625 64.2751 171.725 63.7818 171.811 63.2516C171.911 62.6347 172.007 62.1606 172.101 61.8295C172.205 61.4903 172.343 61.2207 172.514 61.0209C172.685 60.821 172.882 60.7046 173.105 60.6715C173.328 60.6383 173.627 60.6523 174.003 60.7132C174.543 60.8007 175.054 61.0368 175.535 61.4216C176.027 61.8079 176.354 62.2319 176.516 62.6935C176.609 62.9757 176.637 63.2621 176.6 63.5529C176.564 63.834 176.428 64.3066 176.192 64.9707C175.968 65.6171 175.789 66.2063 175.653 66.7384C175.527 67.2719 175.454 67.6953 175.432 68.0085C175.423 68.3136 175.471 68.4747 175.577 68.4919C175.654 68.5044 175.732 68.4824 175.81 68.4258C175.898 68.3708 175.97 68.2935 176.026 68.1937C176.081 68.0939 176.24 67.9711 176.501 67.8255C176.764 67.6702 177.049 67.5284 177.356 67.4002C177.787 67.2426 178.454 66.8559 179.355 66.2401C180.257 65.6148 181.081 64.9914 181.824 64.3699C182.578 63.7501 182.969 63.3485 182.999 63.1654C183.016 63.0593 183.088 62.9226 183.214 62.755C183.34 62.5875 183.482 62.4424 183.641 62.3196ZM205.286 65.1896C206.473 65.1345 207.333 65.1997 207.867 65.3851C208.41 65.5721 208.889 65.9714 209.305 66.5828C209.489 66.8501 209.642 67.1271 209.764 67.414C209.885 67.7008 209.937 67.9021 209.918 68.0177C209.899 68.1334 209.905 68.253 209.934 68.3765C209.965 68.4904 210.011 68.572 210.073 68.6215C210.202 68.7414 210.266 68.8904 210.267 69.0686C210.27 69.2371 210.208 69.4052 210.082 69.5727C209.967 69.7322 209.818 69.8862 209.636 70.0347C209.465 70.1751 209.26 70.2804 209.021 70.3505C208.791 70.4222 208.565 70.4449 208.342 70.4186C207.201 70.2535 206.052 70.2306 204.895 70.3497C203.75 70.4608 203.099 70.6572 202.945 70.9388C202.9 71.0306 202.957 71.109 203.115 71.1741C203.346 71.271 203.936 71.3863 204.884 71.5202C206.114 71.68 207.332 71.917 208.538 72.2311C209.753 72.5467 210.396 72.7895 210.468 72.9593C210.531 73.118 210.746 73.227 211.112 73.2864C211.411 73.3348 211.89 73.5855 212.548 74.0385C213.218 74.4835 213.819 74.9568 214.351 75.4585C214.885 75.9506 215.138 76.2834 215.11 76.457C215.097 76.5341 215.258 76.8223 215.593 77.3217C215.719 77.5203 215.833 77.7614 215.935 78.0451C216.047 78.3304 216.108 78.5677 216.117 78.7571C216.127 78.9369 216.153 79.1142 216.194 79.289C216.246 79.4557 216.298 79.563 216.349 79.611C216.583 79.817 216.496 80.4163 216.088 81.4087C215.689 82.4026 215.185 83.2558 214.575 83.9682C214.112 84.5065 213.742 84.956 213.466 85.3169C213.353 85.4667 213.15 85.6466 212.859 85.8567C212.577 86.0682 212.29 86.2541 211.997 86.4144C211.303 86.7868 210.847 87.0393 210.628 87.1719C210.343 87.3434 209.842 87.5342 209.125 87.7446C208.407 87.9645 207.956 88.0597 207.773 88.03C207.677 88.0143 207.587 88.0196 207.503 88.0456C207.43 88.0733 207.389 88.1112 207.381 88.1594C207.351 88.3425 206.816 88.4734 205.774 88.5519C204.742 88.632 203.86 88.6126 203.127 88.4939C202.713 88.4267 202.293 88.3933 201.867 88.3936C201.451 88.3954 201.134 88.433 200.914 88.5062C200.339 88.6998 199.558 88.6921 198.573 88.483C197.588 88.2739 196.68 87.9239 195.85 87.4332C195.462 87.2021 195.06 86.9936 194.645 86.8076C194.24 86.6232 193.95 86.5169 193.777 86.4888C193.574 86.456 193.415 86.4005 193.299 86.3224C193.193 86.2458 193.148 86.1545 193.165 86.0484C193.18 85.9617 193.156 85.8638 193.094 85.7549C193.041 85.6573 192.969 85.5813 192.879 85.5271C192.724 85.4427 192.648 85.2127 192.65 84.837C192.649 84.471 192.722 84.0821 192.868 83.6704C193.024 83.2604 193.206 82.9585 193.416 82.7649C193.52 82.6729 193.594 82.6108 193.639 82.5785C193.685 82.5365 193.76 82.5041 193.862 82.4812C193.967 82.4486 194.048 82.4322 194.108 82.4319C194.177 82.4332 194.311 82.4599 194.51 82.512C194.711 82.5544 194.891 82.6034 195.05 82.6589C195.219 82.7159 195.497 82.8054 195.882 82.9273C196.408 83.1015 197.015 83.2641 197.703 83.4152C198.391 83.5662 198.944 83.6609 199.363 83.6991C200.496 83.7936 201.736 83.8017 203.084 83.7234C204.442 83.6467 205.359 83.5133 205.835 83.3234C206.375 83.1042 206.793 82.9691 207.088 82.918C207.21 82.8982 207.315 82.8608 207.403 82.8058C207.491 82.7508 207.54 82.6944 207.549 82.6366C207.558 82.5787 207.6 82.536 207.674 82.5084C207.749 82.4711 207.835 82.4603 207.931 82.4759C208.027 82.4915 208.163 82.4492 208.338 82.3489C208.523 82.2405 208.698 82.1105 208.861 81.9588C209.259 81.5781 209.55 81.3087 209.734 81.1506C209.919 80.9828 210.024 80.8217 210.049 80.6675C210.059 80.6097 210.103 80.5525 210.181 80.4959C210.271 80.4313 210.367 80.3875 210.47 80.3646C210.757 80.3023 210.908 80.0696 210.924 79.6666C210.951 79.2555 210.824 78.9381 210.544 78.7146C210.186 78.4192 209.404 78.0551 208.198 77.6222C206.994 77.1796 206.314 77.0101 206.159 77.1136C206.013 77.2186 205.642 77.2178 205.046 77.1113C204.452 76.9952 203.828 76.8446 203.175 76.6597C202.524 76.4652 201.94 76.2518 201.424 76.0198C200.919 75.7796 200.677 75.592 200.699 75.4571C200.708 75.3992 200.668 75.3432 200.578 75.289C200.489 75.2252 200.382 75.1832 200.257 75.1628C200.122 75.141 199.95 75.0438 199.74 74.8714C199.541 74.7005 199.361 74.4982 199.201 74.2645C198.824 73.7187 198.588 73.438 198.491 73.4224C198.279 73.388 198.082 73.173 197.898 72.7772C197.725 72.3831 197.593 71.9117 197.504 71.363C197.426 70.8062 197.377 70.2542 197.357 69.7068C197.339 69.1498 197.381 68.672 197.486 68.2733C197.59 67.8747 197.745 67.6525 197.95 67.6066C198.062 67.5852 198.158 67.5462 198.236 67.4897C198.324 67.4347 198.373 67.3735 198.384 67.306C198.403 67.1903 198.589 66.9928 198.94 66.7135C199.292 66.4342 199.526 66.3039 199.642 66.3226C199.719 66.3351 200.099 66.189 200.781 65.8841C201.313 65.6537 201.848 65.498 202.386 65.4169C202.934 65.3278 203.901 65.252 205.286 65.1896ZM231.387 70.0577C231.681 69.8284 231.953 69.7091 232.202 69.7C232.452 69.6812 232.619 69.7776 232.704 69.9891C232.733 70.0532 232.826 70.1227 232.982 70.1974C233.138 70.2722 233.303 70.3236 233.476 70.3517C233.91 70.422 234.306 70.7237 234.665 71.2567C235.025 71.7801 235.204 72.3235 235.202 72.8871C235.207 73.2836 235.143 73.5897 235.009 73.8055C234.886 74.0131 234.587 74.3307 234.112 74.7583C233.233 75.5457 232.176 76.3885 230.942 77.2867C229.71 78.1752 228.911 78.6789 228.546 78.7977C227.981 78.9833 227.431 79.2354 226.895 79.5541C226.368 79.8743 226.091 80.1212 226.062 80.2947C226.03 80.4972 226.114 80.7681 226.316 81.1076C226.519 81.447 226.702 81.63 226.866 81.6566C226.933 81.6675 227.216 82.0002 227.713 82.6546C228.22 83.3106 228.805 84.0979 229.467 85.0164C231.721 88.2012 232.642 90.1462 232.231 90.8512C232.11 91.0492 231.837 91.2078 231.412 91.3269C230.995 91.4572 230.609 91.4934 230.252 91.4356C229.809 91.3638 229.136 90.8442 228.234 89.8769C227.331 88.9193 226.481 87.8169 225.684 86.5698C225.234 85.8638 224.548 84.9068 223.626 83.6988C222.714 82.4924 222.204 81.8806 222.098 81.8634C222.052 81.8459 221.914 82.3924 221.684 83.5028C221.466 84.6052 221.254 85.7629 221.047 86.9759C220.841 88.189 220.686 89.2027 220.584 90.0172C220.558 90.2998 220.5 90.5032 220.411 90.6272C220.331 90.7528 220.2 90.8304 220.017 90.8602C219.885 90.8784 219.754 90.9264 219.623 91.004C219.491 91.0817 219.398 91.1704 219.342 91.2702C219.205 91.5052 218.908 91.5659 218.452 91.4524C217.994 91.3485 217.642 91.1381 217.397 90.8213C217.103 90.4373 216.874 90.232 216.71 90.2055C216.633 90.193 216.576 90.1491 216.538 90.0738C216.5 90.0082 216.488 89.9271 216.504 89.8307C216.518 89.744 216.494 89.6461 216.432 89.5373C216.379 89.4396 216.298 89.3621 216.188 89.3047C216.098 89.2506 216.045 89.1529 216.028 89.0117C216.011 88.8705 216.042 88.4946 216.122 87.8842C216.202 87.2641 216.321 86.5018 216.477 85.5972C216.644 84.6942 216.905 83.2922 217.263 81.3914C217.656 79.2688 218.021 77.4184 218.355 75.8404C218.692 74.2526 218.898 73.4104 218.973 73.3138C219.049 73.2075 219.144 72.9261 219.258 72.4696C219.371 72.0132 219.471 71.5198 219.557 70.9896C219.657 70.3727 219.754 69.8987 219.847 69.5675C219.951 69.2283 220.089 68.9587 220.26 68.7589C220.431 68.5591 220.628 68.4426 220.851 68.4095C221.074 68.3764 221.373 68.3903 221.749 68.4512C222.289 68.5387 222.8 68.7748 223.282 69.1596C223.773 69.5459 224.1 69.9699 224.263 70.4315C224.355 70.7137 224.383 71.0001 224.346 71.2909C224.31 71.572 224.174 72.0446 223.938 72.7088C223.715 73.3552 223.535 73.9444 223.399 74.4764C223.273 75.01 223.2 75.4333 223.179 75.7465C223.169 76.0516 223.217 76.2127 223.323 76.2299C223.4 76.2424 223.478 76.2204 223.556 76.1638C223.644 76.1089 223.716 76.0315 223.772 75.9317C223.828 75.8319 223.986 75.7092 224.247 75.5635C224.51 75.4082 224.795 75.2664 225.102 75.1382C225.534 74.9806 226.2 74.5939 227.101 73.9782C228.004 73.3528 228.827 72.7294 229.571 72.108C230.324 71.4881 230.716 71.0866 230.745 70.9034C230.762 70.7974 230.834 70.6606 230.96 70.493C231.086 70.3255 231.228 70.1804 231.387 70.0577ZM245.889 73.8771C246.461 73.8312 247.226 73.9948 248.184 74.3678C249.144 74.7311 250.092 75.231 251.028 75.8674C251.992 76.5085 252.528 76.8376 252.634 76.8548C252.749 76.8735 253.04 77.1829 253.507 77.7828C253.704 78.0324 253.926 78.2811 254.173 78.5288C254.42 78.7766 254.614 78.9515 254.755 79.0536C255.087 79.2656 255.331 79.8393 255.486 80.7746C255.642 81.7003 255.648 82.6114 255.503 83.5079C255.395 84.173 255.129 85.0203 254.705 86.0497C254.291 87.0807 253.955 87.7139 253.7 87.9495C253.477 88.1608 253.24 88.4637 252.988 88.8581C252.748 89.2445 252.019 89.898 250.801 90.8186C249.593 91.7407 248.759 92.2783 248.299 92.4312C247.819 92.5811 247.206 92.8279 246.457 93.1716C246.148 93.3094 245.766 93.4404 245.31 93.5645C244.863 93.6997 244.482 93.7913 244.168 93.8393C243.5 93.929 242.604 93.9025 241.48 93.7598C240.365 93.6187 239.715 93.449 239.529 93.2508C239.36 93.075 238.969 92.8335 238.356 92.5264C238.1 92.3959 237.739 92.1494 237.274 91.7871C236.816 91.4359 236.391 91.0702 235.997 90.6898C235.354 90.081 234.934 89.6173 234.739 89.2987C234.543 88.9801 234.366 88.4864 234.207 87.8176C234.077 87.2129 234.009 86.722 234 86.3447C234.002 85.969 234.072 85.5055 234.211 84.9542C234.312 84.5749 234.422 84.2316 234.541 83.9245C234.671 83.6092 234.776 83.4233 234.854 83.3668C234.942 83.3118 235.023 83.2111 235.096 83.0647C235.179 82.9198 235.232 82.7751 235.255 82.6305C235.279 82.4859 235.388 82.2365 235.584 81.8824C235.791 81.5203 236.023 81.1572 236.28 80.7932C236.907 79.9154 237.235 79.3898 237.263 79.2163C237.308 78.9367 237.722 78.3657 238.505 77.5033C239.299 76.6328 240.011 75.9617 240.642 75.4901C241.045 75.1993 241.83 74.8714 242.997 74.5066C244.174 74.1433 245.138 73.9335 245.889 73.8771ZM250.019 80.1706C249.607 79.5993 249.094 79.1946 248.479 78.9565C247.876 78.7103 247.228 78.6498 246.535 78.775C245.903 78.8902 245.383 79.0185 244.974 79.16C244.565 79.3015 244.158 79.5225 243.753 79.8229C243.349 80.1234 242.968 80.4871 242.612 80.9142C242.266 81.3428 241.839 81.9267 241.334 82.6658L240.307 84.1467C240.129 84.3947 240.021 84.6296 239.985 84.8513C239.949 85.073 239.774 85.3957 239.458 85.8194C238.939 86.5169 238.799 87.1075 239.037 87.5913C239.286 88.067 239.888 88.3822 240.842 88.5369C241.276 88.6072 241.852 88.5917 242.571 88.4906C243.292 88.3798 243.936 88.222 244.503 88.0171C245.07 87.8123 245.369 87.6183 245.399 87.4352C245.414 87.3388 245.456 87.2663 245.523 87.2179C245.592 87.1598 245.669 87.1377 245.756 87.1518C245.988 87.1893 246.534 86.8674 247.397 86.186C248.259 85.5046 248.863 84.9199 249.209 84.4319C249.387 84.1935 249.569 83.862 249.756 83.4373C249.954 83.0141 250.106 82.6233 250.214 82.2648C250.392 81.6507 250.473 81.2434 250.456 81.0428C250.439 80.8422 250.293 80.5514 250.019 80.1706ZM267.319 77.3501C267.89 77.3042 268.655 77.4677 269.614 77.8407C270.574 78.2041 271.522 78.704 272.457 79.3403C273.422 79.9814 273.957 80.3106 274.063 80.3277C274.179 80.3465 274.47 80.6558 274.937 81.2558C275.134 81.5054 275.355 81.754 275.602 82.0018C275.849 82.2495 276.043 82.4245 276.185 82.5266C276.517 82.7386 276.76 83.3123 276.915 84.2476C277.072 85.1732 277.077 86.0843 276.932 86.9808C276.824 87.646 276.558 88.4933 276.134 89.5227C275.72 90.5536 275.385 91.1869 275.129 91.4224C274.907 91.6337 274.67 91.9366 274.418 92.3311C274.177 92.7175 273.448 93.371 272.23 94.2915C271.022 95.2137 270.188 95.7512 269.728 95.9042C269.249 96.0541 268.635 96.3009 267.887 96.6446C267.578 96.7824 267.195 96.9134 266.74 97.0374C266.293 97.1727 265.912 97.2643 265.597 97.3123C264.93 97.402 264.034 97.3755 262.909 97.2328C261.794 97.0917 261.144 96.922 260.959 96.7238C260.789 96.5479 260.398 96.3064 259.785 95.9993C259.529 95.8688 259.169 95.6224 258.703 95.26C258.245 94.9089 257.82 94.5431 257.426 94.1628C256.783 93.554 256.364 93.0903 256.168 92.7717C255.972 92.4531 255.795 91.9594 255.636 91.2906C255.507 90.6859 255.438 90.1949 255.43 89.8177C255.431 89.442 255.502 88.9785 255.64 88.4272C255.741 88.0479 255.851 87.7046 255.97 87.3974C256.101 87.0822 256.205 86.8963 256.283 86.8397C256.372 86.7848 256.452 86.684 256.525 86.5376C256.608 86.3928 256.661 86.248 256.685 86.1034C256.708 85.9588 256.818 85.7095 257.014 85.3554C257.221 84.9933 257.453 84.6302 257.71 84.2662C258.337 83.3884 258.664 82.8627 258.692 82.6892C258.738 82.4097 259.152 81.8387 259.935 80.9762C260.729 80.1057 261.441 79.4347 262.071 78.963C262.475 78.6722 263.26 78.3444 264.427 77.9796C265.604 77.6163 266.568 77.4064 267.319 77.3501ZM271.448 83.6435C271.036 83.0722 270.523 82.6675 269.909 82.4295C269.305 82.1833 268.657 82.1228 267.964 82.2479C267.332 82.3631 266.812 82.4915 266.403 82.633C265.994 82.7745 265.588 82.9955 265.183 83.2959C264.778 83.5963 264.397 83.9601 264.041 84.3871C263.695 84.8157 263.269 85.3996 262.763 86.1388L261.737 87.6196C261.558 87.8677 261.451 88.1026 261.415 88.3243C261.379 88.546 261.203 88.8687 260.887 89.2923C260.368 89.9898 260.228 90.5805 260.466 91.0643C260.716 91.54 261.317 91.8552 262.272 92.0098C262.706 92.0801 263.282 92.0647 264.001 91.9636C264.721 91.8528 265.365 91.6949 265.932 91.4901C266.5 91.2853 266.798 91.0913 266.828 90.9081C266.844 90.8117 266.885 90.7393 266.952 90.6908C267.021 90.6327 267.099 90.6107 267.186 90.6248C267.417 90.6623 267.964 90.3403 268.826 89.6589C269.688 88.9776 270.293 88.3929 270.639 87.9049C270.816 87.6665 270.998 87.3349 271.186 86.9102C271.383 86.4871 271.535 86.0963 271.643 85.7378C271.822 85.1237 271.902 84.7164 271.885 84.5158C271.869 84.3151 271.723 84.0244 271.448 83.6435ZM280.166 78.3787C280.602 78.0733 281.163 78.0306 281.849 78.2507C282.547 78.4627 283.074 78.8449 283.429 79.3972C283.785 79.9495 283.992 80.5618 284.052 81.2342C284.112 81.897 284.018 82.5099 283.768 83.073C283.587 83.4591 283.311 84.646 282.939 86.6336C282.579 88.6132 282.273 90.5275 282.023 92.3765C281.784 94.2174 281.719 95.1666 281.829 95.2239C282.011 95.3226 282.552 95.3707 283.453 95.3683C284.204 95.3714 285.694 95.6376 287.923 96.1671C290.164 96.6885 291.366 97.0563 291.529 97.2707C291.577 97.338 291.68 97.4041 291.838 97.4692C291.995 97.5344 292.156 97.5802 292.32 97.6068C292.503 97.6364 292.7 97.7375 292.909 97.91C293.13 98.0743 293.315 98.2726 293.466 98.5047C293.682 98.8168 293.812 99.0851 293.854 99.3097C293.899 99.5247 293.878 99.8081 293.791 100.16C293.731 100.408 293.641 100.626 293.522 100.814C293.412 101.004 293.305 101.115 293.2 101.148C292.941 101.224 292.523 101.359 291.948 101.553C291.603 101.665 291.268 101.715 290.944 101.702C290.629 101.691 290.177 101.612 289.587 101.467C289.179 101.362 288.784 101.233 288.403 101.083C288.03 100.943 287.782 100.824 287.66 100.725C287.405 100.525 286.609 100.342 285.271 100.174C283.933 100.007 282.834 99.9475 281.975 99.9963C281.245 100.046 280.472 100.054 279.656 100.021C279.106 100.001 278.72 99.9386 278.5 99.8337C278.279 99.7287 277.97 99.4708 277.571 99.06C277.336 98.8041 277.135 98.549 276.968 98.2944C276.81 98.0511 276.739 97.8813 276.754 97.7849C276.79 97.5631 276.706 97.2874 276.502 96.9576C276.359 96.7463 276.32 96.4037 276.387 95.9298C276.454 95.4559 276.681 94.3896 277.069 92.731C277.921 89.1197 278.469 86.6512 278.714 85.3256C278.96 83.9904 279.081 82.8475 279.077 81.8971C279.078 80.8487 279.154 80.0794 279.302 79.589C279.453 79.0891 279.741 78.6856 280.166 78.3787Z" fill="white"/>
<defs>
<filter id="filter0_b_22_267" x="11.3454" y="6.7998" width="380.836" height="138.123" filterUnits="userSpaceOnUse" color-interpolation-filters="sRGB">
<feFlood flood-opacity="0" result="BackgroundImageFix"/>
<feGaussianBlur in="BackgroundImageFix" stdDeviation="3.5"/>
<feComposite in2="SourceAlpha" operator="in" result="effect1_backgroundBlur_22_267"/>
<feBlend mode="normal" in="SourceGraphic" in2="effect1_backgroundBlur_22_267" result="shape"/>
</filter>
</defs>
</svg>
