<svg width="397" height="130" viewBox="0 0 397 130" fill="none" xmlns="http://www.w3.org/2000/svg">
<path d="M9.35136 4.24423C8.27831 24.2422 6.99877 44.2375 6.22362 64.25C5.95271 71.244 6.26798 78.3325 5.74377 85.3154L5.20156 92.538C24.3651 89.2475 41.7084 94.607 60.223 99.6975C72.4839 103.069 84.0343 107.301 96.7481 107.465C123.234 107.807 149.672 109.611 176.171 109.641C198.863 109.667 221.11 108.649 243.706 111.062C270.468 113.919 297.141 115.556 323.997 116.814C335.029 117.331 346.066 118.461 357.109 118.68C368.033 118.898 379.024 118.205 389.907 118.32M387.735 122.494C390.32 95.0129 395.325 65.9951 393.509 38.2465C393.415 36.8153 393.011 35.7125 393.117 34.2928C360.787 33.431 328.881 31.9768 296.718 28.9839C277.765 27.2203 258.744 26.0643 239.764 24.6395C211.13 22.4899 182.597 18.3905 154.415 12.8967C143.734 10.8145 133.301 9.37469 122.36 9.31993C100.909 9.21256 79.3253 11.9011 57.9102 10.368C47.7967 9.64395 37.7645 8.63971 27.6943 7.51447C21.1548 6.78376 14.5391 6.49248 7.98023 6.0001" stroke="white" stroke-width="3" stroke-linecap="round"/>
<g filter="url(#filter0_b_12_160)">
<path d="M22.8815 60.8664C25.5809 46.0534 25.8344 35.8457 28.9886 20.0337C29.402 17.9613 28.6734 16.2724 30.0809 14.7337C31.009 13.7191 31.8561 13.6541 33.2225 13.8487C38.0482 14.5361 42.837 15.7275 47.6531 16.484C83.3514 22.091 119.479 23.3098 155.295 27.8123C173.787 30.137 191.661 31.2594 210.268 30.186C227.944 29.1664 244.657 32.5271 262.122 34.6823C285.549 37.5733 309.13 38.9592 332.61 41.3246C348.995 42.9753 364.544 43.7959 380.908 42.424C377.908 70.034 379.046 44.4931 376.898 73.1015C375.982 85.3013 376.195 93.4536 376.175 105.696C368.453 106.141 360.845 107.035 353.146 107.732C342.745 108.673 333.305 106.686 323.131 104.817C311.84 102.744 300.467 101.009 289.047 99.8158C275.282 98.3781 261.72 99.2424 247.942 98.7705C233.413 98.2729 219.162 96.222 204.738 94.665C189.116 92.9788 173.693 89.8303 158.092 88.1744C144.685 86.7512 130.875 89.0555 117.414 88.7131C84.6812 87.8803 52.0684 84.7162 19.4541 82.0202C19.9918 74.8574 21.595 67.926 22.8815 60.8664Z" fill="#D9D9D9" fill-opacity="0.01"/>
<path d="M380.964 41.9081C377.894 70.3505 379.059 44.317 376.898 73.1015C375.982 85.3013 376.196 93.4536 376.175 105.696C368.453 106.141 360.845 107.035 353.146 107.732C342.745 108.673 333.305 106.686 323.131 104.817C311.84 102.744 300.467 101.009 289.047 99.8158C275.282 98.3781 261.72 99.2424 247.942 98.7705C233.413 98.2729 219.162 96.222 204.738 94.665C189.116 92.9788 173.693 89.8303 158.092 88.1744C144.685 86.7512 130.875 89.0555 117.414 88.7131C84.6812 87.8803 52.0684 84.7162 19.4541 82.0202C19.9918 74.8574 21.595 67.926 22.8815 60.8664C25.5809 46.0534 25.8344 35.8457 28.9886 20.0337C29.402 17.9613 28.6734 16.2724 30.0809 14.7337C31.009 13.7191 31.8561 13.6541 33.2225 13.8487C38.0482 14.5361 42.837 15.7275 47.6531 16.484C83.3514 22.091 119.479 23.3098 155.295 27.8123C173.787 30.137 191.661 31.2594 210.268 30.186C227.944 29.1664 244.657 32.5271 262.122 34.6823C285.549 37.5733 309.13 38.9592 332.61 41.3246C349.001 42.9759 364.555 43.7964 380.925 42.4226" stroke="white" stroke-width="3" stroke-linecap="round"/>
</g>
<path d="M98.9446 43.4903C100.54 43.1106 102.217 43.0749 103.976 43.3832C105.745 43.6923 107.249 44.2801 108.486 45.1467C109.016 45.5194 109.698 46.217 110.532 47.2393C111.367 48.2519 111.896 49.0359 112.119 49.5912C112.316 50.086 112.466 50.3812 112.566 50.4768C112.677 50.5733 112.836 51.3834 113.045 52.9072C113.263 54.4415 113.274 55.784 113.08 56.9348C112.886 58.0856 112.428 59.432 111.705 60.974C111.449 61.513 111.009 62.0284 110.384 62.5201C109.76 63.0119 109.029 63.4222 108.191 63.751C107.566 63.9881 107.037 64.1246 106.603 64.1606C106.17 64.1966 105.359 64.1701 104.171 64.0809C101.075 63.8387 99.3004 63.6663 98.8479 63.5638C98.4432 63.4746 98.1325 63.3093 97.9156 63.0678C97.9058 63.067 97.8379 62.9934 97.7118 62.8468C97.1887 62.2493 96.8401 61.6748 96.666 61.1231C96.5025 60.5624 96.4547 59.8292 96.5227 58.9235C96.6046 57.8329 96.5879 56.49 96.4726 54.8948C96.341 52.9949 96.3442 50.8651 96.4822 48.5055C96.6306 46.137 96.8377 44.7472 97.1036 44.3363C97.3045 44.0086 97.9182 43.7266 98.9446 43.4903ZM106.012 48.5599C105.599 48.1862 105.25 47.9494 104.963 47.8495C104.687 47.7504 104.164 47.672 103.394 47.6142C103.093 47.5916 102.844 47.5827 102.647 47.5875C102.452 47.5826 102.265 47.5882 102.088 47.6043C101.91 47.6203 101.775 47.6592 101.682 47.7208C101.59 47.7823 101.501 47.854 101.417 47.9358C101.342 48.0184 101.289 48.1368 101.258 48.2911C101.236 48.4462 101.219 48.6163 101.205 48.8013C101.192 48.9766 101.19 49.1968 101.199 49.4619C101.219 50.2371 101.246 51.9627 101.281 54.6388C101.337 58.0608 101.418 59.9815 101.524 60.4007C101.578 60.5908 101.659 60.6899 101.766 60.698C102.506 60.7535 103.297 60.6562 104.138 60.406C104.99 60.1468 105.731 59.796 106.362 59.3537C106.993 58.9016 107.38 58.441 107.523 57.9719C107.746 57.2248 107.922 56.1803 108.052 54.8387C108.183 53.4872 108.203 52.5045 108.112 51.8905C108.007 51.2069 107.813 50.6489 107.533 50.2165C107.262 49.7751 106.755 49.2229 106.012 48.5599ZM117.759 43.3309C118.323 43.1284 118.885 43.0139 119.445 42.9874C120.005 42.9609 121.158 43.0033 122.902 43.1147C124.442 43.2107 125.517 43.3061 126.127 43.4009C126.738 43.4859 127.174 43.6117 127.436 43.7782C127.876 44.0463 128.174 44.1862 128.33 44.1979C128.398 44.203 128.491 44.2638 128.61 44.3805C128.739 44.4881 128.856 44.6193 128.962 44.7742C129.122 44.9918 129.227 45.2935 129.276 45.6791C129.335 46.0655 129.329 46.4078 129.258 46.706C129.197 46.9952 129.088 47.134 128.933 47.1223C128.835 47.115 128.741 47.1373 128.648 47.1891C128.566 47.2417 128.502 47.3103 128.457 47.3951C128.374 47.5847 127.461 47.6729 125.719 47.6596C123.978 47.6366 122.704 47.6487 121.897 47.6959L120.689 47.752L120.469 49.8949C120.423 50.3714 120.385 50.7504 120.354 51.0321C120.333 51.3145 120.331 51.5298 120.35 51.6781C120.369 51.8166 120.401 51.9072 120.447 51.9498C120.493 51.9924 120.565 52.0077 120.664 51.9955C121.028 51.9738 121.558 52.2095 122.256 52.7026C122.964 53.1866 123.392 53.6203 123.539 54.0035C123.754 54.5386 123.762 55.0093 123.565 55.4156C123.368 55.822 123.018 56.0552 122.514 56.1153C120.783 56.3476 119.926 56.3372 119.946 56.084C119.959 55.9088 119.912 55.8171 119.805 55.8091C119.657 55.8176 119.52 55.9493 119.393 56.2042C119.371 56.2416 119.353 56.2844 119.339 56.3323C119.206 56.6749 119.058 57.4032 118.896 58.5172C118.735 59.6215 118.609 60.3172 118.519 60.6042C118.466 60.7961 118.501 60.9113 118.625 60.95C118.788 61.0014 119.369 61.0206 120.369 61.0075C121.811 60.9786 122.909 61.0317 123.662 61.1666C124.417 61.2918 125.152 61.5477 125.867 61.9344C126.459 62.2628 126.813 62.5049 126.929 62.6604C127.055 62.807 127.104 63.0702 127.075 63.45C127.035 63.9856 126.819 64.4444 126.428 64.8263L125.856 65.4003L120.514 65.1462L115.17 64.9066L114.516 64.0348C114.079 63.4634 113.8 62.9969 113.681 62.6354C113.56 62.2836 113.652 61.0663 113.955 58.9836C114.269 56.8918 114.654 54.8838 115.112 52.9595C115.597 50.9296 115.874 49.0701 115.942 47.381C115.975 46.6882 116.023 46.0406 116.088 45.4383C116.153 44.836 116.22 44.464 116.289 44.3223C116.36 44.1611 116.53 43.9926 116.797 43.8169C117.076 43.6321 117.396 43.4701 117.759 43.3309ZM144.58 42.7737C144.912 42.6615 145.16 42.6164 145.325 42.6386C145.5 42.6615 145.688 42.7638 145.89 42.9454C146.137 43.1696 146.328 43.752 146.464 44.6925C146.599 45.633 146.572 46.1843 146.383 46.3464C146.3 46.4087 146.228 46.5306 146.165 46.7119C146.102 46.8933 146.065 47.0716 146.051 47.2469C146.038 47.4222 145.946 47.6748 145.774 48.0047C145.603 48.3345 145.413 48.6386 145.206 48.9169C144.676 49.5919 144.405 50.0074 144.393 50.1632C144.382 50.3093 144.108 50.6951 143.572 51.3208C143.045 51.9374 142.779 52.2847 142.773 52.3626C142.768 52.4308 142.5 52.8072 141.969 53.492C141.559 53.9999 141.306 54.3677 141.21 54.5956C141.115 54.8235 141.147 54.9777 141.308 55.0583C141.43 55.1262 141.695 55.5133 142.102 56.2196C142.266 56.5159 142.428 56.7729 142.588 56.9906C142.758 57.1992 142.872 57.3057 142.931 57.3101C143.058 57.3196 143.115 57.4023 143.103 57.5581C143.098 57.6263 143.193 57.7999 143.387 58.0789C143.583 58.3482 143.815 58.6447 144.084 58.9685C144.751 59.7432 145.081 60.1744 145.074 60.2621C145.068 60.34 145.258 60.6823 145.644 61.289C146.39 62.4321 146.718 63.4752 146.628 64.4184C146.548 65.3525 146.062 66.0799 145.171 66.6006C144.865 66.7734 144.593 66.8754 144.355 66.9066C144.128 66.9384 143.831 66.9113 143.465 66.8251C143.186 66.7552 142.939 66.6583 142.723 66.5343C142.517 66.4111 142.385 66.2837 142.326 66.152C141.975 65.3422 141.583 64.5048 141.148 63.6398C140.724 62.7657 140.463 62.2711 140.364 62.156C140.021 61.7581 139.537 61.0999 138.911 60.1813C138.285 59.253 137.976 58.7401 137.983 58.6427C137.988 58.5745 137.954 58.5132 137.88 58.4586C137.816 58.3951 137.735 58.3597 137.638 58.3524C137.55 58.3458 137.465 58.3737 137.382 58.436C137.309 58.4893 137.27 58.5598 137.263 58.6474C137.257 58.735 137.184 58.852 137.046 58.9983C136.917 59.1454 136.761 59.2707 136.577 59.3744C136.402 59.4886 136.185 59.6976 135.928 60.0014C135.67 60.3052 135.446 60.6165 135.255 60.9351C134.951 61.4705 134.51 62.1181 133.934 62.8778C133.359 63.6279 132.827 64.2539 132.339 64.7559C132.094 65.0117 131.695 65.1188 131.14 65.0772C130.809 65.0523 130.55 64.9741 130.364 64.8427C130.187 64.7216 129.98 64.4808 129.742 64.1203C129.462 63.6879 129.313 63.3829 129.297 63.2055C129.281 63.028 129.369 62.7065 129.56 62.241C129.825 61.5852 130.059 61.1473 130.261 60.9275C130.581 60.5794 131.209 59.5836 132.145 57.94C132.596 57.161 132.93 56.623 133.148 56.326C133.366 56.029 133.534 55.8849 133.651 55.8937C133.709 55.898 133.76 55.8676 133.804 55.8024C133.858 55.7379 133.888 55.6666 133.894 55.5887C133.9 55.5011 133.953 55.3875 134.052 55.248C134.161 55.0995 134.283 54.9716 134.418 54.8642C134.741 54.6142 134.909 54.387 134.925 54.1825C134.94 53.978 134.809 53.7037 134.531 53.3597C134.244 53.0052 134.104 52.7841 134.111 52.6965C134.117 52.6088 133.693 52.0629 132.838 51.0585C132.487 50.6502 132.111 50.1764 131.711 49.6372C131.321 49.0986 131.03 48.6606 130.84 48.3232C130.537 47.7912 130.348 47.3755 130.273 47.076C130.208 46.7676 130.198 46.3114 130.243 45.7077C130.293 45.1825 130.356 44.8004 130.432 44.5614C130.519 44.323 130.645 44.1464 130.81 44.0315C131.253 43.7416 131.742 43.6804 132.278 43.8479C132.814 44.0155 133.344 44.3882 133.869 44.9662L135.605 46.8887C136.454 47.8338 137.059 48.5843 137.419 49.1402C137.568 49.3668 137.725 49.5647 137.888 49.7336C138.062 49.9033 138.187 49.9911 138.265 49.997C138.45 50.0109 138.688 49.8378 138.98 49.4777C139.281 49.1184 139.441 48.8121 139.46 48.5589C139.467 48.4713 139.547 48.3206 139.7 48.1069C139.863 47.8939 140.05 47.6827 140.261 47.4733C140.483 47.2647 140.67 47.0584 140.822 46.8544C140.974 46.6504 141.054 46.5094 141.059 46.4315C141.074 46.2367 141.186 46.0444 141.396 45.8545C141.616 45.6654 141.895 45.3435 142.233 44.889C142.613 44.3888 143.029 43.9352 143.481 43.5284C143.932 43.1217 144.299 42.8701 144.58 42.7737ZM158.304 45.8605C159.481 45.704 160.343 45.6953 160.891 45.8343C161.449 45.9741 161.961 46.3308 162.427 46.9044C162.633 47.155 162.809 47.4179 162.955 47.6933C163.101 47.9686 163.169 48.1648 163.161 48.2816C163.152 48.3985 163.167 48.5172 163.207 48.6377C163.248 48.7484 163.301 48.8259 163.366 48.8699C163.505 48.9783 163.582 49.1212 163.598 49.2987C163.615 49.4664 163.568 49.6392 163.457 49.8169C163.356 49.9856 163.221 50.1517 163.052 50.3153C162.894 50.4699 162.698 50.5923 162.466 50.6827C162.244 50.7737 162.02 50.8157 161.796 50.8086C160.645 50.7418 159.499 50.8173 158.356 51.0351C157.224 51.2439 156.593 51.4953 156.463 51.7891C156.427 51.8843 156.49 51.9576 156.652 52.009C156.891 52.0857 157.489 52.1501 158.445 52.2023C159.684 52.2562 160.918 52.388 162.146 52.5977C163.384 52.8081 164.046 52.9949 164.131 53.158C164.208 53.3107 164.431 53.4009 164.801 53.4286C165.103 53.4513 165.602 53.6601 166.297 54.055C167.002 54.441 167.642 54.8611 168.215 55.3154C168.788 55.76 169.069 56.07 169.056 56.2453C169.05 56.3232 169.235 56.5966 169.611 57.0655C169.754 57.2525 169.888 57.4829 170.014 57.7568C170.151 58.0315 170.231 58.2627 170.256 58.4507C170.282 58.6289 170.323 58.8033 170.378 58.974C170.445 59.1357 170.506 59.2382 170.561 59.2815C170.812 59.4668 170.776 60.0713 170.454 61.095C170.142 62.1195 169.713 63.0127 169.166 63.7747C168.751 64.3506 168.421 64.8302 168.177 65.2134C168.077 65.3724 167.891 65.569 167.618 65.8031C167.356 66.0381 167.085 66.2479 166.807 66.4327C166.148 66.8631 165.715 67.1537 165.508 67.3046C165.239 67.4999 164.756 67.733 164.06 68.0039C163.363 68.2845 162.922 68.4179 162.737 68.404C162.64 68.3967 162.551 68.4096 162.47 68.4427C162.399 68.4765 162.361 68.5178 162.358 68.5665C162.344 68.7515 161.821 68.9278 160.79 69.0952C159.769 69.2633 158.888 69.3196 158.148 69.2641C157.729 69.2326 157.308 69.2353 156.884 69.272C156.47 69.3095 156.157 69.3741 155.944 69.4659C155.387 69.7081 154.609 69.7672 153.61 69.6432C152.611 69.5192 151.676 69.2483 150.806 68.8305C150.4 68.6335 149.982 68.4601 149.553 68.3103C149.133 68.1613 148.836 68.0802 148.66 68.0671C148.456 68.0517 148.292 68.0101 148.17 67.9421C148.058 67.8749 148.006 67.7878 148.014 67.6807C148.02 67.593 147.988 67.4976 147.918 67.3943C147.856 67.3016 147.778 67.2321 147.683 67.1858C147.522 67.1149 147.426 66.8923 147.396 66.5179C147.364 66.1532 147.404 65.7595 147.514 65.3369C147.634 64.915 147.79 64.5986 147.982 64.3878C148.077 64.2872 148.146 64.2189 148.188 64.1829C148.231 64.1372 148.302 64.0984 148.402 64.0668C148.503 64.0254 148.584 64.0021 148.643 63.9967C148.712 63.9921 148.848 64.0072 149.051 64.042C149.254 64.0671 149.438 64.1005 149.601 64.1421C149.774 64.1845 150.058 64.2499 150.453 64.3383C150.992 64.4669 151.61 64.577 152.309 64.6685C153.007 64.7601 153.567 64.807 153.987 64.8093C155.124 64.8064 156.36 64.7083 157.697 64.5148C159.043 64.3221 159.945 64.1107 160.403 63.8807C160.922 63.6161 161.327 63.4457 161.617 63.3695C161.736 63.3393 161.838 63.2931 161.921 63.2307C162.004 63.1684 162.048 63.1081 162.052 63.0496C162.056 62.9912 162.094 62.9451 162.165 62.9112C162.237 62.8677 162.322 62.8495 162.419 62.8568C162.516 62.8641 162.648 62.8104 162.813 62.6955C162.989 62.5715 163.151 62.4271 163.301 62.262C163.665 61.8486 163.932 61.5553 164.102 61.382C164.272 61.1989 164.363 61.0295 164.375 60.8737C164.379 60.8152 164.418 60.7545 164.491 60.6914C164.575 60.6194 164.667 60.5675 164.767 60.5359C165.048 60.4492 165.179 60.2044 165.16 59.8015C165.152 59.3896 164.999 59.0843 164.7 58.8856C164.319 58.6219 163.508 58.3261 162.27 57.998C161.032 57.6603 160.34 57.5496 160.194 57.6659C160.058 57.783 159.688 57.814 159.085 57.759C158.483 57.6942 157.849 57.5976 157.183 57.4693C156.517 57.3312 155.917 57.1686 155.383 56.9816C154.859 56.7856 154.602 56.6194 154.613 56.4831C154.617 56.4246 154.572 56.3723 154.477 56.326C154.384 56.27 154.274 56.2373 154.147 56.2278C154.011 56.2175 153.831 56.1355 153.607 55.9816C153.393 55.8285 153.197 55.6423 153.017 55.4232C152.596 54.9117 152.336 54.6522 152.239 54.6449C152.024 54.6288 151.809 54.4315 151.593 54.0529C151.386 53.6751 151.215 53.2166 151.079 52.6776C150.954 52.1296 150.857 51.5837 150.791 51.0401C150.724 50.4867 150.726 50.007 150.796 49.6009C150.865 49.1948 151.001 48.9601 151.201 48.8968C151.311 48.8659 151.403 48.8189 151.476 48.7559C151.559 48.6936 151.603 48.6283 151.608 48.5602C151.617 48.4433 151.785 48.2307 152.112 47.9222C152.438 47.6138 152.66 47.464 152.777 47.4727C152.855 47.4786 153.221 47.3004 153.875 46.9382C154.385 46.6631 154.905 46.4622 155.433 46.3354C155.972 46.1996 156.929 46.0412 158.304 45.8605ZM178.991 49.9107C179.304 49.9244 179.912 49.7791 180.816 49.4748C181.721 49.1608 182.558 49.0424 183.325 49.1197C183.821 49.1667 184.158 49.241 184.337 49.3425C184.515 49.444 184.69 49.6579 184.862 49.9842C185.247 50.7182 185.365 51.5007 185.214 52.3316C185.165 52.6021 184.532 52.8778 183.316 53.1586C182.28 53.3942 181.343 53.745 180.505 54.2109C179.667 54.6768 179.056 55.1842 178.672 55.7332C178.331 56.2267 178.076 56.5552 177.907 56.7188C177.462 57.1653 177.096 57.8674 176.809 58.8251C176.532 59.7738 176.412 60.7245 176.448 61.6772C176.472 62.2666 176.537 62.6485 176.641 62.8228C176.746 62.9874 177.053 63.2062 177.561 63.4794C178.38 63.9228 179.178 64.252 179.955 64.4671C180.732 64.6821 181.988 64.9183 183.721 65.1758C184.371 65.2637 184.888 65.3467 185.274 65.4246C185.671 65.4935 186.031 65.5794 186.357 65.6821C186.692 65.7759 186.935 65.8724 187.084 65.9718C187.234 66.0614 187.356 66.193 187.451 66.3666C187.556 66.5311 187.617 66.707 187.632 66.8943C187.648 67.0717 187.64 67.3111 187.607 67.6122C187.577 68.0115 187.483 68.2835 187.326 68.4284C187.178 68.5642 186.762 68.768 186.075 69.0396C185.42 69.294 184.934 69.4387 184.618 69.4737C184.302 69.5088 183.84 69.4692 183.231 69.3549C182.324 69.1791 181.555 69.0431 180.926 68.9469C180.249 68.8373 179.414 68.6032 178.423 68.2448C177.44 67.8968 176.582 67.5239 175.848 67.1261C175.095 66.717 174.317 66.0612 173.513 65.1586C172.709 64.2561 172.169 63.4272 171.893 62.672C171.428 61.4325 171.446 59.8817 171.948 58.0195C172.451 56.1476 173.276 54.5594 174.421 53.2548C176.424 50.9764 177.947 49.8617 178.991 49.9107ZM195.918 47.509C197.107 47.4514 198.258 47.6504 199.369 48.1059C200.491 48.5525 201.537 49.2333 202.506 50.1483C203.227 50.8488 203.909 51.8107 204.552 53.0341C205.194 54.2575 205.651 55.4817 205.921 56.7065C206.077 57.3743 206.03 58.1298 205.781 58.9728C205.541 59.8167 205.158 60.5517 204.631 61.1781C204.287 61.5832 204.095 61.8528 204.056 61.987C204.027 62.1121 204.099 62.2644 204.271 62.4438C204.998 63.2035 205.743 64.2975 206.508 65.7259C207.282 67.155 207.688 68.204 207.726 68.8728C207.759 69.3453 207.734 69.6764 207.651 69.8661C207.568 70.0557 207.359 70.2947 207.024 70.5829C206.711 70.8434 206.454 71.0053 206.253 71.0685C206.063 71.1326 205.828 71.1248 205.55 71.0451C205.157 70.9372 204.682 70.6127 204.125 70.0714C203.578 69.5309 203.314 69.1341 203.333 68.8809C203.339 68.803 203.319 68.733 203.275 68.6709C203.232 68.5991 203.181 68.561 203.122 68.5566C203.064 68.5522 202.999 68.5033 202.928 68.4098C202.866 68.317 202.825 68.2111 202.804 68.092C202.775 67.9625 202.655 67.738 202.444 67.4186C202.233 67.0992 201.988 66.7723 201.709 66.438C201.044 65.6438 200.715 65.2078 200.721 65.1299C200.726 65.052 200.576 64.835 200.27 64.4791C199.964 64.1134 199.167 63.7793 197.877 63.4769C196.598 63.1751 195.816 62.95 195.534 62.8015C195.345 62.7089 195.231 62.7249 195.192 62.8493C195.143 62.9827 195.124 63.4905 195.137 64.3728C195.156 65.4221 195.002 66.6886 194.675 68.1722C194.359 69.6468 194.032 70.6016 193.696 71.0366C193.447 71.3509 193.105 71.5407 192.669 71.6059C192.233 71.6808 191.795 71.6431 191.356 71.4926C190.926 71.3428 190.524 71.0971 190.148 70.7555C189.782 70.4147 189.536 70.029 189.412 69.5986C189.253 68.9697 189.218 68.5949 189.305 68.4742C189.535 68.1584 189.761 67.3626 189.984 66.0866C190.218 64.8017 190.329 63.7035 190.32 62.792C190.304 61.4296 190.348 59.9394 190.449 58.3214C190.512 57.3566 190.52 56.5982 190.473 56.0463C190.437 55.4853 190.324 54.8452 190.133 54.1257L189.651 52.3268L190.328 51.129C190.699 50.491 191.165 49.8992 191.725 49.3536C192.285 48.8081 192.706 48.5459 192.989 48.5671C193.086 48.5744 193.165 48.5608 193.227 48.5262C193.298 48.4924 193.336 48.4462 193.34 48.3878C193.35 48.2515 193.667 48.0794 194.289 47.8715C194.923 47.6546 195.465 47.5338 195.918 47.509ZM198.975 52.968C198.553 52.7111 198.21 52.5825 197.946 52.5823C197.691 52.5828 197.241 52.7154 196.594 52.9802C195.846 53.2865 195.472 53.5815 195.47 53.8654C195.468 54.1492 195.415 55.1245 195.309 56.7912L195.164 59.307L196.654 59.4188C197.365 59.4722 197.846 59.4642 198.096 59.3948C198.346 59.3157 198.753 59.0525 199.315 58.605C199.639 58.3453 199.933 58.0736 200.199 57.79C200.466 57.4966 200.625 57.2735 200.675 57.1206C200.777 56.8149 200.776 56.3692 200.673 55.7837C200.58 55.1989 200.455 54.9007 200.299 54.889C200.241 54.8846 200.168 54.8106 200.081 54.6669C200.004 54.5143 199.93 54.3324 199.858 54.1213C199.795 53.911 199.674 53.6962 199.495 53.4771C199.326 53.249 199.152 53.0793 198.975 52.968ZM212.795 50.4653C213.358 50.2627 213.92 50.1482 214.48 50.1217C215.041 50.0952 216.193 50.1377 217.938 50.2491C219.478 50.3451 220.553 50.4405 221.162 50.5352C221.773 50.6202 222.209 50.746 222.471 50.9126C222.911 51.1806 223.209 51.3205 223.365 51.3322C223.433 51.3373 223.526 51.3982 223.645 51.5148C223.774 51.6224 223.891 51.7537 223.997 51.9085C224.157 52.1262 224.262 52.4278 224.311 52.8135C224.37 53.1998 224.364 53.5421 224.293 53.8404C224.232 54.1296 224.124 54.2684 223.968 54.2567C223.871 54.2493 223.776 54.2716 223.684 54.3235C223.602 54.376 223.538 54.4447 223.492 54.5294C223.409 54.7191 222.497 54.8073 220.755 54.794C219.013 54.771 217.739 54.7831 216.933 54.8302L215.724 54.8864L215.504 57.0293C215.459 57.5057 215.42 57.8848 215.389 58.1665C215.368 58.4489 215.367 58.6642 215.385 58.8125C215.404 58.951 215.436 59.0416 215.482 59.0842C215.528 59.1268 215.6 59.142 215.699 59.1298C216.063 59.1082 216.594 59.3439 217.291 59.837C217.999 60.321 218.427 60.7546 218.574 61.1378C218.789 61.673 218.798 62.1437 218.601 62.55C218.404 62.9563 218.053 63.1895 217.549 63.2496C215.818 63.482 214.962 63.4716 214.981 63.2184C214.994 63.0431 214.947 62.9515 214.84 62.9434C214.692 62.9519 214.555 63.0836 214.428 63.3385C214.406 63.376 214.388 63.4187 214.375 63.4667C214.241 63.8092 214.093 64.5375 213.931 65.6516C213.77 66.7559 213.645 67.4515 213.554 67.7386C213.501 67.9304 213.536 68.0457 213.661 68.0844C213.823 68.1358 214.405 68.1549 215.404 68.1419C216.846 68.113 217.944 68.166 218.698 68.301C219.452 68.4261 220.187 68.6821 220.902 69.0687C221.495 69.3972 221.849 69.6392 221.964 69.7948C222.09 69.9414 222.139 70.2045 222.111 70.5843C222.07 71.1199 221.855 71.5787 221.464 71.9607L220.892 72.5347L215.549 72.2805L210.205 72.0409L209.551 71.1692C209.114 70.5978 208.836 70.1313 208.716 69.7698C208.595 69.418 208.687 68.2007 208.99 66.1179C209.304 64.0262 209.69 62.0182 210.147 60.0939C210.633 58.064 210.91 56.2045 210.978 54.5154C211.01 53.8225 211.059 53.1749 211.123 52.5726C211.188 51.9703 211.255 51.5983 211.325 51.4566C211.396 51.2955 211.565 51.127 211.833 50.9512C212.111 50.7665 212.432 50.6045 212.795 50.4653ZM228.103 51.6145C228.667 51.412 229.229 51.2974 229.789 51.2709C230.349 51.2445 231.501 51.2869 233.246 51.3983C234.786 51.4943 235.861 51.5897 236.471 51.6844C237.082 51.7695 237.518 51.8952 237.779 52.0618C238.22 52.3298 238.518 52.4697 238.673 52.4814C238.742 52.4865 238.835 52.5474 238.953 52.664C239.082 52.7717 239.2 52.9029 239.306 53.0577C239.466 53.2754 239.57 53.577 239.62 53.9627C239.679 54.3491 239.673 54.6914 239.601 54.9896C239.541 55.2788 239.432 55.4176 239.276 55.4059C239.179 55.3986 239.084 55.4208 238.992 55.4727C238.91 55.5253 238.846 55.5939 238.801 55.6786C238.718 55.8683 237.805 55.9565 236.063 55.9432C234.322 55.9202 233.048 55.9323 232.241 55.9795L231.032 56.0356L230.813 58.1785C230.767 58.6549 230.729 59.034 230.698 59.3157C230.677 59.5981 230.675 59.8134 230.694 59.9617C230.712 60.1002 230.745 60.1908 230.791 60.2334C230.836 60.276 230.909 60.2912 231.008 60.2791C231.372 60.2574 231.902 60.4931 232.6 60.9862C233.308 61.4702 233.735 61.9038 233.883 62.287C234.097 62.8222 234.106 63.2929 233.909 63.6992C233.712 64.1055 233.362 64.3387 232.858 64.3988C231.126 64.6312 230.27 64.6208 230.289 64.3676C230.302 64.1923 230.255 64.1007 230.148 64.0926C230.001 64.1011 229.864 64.2328 229.737 64.4877C229.714 64.5252 229.696 64.5679 229.683 64.6159C229.55 64.9584 229.402 65.6867 229.24 66.8008C229.079 67.9051 228.953 68.6008 228.863 68.8878C228.809 69.0796 228.845 69.1949 228.969 69.2336C229.132 69.285 229.713 69.3042 230.713 69.2911C232.155 69.2622 233.252 69.3152 234.006 69.4502C234.761 69.5754 235.495 69.8313 236.211 70.2179C236.803 70.5464 237.157 70.7884 237.273 70.944C237.399 71.0906 237.448 71.3538 237.419 71.7335C237.379 72.2691 237.163 72.7279 236.772 73.1099L236.2 73.6839L230.858 73.4297L225.514 73.1902L224.86 72.3184C224.423 71.747 224.144 71.2805 224.024 70.919C223.904 70.5672 223.995 69.3499 224.299 67.2671C224.612 65.1754 224.998 63.1674 225.456 61.2431C225.941 59.2132 226.218 57.3537 226.286 55.6646C226.318 54.9717 226.367 54.3241 226.432 53.7218C226.497 53.1195 226.564 52.7475 226.633 52.6058C226.704 52.4447 226.873 52.2762 227.141 52.1005C227.419 51.9157 227.74 51.7537 228.103 51.6145ZM252.705 52.2421C252.965 51.9091 253.287 51.7325 253.67 51.7123C254.064 51.6831 254.589 51.8106 255.243 52.0948C255.869 52.367 256.374 52.7477 256.758 53.2368C257.143 53.7259 257.371 54.2719 257.443 54.8747C257.533 55.6355 257.473 57.3448 257.264 60.0026C257.065 62.6514 256.853 64.4374 256.627 65.3606C256.393 66.3811 256.138 67.7624 255.86 69.5043C255.665 70.8019 255.424 71.8659 255.136 72.6963C254.859 73.5177 254.595 73.9631 254.345 74.0325C254.265 74.0558 254.198 74.1047 254.143 74.1789C254.089 74.2532 254.058 74.3341 254.052 74.4217C254.022 74.821 253.471 74.9804 252.4 74.9C252.137 74.8803 251.738 74.7181 251.202 74.4135C250.666 74.1186 250.181 73.7982 249.747 73.4522C249.322 73.107 249.116 72.8565 249.128 72.7006C249.138 72.5643 249.06 72.4899 248.895 72.4775C248.739 72.4658 248.406 72.1372 247.896 71.4918C247.396 70.8471 247.148 70.4319 247.152 70.2461C247.158 70.1682 247.13 70.0829 247.069 69.9901C247.018 69.8883 246.955 69.8102 246.881 69.7556C246.798 69.6906 246.683 69.5253 246.536 69.2597C246.39 68.9843 246.251 68.6899 246.118 68.3763C245.79 67.529 245.543 67.0943 245.378 67.0721C245.193 67.0583 245.034 67.6192 244.899 68.7549C244.826 69.3467 244.745 70.2221 244.658 71.3809C244.592 72.2574 244.525 72.9623 244.455 73.4957C244.395 74.0396 244.318 74.4794 244.224 74.8151C244.14 75.1515 244.04 75.379 243.923 75.4976C243.815 75.6266 243.684 75.6853 243.528 75.6736C243.431 75.6663 243.336 75.6837 243.245 75.7258C243.163 75.7686 243.11 75.8283 243.085 75.9047C243.038 75.9992 242.917 76.044 242.722 76.0391C242.526 76.0439 242.289 75.9968 242.013 75.8977C241.745 75.8091 241.465 75.695 241.172 75.5555C240.888 75.4264 240.615 75.2689 240.355 75.0829C240.104 74.9073 239.916 74.7365 239.791 74.5705C239.399 74.0611 239.209 73.7237 239.221 73.5581C239.234 73.3926 239.477 69.8854 239.952 63.0365L240.68 52.7496L242.096 52.8706C243.127 52.9676 243.874 53.1901 244.338 53.5383C244.802 53.8767 245.218 54.5298 245.586 55.4976C245.986 56.556 246.453 57.5752 246.987 58.5554C247.531 59.5266 248.019 60.5278 248.451 61.5592C249.633 64.3312 250.396 65.9162 250.738 66.314C250.873 66.4711 250.966 66.4683 251.018 66.3057C251.057 66.1813 251.096 65.9149 251.137 65.5066C251.214 64.7388 251.408 63.3284 251.719 61.2756C252.007 59.3877 252.215 57.7286 252.342 56.2986C252.47 54.8588 252.486 53.9199 252.392 53.4819C252.297 53.0439 252.402 52.6307 252.705 52.2421ZM261.32 54.1081C261.884 53.9056 262.446 53.7911 263.006 53.7646C263.566 53.7381 264.719 53.7805 266.463 53.8919C268.003 53.9879 269.078 54.0833 269.688 54.1781C270.299 54.2631 270.735 54.3889 270.996 54.5554C271.437 54.8235 271.735 54.9634 271.89 54.9751C271.959 54.9802 272.052 55.041 272.171 55.1577C272.3 55.2653 272.417 55.3965 272.523 55.5514C272.683 55.769 272.787 56.0707 272.837 56.4563C272.896 56.8427 272.89 57.185 272.819 57.4832C272.758 57.7724 272.649 57.9112 272.493 57.8995C272.396 57.8922 272.301 57.9145 272.209 57.9663C272.127 58.0189 272.063 58.0875 272.018 58.1723C271.935 58.3619 271.022 58.4501 269.28 58.4368C267.539 58.4138 266.265 58.4259 265.458 58.4731L264.249 58.5292L264.03 60.6721C263.984 61.1486 263.946 61.5276 263.915 61.8093C263.894 62.0917 263.892 62.3071 263.911 62.4553C263.93 62.5938 263.962 62.6844 264.008 62.727C264.053 62.7696 264.126 62.7849 264.225 62.7727C264.589 62.751 265.119 62.9867 265.817 63.4798C266.525 63.9638 266.952 64.3975 267.1 64.7807C267.314 65.3158 267.323 65.7865 267.126 66.1928C266.929 66.5992 266.579 66.8324 266.075 66.8925C264.343 67.1248 263.487 67.1144 263.506 66.8612C263.52 66.686 263.473 66.5943 263.365 66.5863C263.218 66.5948 263.081 66.7265 262.954 66.9814C262.931 67.0188 262.914 67.0616 262.9 67.1095C262.767 67.4521 262.619 68.1804 262.457 69.2944C262.296 70.3987 262.17 71.0944 262.08 71.3814C262.026 71.5733 262.062 71.6885 262.186 71.7273C262.349 71.7786 262.93 71.7978 263.93 71.7847C265.372 71.7558 266.47 71.8089 267.223 71.9438C267.978 72.069 268.713 72.3249 269.428 72.7116C270.02 73.04 270.374 73.2821 270.49 73.4376C270.616 73.5842 270.665 73.8474 270.636 74.2272C270.596 74.7628 270.38 75.2216 269.989 75.6035L269.417 76.1775L264.075 75.9234L258.731 75.6838L258.077 74.812C257.64 74.2406 257.361 73.7741 257.242 73.4126C257.121 73.0608 257.212 71.8435 257.516 69.7608C257.829 67.669 258.215 65.661 258.673 63.7367C259.158 61.7068 259.435 59.8473 259.503 58.1582C259.536 57.4654 259.584 56.8178 259.649 56.2155C259.714 55.6132 259.781 55.2412 259.85 55.0995C259.921 54.9383 260.09 54.7698 260.358 54.5941C260.637 54.4093 260.957 54.2473 261.32 54.1081ZM279.91 53.8143C281.099 53.7567 282.25 53.9557 283.361 54.4113C284.483 54.8579 285.529 55.5386 286.498 56.4536C287.22 57.1541 287.901 58.116 288.544 59.3395C289.187 60.5629 289.643 61.787 289.914 63.0119C290.069 63.6797 290.022 64.4351 289.773 65.2782C289.533 66.122 289.15 66.8571 288.623 67.4835C288.279 67.8885 288.088 68.1582 288.048 68.2923C288.019 68.4174 288.091 68.5697 288.264 68.7492C288.99 69.5088 289.735 70.6028 290.5 72.0312C291.274 73.4604 291.68 74.5094 291.718 75.1781C291.751 75.6507 291.726 75.9818 291.643 76.1714C291.56 76.3611 291.352 76.6 291.017 76.8882C290.703 77.1487 290.446 77.3106 290.246 77.3739C290.055 77.4379 289.82 77.4301 289.542 77.3505C289.149 77.2426 288.674 76.918 288.117 76.3768C287.57 75.8363 287.306 75.4394 287.325 75.1862C287.331 75.1083 287.312 75.0383 287.267 74.9762C287.224 74.9044 287.173 74.8663 287.114 74.8619C287.056 74.8575 286.991 74.8086 286.92 74.7151C286.858 74.6223 286.817 74.5164 286.797 74.3974C286.767 74.2679 286.647 74.0434 286.436 73.724C286.225 73.4045 285.98 73.0777 285.702 72.7434C285.037 71.9492 284.707 71.5131 284.713 71.4352C284.719 71.3573 284.568 71.1404 284.262 70.7844C283.957 70.4187 283.159 70.0847 281.87 69.7822C280.59 69.4805 279.808 69.2553 279.526 69.1068C279.337 69.0143 279.223 69.0302 279.184 69.1546C279.135 69.288 279.117 69.7959 279.129 70.6782C279.148 71.7275 278.994 72.9939 278.667 74.4775C278.351 75.9521 278.025 76.9069 277.688 77.342C277.44 77.6563 277.097 77.846 276.661 77.9112C276.225 77.9862 275.787 77.9484 275.348 77.7979C274.918 77.6482 274.516 77.4025 274.14 77.0609C273.774 76.72 273.528 76.3344 273.404 75.9039C273.246 75.2751 273.21 74.9003 273.298 74.7795C273.527 74.4638 273.753 73.6679 273.976 72.392C274.21 71.107 274.322 70.0088 274.312 69.0973C274.296 67.7349 274.34 66.2447 274.442 64.6267C274.504 63.6619 274.512 62.9035 274.466 62.3516C274.429 61.7907 274.316 61.1505 274.125 60.4311L273.643 58.6321L274.321 57.4344C274.692 56.7963 275.157 56.2045 275.717 55.659C276.277 55.1134 276.698 54.8512 276.981 54.8724C277.078 54.8797 277.157 54.8661 277.219 54.8315C277.29 54.7977 277.328 54.7516 277.332 54.6931C277.342 54.5568 277.659 54.3847 278.282 54.1768C278.915 53.96 279.458 53.8391 279.91 53.8143ZM282.967 59.2733C282.546 59.0165 282.203 58.8879 281.938 58.8876C281.684 58.8881 281.233 59.0207 280.586 59.2856C279.839 59.5918 279.464 59.8868 279.462 60.1707C279.46 60.4546 279.407 61.4299 279.301 63.0966L279.156 65.6123L280.646 65.7242C281.357 65.7775 281.838 65.7695 282.088 65.7002C282.339 65.6211 282.745 65.3578 283.308 64.9104C283.631 64.6506 283.925 64.3789 284.191 64.0953C284.458 63.802 284.617 63.5789 284.668 63.426C284.769 63.1202 284.768 62.6746 284.665 62.089C284.572 61.5042 284.447 61.206 284.292 61.1943C284.233 61.1899 284.16 61.1159 284.073 60.9723C283.997 60.8196 283.922 60.6377 283.85 60.4267C283.787 60.2163 283.666 60.0016 283.487 59.7824C283.318 59.5543 283.145 59.3846 282.967 59.2733Z" fill="white"/>
<defs>
<filter id="filter0_b_12_160" x="10.8469" y="5.26147" width="378.617" height="111.211" filterUnits="userSpaceOnUse" color-interpolation-filters="sRGB">
<feFlood flood-opacity="0" result="BackgroundImageFix"/>
<feGaussianBlur in="BackgroundImageFix" stdDeviation="3.5"/>
<feComposite in2="SourceAlpha" operator="in" result="effect1_backgroundBlur_12_160"/>
<feBlend mode="normal" in="SourceGraphic" in2="effect1_backgroundBlur_12_160" result="shape"/>
</filter>
</defs>
</svg>
