<svg width="330" height="52" viewBox="0 0 330 52" fill="none" xmlns="http://www.w3.org/2000/svg">
<path d="M2.07781 6.14681C2.10147 5.81432 2.19827 5.62801 2.36821 5.58789C2.53815 5.54776 2.66955 5.68243 2.7624 5.99188C2.79657 6.09875 2.85226 6.19669 2.92947 6.28573C3.00742 6.36438 3.07756 6.40592 3.1399 6.41036C3.21264 6.41553 3.32769 6.48638 3.48507 6.62289C3.64318 6.74902 3.79425 6.90075 3.93828 7.07808C4.0823 7.25542 4.28385 7.43163 4.54291 7.60671C4.81236 7.78252 5.06509 7.89972 5.30111 7.95828C5.8741 8.12437 6.24003 8.26528 6.39888 8.38101C6.61712 8.54274 6.86205 8.62283 7.13368 8.62127C7.4157 8.62045 7.67989 8.5766 7.92627 8.4897C8.18377 8.39315 8.40304 8.24688 8.58407 8.0509C8.7651 7.85492 8.86412 7.63745 8.88113 7.39847C8.91222 7.10827 9.05797 6.82102 9.31839 6.5367C9.58994 6.24274 9.84001 6.10388 10.0686 6.12015C10.1517 6.12607 10.2568 6.19098 10.3837 6.31488C10.5218 6.42914 10.6483 6.55824 10.7634 6.70218C10.9349 6.93369 11.0244 7.1437 11.0319 7.3322C11.0401 7.51032 10.973 7.79273 10.8306 8.17943C10.6356 8.71903 10.3101 11.3849 9.85425 16.1772C9.39912 20.959 9.24207 23.3863 9.3831 23.459C9.48331 23.5183 9.51086 23.8649 9.46576 24.4987C9.43031 25.1437 9.34178 25.7274 9.20017 26.2499C9.06078 26.7413 8.74438 27.2252 8.25098 27.7018C7.76796 28.1792 7.27117 28.4832 6.7606 28.614C6.27155 28.7358 5.31416 28.6886 3.88842 28.4723C2.47233 28.2671 1.66777 28.0532 1.47475 27.8306C1.36859 27.7081 1.33479 27.5961 1.37335 27.4944C1.41118 27.4031 1.53434 27.2866 1.74285 27.1447C2.00553 26.9755 2.51092 26.9174 3.25903 26.9707C4.01679 27.035 4.70555 27.1885 5.32532 27.431C5.68159 27.5608 6.13501 27.4259 6.68558 27.0265L7.52814 26.4129L7.5475 23.9393C7.54493 22.6546 7.59835 21.2434 7.70778 19.7056C7.81794 18.1574 8.01957 15.9109 8.31266 12.9659L8.64572 9.60608L6.88455 9.48076C5.93902 9.41348 5.2087 9.25708 4.69357 9.01157C4.17845 8.76605 3.5653 8.28382 2.85412 7.56486C2.61062 7.31779 2.41462 7.06365 2.26612 6.80245C2.12801 6.54199 2.06524 6.32345 2.07781 6.14681ZM24.0513 3.55926C24.1559 3.41005 24.3852 3.34283 24.7392 3.35757C25.1036 3.37306 25.4376 3.44904 25.7412 3.58552C26.0551 3.72273 26.2062 3.87446 26.1944 4.04071C26.1884 4.12383 26.2415 4.25814 26.3537 4.44365C26.4665 4.61877 26.6054 4.79574 26.7702 4.97455C27.0033 5.22089 27.1525 5.4717 27.2179 5.72698C27.2944 5.97261 27.3179 6.30324 27.2883 6.71885C27.2572 7.15525 27.2711 7.47474 27.3297 7.67734C27.3996 7.87028 27.5343 8.03129 27.734 8.16037C27.9633 8.31245 28.0907 8.50426 28.116 8.73581C28.142 8.95697 28.0995 9.48131 27.9884 10.3088C27.8187 11.5186 27.6672 12.3276 27.5337 12.7358C27.4803 12.8991 27.457 13.0802 27.4637 13.2791C27.4816 13.4683 27.5239 13.6071 27.5908 13.6954C27.6858 13.8275 27.7114 13.9807 27.6677 14.1552C27.624 14.3296 27.4975 14.566 27.2883 14.8644C27.1607 15.0433 27.0327 15.3005 26.9044 15.636C26.7768 15.9611 26.6638 16.3029 26.5652 16.6614C26.4769 17.0206 26.4054 17.3653 26.3506 17.6956C26.2965 18.0155 26.2721 18.2853 26.2773 18.5049C26.2937 18.715 26.3435 18.8229 26.4266 18.8289C26.5097 18.8348 26.6136 18.7691 26.7382 18.6317C26.8636 18.484 26.9808 18.3044 27.0899 18.0928C27.1514 17.9615 27.2171 17.846 27.2868 17.7466C27.367 17.6478 27.4345 17.5795 27.4894 17.5417C27.5443 17.5038 27.5914 17.5019 27.6308 17.5361C27.6983 17.614 27.754 17.5657 27.7977 17.3913C27.8118 17.3401 27.8207 17.2885 27.8244 17.2366C27.8592 16.8944 27.9949 16.455 28.2315 15.9184C28.4681 15.3817 28.7258 14.9145 29.0048 14.5166C29.2949 14.1091 29.5178 13.9109 29.6737 13.922C29.9023 13.9382 30.276 14.1162 30.7948 14.456C31.3144 14.7854 31.5698 15.0124 31.5609 15.1371C31.5491 15.3033 31.7745 15.7319 32.237 16.4227C32.4367 16.698 32.5997 16.9759 32.726 17.2564C32.8529 17.5265 32.9127 17.7135 32.9053 17.8174C32.8972 17.9317 32.9258 18.0434 32.9912 18.1525C33.0676 18.2519 33.1612 18.3316 33.2718 18.3917C33.3831 18.4414 33.4566 18.5093 33.4922 18.5954C33.5286 18.6711 33.5179 18.7486 33.46 18.8281C33.3435 18.9973 33.3558 19.1914 33.4969 19.4103C33.6491 19.6195 33.7538 19.982 33.8111 20.4978C33.9271 21.3624 34.0342 21.9862 34.1322 22.3691C34.2414 22.7424 34.3792 23.008 34.5455 23.166C34.7222 23.3248 34.8083 23.4354 34.8038 23.4977C34.8098 23.5608 34.7311 23.6388 34.5679 23.7316C34.2637 23.8979 33.985 23.852 33.7318 23.5938C33.4794 23.3252 33.296 22.8944 33.1815 22.3014C32.9883 21.2016 32.6376 19.8922 32.1296 18.3731C31.6319 16.8548 31.3 16.0897 31.1337 16.0779C31.0818 16.0742 30.9919 16.0156 30.8643 15.9021C30.7477 15.7789 30.6326 15.635 30.519 15.4702C30.2911 15.1512 30.0658 15.015 29.8432 15.0619C29.6206 15.1087 29.4956 15.3243 29.4682 15.7087C29.4593 15.8334 29.4026 15.9704 29.298 16.1196C29.2045 16.2591 29.0981 16.3612 28.9786 16.4258C28.773 16.5261 28.6628 16.607 28.648 16.6686C28.6332 16.7302 28.7052 16.8189 28.8641 16.9346C29.0229 17.0503 29.0942 17.1494 29.0779 17.2318C29.0727 17.3045 28.9744 17.4385 28.783 17.6337C28.6598 17.7503 28.5393 17.9767 28.4214 18.3129C28.3146 18.6395 28.2434 18.979 28.2079 19.3316C28.1057 20.1806 27.9912 20.6894 27.8643 20.8579C27.7382 21.016 27.6541 21.3912 27.6119 21.9834C27.5846 22.3679 27.5253 22.6143 27.434 22.7227C27.3531 22.8318 27.1713 22.892 26.8886 22.9032C26.6162 22.9151 26.4154 22.8747 26.2863 22.782C26.1682 22.6796 26.0584 22.4629 25.9566 22.132C25.8786 21.9071 25.7876 21.7179 25.6837 21.5643C25.5909 21.401 25.5081 21.3168 25.4354 21.3116C25.373 21.3072 25.3385 21.2786 25.3318 21.226C25.3259 21.1629 25.3463 21.0964 25.393 21.0267C25.4739 20.9175 25.4589 20.6136 25.3482 20.1149C25.2486 19.6066 25.1283 19.243 24.9872 19.0241C24.9679 19.0018 24.8978 19.0334 24.7769 19.1187C24.667 19.1945 24.5179 19.3092 24.3294 19.4629C24.141 19.6165 23.941 19.7851 23.7295 19.9684C23.3838 20.278 23.0202 20.5445 22.6388 20.768C22.2574 20.9915 21.9453 21.1207 21.7026 21.1557C21.4696 21.2018 21.2722 21.2608 21.1105 21.3329C20.9494 21.3945 20.8667 21.4565 20.8623 21.5188C20.8586 21.5708 20.8022 21.6294 20.6931 21.6948C20.5944 21.7608 20.4708 21.8095 20.3224 21.8407L19.2905 22.0336C18.941 22.1027 18.7747 22.0178 18.7917 21.7788C18.7991 21.6749 18.8792 21.5761 19.0321 21.4826C19.1857 21.3786 19.3731 21.3137 19.5942 21.2876C19.8161 21.2512 20.0024 21.2018 20.153 21.1394C20.3037 21.077 20.3808 21.0199 20.3845 20.9679C20.389 20.9056 20.4505 20.8473 20.5693 20.7931C20.6887 20.7285 20.8331 20.6813 21.0023 20.6516C21.3941 20.575 21.9225 20.268 22.5873 19.7305C23.2632 19.1834 23.6105 18.7799 23.6289 18.5201C23.6371 18.4058 23.6853 18.3153 23.7736 18.2485C23.8626 18.1713 23.9643 18.1367 24.0786 18.1449C24.2864 18.1596 24.4232 17.8509 24.4891 17.2185C24.5654 16.5869 24.5563 15.8344 24.4618 14.9609C24.3673 14.0874 24.2057 13.3501 23.9769 12.749C23.6175 11.7836 23.3731 10.889 23.2437 10.0652C23.1255 9.23181 23.142 8.55941 23.2932 8.04803L23.5246 7.2186L23.6172 8.11807L23.7254 9.01865L23.8132 8.226C23.8391 8.00854 23.8895 7.81371 23.9644 7.64151C24.0401 7.45892 24.115 7.35982 24.1892 7.34422C24.2746 7.31896 24.3369 7.2503 24.3762 7.13822C24.4266 7.01649 24.4459 6.89255 24.434 6.76638C24.4087 6.53484 24.37 6.41722 24.3181 6.41352C24.2669 6.39943 24.1352 6.48927 23.923 6.68303C23.7219 6.86714 23.6043 6.90576 23.5701 6.7989C23.5463 6.69278 23.5781 6.24599 23.6655 5.45854C23.7951 4.37125 23.9237 3.73815 24.0513 3.55926ZM26.0855 4.91017C25.9845 4.56881 25.7978 4.331 25.5254 4.19674C25.2633 4.06322 25.0262 4.09334 24.814 4.28711C24.6589 4.41183 24.5807 4.70389 24.5794 5.16328C24.5891 5.61303 24.6712 5.92694 24.8256 6.10502C24.9994 6.30535 25.0242 7.42452 24.9 9.46251C24.8284 10.7628 24.8082 11.6333 24.8395 12.0742C24.8708 12.515 24.9822 12.8571 25.1738 13.1005C25.4989 13.5205 25.7676 13.7067 25.9799 13.6591C26.1921 13.6116 26.316 13.3384 26.3515 12.8397C26.3922 12.2682 26.5263 11.7034 26.754 11.1452C26.892 10.8209 26.9658 10.5911 26.9754 10.4561C26.985 10.321 26.9337 10.2338 26.8217 10.1945C26.7408 10.1574 26.6836 10.0071 26.6501 9.74369C26.6174 9.46984 26.6151 9.1355 26.6432 8.74066C26.6883 8.10685 26.6718 7.53131 26.5937 7.01405C26.5164 6.4864 26.347 5.7851 26.0855 4.91017ZM26.5527 19.9187C26.7175 20.0975 26.8644 20.0871 26.9935 19.8874C27.133 19.6885 27.1203 19.4996 26.9555 19.3208C26.8011 19.1427 26.6541 19.1531 26.5147 19.3521C26.3863 19.5413 26.399 19.7302 26.5527 19.9187ZM40.3171 17.123C40.3437 16.7489 40.3819 16.5793 40.4316 16.6142C40.4413 16.6253 40.4554 16.6472 40.4739 16.6798C40.5415 16.904 40.5234 17.1585 40.4196 17.4435C40.3424 17.6469 40.302 17.6284 40.2982 17.3879C40.3034 17.3152 40.3097 17.2269 40.3171 17.123ZM40.9142 14.4555C41.4425 14.3678 41.9717 14.3428 42.5016 14.3805C43.0419 14.4189 43.5095 14.5253 43.9044 14.6996C44.3096 14.8746 44.5045 15.0712 44.489 15.2894C44.4779 15.4453 44.5592 15.4772 44.7328 15.3851C44.9717 15.2559 45.2412 15.2855 45.541 15.4739C45.8409 15.6624 45.982 15.8813 45.9642 16.1306C45.9398 16.4735 46.0446 16.9091 46.2785 17.4375C46.3669 17.6631 46.4312 17.934 46.4713 18.2501C46.5226 18.5566 46.5298 18.8234 46.4927 19.0505C46.2942 20.5193 46.382 21.267 46.756 21.2936C46.8599 21.301 46.9464 21.3333 47.0155 21.3904C47.0852 21.4371 47.1179 21.4917 47.1135 21.554C47.1009 21.7307 47.3863 21.9024 47.9697 22.0692C48.5642 22.2264 49.1746 22.3064 49.801 22.3092C50.5424 22.3097 50.9065 22.4035 50.8932 22.5905C50.888 22.6633 50.8416 22.7278 50.7541 22.7843C50.6776 22.831 50.5875 22.8507 50.4836 22.8433C50.3797 22.8359 50.2895 22.8556 50.2131 22.9024C50.1366 22.9492 50.0962 23.0038 50.0918 23.0661C50.0866 23.1388 49.9471 23.1916 49.6732 23.2243C49.4001 23.2466 49.0714 23.2441 48.6869 23.2168C48.0739 23.1731 47.6256 23.089 47.3421 22.9644C47.0697 22.8302 46.6744 22.5149 46.1562 22.0185C45.373 21.284 44.9191 20.9123 44.7944 20.9034C44.7425 20.8997 44.6608 20.9461 44.5495 21.0426C44.4494 21.1295 44.3474 21.2423 44.2435 21.3811C44.1508 21.5103 44.0384 21.6224 43.9063 21.7174C43.7749 21.8021 43.6625 21.8411 43.569 21.8344C43.4859 21.8285 43.4102 21.8649 43.3419 21.9436C43.2744 22.0119 43.2366 22.1031 43.2285 22.2174C43.2174 22.3733 43.1636 22.4687 43.0671 22.5036C42.9818 22.5288 42.8318 22.5077 42.6173 22.4403C42.2396 22.3194 41.8819 22.4297 41.5443 22.7712C41.364 22.9568 41.2208 23.0614 41.1147 23.0852C41.0189 23.1097 40.9339 23.0567 40.8597 22.9261C40.7966 22.7859 40.7127 22.7172 40.608 22.7202C40.5034 22.7232 40.3364 22.7949 40.1071 22.9352C39.8237 23.103 39.4953 23.1684 39.122 23.1314C38.7494 23.084 38.5701 22.9616 38.5842 22.7642C38.5886 22.7018 38.5307 22.6351 38.4105 22.5639C38.291 22.4822 38.1444 22.4144 37.9707 22.3602C37.797 22.3061 37.6504 22.2383 37.5309 22.1566C37.4121 22.0647 37.3553 21.9823 37.3605 21.9096C37.3657 21.8368 37.3182 21.7708 37.218 21.7114C37.1281 21.6528 37.0105 21.6184 36.865 21.608C36.678 21.5947 36.5463 21.5383 36.4698 21.4389C36.4037 21.3402 36.3792 21.1714 36.3962 20.9324C36.4258 20.5168 36.3537 20.1357 36.1799 19.7892C36.0693 19.5829 36.0251 19.397 36.0473 19.2315C36.0695 19.066 36.1633 18.8481 36.3287 18.5779C36.4356 18.3975 36.5632 18.2187 36.7116 18.0412C36.8703 17.8646 36.9931 17.7532 37.0799 17.7072C37.1668 17.6611 37.2473 17.5572 37.3214 17.3954C37.3956 17.2336 37.4386 17.0696 37.4504 16.9033C37.4637 16.7163 37.5108 16.5682 37.5917 16.4591C37.6726 16.35 37.7701 16.2995 37.8844 16.3076C37.9883 16.315 38.0792 16.2849 38.1572 16.2174C38.2455 16.1505 38.2929 16.0704 38.2996 15.9769C38.3136 15.7795 38.6149 15.5085 39.2033 15.164C39.7917 14.8194 40.362 14.5833 40.9142 14.4555ZM43.6809 15.8585C43.3744 15.6174 43.0719 15.4653 42.7735 15.4023C42.4759 15.3289 42.2547 15.355 42.1101 15.4804C42.0091 15.5777 41.8481 15.6393 41.627 15.6654C40.9524 15.7531 40.4696 15.8598 40.1787 15.9853C39.8982 16.1115 39.7168 16.3127 39.6345 16.5888C39.5819 16.7417 39.4706 16.9113 39.3007 17.0976C39.1419 17.2743 38.9753 17.4139 38.801 17.5163C38.6273 17.6084 38.4726 17.7279 38.3368 17.8749C38.2114 18.0226 38.1451 18.1485 38.1377 18.2524C38.131 18.3459 38.0832 18.4312 37.9941 18.5084C37.9162 18.576 37.8253 18.6061 37.7214 18.5987C37.5863 18.5891 37.4813 18.6704 37.4064 18.8426C37.3323 19.0044 37.28 19.2983 37.2497 19.7243C37.1957 20.4828 37.2882 20.8706 37.5272 20.8876C37.6311 20.895 37.7269 20.9435 37.8145 21.0333C37.9132 21.1134 37.9796 21.2069 38.0138 21.3138C38.0888 21.5802 38.4897 21.7445 39.2162 21.8066C39.9436 21.8584 40.6683 21.8003 41.3903 21.6324C42.1228 21.4652 42.5358 21.2387 42.6292 20.953C42.6692 20.8305 42.7549 20.7269 42.8863 20.6423C43.0176 20.5577 43.1456 20.5198 43.2703 20.5287C43.4054 20.5383 43.5649 20.4974 43.749 20.4061C43.9434 20.3155 44.1025 20.2067 44.2264 20.0798C44.4297 19.8645 44.5503 19.6381 44.5881 19.4006C44.6266 19.1527 44.6179 18.6874 44.5621 18.0046C44.4794 16.9649 44.4136 16.4224 44.3646 16.3771L43.6809 15.8585ZM53.5837 13.8375C53.6653 13.5718 53.7613 13.3959 53.8719 13.3098C53.9929 13.2244 54.1509 13.2043 54.3461 13.2495C54.5309 13.294 54.6924 13.4465 54.8305 13.707C54.9686 13.9674 55.0574 14.2609 55.0968 14.5874C55.1474 14.9043 55.14 15.2275 55.0748 15.5571C55.0207 15.877 54.915 16.1149 54.7577 16.2708C54.6123 16.4066 54.5077 16.5558 54.4439 16.7184C54.3801 16.8809 54.3646 17.026 54.3973 17.1536C54.482 17.4312 54.5915 17.58 54.7258 17.6C54.8705 17.6207 54.9989 17.5045 55.1109 17.2514C55.2333 16.9991 55.4834 16.9333 55.8612 17.0542C56.2501 17.1654 56.8861 17.1793 57.7693 17.096C58.4105 17.0372 58.9671 17.0663 59.4391 17.1834C59.9216 17.3013 60.155 17.4694 60.1395 17.6876C60.1254 17.885 59.4149 18.1112 58.0078 18.3661C56.6119 18.6114 55.5191 18.7059 54.7294 18.6497C54.5008 18.6335 54.3383 18.7159 54.2419 18.897C54.1462 19.0677 54.0365 19.509 53.9127 20.2207C53.7208 21.3036 53.6698 22.0936 53.7598 22.5909C53.8252 22.9923 54.0502 23.4261 54.4347 23.892C54.8304 24.3484 55.1786 24.5924 55.4791 24.6243C55.5623 24.6302 55.6476 24.678 55.7352 24.7678C55.8236 24.8472 55.8848 24.9403 55.919 25.0472C55.9532 25.154 56.0296 25.2535 56.1484 25.3455C56.2679 25.4271 56.39 25.4723 56.5147 25.4812C56.6498 25.4908 56.7611 25.5405 56.8487 25.6303C56.9474 25.7104 56.9931 25.8024 56.9857 25.9063C56.979 25.9998 56.9208 26.0844 56.811 26.1602C56.7123 26.2263 56.5954 26.2545 56.4603 26.2449C56.1902 26.2257 55.6276 25.9141 54.7724 25.3102C53.9277 24.7071 53.506 24.322 53.5075 24.155C53.5067 24.0192 53.3857 23.8122 53.1444 23.5339C53.0479 23.4226 52.9692 23.2813 52.9083 23.1099C52.8481 22.928 52.8228 22.7696 52.8324 22.6345C52.8428 22.4891 52.8253 22.3677 52.78 22.2705C52.7459 22.1637 52.6976 22.108 52.6353 22.1036C52.5729 22.0991 52.4901 22.0149 52.3869 21.8509C52.2941 21.6877 52.2087 21.4936 52.1307 21.2688C52.0282 20.9482 51.9877 20.6372 52.0091 20.3359C52.0306 20.0346 52.1243 19.5974 52.2904 19.0245C52.5566 18.0722 52.799 17.0869 53.0177 16.0686C53.2363 15.0503 53.425 14.3066 53.5837 13.8375ZM63.3868 17.8403C63.8202 17.6205 64.2465 17.4994 64.6659 17.477C65.0852 17.4547 65.3453 17.5411 65.4463 17.7362C65.5295 17.8883 65.8008 18.0382 66.2602 18.1857C66.6677 18.3296 67.0826 18.5889 67.505 18.9636C67.9281 19.3278 68.2303 19.7044 68.4115 20.0932C68.4835 20.255 68.5385 20.5096 68.5764 20.8569C68.6255 21.1945 68.639 21.5192 68.6168 21.8309C68.5873 22.3928 68.5146 22.7531 68.3989 22.912C68.2839 23.0604 67.9466 23.2505 67.3871 23.4822C66.7096 23.7577 66.0892 23.8911 65.5259 23.8824C64.9633 23.8632 64.3744 23.7012 63.7591 23.3964C63.1638 23.1034 62.8298 22.9543 62.757 22.9491C62.5077 22.9314 62.6937 23.472 63.3152 24.5709C63.7696 25.3761 64.4529 26.046 65.3652 26.5809C65.9761 26.9481 66.4508 27.1751 66.7892 27.2618C67.1381 27.3493 67.7307 27.3862 68.5671 27.3726C70.1657 27.3611 71.2114 27.4877 71.7043 27.7525C71.9054 27.8608 71.9181 27.9766 71.7422 28.0998C71.182 28.4881 70.179 28.6413 68.7333 28.5593C67.2868 28.4877 66.1416 28.2182 65.2976 27.7509C64.6043 27.3674 63.8995 26.7794 63.1831 25.987C62.4771 25.1953 61.9964 24.4667 61.7409 23.801L61.0568 21.9666C60.9246 21.623 60.8559 21.3414 60.8507 21.1217C60.8558 20.9028 60.9203 20.6567 61.0442 20.3836C61.2904 19.8581 61.6231 19.3648 62.0423 18.9038C62.4727 18.4332 62.9208 18.0787 63.3868 17.8403ZM66.7749 19.5382C66.3844 19.3015 65.9562 19.1562 65.4901 19.1021C65.0344 19.0488 64.6147 19.0764 64.231 19.1849C63.8474 19.2933 63.5101 19.4834 63.2193 19.7551C62.9284 20.0268 62.7493 20.343 62.6818 20.7037C62.6085 21.1476 62.5084 21.4537 62.3815 21.6222C62.3006 21.7314 62.3678 21.8145 62.5831 21.8715C62.6855 21.8997 62.8094 21.919 62.9549 21.9293C63.1731 21.9449 63.3687 21.9849 63.5416 22.0494C63.7146 22.1139 63.8192 22.184 63.8556 22.2597C63.8927 22.325 64.0601 22.3944 64.3577 22.4678C64.6553 22.5411 64.9964 22.5915 65.3808 22.6189C66.0458 22.6662 66.4596 22.6486 66.6221 22.5662C66.818 22.4548 66.9882 22.1171 67.1328 21.553C67.1721 21.441 67.2284 21.2361 67.3018 20.9385C67.4056 20.5073 67.4311 20.2219 67.3784 20.0824C67.3264 19.9325 67.1252 19.7511 66.7749 19.5382ZM84.3969 17.7845C84.4235 17.4105 84.6532 17.338 85.0859 17.5672C85.3584 17.7015 85.6649 17.9426 86.0057 18.2906C86.5513 18.8411 86.8969 19.1216 87.0423 19.1319C87.1047 19.1364 87.4257 19.4673 88.0055 20.1247C88.5965 20.7724 89.2769 21.557 90.0467 22.4786C90.49 23.001 90.8645 23.461 91.1704 23.8587C91.4874 24.2468 91.7598 24.6003 91.9878 24.9194C92.2164 25.2281 92.3909 25.4911 92.5112 25.7085C92.6322 25.9156 92.7132 26.0989 92.754 26.2584C92.7949 26.418 92.7909 26.5482 92.7419 26.6492C92.7041 26.7405 92.6258 26.8132 92.5071 26.8674C92.4306 26.9142 92.3613 27.0085 92.299 27.1502C92.2478 27.2824 92.2163 27.4315 92.2045 27.5978C92.1926 27.764 92.1385 27.9377 92.0421 28.1188C91.9456 28.2999 91.831 28.4432 91.6982 28.5486C91.3561 28.8062 90.6797 29.0662 89.669 29.3284C88.6686 29.5914 88.1321 29.6472 88.0593 29.4959C88.0222 29.4306 87.9272 29.3716 87.7743 29.3189C87.6214 29.2663 87.4566 29.2337 87.28 29.2211C86.8436 29.19 86.357 28.8369 85.8202 28.1617C85.6094 27.8961 85.4557 27.7076 85.3592 27.5963C85.2627 27.485 85.1688 27.4104 85.0775 27.3726C84.9869 27.3244 84.9138 27.3244 84.8582 27.3727C84.8033 27.4105 84.7246 27.4885 84.6222 27.6065C84.3715 27.902 83.7859 28.0587 82.8657 28.0768C81.9558 28.0956 81.3335 27.9625 80.9987 27.6776C80.3595 27.1204 80.7331 26.7867 82.1194 26.6765C82.1513 26.6684 82.1881 26.6658 82.2296 26.6687C82.9747 26.6173 83.5499 26.4598 83.955 26.1962C84.3602 25.9327 84.6447 25.53 84.8085 24.9881C84.9568 24.5183 85.133 24.1706 85.337 23.9449C85.5856 23.6806 85.7197 22.9696 85.7395 21.8118C85.7703 20.6444 85.6699 19.9271 85.4383 19.66C85.3321 19.5376 85.2434 19.3903 85.1721 19.2181C85.112 19.0363 85.087 18.8727 85.0974 18.7272C85.1077 18.5818 85.0799 18.4597 85.0138 18.361C84.9477 18.2623 84.8575 18.2089 84.7432 18.2008C84.6393 18.1934 84.5536 18.1507 84.4861 18.0728C84.4192 17.9845 84.3895 17.8884 84.3969 17.7845ZM89.0416 22.736C87.3705 20.8314 86.4933 19.8761 86.4102 19.8702C86.3271 19.8642 86.3973 20.1251 86.6208 20.6527C86.8555 21.1707 86.9639 21.5543 86.9462 21.8037C86.9395 21.8972 86.9674 22.0193 87.0298 22.1699C87.0929 22.3102 87.1735 22.4256 87.2715 22.5161C87.506 22.7416 87.6115 23.0207 87.5878 23.3532C87.5649 23.6753 87.4255 23.8742 87.1694 23.95C86.9342 24.0272 86.6953 24.3757 86.4528 24.9955C86.2103 25.6153 86.098 26.166 86.1159 26.6476C86.1406 27.182 86.3696 27.6316 86.8032 27.9967C87.2471 28.3624 87.6731 28.4659 88.0812 28.3069C88.4901 28.1376 89.0096 28.0284 89.6397 27.9792C89.9232 27.9576 90.1673 27.9019 90.3721 27.812C90.5777 27.7118 90.7109 27.6012 90.7717 27.4802C90.7977 27.4089 90.8359 27.3124 90.8863 27.1907C90.9975 26.948 91.0777 26.7761 91.1266 26.6752C91.1756 26.5743 91.2171 26.431 91.2512 26.2455C91.2853 26.0599 91.3042 25.9412 91.3079 25.8892C91.3123 25.8269 91.2792 25.7044 91.2087 25.5219C91.1492 25.3297 91.091 25.195 91.0338 25.1178C90.9766 25.0406 90.8474 24.8748 90.6462 24.6203C90.4554 24.3665 90.2873 24.1614 90.1418 24.0048C89.997 23.8379 89.7609 23.56 89.4335 23.1712C89.2591 22.9813 89.1284 22.8362 89.0416 22.736ZM101.659 19.5454C101.664 19.4727 101.756 19.427 101.935 19.4084C102.125 19.3802 102.36 19.3864 102.639 19.4271C103.042 19.4872 103.297 19.568 103.405 19.6696C103.513 19.7609 103.558 19.9416 103.539 20.2117C103.508 20.6377 103.325 20.8701 102.988 20.9088C102.651 20.9371 102.355 21.0674 102.098 21.2998C101.987 21.3963 101.857 21.4601 101.709 21.4913C101.56 21.5225 101.44 21.5192 101.349 21.4814C101.259 21.4332 101.134 21.4295 100.974 21.4704C100.826 21.5016 100.696 21.5655 100.584 21.662C100.484 21.7592 100.342 21.8431 100.159 21.9137C99.9774 21.9738 99.8242 21.9995 99.6995 21.9906C99.554 21.9803 99.3933 22.0367 99.2175 22.16C99.052 22.2839 98.9044 22.451 98.7746 22.661C98.3621 23.3209 98.3508 23.9937 98.7406 24.6793C99.1415 25.3553 99.9017 25.9733 101.021 26.5334C101.394 26.7166 101.721 26.8286 102 26.8693C102.279 26.8996 102.683 26.8762 103.211 26.7988C103.707 26.7193 104.09 26.6943 104.36 26.7239C104.64 26.7439 104.906 26.8255 105.157 26.9686C105.559 27.1852 105.677 27.3659 105.51 27.5107C105.365 27.6361 104.994 27.7873 104.397 27.9641C103.788 28.1505 103.426 28.318 103.311 28.4664C103.191 28.5518 103.021 28.5815 102.804 28.5556C102.587 28.5193 102.369 28.4359 102.148 28.3053C101.928 28.1644 101.823 28.0316 101.832 27.9069C101.84 27.7926 101.809 27.7173 101.738 27.6809C101.679 27.6349 101.591 27.6286 101.473 27.6621C101.281 27.7215 100.971 27.6733 100.544 27.5176C100.116 27.3619 99.728 27.1671 99.3791 26.9335C99.0302 26.6998 98.8609 26.5102 98.8713 26.3647C98.8794 26.2504 98.8401 26.1432 98.7532 26.043C98.6767 25.9436 98.5776 25.8687 98.4559 25.8182C98.2206 25.7493 98.0005 25.5404 97.7956 25.1917C97.6018 24.8333 97.4562 24.4574 97.3589 24.0641C97.2727 23.6611 97.2477 23.2782 97.284 22.9153C97.3203 22.5523 97.436 22.3204 97.6311 22.2194C97.7068 22.183 97.764 22.114 97.8025 22.0123C97.8418 21.9002 97.8489 21.8015 97.8236 21.7161C97.7991 21.6204 97.812 21.5117 97.8625 21.39C97.9129 21.2682 97.9823 21.174 98.0706 21.1071C98.3785 20.8889 98.9362 20.61 99.7435 20.2706C100.561 19.932 101.069 19.7697 101.266 19.7838C101.37 19.7911 101.46 19.7715 101.537 19.7247C101.613 19.6779 101.654 19.6181 101.659 19.5454ZM95.0502 8.07866C95.0627 7.90202 95.1054 7.81629 95.1781 7.82147C95.2612 7.82738 95.3485 7.92235 95.4398 8.10638C95.4762 8.18207 95.4822 8.24515 95.4577 8.29563C95.4339 8.33571 95.3805 8.35279 95.2974 8.34688C95.2246 8.3417 95.1638 8.31649 95.1148 8.27123C95.0665 8.21558 95.045 8.15139 95.0502 8.07866ZM111.736 9.79853C111.84 9.64933 112.07 9.5821 112.424 9.59685C112.788 9.61234 113.122 9.68832 113.426 9.82479C113.74 9.96201 113.891 10.1137 113.879 10.28C113.873 10.3631 113.926 10.4974 114.038 10.6829C114.151 10.858 114.29 11.035 114.455 11.2138C114.688 11.4602 114.837 11.711 114.902 11.9663C114.979 12.2119 115.002 12.5425 114.973 12.9581C114.942 13.3945 114.956 13.714 115.014 13.9166C115.084 14.1096 115.219 14.2706 115.419 14.3996C115.648 14.5517 115.775 14.7435 115.801 14.9751C115.827 15.1962 115.784 15.7206 115.673 16.5481C115.503 17.7579 115.352 18.5669 115.218 18.9751C115.165 19.1384 115.142 19.3195 115.148 19.5184C115.166 19.7076 115.208 19.8464 115.275 19.9347C115.37 20.0668 115.396 20.22 115.352 20.3944C115.309 20.5689 115.182 20.8053 114.973 21.1037C114.845 21.2826 114.717 21.5398 114.589 21.8752C114.461 22.2003 114.348 22.5421 114.25 22.9006C114.161 23.2599 114.09 23.6046 114.035 23.9349C113.981 24.2548 113.957 24.5245 113.962 24.7442C113.978 24.9543 114.028 25.0622 114.111 25.0681C114.194 25.0741 114.298 25.0083 114.423 24.871C114.548 24.7233 114.665 24.5437 114.774 24.3321C114.836 24.2007 114.902 24.0853 114.971 23.9858C115.052 23.8871 115.119 23.8188 115.174 23.7809C115.229 23.7431 115.276 23.7412 115.315 23.7753C115.383 23.8533 115.439 23.805 115.482 23.6306C115.496 23.5794 115.505 23.5278 115.509 23.4758C115.544 23.1337 115.679 22.6943 115.916 22.1576C116.153 21.621 116.41 21.1537 116.689 20.7559C116.979 20.3484 117.202 20.1501 117.358 20.1612C117.587 20.1775 117.961 20.3555 118.479 20.6953C118.999 21.0247 119.254 21.2517 119.245 21.3764C119.234 21.5426 119.459 21.9711 119.922 22.662C120.121 22.9373 120.284 23.2152 120.411 23.4957C120.537 23.7658 120.597 23.9528 120.59 24.0567C120.582 24.171 120.61 24.2827 120.676 24.3917C120.752 24.4912 120.846 24.5709 120.956 24.631C121.068 24.6807 121.141 24.7486 121.177 24.8347C121.213 24.9104 121.202 24.9879 121.145 25.0673C121.028 25.2366 121.04 25.4307 121.181 25.6496C121.334 25.8588 121.438 26.2213 121.496 26.7371C121.612 27.6017 121.719 28.2254 121.817 28.6084C121.926 28.9816 122.064 29.2473 122.23 29.4053C122.407 29.5641 122.493 29.6747 122.488 29.737C122.494 29.8001 122.416 29.878 122.252 29.9708C121.948 30.1372 121.67 30.0912 121.416 29.833C121.164 29.5644 120.981 29.1337 120.866 28.5407C120.673 27.4409 120.322 26.1314 119.814 24.6124C119.316 23.0941 118.985 22.329 118.818 22.3172C118.766 22.3135 118.676 22.2549 118.549 22.1413C118.432 22.0182 118.317 21.8742 118.204 21.7095C117.976 21.3904 117.75 21.2543 117.528 21.3011C117.305 21.348 117.18 21.5636 117.153 21.948C117.144 22.0727 117.087 22.2097 116.983 22.3589C116.889 22.4984 116.783 22.6005 116.663 22.6651C116.458 22.7653 116.347 22.8463 116.333 22.9079C116.318 22.9695 116.39 23.0581 116.549 23.1739C116.707 23.2896 116.779 23.3887 116.762 23.471C116.757 23.5438 116.659 23.6778 116.468 23.873C116.344 23.9895 116.224 24.2159 116.106 24.5522C115.999 24.8787 115.928 25.2183 115.892 25.5708C115.79 26.4199 115.676 26.9287 115.549 27.0972C115.423 27.2553 115.339 27.6305 115.296 28.2227C115.269 28.6072 115.21 28.8536 115.119 28.962C115.038 29.0711 114.856 29.1312 114.573 29.1425C114.301 29.1544 114.1 29.114 113.971 29.0213C113.853 28.9189 113.743 28.7022 113.641 28.3712C113.563 28.1464 113.472 27.9572 113.368 27.8036C113.275 27.6403 113.193 27.5561 113.12 27.5509C113.058 27.5465 113.023 27.5179 113.016 27.4652C113.01 27.4021 113.031 27.3357 113.078 27.2659C113.158 27.1568 113.143 26.8529 113.033 26.3542C112.933 25.8459 112.813 25.4822 112.672 25.2633C112.652 25.2411 112.582 25.2726 112.461 25.358C112.352 25.4338 112.202 25.5485 112.014 25.7021C111.826 25.8558 111.626 26.0243 111.414 26.2077C111.068 26.5173 110.705 26.7838 110.323 27.0073C109.942 27.2308 109.63 27.36 109.387 27.395C109.154 27.441 108.957 27.5001 108.795 27.5721C108.634 27.6338 108.551 27.6958 108.547 27.7581C108.543 27.8101 108.487 27.8687 108.378 27.934C108.279 28.0001 108.155 28.0488 108.007 28.08L106.975 28.2728C106.626 28.342 106.459 28.257 106.476 28.0181C106.484 27.9141 106.564 27.8154 106.717 27.7219C106.87 27.6179 107.058 27.5529 107.279 27.5269C107.501 27.4905 107.687 27.4411 107.838 27.3787C107.988 27.3163 108.065 27.2591 108.069 27.2072C108.074 27.1448 108.135 27.0866 108.254 27.0324C108.373 26.9678 108.518 26.9206 108.687 26.8909C109.079 26.8143 109.607 26.5073 110.272 25.9698C110.948 25.4226 111.295 25.0192 111.313 24.7594C111.322 24.6451 111.37 24.5546 111.458 24.4877C111.547 24.4105 111.649 24.376 111.763 24.3841C111.971 24.3989 112.108 24.0901 112.174 23.4578C112.25 22.8262 112.241 22.0737 112.146 21.2002C112.052 20.3267 111.89 19.5894 111.661 18.9883C111.302 18.0229 111.058 17.1283 110.928 16.3045C110.81 15.4711 110.827 14.7987 110.978 14.2873L111.209 13.4579L111.302 14.3573L111.41 15.2579L111.498 14.4653C111.524 14.2478 111.574 14.053 111.649 13.8808C111.725 13.6982 111.8 13.5991 111.874 13.5835C111.959 13.5582 112.021 13.4896 112.061 13.3775C112.111 13.2558 112.13 13.1318 112.119 13.0057C112.093 12.7741 112.055 12.6565 112.003 12.6528C111.951 12.6387 111.82 12.7285 111.608 12.9223C111.406 13.1064 111.289 13.145 111.255 13.0382C111.231 12.9321 111.263 12.4853 111.35 11.6978C111.48 10.6105 111.608 9.97743 111.736 9.79853ZM113.77 11.1494C113.669 10.8081 113.482 10.5703 113.21 10.436C112.948 10.3025 112.711 10.3326 112.499 10.5264C112.343 10.6511 112.265 10.9432 112.264 11.4026C112.274 11.8523 112.356 12.1662 112.51 12.3443C112.684 12.5446 112.709 13.6638 112.585 15.7018C112.513 17.0021 112.493 17.8726 112.524 18.3135C112.555 18.7543 112.667 19.0964 112.858 19.3398C113.183 19.7597 113.452 19.9459 113.664 19.8984C113.877 19.8508 114.001 19.5777 114.036 19.079C114.077 18.5075 114.211 17.9427 114.439 17.3845C114.577 17.0601 114.65 16.8304 114.66 16.6953C114.67 16.5603 114.618 16.4731 114.506 16.4338C114.425 16.3967 114.368 16.2464 114.335 15.983C114.302 15.7091 114.3 15.3748 114.328 14.9799C114.373 14.3461 114.356 13.7706 114.278 13.2533C114.201 12.7257 114.032 12.0244 113.77 11.1494ZM114.237 26.158C114.402 26.3368 114.549 26.3263 114.678 26.1267C114.818 25.9277 114.805 25.7389 114.64 25.56C114.486 25.382 114.339 25.3924 114.199 25.5913C114.071 25.7806 114.084 25.9695 114.237 26.158ZM130.858 27.0273C131.153 26.5471 131.375 26.3645 131.524 26.4794C131.602 26.5477 131.632 26.7117 131.614 26.9715C131.603 27.1273 131.546 27.2695 131.443 27.3979C131.351 27.5167 131.231 27.5865 131.083 27.6073C130.945 27.6392 130.809 27.7235 130.673 27.8601C130.538 27.9967 130.438 28.1566 130.373 28.34C130.228 28.7578 130.035 28.906 129.793 28.7843C129.682 28.7346 129.498 28.7529 129.241 28.839C128.984 28.9252 128.725 29.0529 128.462 29.2222C128.199 29.3915 128.013 29.5088 127.904 29.5741C127.795 29.6394 127.688 29.6788 127.583 29.6922C127.488 29.6959 127.417 29.6752 127.368 29.6299C127.319 29.5743 127.253 29.4808 127.168 29.3494C126.897 28.902 126.825 28.6044 126.95 28.4567C127.054 28.3179 127.256 28.4158 127.556 28.7504C127.652 28.8617 127.758 28.911 127.874 28.8984C127.991 28.8753 128.154 28.7825 128.364 28.6199C128.895 28.1983 129.275 27.9224 129.503 27.7925C129.732 27.6626 129.935 27.6039 130.111 27.6164C130.205 27.6231 130.323 27.5689 130.467 27.4538C130.611 27.3387 130.742 27.1966 130.858 27.0273ZM132.169 25.1156C132.381 24.9218 132.544 24.9804 132.658 25.2913C132.717 25.4835 132.737 25.7199 132.717 26.0004C132.697 26.281 132.658 26.4662 132.599 26.556C132.541 26.6354 132.442 26.6388 132.301 26.5661C132.108 26.4897 131.993 26.2674 131.957 25.8993C131.931 25.5216 132.002 25.2603 132.169 25.1156ZM124.444 25.1455C124.411 24.2868 124.478 23.8634 124.644 23.8752C124.8 23.8863 124.945 24.1212 125.08 24.5798C125.225 25.0391 125.245 25.3434 125.14 25.4926C125.094 25.552 125.08 25.6032 125.098 25.6463C125.126 25.69 125.177 25.7145 125.249 25.7197C125.322 25.7249 125.381 25.7709 125.427 25.8577C125.474 25.9341 125.494 26.0243 125.486 26.1282C125.479 26.2321 125.441 26.3234 125.373 26.4021C125.316 26.4711 125.251 26.503 125.178 26.4979C124.939 26.4809 124.859 26.6475 124.939 26.9978C125.046 27.4022 125.263 27.7257 125.59 27.9683C125.62 27.9913 125.655 28.0095 125.696 28.0229C126.138 28.2736 126.347 28.4921 126.323 28.6784C126.313 28.8239 126.157 28.8859 125.856 28.8644C125.596 28.8459 125.158 28.5381 124.543 27.9408C123.928 27.3331 123.629 26.915 123.645 26.6864C123.651 26.6033 123.698 26.5387 123.784 26.4927C123.872 26.4363 123.973 26.4121 124.087 26.4202C124.264 26.4328 124.373 26.3623 124.416 26.2086C124.469 26.0453 124.478 25.691 124.444 25.1455ZM126.221 23.0633C126.23 22.949 126.293 22.8647 126.412 22.8105C126.541 22.757 126.699 22.7369 126.886 22.7503C127.322 22.7813 127.532 22.9215 127.514 23.1709C127.506 23.2852 127.458 23.3757 127.369 23.4426C127.291 23.5101 127.195 23.5398 127.081 23.5317C126.967 23.5236 126.855 23.5522 126.746 23.6175C126.637 23.6828 126.557 23.7712 126.508 23.8825C126.409 24.0948 126.203 24.2054 125.889 24.2144C125.575 24.2234 125.363 24.1248 125.252 23.9185C125.206 23.8317 125.222 23.7545 125.3 23.6869C125.379 23.609 125.492 23.5544 125.64 23.5232C125.799 23.4927 125.934 23.4344 126.045 23.3483C126.155 23.2622 126.214 23.1672 126.221 23.0633ZM131.734 20.6672C131.889 20.5321 132.053 20.5124 132.223 20.6081C132.405 20.6941 132.676 20.9274 133.035 21.3081C133.374 21.6768 133.583 22.0415 133.662 22.4022C133.752 22.7532 133.754 23.3121 133.668 24.0787C133.615 24.5344 133.494 24.766 133.305 24.7735C133.138 24.772 133.031 24.5921 132.984 24.2337C132.962 24.0964 132.952 23.9494 132.952 23.7928C132.986 23.1791 132.76 22.526 132.277 21.8337C132.089 21.5488 131.94 21.2928 131.831 21.0657C131.721 20.8386 131.689 20.7058 131.734 20.6672ZM129.595 19.6848C129.809 19.4599 130.05 19.383 130.316 19.4541C130.583 19.5253 130.737 19.7086 130.778 20.004C130.809 20.2986 130.654 20.4337 130.311 20.4093C129.978 20.3856 129.491 20.5494 128.85 20.9006C128.209 21.2519 127.832 21.5592 127.72 21.8227C127.631 22.0461 127.511 22.1838 127.361 22.2358C127.211 22.2878 127.083 22.2526 126.977 22.1302C126.871 22.0077 126.826 21.827 126.843 21.588C126.857 21.3906 126.9 21.237 126.97 21.1271C127.052 21.0076 127.15 20.9519 127.264 20.9601C127.368 20.9675 127.486 20.9288 127.617 20.8442C127.759 20.7499 127.872 20.6378 127.954 20.5079C128.037 20.3676 128.155 20.2559 128.307 20.1727C128.47 20.0799 128.619 20.0383 128.754 20.0479C128.879 20.0568 129.022 20.0252 129.184 19.9532C129.356 19.8819 129.493 19.7924 129.595 19.6848ZM141.581 27.7903C141.876 27.3101 142.098 27.1275 142.247 27.2424C142.325 27.3107 142.355 27.4747 142.337 27.7345C142.326 27.8903 142.269 28.0325 142.166 28.1609C142.074 28.2797 141.954 28.3495 141.806 28.3703C141.668 28.4022 141.531 28.4865 141.396 28.6231C141.261 28.7597 141.161 28.9196 141.096 29.103C140.951 29.5208 140.758 29.669 140.516 29.5473C140.405 29.4976 140.221 29.5158 139.964 29.602C139.707 29.6882 139.447 29.8159 139.185 29.9852C138.922 30.1545 138.736 30.2718 138.627 30.3371C138.518 30.4024 138.411 30.4418 138.305 30.4552C138.211 30.4589 138.14 30.4382 138.091 30.3929C138.042 30.3373 137.976 30.2438 137.891 30.1124C137.62 29.665 137.547 29.3674 137.673 29.2197C137.777 29.0809 137.979 29.1788 138.278 29.5134C138.375 29.6247 138.481 29.674 138.597 29.6614C138.713 29.6383 138.877 29.5455 139.087 29.3829C139.618 28.9613 139.998 28.6854 140.226 28.5555C140.455 28.4256 140.657 28.3669 140.834 28.3794C140.928 28.3861 141.046 28.3319 141.19 28.2168C141.334 28.1017 141.464 27.9596 141.581 27.7903ZM142.892 25.8786C143.104 25.6848 143.267 25.7434 143.381 26.0543C143.44 26.2465 143.46 26.4829 143.44 26.7634C143.42 27.044 143.381 27.2291 143.322 27.319C143.264 27.3984 143.165 27.4018 143.024 27.3291C142.831 27.2527 142.716 27.0304 142.679 26.6623C142.654 26.2846 142.725 26.0233 142.892 25.8786ZM135.167 25.9085C135.134 25.0498 135.201 24.6264 135.367 24.6382C135.523 24.6493 135.668 24.8842 135.803 25.3428C135.947 25.8021 135.968 26.1064 135.863 26.2556C135.817 26.315 135.803 26.3662 135.821 26.4093C135.849 26.453 135.899 26.4775 135.972 26.4827C136.045 26.4879 136.104 26.5339 136.15 26.6207C136.197 26.6971 136.217 26.7873 136.209 26.8912C136.202 26.9951 136.164 27.0864 136.096 27.1651C136.039 27.2341 135.974 27.266 135.901 27.2609C135.662 27.2439 135.582 27.4105 135.662 27.7608C135.769 28.1652 135.986 28.4887 136.313 28.7313C136.343 28.7543 136.378 28.7725 136.419 28.7859C136.861 29.0366 137.07 29.2551 137.046 29.4414C137.036 29.5868 136.88 29.6489 136.579 29.6274C136.319 29.6089 135.881 29.3011 135.266 28.7038C134.651 28.0961 134.352 27.678 134.368 27.4494C134.374 27.3663 134.42 27.3017 134.507 27.2557C134.595 27.1992 134.696 27.1751 134.81 27.1832C134.987 27.1958 135.096 27.1253 135.138 26.9716C135.192 26.8083 135.201 26.454 135.167 25.9085ZM136.944 23.8263C136.953 23.712 137.016 23.6277 137.135 23.5735C137.264 23.52 137.422 23.4999 137.609 23.5133C138.045 23.5443 138.255 23.6845 138.237 23.9339C138.229 24.0482 138.181 24.1387 138.092 24.2056C138.014 24.2731 137.918 24.3028 137.804 24.2947C137.69 24.2866 137.578 24.3152 137.469 24.3805C137.36 24.4458 137.28 24.5342 137.231 24.6455C137.132 24.8578 136.926 24.9684 136.612 24.9774C136.298 24.9864 136.086 24.8878 135.975 24.6815C135.929 24.5947 135.945 24.5175 136.023 24.4499C136.101 24.372 136.215 24.3174 136.363 24.2862C136.522 24.2557 136.657 24.1974 136.767 24.1113C136.878 24.0252 136.937 23.9302 136.944 23.8263ZM142.456 21.4302C142.612 21.2951 142.776 21.2754 142.946 21.3711C143.128 21.4571 143.399 21.6904 143.758 22.0711C144.097 22.4398 144.306 22.8045 144.385 23.1652C144.475 23.5162 144.477 24.0751 144.391 24.8417C144.338 25.2974 144.217 25.529 144.028 25.5365C143.861 25.535 143.754 25.3551 143.706 24.9967C143.685 24.8594 143.674 24.7124 143.675 24.5558C143.708 23.942 143.483 23.289 143 22.5967C142.811 22.3118 142.663 22.0558 142.553 21.8287C142.444 21.6016 142.412 21.4688 142.456 21.4302ZM140.318 20.4478C140.532 20.2228 140.773 20.146 141.039 20.2171C141.305 20.2883 141.459 20.4716 141.501 20.767C141.532 21.0616 141.377 21.1967 141.034 21.1723C140.701 21.1486 140.214 21.3124 139.573 21.6636C138.932 22.0148 138.555 22.3222 138.442 22.5857C138.353 22.8091 138.234 22.9468 138.084 22.9988C137.934 23.0508 137.806 23.0156 137.7 22.8932C137.594 22.7707 137.549 22.59 137.566 22.351C137.58 22.1536 137.623 22 137.693 21.8901C137.775 21.7706 137.873 21.7149 137.987 21.7231C138.091 21.7305 138.208 21.6918 138.34 21.6072C138.482 21.5129 138.595 21.4008 138.677 21.2709C138.76 21.1306 138.878 21.0189 139.03 20.9357C139.193 20.8429 139.342 20.8013 139.477 20.8109C139.602 20.8198 139.745 20.7882 139.907 20.7162C140.079 20.6449 140.216 20.5554 140.318 20.4478ZM151.969 11.2515C152.113 11.1261 152.279 11.07 152.466 11.0833C152.653 11.0966 152.825 11.1819 152.98 11.3392C153.137 11.4861 153.208 11.6583 153.194 11.8557C153.188 11.9388 153.217 12.0453 153.281 12.1752C153.345 12.305 153.416 12.4093 153.494 12.4879C153.592 12.5784 153.688 12.8463 153.781 13.2916C153.885 13.7376 153.96 14.2285 154.006 14.7643C154.084 15.5636 154.101 16.2071 154.056 16.6947C154.022 17.1726 153.913 17.7497 153.729 18.4258C153.43 19.5533 153.206 20.2005 153.059 20.3675C152.921 20.5353 152.887 20.8043 152.954 21.1746C152.985 21.3334 152.98 21.4793 152.939 21.6121C152.909 21.7353 152.851 21.82 152.764 21.866C152.688 21.9024 152.614 21.9911 152.541 22.1321C152.479 22.2739 152.442 22.4227 152.431 22.5786C152.405 22.9526 152.244 23.3798 151.949 23.86C151.298 24.9311 151.329 26.4006 152.042 28.2684C152.217 28.7404 152.363 29.1945 152.478 29.6309C152.604 30.0576 152.662 30.3385 152.653 30.4736C152.642 30.619 152.668 30.7723 152.73 30.9333C152.791 31.0943 152.871 31.2201 152.969 31.3106C153.067 31.4012 153.148 31.5165 153.211 31.6568C153.285 31.7874 153.319 31.8994 153.312 31.993C153.306 32.0865 153.369 32.2267 153.502 32.4137C153.635 32.5903 153.806 32.7643 154.013 32.9357C154.221 33.0967 154.391 33.2707 154.524 33.4576C154.667 33.6454 154.735 33.786 154.729 33.8795C154.713 34.0977 154.554 34.2065 154.251 34.2058C153.948 34.2155 153.699 34.1143 153.505 33.9021C153.332 33.7018 153.054 33.4888 152.674 33.2633C152.253 33.0037 151.912 32.593 151.649 32.0313C151.387 31.4591 151.363 31.0658 151.576 30.8512C151.701 30.7139 151.745 30.6126 151.708 30.5473C151.671 30.482 151.539 30.4256 151.312 30.3782C151.096 30.3315 150.941 30.2473 150.845 30.1256C150.76 29.9943 150.712 29.7924 150.7 29.5201C150.692 29.3316 150.65 29.1145 150.574 28.8688C150.497 28.6232 150.412 28.4344 150.317 28.3023C150.146 28.0604 150.014 27.9361 149.92 27.9295C149.837 27.9235 149.673 28.0267 149.428 28.2391C149.083 28.5486 148.907 28.745 148.901 28.8281C148.889 28.9944 148.595 29.3859 148.018 30.0028C147.452 30.6204 146.852 31.2043 146.218 31.7544C145.594 32.2949 145.205 32.5596 145.049 32.5485C144.924 32.5396 144.847 32.4558 144.816 32.2969C144.796 32.1389 144.82 31.9526 144.887 31.7381C144.955 31.5236 145.057 31.3325 145.194 31.1647C145.423 30.8885 145.757 30.6617 146.198 30.4842C146.382 30.4033 146.569 30.2652 146.76 30.07C146.953 29.8643 147.093 29.655 147.181 29.442C147.384 28.9343 147.604 28.5583 147.841 28.3141C148.179 27.9622 148.529 27.2248 148.891 26.1018C149.263 24.9796 149.426 24.1557 149.38 23.6303C149.314 22.9468 149.384 22.5497 149.59 22.4391C149.71 22.3745 149.773 22.3006 149.778 22.2175C149.784 22.1344 149.73 22.0208 149.615 21.8769C149.539 21.7671 149.475 21.5693 149.422 21.2836C149.37 20.9875 149.344 20.6932 149.344 20.4008C149.343 19.6802 149.338 19.2308 149.33 19.0527C149.32 18.4567 149.45 17.4373 149.72 15.9945C149.99 14.5413 150.214 13.68 150.389 13.4105C150.507 13.2205 150.612 12.9982 150.703 12.7436C150.794 12.489 150.845 12.289 150.856 12.1435C150.867 11.9877 150.913 11.8552 150.993 11.7461C151.075 11.6266 151.163 11.5701 151.256 11.5768C151.35 11.5834 151.467 11.5552 151.607 11.4921C151.747 11.429 151.868 11.3488 151.969 11.2515ZM152.775 14.8805C152.801 14.5272 152.787 14.2025 152.735 13.9064C152.694 13.611 152.624 13.4129 152.527 13.312C152.189 12.9224 151.911 13.1585 151.693 14.0202C151.506 14.7379 151.355 15.9176 151.238 17.5593C151.19 18.2243 151.157 18.765 151.138 19.1813C151.12 19.5873 151.111 19.9209 151.114 20.1821C151.127 20.4337 151.151 20.6077 151.186 20.7042C151.221 20.8007 151.271 20.8407 151.334 20.8244C151.42 20.7991 151.524 20.6551 151.647 20.3924C151.781 20.1304 151.891 19.8301 151.977 19.4917C152.184 18.65 152.372 18.0629 152.541 17.7304C153.038 16.7632 153.192 16.2207 153.002 16.1027C152.982 16.0909 152.967 16.0845 152.956 16.0838C152.883 16.0786 152.829 15.9599 152.794 15.7276C152.758 15.4953 152.752 15.2129 152.775 14.8805ZM156.435 30.6017C156.561 30.4436 157.199 30.4211 158.35 30.5344C159.513 30.638 160.202 30.7862 160.418 30.9791C160.712 31.2506 160.879 31.6176 160.919 32.08C160.97 32.543 160.872 32.8077 160.628 32.8738C160.435 32.9332 160.336 33.0045 160.33 33.0876C160.324 33.1707 160.4 33.3536 160.558 33.6364C160.65 33.81 160.71 33.997 160.737 34.1974C160.775 34.3985 160.769 34.5599 160.718 34.6816C160.584 34.954 160.345 35.2346 160 35.5234C159.666 35.8234 159.415 35.9674 159.249 35.9556C159.083 35.9437 158.993 36.0262 158.981 36.2028C158.973 36.3067 158.864 36.372 158.654 36.3988C158.443 36.4256 158.22 36.4045 157.985 36.3355C157.759 36.2777 157.619 36.1894 157.565 36.0707C157.509 35.9727 157.556 35.8299 157.705 35.6421C157.864 35.455 158.092 35.2623 158.388 35.0641C159.058 34.6001 159.414 34.145 159.457 33.699C159.461 33.3442 159.245 33.1461 158.81 33.1047C158.238 33.064 157.708 32.8905 157.218 32.5841C156.728 32.2674 156.45 31.9238 156.382 31.5535C156.301 31.0882 156.318 30.7709 156.435 30.6017ZM158.492 32.0639C158.669 32.0765 158.763 31.9996 158.775 31.8334C158.787 31.6568 158.705 31.5622 158.529 31.5496C158.363 31.5378 158.273 31.6202 158.261 31.7968C158.249 31.963 158.326 32.0521 158.492 32.0639ZM174.419 24.1901C174.446 23.8161 174.676 23.7437 175.108 23.9729C175.381 24.1071 175.687 24.3482 176.028 24.6962C176.574 25.2468 176.919 25.5272 177.065 25.5375C177.127 25.542 177.448 25.8729 178.028 26.5303C178.619 27.178 179.299 27.9627 180.069 28.8842C180.512 29.4066 180.887 29.8666 181.193 30.2643C181.51 30.6524 181.782 31.006 182.01 31.325C182.239 31.6337 182.413 31.8967 182.534 32.1142C182.655 32.3212 182.736 32.5045 182.776 32.664C182.817 32.8236 182.813 32.9538 182.764 33.0548C182.726 33.1461 182.648 33.2188 182.529 33.273C182.453 33.3198 182.384 33.4141 182.321 33.5559C182.27 33.688 182.239 33.8372 182.227 34.0034C182.215 34.1697 182.161 34.3433 182.064 34.5244C181.968 34.7056 181.853 34.8488 181.721 34.9542C181.379 35.2119 180.702 35.4718 179.691 35.7341C178.691 35.9971 178.154 36.0529 178.082 35.9015C178.045 35.8362 177.95 35.7772 177.797 35.7246C177.644 35.6719 177.479 35.6393 177.302 35.6267C176.866 35.5957 176.379 35.2425 175.843 34.5673C175.632 34.3017 175.478 34.1132 175.382 34.0019C175.285 33.8906 175.191 33.8161 175.1 33.7782C175.009 33.73 174.936 33.73 174.881 33.7783C174.826 33.8162 174.747 33.8941 174.645 34.0121C174.394 34.3076 173.808 34.4643 172.888 34.4824C171.978 34.5012 171.356 34.3682 171.021 34.0833C170.382 33.5261 170.755 33.1924 172.142 33.0822C172.174 33.074 172.21 33.0714 172.252 33.0743C172.997 33.0229 173.572 32.8654 173.977 32.6019C174.383 32.3383 174.667 31.9356 174.831 31.3938C174.979 30.9239 175.155 30.5762 175.359 30.3505C175.608 30.0862 175.742 29.3752 175.762 28.2175C175.793 27.05 175.692 26.3328 175.461 26.0657C175.355 25.9432 175.266 25.7959 175.195 25.6238C175.134 25.442 175.109 25.2783 175.12 25.1329C175.13 24.9874 175.102 24.8653 175.036 24.7666C174.97 24.6679 174.88 24.6145 174.766 24.6064C174.662 24.599 174.576 24.5563 174.508 24.4784C174.442 24.3901 174.412 24.294 174.419 24.1901ZM179.064 29.1417C177.393 27.237 176.516 26.2817 176.433 26.2758C176.349 26.2699 176.42 26.5307 176.643 27.0583C176.878 27.5763 176.986 27.96 176.969 28.2093C176.962 28.3028 176.99 28.4249 177.052 28.5756C177.115 28.7158 177.196 28.8312 177.294 28.9217C177.528 29.1473 177.634 29.4263 177.61 29.7588C177.587 30.0809 177.448 30.2798 177.192 30.3556C176.957 30.4328 176.718 30.7813 176.475 31.4011C176.233 32.0209 176.12 32.5716 176.138 33.0532C176.163 33.5876 176.392 34.0373 176.826 34.4023C177.269 34.7681 177.695 34.8715 178.104 34.7125C178.513 34.5432 179.032 34.434 179.662 34.3848C179.946 34.3632 180.19 34.3075 180.395 34.2176C180.6 34.1174 180.733 34.0068 180.794 33.8858C180.82 33.8145 180.858 33.7181 180.909 33.5963C181.02 33.3536 181.1 33.1818 181.149 33.0808C181.198 32.9799 181.239 32.8366 181.274 32.6511C181.308 32.4655 181.327 32.3468 181.33 32.2948C181.335 32.2325 181.302 32.11 181.231 31.9275C181.172 31.7353 181.113 31.6006 181.056 31.5234C180.999 31.4463 180.87 31.2804 180.669 31.0259C180.478 30.7722 180.31 30.567 180.164 30.4104C180.019 30.2435 179.783 29.9656 179.456 29.5768C179.281 29.3869 179.151 29.2418 179.064 29.1417ZM191.682 25.951C191.687 25.8783 191.779 25.8326 191.958 25.814C192.148 25.7858 192.382 25.792 192.661 25.8328C193.064 25.8928 193.32 25.9736 193.427 26.0752C193.536 26.1665 193.58 26.3472 193.561 26.6174C193.531 27.0434 193.347 27.2757 193.01 27.3144C192.674 27.3427 192.377 27.473 192.121 27.7054C192.009 27.8019 191.88 27.8658 191.731 27.897C191.583 27.9282 191.463 27.9249 191.372 27.887C191.281 27.8388 191.156 27.8351 190.996 27.876C190.848 27.9072 190.718 27.9711 190.607 28.0676C190.506 28.1648 190.364 28.2487 190.182 28.3193C190 28.3795 189.847 28.4051 189.722 28.3962C189.576 28.3859 189.416 28.4423 189.24 28.5656C189.074 28.6896 188.927 28.8566 188.797 29.0667C188.384 29.7265 188.373 30.3993 188.763 31.085C189.164 31.761 189.924 32.379 191.043 32.939C191.417 33.1222 191.743 33.2342 192.022 33.2749C192.302 33.3053 192.706 33.2818 193.233 33.2045C193.73 33.1249 194.113 33.0999 194.382 33.1296C194.663 33.1495 194.928 33.2311 195.179 33.3743C195.581 33.5909 195.699 33.7715 195.532 33.9163C195.388 34.0418 195.016 34.1929 194.419 34.3697C193.811 34.5561 193.449 34.7236 193.334 34.8721C193.213 34.9574 193.044 34.9872 192.826 34.9613C192.61 34.9249 192.391 34.8415 192.17 34.711C191.951 34.57 191.845 34.4372 191.854 34.3125C191.862 34.1982 191.831 34.1229 191.761 34.0865C191.701 34.0405 191.613 34.0343 191.496 34.0677C191.303 34.1271 190.994 34.079 190.566 33.9232C190.139 33.7675 189.75 33.5728 189.401 33.3391C189.053 33.1054 188.883 32.9158 188.894 32.7704C188.902 32.6561 188.862 32.5488 188.776 32.4487C188.699 32.3492 188.6 32.2743 188.478 32.2239C188.243 32.1549 188.023 31.9461 187.818 31.5973C187.624 31.2389 187.479 30.863 187.381 30.4697C187.295 30.0667 187.27 29.6838 187.306 29.3209C187.343 28.958 187.458 28.726 187.654 28.625C187.729 28.5886 187.786 28.5196 187.825 28.4179C187.864 28.3058 187.871 28.2071 187.846 28.1218C187.821 28.026 187.834 27.9173 187.885 27.7956C187.935 27.6739 188.005 27.5796 188.093 27.5128C188.401 27.2945 188.959 27.0157 189.766 26.6763C190.584 26.3376 191.091 26.1753 191.289 26.1894C191.393 26.1968 191.483 26.1771 191.559 26.1303C191.636 26.0835 191.676 26.0238 191.682 25.951ZM185.073 14.4843C185.085 14.3076 185.128 14.2219 185.201 14.2271C185.284 14.233 185.371 14.328 185.462 14.512C185.499 14.5877 185.505 14.6508 185.48 14.7013C185.456 14.7413 185.403 14.7584 185.32 14.7525C185.247 14.7473 185.186 14.7221 185.137 14.6769C185.089 14.6212 185.067 14.557 185.073 14.4843ZM201.758 16.2042C201.863 16.055 202.092 15.9877 202.446 16.0025C202.811 16.018 203.145 16.0939 203.448 16.2304C203.762 16.3676 203.913 16.5194 203.901 16.6856C203.895 16.7687 203.948 16.903 204.061 17.0886C204.173 17.2637 204.312 17.4406 204.477 17.6195C204.71 17.8658 204.859 18.1166 204.925 18.3719C205.001 18.6175 205.025 18.9481 204.995 19.3638C204.964 19.8002 204.978 20.1196 205.037 20.3222C205.106 20.5152 205.241 20.6762 205.441 20.8053C205.67 20.9574 205.798 21.1492 205.823 21.3807C205.849 21.6019 205.806 22.1262 205.695 22.9538C205.526 24.1635 205.374 24.9725 205.241 25.3807C205.187 25.544 205.164 25.7251 205.171 25.924C205.189 26.1132 205.231 26.252 205.298 26.3403C205.393 26.4724 205.418 26.6256 205.375 26.8001C205.331 26.9745 205.204 27.2109 204.995 27.5093C204.868 27.6882 204.74 27.9454 204.611 28.2809C204.484 28.606 204.371 28.9478 204.272 29.3063C204.184 29.6655 204.112 30.0102 204.058 30.3405C204.003 30.6604 203.979 30.9302 203.984 31.1499C204.001 31.3599 204.05 31.4678 204.134 31.4738C204.217 31.4797 204.321 31.414 204.445 31.2766C204.571 31.1289 204.688 30.9493 204.797 30.7377C204.858 30.6064 204.924 30.4909 204.994 30.3915C205.074 30.2927 205.141 30.2244 205.196 30.1866C205.251 30.1487 205.298 30.1468 205.338 30.181C205.405 30.2589 205.461 30.2106 205.505 30.0362C205.519 29.985 205.528 29.9334 205.531 29.8815C205.566 29.5393 205.702 29.0999 205.938 28.5633C206.175 28.0266 206.433 27.5594 206.712 27.1615C207.002 26.754 207.225 26.5558 207.381 26.5669C207.609 26.5831 207.983 26.7611 208.502 27.1009C209.021 27.4303 209.277 27.6573 209.268 27.782C209.256 27.9482 209.481 28.3768 209.944 29.0676C210.144 29.3429 210.307 29.6208 210.433 29.9013C210.56 30.1714 210.62 30.3584 210.612 30.4623C210.604 30.5766 210.633 30.6883 210.698 30.7974C210.775 30.8968 210.868 30.9765 210.979 31.0366C211.09 31.0863 211.164 31.1542 211.199 31.2403C211.236 31.316 211.225 31.3935 211.167 31.473C211.05 31.6422 211.063 31.8363 211.204 32.0552C211.356 32.2644 211.461 32.6269 211.518 33.1427C211.634 34.0073 211.741 34.6311 211.839 35.014C211.948 35.3873 212.086 35.6529 212.252 35.811C212.429 35.9697 212.515 36.0803 212.511 36.1426C212.517 36.2057 212.438 36.2837 212.275 36.3765C211.971 36.5428 211.692 36.4969 211.439 36.2387C211.186 35.9701 211.003 35.5393 210.888 34.9463C210.695 33.8465 210.345 32.5371 209.837 31.018C209.339 29.4997 209.007 28.7346 208.841 28.7228C208.789 28.7191 208.699 28.6605 208.571 28.547C208.455 28.4238 208.34 28.2799 208.226 28.1151C207.998 27.7961 207.773 27.6599 207.55 27.7068C207.328 27.7536 207.203 27.9692 207.175 28.3537C207.166 28.4783 207.11 28.6153 207.005 28.7645C206.911 28.904 206.805 29.0061 206.686 29.0707C206.48 29.171 206.37 29.2519 206.355 29.3135C206.34 29.3751 206.412 29.4638 206.571 29.5795C206.73 29.6952 206.801 29.7943 206.785 29.8767C206.78 29.9494 206.681 30.0834 206.49 30.2786C206.367 30.3952 206.246 30.6216 206.128 30.9578C206.022 31.2844 205.95 31.6239 205.915 31.9765C205.813 32.8255 205.698 33.3343 205.571 33.5028C205.445 33.6609 205.361 34.0361 205.319 34.6284C205.292 35.0128 205.232 35.2592 205.141 35.3676C205.06 35.4767 204.878 35.5369 204.596 35.5481C204.323 35.56 204.122 35.5196 203.993 35.4269C203.875 35.3245 203.765 35.1078 203.664 34.7769C203.586 34.552 203.495 34.3628 203.391 34.2092C203.298 34.0459 203.215 33.9617 203.142 33.9565C203.08 33.9521 203.045 33.9235 203.039 33.8709C203.033 33.8078 203.053 33.7413 203.1 33.6716C203.181 33.5625 203.166 33.2585 203.055 32.7598C202.956 32.2515 202.835 31.8879 202.694 31.669C202.675 31.6467 202.605 31.6783 202.484 31.7637C202.374 31.8394 202.225 31.9541 202.036 32.1078C201.848 32.2614 201.648 32.43 201.436 32.6133C201.091 32.9229 200.727 33.1894 200.346 33.4129C199.964 33.6364 199.652 33.7656 199.41 33.8006C199.177 33.8467 198.979 33.9057 198.817 33.9778C198.656 34.0394 198.574 34.1014 198.569 34.1637C198.565 34.2157 198.509 34.2743 198.4 34.3397C198.301 34.4058 198.178 34.4544 198.029 34.4856L196.997 34.6785C196.648 34.7476 196.482 34.6627 196.499 34.4237C196.506 34.3198 196.586 34.221 196.739 34.1275C196.893 34.0236 197.08 33.9586 197.301 33.9325C197.523 33.8961 197.709 33.8467 197.86 33.7843C198.011 33.7219 198.088 33.6648 198.091 33.6128C198.096 33.5505 198.157 33.4922 198.276 33.438C198.396 33.3734 198.54 33.3262 198.709 33.2965C199.101 33.2199 199.629 32.9129 200.294 32.3754C200.97 31.8283 201.317 31.4248 201.336 31.165C201.344 31.0507 201.392 30.9602 201.481 30.8934C201.57 30.8162 201.671 30.7816 201.786 30.7898C201.993 30.8045 202.13 30.4958 202.196 29.8634C202.272 29.2318 202.263 28.4793 202.169 27.6058C202.074 26.7323 201.913 25.995 201.684 25.3939C201.324 24.4285 201.08 23.5339 200.951 22.7101C200.832 21.8767 200.849 21.2043 201 20.6929L201.232 19.8635L201.324 20.763L201.432 21.6636L201.52 20.8709C201.546 20.6534 201.596 20.4586 201.671 20.2864C201.747 20.1038 201.822 20.0047 201.896 19.9891C201.981 19.9639 202.044 19.8952 202.083 19.7831C202.134 19.6614 202.153 19.5375 202.141 19.4113C202.116 19.1797 202.077 19.0621 202.025 19.0584C201.974 19.0443 201.842 19.1342 201.63 19.3279C201.429 19.512 201.311 19.5507 201.277 19.4438C201.253 19.3377 201.285 18.8909 201.372 18.1034C201.502 17.0161 201.631 16.3831 201.758 16.2042ZM203.792 17.5551C203.691 17.2137 203.505 16.9759 203.232 16.8416C202.97 16.7081 202.733 16.7382 202.521 16.932C202.366 17.0567 202.288 17.3488 202.286 17.8082C202.296 18.2579 202.378 18.5718 202.533 18.7499C202.706 18.9503 202.731 20.0694 202.607 22.1074C202.535 23.4077 202.515 24.2782 202.546 24.7191C202.578 25.1599 202.689 25.502 202.881 25.7454C203.206 26.1654 203.475 26.3516 203.687 26.304C203.899 26.2565 204.023 25.9833 204.058 25.4846C204.099 24.9131 204.233 24.3483 204.461 23.7901C204.599 23.4658 204.673 23.236 204.682 23.101C204.692 22.9659 204.641 22.8787 204.529 22.8394C204.448 22.8023 204.391 22.652 204.357 22.3886C204.324 22.1147 204.322 21.7804 204.35 21.3856C204.395 20.7518 204.379 20.1762 204.301 19.659C204.223 19.1313 204.054 18.43 203.792 17.5551ZM204.26 32.5636C204.424 32.7424 204.571 32.732 204.7 32.5323C204.84 32.3334 204.827 32.1445 204.662 31.9657C204.508 31.7876 204.361 31.798 204.222 31.997C204.093 32.1862 204.106 32.3751 204.26 32.5636ZM220.88 33.433C221.176 32.9527 221.398 32.7701 221.546 32.8851C221.625 32.9533 221.655 33.1173 221.636 33.3771C221.625 33.533 221.568 33.6751 221.465 33.8035C221.373 33.9223 221.253 33.9921 221.105 34.0129C220.967 34.0449 220.831 34.1291 220.696 34.2657C220.561 34.4023 220.461 34.5623 220.395 34.7456C220.251 35.1635 220.058 35.3116 219.816 35.1899C219.704 35.1402 219.52 35.1585 219.263 35.2446C219.007 35.3308 218.747 35.4585 218.484 35.6278C218.222 35.7971 218.036 35.9144 217.927 35.9797C217.818 36.0451 217.71 36.0844 217.605 36.0978C217.511 36.1016 217.439 36.0808 217.39 36.0355C217.342 35.9799 217.275 35.8864 217.191 35.7551C216.92 35.3076 216.847 35.01 216.972 34.8623C217.076 34.7235 217.278 34.8214 217.578 35.156C217.674 35.2673 217.781 35.3167 217.896 35.304C218.013 35.281 218.176 35.1882 218.386 35.0256C218.917 34.6039 219.297 34.3281 219.526 34.1981C219.754 34.0682 219.957 34.0095 220.134 34.0221C220.227 34.0287 220.346 33.9745 220.49 33.8594C220.634 33.7444 220.764 33.6022 220.88 33.433ZM222.191 31.5212C222.404 31.3274 222.566 31.386 222.68 31.6969C222.74 31.8891 222.759 32.1255 222.739 32.4061C222.719 32.6866 222.68 32.8718 222.621 32.9616C222.564 33.041 222.464 33.0444 222.323 32.9717C222.13 32.8953 222.015 32.6731 221.979 32.305C221.954 31.9272 222.024 31.666 222.191 31.5212ZM214.467 31.5511C214.434 30.6924 214.5 30.269 214.667 30.2809C214.822 30.2919 214.968 30.5268 215.102 30.9854C215.247 31.4448 215.267 31.7491 215.162 31.8983C215.116 31.9576 215.102 32.0089 215.12 32.0519C215.148 32.0957 215.199 32.1201 215.272 32.1253C215.344 32.1305 215.404 32.1765 215.45 32.2633C215.497 32.3397 215.516 32.4299 215.509 32.5338C215.501 32.6377 215.464 32.729 215.395 32.8077C215.338 32.8767 215.273 32.9087 215.201 32.9035C214.962 32.8865 214.882 33.0531 214.961 33.4034C215.068 33.8078 215.286 34.1314 215.613 34.374C215.643 34.397 215.678 34.4151 215.719 34.4285C216.16 34.6792 216.369 34.8977 216.346 35.084C216.335 35.2295 216.179 35.2915 215.878 35.27C215.618 35.2516 215.181 34.9437 214.565 34.3464C213.951 33.7388 213.651 33.3206 213.668 33.092C213.674 33.0089 213.72 32.9443 213.807 32.8983C213.894 32.8419 213.995 32.8177 214.11 32.8259C214.286 32.8384 214.396 32.7679 214.438 32.6143C214.491 32.451 214.501 32.0966 214.467 31.5511ZM216.244 29.4689C216.252 29.3546 216.315 29.2703 216.434 29.2161C216.563 29.1627 216.721 29.1426 216.908 29.1559C217.345 29.1869 217.554 29.3271 217.536 29.5765C217.528 29.6908 217.48 29.7814 217.392 29.8482C217.314 29.9157 217.218 29.9455 217.103 29.9373C216.989 29.9292 216.877 29.9578 216.768 30.0231C216.659 30.0885 216.58 30.1768 216.53 30.2881C216.432 30.5004 216.225 30.6111 215.911 30.6201C215.597 30.629 215.385 30.5304 215.274 30.3241C215.228 30.2373 215.244 30.1601 215.322 30.0925C215.401 30.0146 215.514 29.96 215.663 29.9288C215.822 29.8983 215.956 29.84 216.067 29.7539C216.178 29.6678 216.236 29.5728 216.244 29.4689ZM221.756 27.0728C221.912 26.9377 222.075 26.918 222.246 27.0137C222.428 27.0997 222.698 27.3331 223.058 27.7137C223.397 28.0824 223.606 28.4472 223.685 28.8078C223.774 29.1588 223.776 29.7177 223.691 30.4844C223.637 30.9401 223.516 31.1716 223.328 31.1791C223.161 31.1777 223.054 30.9977 223.006 30.6393C222.984 30.502 222.974 30.355 222.975 30.1985C223.008 29.5847 222.783 28.9316 222.3 28.2393C222.111 27.9544 221.962 27.6984 221.853 27.4713C221.744 27.2443 221.711 27.1114 221.756 27.0728ZM219.617 26.0904C219.832 25.8655 220.072 25.7886 220.338 25.8598C220.605 25.9309 220.759 26.1142 220.801 26.4096C220.832 26.7042 220.676 26.8393 220.333 26.8149C220.001 26.7913 219.514 26.9551 218.873 27.3063C218.232 27.6575 217.855 27.9648 217.742 28.2283C217.653 28.4517 217.534 28.5894 217.384 28.6414C217.234 28.6934 217.106 28.6582 217 28.5358C216.893 28.4134 216.849 28.2327 216.866 27.9937C216.88 27.7963 216.922 27.6426 216.993 27.5328C217.074 27.4133 217.172 27.3576 217.286 27.3657C217.39 27.3731 217.508 27.3345 217.639 27.2498C217.782 27.1555 217.894 27.0434 217.976 26.9135C218.06 26.7732 218.177 26.6615 218.329 26.5784C218.493 26.4855 218.642 26.4439 218.777 26.4536C218.901 26.4624 219.045 26.4308 219.206 26.3588C219.379 26.2875 219.516 26.1981 219.617 26.0904ZM231.603 34.196C231.899 33.7157 232.12 33.5331 232.269 33.6481C232.348 33.7163 232.378 33.8803 232.359 34.1401C232.348 34.296 232.291 34.4381 232.188 34.5665C232.096 34.6853 231.976 34.7551 231.828 34.7759C231.69 34.8078 231.554 34.8921 231.419 35.0287C231.284 35.1653 231.184 35.3253 231.118 35.5086C230.974 35.9265 230.78 36.0746 230.538 35.9529C230.427 35.9032 230.243 35.9215 229.986 36.0076C229.73 36.0938 229.47 36.2215 229.207 36.3908C228.944 36.5601 228.759 36.6774 228.65 36.7427C228.54 36.8081 228.433 36.8474 228.328 36.8608C228.234 36.8646 228.162 36.8438 228.113 36.7985C228.065 36.7429 227.998 36.6494 227.914 36.5181C227.643 36.0706 227.57 35.773 227.695 35.6253C227.799 35.4865 228.001 35.5844 228.301 35.919C228.397 36.0303 228.503 36.0797 228.619 36.067C228.736 36.044 228.899 35.9512 229.109 35.7886C229.64 35.3669 230.02 35.0911 230.249 34.9611C230.477 34.8312 230.68 34.7725 230.857 34.7851C230.95 34.7917 231.069 34.7375 231.213 34.6224C231.357 34.5074 231.487 34.3652 231.603 34.196ZM232.914 32.2842C233.126 32.0904 233.289 32.149 233.403 32.4599C233.462 32.6521 233.482 32.8885 233.462 33.1691C233.442 33.4496 233.403 33.6348 233.344 33.7246C233.286 33.804 233.187 33.8074 233.046 33.7347C232.853 33.6583 232.738 33.4361 232.702 33.068C232.676 32.6902 232.747 32.4289 232.914 32.2842ZM225.189 32.3141C225.157 31.4554 225.223 31.032 225.39 31.0439C225.545 31.0549 225.691 31.2898 225.825 31.7484C225.97 32.2078 225.99 32.512 225.885 32.6613C225.839 32.7206 225.825 32.7718 225.843 32.8149C225.871 32.8587 225.922 32.8831 225.995 32.8883C226.067 32.8935 226.127 32.9395 226.173 33.0263C226.219 33.1027 226.239 33.1929 226.232 33.2968C226.224 33.4007 226.187 33.492 226.118 33.5707C226.061 33.6397 225.996 33.6717 225.923 33.6665C225.684 33.6495 225.605 33.8161 225.684 34.1664C225.791 34.5708 226.008 34.8944 226.336 35.137C226.365 35.16 226.401 35.1781 226.442 35.1915C226.883 35.4422 227.092 35.6607 227.068 35.847C227.058 35.9925 226.902 36.0545 226.601 36.033C226.341 36.0146 225.904 35.7067 225.288 35.1094C224.674 34.5018 224.374 34.0836 224.391 33.855C224.397 33.7719 224.443 33.7073 224.53 33.6613C224.617 33.6049 224.718 33.5807 224.832 33.5889C225.009 33.6014 225.119 33.5309 225.161 33.3773C225.214 33.214 225.224 32.8596 225.189 32.3141ZM226.967 30.2319C226.975 30.1176 227.038 30.0333 227.157 29.9791C227.286 29.9257 227.444 29.9056 227.631 29.9189C228.068 29.9499 228.277 30.0901 228.259 30.3395C228.251 30.4538 228.203 30.5444 228.115 30.6112C228.037 30.6787 227.941 30.7084 227.826 30.7003C227.712 30.6922 227.6 30.7208 227.491 30.7861C227.382 30.8515 227.303 30.9398 227.253 31.0511C227.154 31.2634 226.948 31.3741 226.634 31.3831C226.32 31.392 226.108 31.2934 225.997 31.0871C225.951 31.0003 225.967 30.9231 226.045 30.8555C226.124 30.7776 226.237 30.723 226.386 30.6918C226.545 30.6613 226.679 30.603 226.79 30.5169C226.9 30.4308 226.959 30.3358 226.967 30.2319ZM232.479 27.8358C232.635 27.7007 232.798 27.681 232.969 27.7767C233.151 27.8627 233.421 28.0961 233.78 28.4767C234.12 28.8454 234.329 29.2102 234.407 29.5708C234.497 29.9218 234.499 30.4807 234.413 31.2474C234.36 31.7031 234.239 31.9346 234.051 31.9421C233.884 31.9407 233.776 31.7607 233.729 31.4023C233.707 31.265 233.697 31.118 233.698 30.9614C233.731 30.3477 233.506 29.6946 233.022 29.0023C232.834 28.7174 232.685 28.4614 232.576 28.2343C232.467 28.0073 232.434 27.8744 232.479 27.8358ZM230.34 26.8534C230.554 26.6285 230.795 26.5516 231.061 26.6228C231.328 26.6939 231.482 26.8772 231.524 27.1726C231.555 27.4672 231.399 27.6023 231.056 27.5779C230.724 27.5543 230.237 27.718 229.596 28.0693C228.955 28.4205 228.578 28.7278 228.465 28.9913C228.376 29.2147 228.256 29.3524 228.106 29.4044C227.957 29.4564 227.829 29.4212 227.722 29.2988C227.616 29.1764 227.572 28.9957 227.589 28.7567C227.603 28.5593 227.645 28.4056 227.715 28.2958C227.797 28.1762 227.895 28.1206 228.009 28.1287C228.113 28.1361 228.231 28.0975 228.362 28.0128C228.505 27.9185 228.617 27.8064 228.699 27.6765C228.782 27.5362 228.9 27.4245 229.052 27.3414C229.215 27.2485 229.365 27.2069 229.5 27.2166C229.624 27.2254 229.768 27.1938 229.929 27.1218C230.102 27.0505 230.238 26.961 230.34 26.8534ZM241.991 17.6572C242.136 17.5317 242.301 17.4756 242.488 17.4889C242.676 17.5022 242.847 17.5875 243.003 17.7448C243.16 17.8917 243.231 18.0639 243.217 18.2613C243.211 18.3444 243.24 18.4509 243.304 18.5808C243.368 18.7106 243.438 18.8149 243.516 18.8935C243.614 18.9841 243.71 19.252 243.804 19.6972C243.908 20.1432 243.983 20.6341 244.028 21.17C244.107 21.9693 244.124 22.6127 244.079 23.1003C244.045 23.5783 243.936 24.1553 243.752 24.8315C243.452 25.9589 243.229 26.6061 243.081 26.7731C242.944 26.9409 242.909 27.2099 242.977 27.5803C243.007 27.7391 243.002 27.8849 242.961 28.0178C242.931 28.141 242.873 28.2256 242.786 28.2716C242.711 28.308 242.637 28.3967 242.564 28.5378C242.502 28.6795 242.465 28.8283 242.454 28.9842C242.427 29.3582 242.266 29.7854 241.971 30.2657C241.32 31.3368 241.352 32.8062 242.065 34.674C242.24 35.146 242.385 35.6002 242.5 36.0365C242.626 36.4632 242.685 36.7441 242.675 36.8792C242.665 37.0247 242.69 37.1779 242.752 37.3389C242.814 37.5 242.894 37.6257 242.992 37.7163C243.09 37.8068 243.17 37.9222 243.233 38.0624C243.308 38.193 243.341 38.3051 243.335 38.3986C243.328 38.4921 243.391 38.6323 243.524 38.8193C243.658 38.9959 243.828 39.1699 244.035 39.3413C244.243 39.5023 244.413 39.6763 244.546 39.8633C244.69 40.051 244.758 40.1916 244.751 40.2851C244.736 40.5033 244.577 40.6121 244.274 40.6114C243.97 40.6212 243.722 40.5199 243.528 40.3077C243.354 40.1074 243.077 39.8945 242.696 39.669C242.276 39.4093 241.934 38.9986 241.671 38.4369C241.409 37.8648 241.385 37.4714 241.599 37.2569C241.723 37.1195 241.767 37.0182 241.73 36.9529C241.693 36.8876 241.561 36.8313 241.335 36.7838C241.119 36.7371 240.963 36.6529 240.867 36.5312C240.783 36.3999 240.734 36.1981 240.722 35.9257C240.715 35.7372 240.673 35.5201 240.596 35.2745C240.52 35.0288 240.434 34.84 240.339 34.7079C240.168 34.466 240.036 34.3417 239.943 34.3351C239.86 34.3292 239.696 34.4324 239.451 34.6447C239.105 34.9543 238.929 35.1506 238.923 35.2337C238.911 35.4 238.617 35.7916 238.041 36.4084C237.475 37.0261 236.874 37.6099 236.24 38.1601C235.617 38.7005 235.227 38.9652 235.071 38.9541C234.947 38.9452 234.869 38.8614 234.839 38.7026C234.818 38.5445 234.842 38.3582 234.91 38.1437C234.977 37.9292 235.079 37.7381 235.217 37.5703C235.445 37.2942 235.78 37.0673 236.221 36.8899C236.404 36.8089 236.591 36.6708 236.783 36.4756C236.975 36.2699 237.115 36.0606 237.203 35.8476C237.407 35.3399 237.627 34.9639 237.863 34.7197C238.202 34.3678 238.552 33.6304 238.914 32.5074C239.286 31.3852 239.449 30.5613 239.403 30.0359C239.336 29.3524 239.406 28.9553 239.613 28.8447C239.732 28.7801 239.795 28.7062 239.801 28.6231C239.807 28.54 239.752 28.4265 239.637 28.2825C239.561 28.1727 239.497 27.9749 239.444 27.6892C239.392 27.3931 239.366 27.0988 239.366 26.8064C239.365 26.0858 239.361 25.6364 239.352 25.4583C239.343 24.8624 239.473 23.843 239.742 22.4001C240.013 20.9469 240.236 20.0856 240.412 19.8161C240.53 19.6261 240.634 19.4038 240.726 19.1492C240.817 18.8946 240.868 18.6946 240.878 18.5492C240.889 18.3933 240.935 18.2608 241.016 18.1517C241.097 18.0322 241.185 17.9758 241.279 17.9824C241.372 17.9891 241.489 17.9608 241.629 17.8977C241.769 17.8346 241.89 17.7544 241.991 17.6572ZM242.798 21.2861C242.823 20.9328 242.81 20.6081 242.758 20.312C242.716 20.0166 242.646 19.8185 242.549 19.7176C242.211 19.3281 241.934 19.5641 241.716 20.4258C241.529 21.1436 241.377 22.3233 241.26 23.9649C241.213 24.6299 241.18 25.1706 241.16 25.587C241.142 25.9929 241.134 26.3265 241.136 26.5878C241.15 26.8393 241.174 27.0134 241.209 27.1098C241.244 27.2063 241.293 27.2464 241.357 27.23C241.442 27.2048 241.546 27.0608 241.669 26.798C241.803 26.536 241.913 26.2358 242 25.8973C242.206 25.0557 242.394 24.4686 242.564 24.136C243.061 23.1689 243.214 22.6263 243.024 22.5083C243.004 22.4965 242.989 22.4902 242.979 22.4894C242.906 22.4843 242.852 22.3655 242.816 22.1332C242.78 21.901 242.774 21.6186 242.798 21.2861ZM257.303 30.0878C257.33 29.7138 257.56 29.6414 257.993 29.8706C258.265 30.0048 258.572 30.2459 258.912 30.5939C259.458 31.1445 259.803 31.4249 259.949 31.4352C260.011 31.4397 260.332 31.7706 260.912 32.428C261.503 33.0757 262.183 33.8604 262.953 34.7819C263.397 35.3043 263.771 35.7643 264.077 36.162C264.394 36.5501 264.666 36.9037 264.894 37.2227C265.123 37.5314 265.297 37.7944 265.418 38.0119C265.539 38.2189 265.62 38.4022 265.661 38.5617C265.701 38.7213 265.697 38.8515 265.648 38.9525C265.611 39.0438 265.532 39.1165 265.414 39.1707C265.337 39.2175 265.268 39.3118 265.206 39.4536C265.154 39.5857 265.123 39.7349 265.111 39.9011C265.099 40.0674 265.045 40.241 264.949 40.4221C264.852 40.6033 264.738 40.7465 264.605 40.852C264.263 41.1096 263.586 41.3695 262.576 41.6318C261.575 41.8948 261.039 41.9506 260.966 41.7992C260.929 41.7339 260.834 41.6749 260.681 41.6223C260.528 41.5696 260.363 41.537 260.187 41.5244C259.75 41.4934 259.264 41.1402 258.727 40.465C258.516 40.1994 258.362 40.0109 258.266 39.8996C258.169 39.7883 258.075 39.7138 257.984 39.6759C257.893 39.6277 257.82 39.6277 257.765 39.676C257.71 39.7139 257.631 39.7918 257.529 39.9098C257.278 40.2053 256.693 40.362 255.772 40.3801C254.862 40.3989 254.24 40.2659 253.905 39.981C253.266 39.4238 253.64 39.0901 255.026 38.9799C255.058 38.9717 255.095 38.9691 255.136 38.972C255.881 38.9206 256.456 38.7631 256.862 38.4996C257.267 38.236 257.551 37.8333 257.715 37.2915C257.863 36.8216 258.04 36.4739 258.244 36.2482C258.492 35.9839 258.626 35.2729 258.646 34.1152C258.677 32.9477 258.577 32.2305 258.345 31.9634C258.239 31.8409 258.15 31.6936 258.079 31.5215C258.019 31.3397 257.994 31.176 258.004 31.0306C258.014 30.8851 257.986 30.763 257.92 30.6643C257.854 30.5656 257.764 30.5122 257.65 30.5041C257.546 30.4967 257.46 30.454 257.393 30.3761C257.326 30.2878 257.296 30.1917 257.303 30.0878ZM261.948 35.0394C260.277 33.1347 259.4 32.1794 259.317 32.1735C259.234 32.1676 259.304 32.4284 259.527 32.956C259.762 33.474 259.871 33.8577 259.853 34.107C259.846 34.2005 259.874 34.3226 259.936 34.4733C259.999 34.6135 260.08 34.7289 260.178 34.8194C260.413 35.045 260.518 35.324 260.494 35.6565C260.472 35.9786 260.332 36.1775 260.076 36.2533C259.841 36.3305 259.602 36.679 259.359 37.2988C259.117 37.9186 259.005 38.4693 259.023 38.9509C259.047 39.4853 259.276 39.935 259.71 40.3C260.154 40.6658 260.58 40.7692 260.988 40.6102C261.397 40.4409 261.916 40.3317 262.546 40.2825C262.83 40.2609 263.074 40.2052 263.279 40.1153C263.484 40.0151 263.617 39.9045 263.678 39.7835C263.704 39.7122 263.742 39.6158 263.793 39.494C263.904 39.2513 263.984 39.0795 264.033 38.9785C264.082 38.8776 264.124 38.7343 264.158 38.5488C264.192 38.3632 264.211 38.2445 264.214 38.1925C264.219 38.1302 264.186 38.0077 264.115 37.8252C264.056 37.633 263.998 37.4983 263.94 37.4211C263.883 37.344 263.754 37.1781 263.553 36.9236C263.362 36.6699 263.194 36.4647 263.048 36.3081C262.904 36.1412 262.668 35.8633 262.34 35.4745C262.166 35.2846 262.035 35.1395 261.948 35.0394ZM272.953 31.8436C273.091 31.6551 273.315 31.5927 273.624 31.6564C273.933 31.7098 274.122 31.8537 274.188 32.0882C274.272 32.3761 274.263 33.2422 274.16 34.6865C274.092 35.6424 274.078 36.2836 274.117 36.6102C274.168 36.9271 274.318 37.2406 274.567 37.5507C274.835 37.8935 275.031 38.0798 275.154 38.1094C275.277 38.1391 275.544 38.064 275.953 37.8843C276.212 37.767 276.421 37.6304 276.578 37.4745C276.735 37.3186 276.819 37.1627 276.83 37.0069C276.84 36.8718 276.869 36.759 276.917 36.6684C276.976 36.5682 277.037 36.5203 277.1 36.5248C277.256 36.5358 277.463 36.112 277.723 35.2533C277.993 34.3953 278.105 33.7663 278.061 33.3662C278.042 33.1874 278.06 33.0111 278.114 32.8374C278.179 32.6541 278.267 32.5246 278.377 32.4489C278.652 32.2491 278.899 32.3033 279.117 32.6112C279.346 32.9199 279.484 33.3892 279.534 34.0193C279.58 34.691 279.703 35.3054 279.904 35.8627C280.104 36.42 280.195 36.8338 280.176 37.1039C280.168 37.2182 280.187 37.3188 280.233 37.4056C280.279 37.4924 280.338 37.5384 280.411 37.5436C280.473 37.548 280.528 37.5833 280.576 37.6493C280.623 37.7153 280.643 37.7951 280.637 37.8886C280.595 38.4809 280.945 38.9183 281.687 39.2008C282.43 39.473 283.371 39.5243 284.511 39.3548C285.345 39.2262 285.845 39.2565 286.009 39.4457C286.106 39.5466 286.136 39.6323 286.1 39.7028C286.075 39.7637 285.982 39.8198 285.822 39.871C285.715 39.9052 285.61 39.9865 285.507 40.1149C285.414 40.244 285.363 40.371 285.354 40.4957C285.343 40.6515 285.293 40.768 285.204 40.8453C285.116 40.9121 284.95 40.9733 284.705 41.0291C284.472 41.0751 284.045 41.1387 283.423 41.2198C283.296 41.2421 283.079 41.2162 282.771 41.142C282.474 41.0582 282.183 40.9592 281.899 40.845C281.473 40.6685 281.133 40.4512 280.88 40.193C280.638 39.9251 280.342 39.4602 279.992 38.7983C279.763 38.3538 279.564 37.9271 279.394 37.5183C279.236 37.0997 279.162 36.8229 279.171 36.6878C279.182 36.5424 279.165 36.4158 279.12 36.3082C279.086 36.2014 279.033 36.1454 278.96 36.1402C278.887 36.135 278.822 36.1669 278.765 36.236C278.708 36.305 278.676 36.3863 278.669 36.4798C278.652 36.7292 278.334 37.307 277.716 38.2134C277.378 38.7011 277.081 39.0611 276.824 39.2934C276.579 39.5162 276.329 39.6498 276.075 39.6944C275.621 39.7665 275.216 39.7325 274.861 39.5923C274.516 39.4529 274.351 39.2637 274.368 39.0247C274.376 38.9208 274.361 38.8362 274.324 38.7709C274.287 38.6952 274.233 38.6548 274.16 38.6496C274.025 38.64 273.836 38.3603 273.593 37.8104C273.351 37.2501 273.239 36.8453 273.257 36.5959C273.263 36.5024 273.227 36.4215 273.149 36.3533C273.081 36.2754 272.995 36.2327 272.892 36.2253C272.777 36.2172 272.68 36.2625 272.6 36.3612C272.52 36.4599 272.474 36.5872 272.463 36.7431C272.445 37.0029 272.2 37.4293 271.73 38.0224C271.259 38.6155 270.751 39.1537 270.205 39.637C269.659 40.1203 269.277 40.3542 269.059 40.3387C268.861 40.3246 268.694 40.3336 268.556 40.3655C268.417 40.3975 268.23 40.4676 267.992 40.5761C267.713 40.6919 267.399 40.6905 267.053 40.5719C266.706 40.4532 266.541 40.2848 266.556 40.0666C266.562 39.9835 266.674 39.8714 266.893 39.7303C267.123 39.59 267.387 39.4678 267.687 39.3638C268.351 39.1291 269.139 38.6213 270.051 37.8403C270.974 37.0496 271.448 36.4777 271.473 36.1244C271.492 35.8543 271.719 35.3117 272.153 34.4967C272.598 33.672 272.901 33.2341 273.061 33.1828C273.104 33.165 273.119 33.0982 273.107 32.9824C273.105 32.857 273.072 32.7293 273.009 32.5995C272.945 32.4696 272.908 32.3312 272.897 32.1843C272.887 32.0269 272.906 31.9134 272.953 31.8436ZM294.952 33.2993C294.957 33.2266 295.049 33.1809 295.228 33.1623C295.418 33.1341 295.652 33.1403 295.931 33.1811C296.334 33.2411 296.59 33.3219 296.697 33.4235C296.806 33.5148 296.85 33.6955 296.831 33.9656C296.801 34.3916 296.617 34.624 296.28 34.6627C295.944 34.691 295.648 34.8213 295.391 35.0537C295.28 35.1502 295.15 35.214 295.001 35.2452C294.853 35.2765 294.733 35.2732 294.642 35.2353C294.551 35.1871 294.426 35.1834 294.267 35.2243C294.118 35.2555 293.988 35.3194 293.877 35.4159C293.776 35.5131 293.634 35.597 293.452 35.6676C293.27 35.7277 293.117 35.7534 292.992 35.7445C292.847 35.7342 292.686 35.7906 292.51 35.9139C292.345 36.0378 292.197 36.2049 292.067 36.4149C291.655 37.0748 291.643 37.7476 292.033 38.4332C292.434 39.1092 293.194 39.7273 294.314 40.2873C294.687 40.4705 295.013 40.5825 295.292 40.6232C295.572 40.6536 295.976 40.6301 296.503 40.5527C297 40.4732 297.383 40.4482 297.652 40.4778C297.933 40.4978 298.198 40.5794 298.449 40.7225C298.852 40.9391 298.969 41.1198 298.802 41.2646C298.658 41.3901 298.287 41.5412 297.689 41.718C297.081 41.9044 296.719 42.0719 296.604 42.2203C296.483 42.3057 296.314 42.3355 296.096 42.3095C295.88 42.2732 295.661 42.1898 295.441 42.0592C295.221 41.9183 295.115 41.7855 295.124 41.6608C295.132 41.5465 295.101 41.4712 295.031 41.4348C294.971 41.3888 294.883 41.3825 294.766 41.416C294.574 41.4754 294.264 41.4272 293.836 41.2715C293.409 41.1158 293.021 40.9211 292.672 40.6874C292.323 40.4537 292.153 40.2641 292.164 40.1186C292.172 40.0044 292.133 39.8971 292.046 39.797C291.969 39.6975 291.87 39.6226 291.748 39.5722C291.513 39.5032 291.293 39.2943 291.088 38.9456C290.894 38.5872 290.749 38.2113 290.651 37.818C290.565 37.415 290.54 37.0321 290.577 36.6692C290.613 36.3062 290.729 36.0743 290.924 35.9733C290.999 35.9369 291.056 35.8679 291.095 35.7662C291.134 35.6541 291.141 35.5554 291.116 35.4701C291.092 35.3743 291.105 35.2656 291.155 35.1439C291.205 35.0221 291.275 34.9279 291.363 34.8611C291.671 34.6428 292.229 34.3639 293.036 34.0246C293.854 33.6859 294.361 33.5236 294.559 33.5377C294.663 33.5451 294.753 33.5254 294.829 33.4786C294.906 33.4318 294.947 33.3721 294.952 33.2993ZM288.343 21.8326C288.355 21.6559 288.398 21.5702 288.471 21.5754C288.554 21.5813 288.641 21.6763 288.732 21.8603C288.769 21.936 288.775 21.9991 288.75 22.0495C288.726 22.0896 288.673 22.1067 288.59 22.1008C288.517 22.0956 288.456 22.0704 288.407 22.0251C288.359 21.9695 288.338 21.9053 288.343 21.8326ZM304.903 25.5329C305.022 25.4787 305.083 25.4256 305.087 25.3737C305.091 25.3113 305.13 25.2724 305.205 25.2568C305.289 25.2419 305.377 25.2586 305.467 25.3068C305.569 25.3453 305.652 25.4296 305.716 25.5594C305.791 25.6796 305.824 25.7969 305.816 25.9112C305.808 26.0255 305.829 26.1628 305.881 26.3231C305.933 26.473 305.997 26.5924 306.075 26.6815C306.432 27.0933 306.699 27.812 306.877 28.8376C307.054 29.8632 307.025 30.4981 306.788 30.7424C306.563 30.9665 306.545 31.148 306.734 31.2867C306.913 31.4143 306.95 31.9914 306.845 33.0178C306.741 34.0442 306.565 34.7575 306.317 35.1576C306.116 35.4879 306.019 35.7577 306.025 35.967C306.031 36.1659 306.149 36.2734 306.378 36.2897C306.43 36.2934 306.49 36.2507 306.559 36.1616C306.639 36.0629 306.7 35.9419 306.742 35.7987C306.849 35.4617 307.116 35.3084 307.542 35.3387C307.729 35.352 307.913 35.3286 308.095 35.2684C308.287 35.209 308.434 35.1307 308.535 35.0334C308.739 34.8077 309.039 34.7037 309.434 34.7215C309.831 34.7288 310.146 34.8504 310.379 35.0863C310.603 35.3215 310.869 35.5441 311.178 35.7541C311.467 35.9417 311.64 36.236 311.695 36.6367C311.761 37.0278 311.688 37.315 311.477 37.4984C311.265 37.6818 311.152 37.8826 311.136 38.1008C311.13 38.1943 311.068 38.3205 310.953 38.4793C310.847 38.6389 310.722 38.7814 310.578 38.9069C310.177 39.2543 309.998 39.5654 310.041 39.8399C310.085 40.1041 310.358 40.4577 310.859 40.9006C312.048 41.946 312.632 42.6194 312.61 42.9207C312.598 43.0869 312.838 43.318 313.328 43.614C313.83 43.9108 314.241 44.0706 314.563 44.0935C314.833 44.1127 315.04 44.2162 315.183 44.4039C315.327 44.5813 315.327 44.7327 315.182 44.8581C315.015 45.0029 314.731 45.0401 314.329 44.9697C313.926 44.9097 313.515 44.8022 313.098 44.6472C312.681 44.4922 312.314 44.2989 311.996 44.0675C311.678 43.836 311.526 43.6268 311.539 43.4397C311.545 43.3566 311.437 43.1871 311.215 42.9311C310.993 42.6751 310.725 42.4106 310.41 42.1376C309.632 41.4765 309.16 41.067 308.994 40.9089C308.828 40.7509 308.488 40.6014 307.976 40.4606C307.649 40.3642 307.415 40.3475 307.275 40.4107C307.145 40.4745 306.995 40.6779 306.824 41.0208C306.558 41.5345 306.498 41.9323 306.645 42.2143C306.83 42.5616 306.834 43.0109 306.659 43.5624C306.484 44.1139 306.223 44.4869 305.875 44.6814C305.559 44.8574 305.289 44.9113 305.064 44.8431C304.849 44.786 304.751 44.6224 304.77 44.3522C304.785 44.1444 304.688 43.8138 304.48 43.3604C304.4 43.1667 304.323 42.8584 304.249 42.4354C304.175 42.002 304.132 41.5864 304.118 41.1886C304.064 40.1822 303.917 39.6913 303.675 39.7159C303.57 39.7189 303.456 39.8569 303.332 40.1301C303.271 40.2511 303.105 40.4586 302.833 40.7525C302.562 41.0465 302.264 41.3386 301.941 41.6289C301.15 42.3245 300.749 42.7398 300.74 42.8749C300.736 42.9269 300.68 42.9803 300.572 43.0353C300.474 43.091 300.351 43.1344 300.202 43.1656C299.896 43.2169 299.731 43.1164 299.707 42.8641C299.665 42.5687 299.815 42.2974 300.156 42.0502C300.266 41.9744 300.362 41.8716 300.445 41.7417C300.537 41.6126 300.587 41.5012 300.594 41.4077C300.6 41.3142 300.654 41.224 300.754 41.1372C300.865 41.0406 300.995 40.9768 301.143 40.9456C301.494 40.8661 301.684 40.6185 301.713 40.2029C301.729 39.9743 301.777 39.8158 301.857 39.7275C301.936 39.6392 302.074 39.602 302.272 39.6161C302.677 39.6449 302.969 39.4255 303.149 38.9579C303.329 38.4799 303.424 37.6668 303.432 36.5187C303.449 35.1101 303.427 34.1008 303.366 33.4907C303.261 32.4599 303.222 31.1779 303.248 29.6445C303.273 28.1112 303.354 27.2763 303.489 27.1397C303.558 27.0506 303.624 26.9196 303.689 26.7467C303.765 26.5641 303.813 26.3952 303.835 26.2401C303.883 25.8572 304.101 25.6534 304.489 25.6288C304.646 25.6191 304.784 25.5871 304.903 25.5329ZM305.447 27.796C305.448 27.6394 305.427 27.4917 305.384 27.3529C305.343 27.2038 305.287 27.1058 305.217 27.0591C305.139 26.9908 305.064 27.0899 304.993 27.3564C304.947 27.562 304.912 27.8362 304.887 28.1791C304.862 28.5324 304.861 28.8404 304.884 29.1031C304.918 29.3561 304.972 29.4853 305.044 29.4904C305.128 29.4964 305.176 29.693 305.19 30.0804C305.215 30.4686 305.206 30.9639 305.163 31.5666C305.066 32.9277 305.101 33.6142 305.267 33.626C305.496 33.6423 305.652 33.502 305.736 33.2051C305.831 32.8986 305.804 32.6095 305.656 32.3379C305.48 32.0226 305.492 31.4908 305.692 30.7427C305.892 29.9841 305.892 29.3993 305.691 28.9882C305.502 28.5674 305.42 28.17 305.447 27.796ZM310.124 36.9166C310.124 36.4779 310.087 36.1933 310.012 36.0627C309.948 35.9329 309.772 35.842 309.483 35.7901C309.04 35.7064 308.609 35.8219 308.19 36.1367C307.771 36.4515 307.43 36.9076 307.168 37.5052C307.08 37.7182 307.011 37.8856 306.96 38.0073C306.92 38.1297 306.896 38.2481 306.888 38.3624C306.88 38.4767 306.89 38.5609 306.917 38.6151C306.955 38.67 307.024 38.7323 307.123 38.8021C307.234 38.8622 307.35 38.9122 307.473 38.9523C307.606 38.9827 307.792 39.022 308.028 39.0701C308.45 39.1628 308.746 39.1839 308.917 39.1333C309.098 39.0836 309.308 38.9106 309.549 38.6144C309.916 38.1497 310.108 37.5838 310.124 36.9166ZM306.029 39.8677C306.028 39.7319 305.989 39.6195 305.912 39.5305C305.846 39.4318 305.788 39.2136 305.739 38.8759C305.701 38.5286 305.686 38.162 305.692 37.7761L305.699 36.3667L305.567 37.7828C305.453 39.0801 305.495 39.8872 305.692 40.204C305.768 40.3139 305.852 40.3042 305.945 40.175C306.002 40.0956 306.031 39.9932 306.029 39.8677ZM319.989 34.5483C320.015 34.1742 320.245 34.1018 320.678 34.331C320.95 34.4653 321.257 34.7064 321.598 35.0543C322.143 35.6049 322.489 35.8853 322.634 35.8957C322.697 35.9001 323.018 36.231 323.597 36.8884C324.188 37.5362 324.869 38.3208 325.639 39.2424C326.082 39.7647 326.456 40.2248 326.762 40.6225C327.079 41.0105 327.352 41.3641 327.58 41.6832C327.808 41.9918 327.983 42.2549 328.103 42.4723C328.224 42.6793 328.305 42.8626 328.346 43.0222C328.387 43.1817 328.383 43.312 328.334 43.4129C328.296 43.5042 328.218 43.577 328.099 43.6312C328.022 43.678 327.953 43.7722 327.891 43.914C327.84 44.0461 327.808 44.1953 327.796 44.3615C327.784 44.5278 327.73 44.7015 327.634 44.8826C327.537 45.0637 327.423 45.207 327.29 45.3124C326.948 45.57 326.272 45.8299 325.261 46.0922C324.26 46.3552 323.724 46.411 323.651 46.2596C323.614 46.1943 323.519 46.1353 323.366 46.0827C323.213 46.03 323.048 45.9974 322.872 45.9849C322.435 45.9538 321.949 45.6007 321.412 44.9255C321.201 44.6598 321.048 44.4714 320.951 44.3601C320.855 44.2488 320.761 44.1742 320.669 44.1364C320.579 44.0882 320.506 44.0882 320.45 44.1364C320.395 44.1743 320.316 44.2522 320.214 44.3703C319.963 44.6657 319.378 44.8225 318.458 44.8405C317.548 44.8593 316.925 44.7263 316.591 44.4414C315.951 43.8842 316.325 43.5505 317.711 43.4403C317.743 43.4321 317.78 43.4295 317.821 43.4325C318.567 43.3811 319.142 43.2236 319.547 42.96C319.952 42.6964 320.237 42.2937 320.4 41.7519C320.549 41.2821 320.725 40.9343 320.929 40.7087C321.177 40.4444 321.312 39.7334 321.331 38.5756C321.362 37.4082 321.262 36.6909 321.03 36.4238C320.924 36.3014 320.835 36.1541 320.764 35.9819C320.704 35.8001 320.679 35.6364 320.689 35.491C320.7 35.3455 320.672 35.2234 320.606 35.1248C320.54 35.0261 320.449 34.9727 320.335 34.9645C320.231 34.9571 320.145 34.9145 320.078 34.8366C320.011 34.7483 319.981 34.6522 319.989 34.5483ZM324.633 39.4998C322.962 37.5951 322.085 36.6398 322.002 36.6339C321.919 36.628 321.989 36.8889 322.213 37.4165C322.447 37.9344 322.556 38.3181 322.538 38.5675C322.531 38.661 322.559 38.7831 322.622 38.9337C322.685 39.0739 322.765 39.1893 322.863 39.2798C323.098 39.5054 323.203 39.7844 323.18 40.1169C323.157 40.439 323.017 40.638 322.761 40.7137C322.526 40.791 322.287 41.1395 322.045 41.7592C321.802 42.379 321.69 42.9297 321.708 43.4114C321.732 43.9457 321.961 44.3954 322.395 44.7604C322.839 45.1262 323.265 45.2296 323.673 45.0707C324.082 44.9014 324.601 44.7921 325.232 44.743C325.515 44.7214 325.759 44.6656 325.964 44.5758C326.17 44.4755 326.303 44.3649 326.364 44.2439C326.389 44.1727 326.428 44.0762 326.478 43.9545C326.589 43.7117 326.669 43.5399 326.718 43.439C326.767 43.338 326.809 43.1948 326.843 43.0092C326.877 42.8237 326.896 42.7049 326.9 42.653C326.904 42.5906 326.871 42.4682 326.801 42.2856C326.741 42.0934 326.683 41.9587 326.626 41.8816C326.568 41.8044 326.439 41.6386 326.238 41.3841C326.047 41.1303 325.879 40.9251 325.734 40.7686C325.589 40.6016 325.353 40.3238 325.025 39.935C324.851 39.745 324.72 39.6 324.633 39.4998Z" fill="white"/>
</svg>
