<svg width="207" height="45" viewBox="0 0 207 45" fill="none" xmlns="http://www.w3.org/2000/svg">
<path d="M6.38611 11.6656C6.51365 11.5228 6.67103 11.446 6.85823 11.4354C7.04543 11.4248 7.22635 11.4876 7.401 11.6238C7.57505 11.7496 7.66768 11.9113 7.67887 12.1089C7.68358 12.1921 7.72587 12.294 7.80574 12.4147C7.88561 12.5353 7.96921 12.6297 8.05653 12.6978C8.16524 12.7751 8.29437 13.0286 8.44391 13.4584C8.60385 13.8875 8.74044 14.3649 8.85368 14.8906C9.03365 15.6734 9.13227 16.3094 9.14956 16.7988C9.17665 17.2772 9.14204 17.8634 9.04572 18.5575C8.89211 19.7139 8.75272 20.3843 8.62753 20.5687C8.51274 20.7526 8.51246 21.0239 8.62668 21.3826C8.67711 21.5362 8.69056 21.6815 8.66701 21.8185C8.65328 21.9445 8.60629 22.0358 8.52604 22.0926C8.45559 22.1383 8.39329 22.2357 8.33914 22.3848C8.29539 22.5334 8.27793 22.6857 8.28676 22.8417C8.30797 23.2161 8.20271 23.6602 7.97098 24.1741C7.46201 25.3193 7.67997 26.7729 8.62486 28.5348C8.85878 28.9806 9.06062 29.4126 9.23037 29.8307C9.40993 30.2379 9.50354 30.5091 9.5112 30.6443C9.51944 30.7899 9.56438 30.9386 9.64602 31.0905C9.72766 31.2424 9.82283 31.357 9.93154 31.4343C10.0403 31.5116 10.1348 31.6158 10.2153 31.7468C10.3056 31.8669 10.3534 31.9738 10.3587 32.0674C10.364 32.161 10.4444 32.2921 10.6 32.4606C10.755 32.6188 10.9462 32.7697 11.1734 32.9133C11.4001 33.0465 11.5912 33.1974 11.7468 33.366C11.9128 33.5339 11.9985 33.6647 12.0038 33.7583C12.0161 33.9767 11.8721 34.1048 11.5717 34.1427C11.2719 34.191 11.0124 34.1222 10.7932 33.9364C10.5954 33.7598 10.2933 33.5839 9.88687 33.4087C9.43711 33.2046 9.04612 32.8408 8.71389 32.317C8.38107 31.7829 8.30698 31.3959 8.49162 31.1559C8.59777 31.0038 8.62828 30.8977 8.58315 30.8377C8.53801 30.7776 8.40016 30.7385 8.1696 30.7203C7.94943 30.7014 7.78411 30.6378 7.67363 30.5293C7.57296 30.4098 7.49937 30.2157 7.45285 29.9471C7.42145 29.761 7.35217 29.5511 7.24503 29.3172C7.13788 29.0833 7.02877 28.9069 6.9177 28.788C6.71754 28.5698 6.57066 28.4633 6.47706 28.4686C6.39386 28.4733 6.24434 28.5966 6.0285 28.8383C5.72495 29.1894 5.57553 29.4065 5.58024 29.4897C5.58967 29.6561 5.34774 30.0819 4.85445 30.7672C4.37156 31.4518 3.8505 32.1073 3.29127 32.7337C2.74186 33.3491 2.38915 33.6612 2.23315 33.6701C2.10835 33.6771 2.02074 33.6038 1.9703 33.4502C1.93026 33.296 1.93006 33.1082 1.96969 32.8868C2.00932 32.6655 2.08653 32.4629 2.20132 32.279C2.39282 31.976 2.69589 31.7085 3.1105 31.4763C3.282 31.3727 3.45026 31.2119 3.61528 30.9939C3.77971 30.7654 3.89214 30.54 3.95257 30.3175C4.08952 29.788 4.25983 29.3871 4.4635 29.1148C4.7543 28.7227 5.0077 27.9467 5.2237 26.7868C5.45011 25.6263 5.50698 24.7884 5.39433 24.2731C5.24164 23.6036 5.26057 23.2009 5.4511 23.0649C5.56137 22.9856 5.61416 22.9043 5.60944 22.8211C5.60473 22.7379 5.53615 22.6323 5.40369 22.5041C5.3146 22.4049 5.2257 22.2169 5.137 21.9402C5.0477 21.6531 4.98441 21.3646 4.94712 21.0746C4.85447 20.3599 4.79274 19.9148 4.76193 19.7391C4.67636 19.1493 4.67553 18.1216 4.75947 16.6562C4.84281 15.1804 4.95453 14.2977 5.09463 14.008C5.18744 13.8045 5.26288 13.5707 5.32095 13.3066C5.37903 13.0425 5.40394 12.8376 5.39569 12.692C5.38686 12.536 5.4156 12.3988 5.48192 12.2802C5.54765 12.1513 5.62732 12.0842 5.72092 12.0789C5.81452 12.0736 5.92686 12.0307 6.05793 11.9503C6.18901 11.8698 6.2984 11.7749 6.38611 11.6656ZM7.64837 15.1623C7.62834 14.8087 7.57368 14.4884 7.48438 14.2013C7.40549 13.9137 7.31139 13.726 7.20209 13.6383C6.81748 13.2949 6.57191 13.5644 6.46539 14.4468C6.37142 15.1825 6.37097 16.3719 6.46404 18.0151C6.50174 18.6807 6.53757 19.2212 6.57153 19.6366C6.6049 20.0417 6.63935 20.3736 6.67488 20.6324C6.72022 20.8802 6.76634 21.0498 6.81324 21.141C6.86014 21.2323 6.9142 21.2657 6.97542 21.2414C7.05685 21.2055 7.14191 21.0494 7.2306 20.7731C7.32968 20.4962 7.40071 20.1844 7.44367 19.8376C7.54097 18.9766 7.6527 18.3704 7.77886 18.0189C8.14871 16.9964 8.23189 16.4387 8.0284 16.3459C8.00701 16.3366 7.99112 16.3323 7.98072 16.3329C7.90792 16.337 7.83904 16.2262 7.77408 16.0003C7.70912 15.7745 7.66721 15.4951 7.64837 15.1623ZM14.7105 24.0741C15.1123 23.801 15.5198 23.6266 15.9329 23.551C16.3459 23.4755 16.6149 23.5281 16.7399 23.7088C16.8418 23.8491 17.13 23.9632 17.6044 24.0511C18.0269 24.1419 18.4715 24.3463 18.9381 24.6641C19.4042 24.9716 19.7518 25.3066 19.981 25.6693C20.073 25.8206 20.16 26.066 20.2418 26.4057C20.3335 26.7344 20.3881 27.0547 20.4058 27.3667C20.448 27.9277 20.4218 28.2944 20.3272 28.4667C20.2321 28.6286 19.9217 28.86 19.3963 29.161C18.7593 29.5206 18.1609 29.7318 17.6011 29.7948C17.0407 29.8474 16.4359 29.7617 15.7868 29.5376C15.159 29.3228 14.8088 29.2174 14.736 29.2215C14.4864 29.2357 14.7397 29.7482 15.496 30.7592C16.0492 31.4999 16.8123 32.0775 17.7852 32.4919C18.4378 32.7783 18.9375 32.943 19.2843 32.986C19.6414 33.0284 20.2339 32.9896 21.0618 32.8697C22.6459 32.6547 23.6992 32.6473 24.2218 32.8472C24.4351 32.929 24.4624 33.0422 24.3036 33.1869C23.7974 33.6433 22.8221 33.9229 21.3776 34.0255C19.9338 34.1386 18.7636 34.0171 17.867 33.661C17.1306 33.3688 16.3566 32.8753 15.5452 32.1805C14.7442 31.4851 14.1746 30.8236 13.8365 30.1958L12.9246 28.4634C12.7497 28.1394 12.6457 27.8688 12.6126 27.6516C12.5898 27.4338 12.6224 27.1815 12.7105 26.8949C12.8879 26.3423 13.1552 25.8107 13.5123 25.3001C13.8792 24.7785 14.2786 24.3699 14.7105 24.0741ZM18.2871 25.327C17.8697 25.142 17.4264 25.0523 16.9572 25.058C16.4984 25.0631 16.0857 25.1439 15.7189 25.3003C15.3522 25.4567 15.0419 25.6882 14.788 25.9947C14.5341 26.3012 14.3966 26.6376 14.3756 27.004C14.3594 27.4536 14.299 27.77 14.1946 27.9533C14.1283 28.0718 14.2055 28.1457 14.4263 28.1749C14.5315 28.1898 14.6569 28.1931 14.8025 28.1849C15.0209 28.1725 15.2199 28.1873 15.3997 28.2293C15.5794 28.2713 15.6922 28.3275 15.7379 28.3979C15.783 28.458 15.9579 28.5055 16.2624 28.5404C16.5669 28.5753 16.9116 28.5819 17.2964 28.5601C17.962 28.5224 18.3702 28.4523 18.5209 28.3499C18.701 28.2145 18.8269 27.8578 18.8985 27.2799C18.9232 27.1638 18.953 26.9534 18.9879 26.6489C19.036 26.2079 19.025 25.9216 18.9549 25.79C18.8843 25.6479 18.6617 25.4936 18.2871 25.327ZM28.9586 24.1905C28.9374 23.8161 28.9537 23.643 29.0075 23.6713C29.0184 23.6811 29.0352 23.701 29.0578 23.731C29.1534 23.9447 29.1678 24.1995 29.1011 24.4954C29.0505 24.7069 29.008 24.6937 28.9736 24.4557C28.9695 24.3829 28.9645 24.2945 28.9586 24.1905ZM29.2114 21.4687C29.7243 21.3145 30.246 21.2223 30.7764 21.1923C31.3172 21.1616 31.7945 21.2076 32.2083 21.3303C32.6326 21.4523 32.8509 21.6225 32.8632 21.8409C32.8721 21.9969 32.9568 22.0182 33.1173 21.9048C33.3378 21.7462 33.6088 21.7413 33.9302 21.89C34.2517 22.0388 34.4194 22.2379 34.4336 22.4875C34.453 22.8307 34.6124 23.2495 34.9116 23.7438C35.028 23.9563 35.1262 24.2168 35.2063 24.5252C35.2962 24.8227 35.3372 25.0864 35.3294 25.3164C35.3194 26.7985 35.5016 27.529 35.876 27.5077C35.98 27.5019 36.0699 27.5229 36.1456 27.5707C36.2208 27.6082 36.2601 27.6581 36.2637 27.7205C36.2737 27.8973 36.5786 28.0314 37.1785 28.1226C37.7882 28.2028 38.4038 28.2045 39.0255 28.1275C39.7609 28.0337 40.134 28.0804 40.1446 28.2676C40.1487 28.3404 40.1109 28.4103 40.0313 28.4775C39.9614 28.5336 39.8745 28.5646 39.7705 28.5705C39.6665 28.5764 39.5795 28.6074 39.5097 28.6635C39.4398 28.7196 39.4067 28.7789 39.4102 28.8413C39.4143 28.9141 39.2827 28.9841 39.0152 29.0515C38.7472 29.1084 38.4207 29.1477 38.0359 29.1695C37.4223 29.2043 36.967 29.1779 36.6699 29.0904C36.3826 28.9919 35.9504 28.7295 35.3733 28.3031C34.503 27.6742 34.0055 27.3633 33.8807 27.3704C33.8287 27.3733 33.7536 27.4297 33.6555 27.5396C33.5672 27.6385 33.4804 27.7634 33.395 27.9143C33.3195 28.0542 33.2223 28.1797 33.1034 28.2908C32.9839 28.3915 32.8773 28.4444 32.7837 28.4497C32.7005 28.4545 32.6301 28.5002 32.5724 28.5869C32.5141 28.6632 32.4882 28.7586 32.4947 28.873C32.5035 29.029 32.4623 29.1305 32.3711 29.1774C32.2896 29.2133 32.1383 29.2114 31.9169 29.1718C31.5268 29.1 31.1861 29.2549 30.8947 29.6366C30.7395 29.8436 30.6108 29.9657 30.5085 30.0028C30.4167 30.0393 30.3256 29.9975 30.2354 29.8774C30.1549 29.7463 30.063 29.6889 29.9596 29.7052C29.8562 29.7215 29.6997 29.8138 29.4901 29.9822C29.2303 30.1847 28.9129 30.2914 28.5379 30.3022C28.1623 30.3026 27.969 30.204 27.9578 30.0064C27.9542 29.944 27.8883 29.8851 27.76 29.8298C27.631 29.7641 27.477 29.7154 27.2978 29.6838C27.1187 29.6522 26.9646 29.6036 26.8357 29.5378C26.7062 29.4617 26.6394 29.3872 26.6353 29.3144C26.6311 29.2416 26.5756 29.1822 26.4687 29.1361C26.3721 29.0894 26.2511 29.0701 26.1055 29.0784C25.9183 29.089 25.7804 29.0499 25.6919 28.961C25.6138 28.8715 25.568 28.7072 25.5544 28.468C25.5309 28.052 25.4109 27.6831 25.1944 27.3615C25.0584 27.171 24.9909 26.9922 24.9919 26.8253C24.9929 26.6583 25.0582 26.4303 25.1879 26.1412C25.2709 25.9487 25.3747 25.755 25.4993 25.5602C25.6343 25.3647 25.7419 25.2386 25.8222 25.1819C25.9024 25.1252 25.969 25.0119 26.022 24.842C26.075 24.672 26.0968 24.5039 26.0873 24.3375C26.0767 24.1503 26.1046 23.9974 26.1709 23.8789C26.2372 23.7603 26.3276 23.6978 26.442 23.6914C26.546 23.6855 26.6323 23.6441 26.701 23.5671C26.7801 23.4896 26.817 23.4041 26.8117 23.3105C26.8005 23.1129 27.0648 22.8058 27.6046 22.3892C28.1444 21.9726 28.68 21.6657 29.2114 21.4687ZM32.1342 22.5082C31.7994 22.3081 31.4801 22.1957 31.1761 22.1712C30.8716 22.1363 30.6555 22.1903 30.528 22.3331C30.4403 22.4424 30.2884 22.5241 30.0723 22.578C29.4144 22.7509 28.9492 22.9181 28.6766 23.0797C28.4144 23.2406 28.2601 23.4632 28.2136 23.7475C28.1809 23.9059 28.0921 24.0883 27.9473 24.2947C27.8123 24.4902 27.6648 24.6498 27.5049 24.7736C27.3444 24.887 27.2061 25.0253 27.0902 25.1884C26.9846 25.3508 26.9348 25.4841 26.9407 25.5881C26.946 25.6817 26.9094 25.7724 26.8309 25.8603C26.7622 25.9373 26.6759 25.9787 26.5719 25.9846C26.4367 25.9922 26.3429 26.0862 26.2905 26.2666C26.2375 26.4365 26.2231 26.7347 26.2473 27.1611C26.2903 27.9203 26.4314 28.2931 26.6706 28.2795C26.7746 28.2736 26.8757 28.3096 26.974 28.3875C27.0821 28.4545 27.16 28.5387 27.2074 28.6404C27.3158 28.8951 27.7342 29.007 28.4628 28.9762C29.1908 28.9349 29.9022 28.7851 30.5971 28.5266C31.3023 28.2676 31.6831 27.9904 31.7394 27.6951C31.7635 27.5685 31.8353 27.4549 31.9548 27.3542C32.0743 27.2536 32.1965 27.1997 32.3213 27.1926C32.4565 27.185 32.6095 27.1241 32.7804 27.0101C32.9617 26.8955 33.1058 26.7674 33.2125 26.6257C33.3867 26.3863 33.4775 26.1464 33.4847 25.906C33.4914 25.6553 33.4236 25.1948 33.2813 24.5247C33.067 23.5039 32.9327 22.9742 32.8783 22.9356L32.1342 22.5082ZM40.7825 22.6757C40.7772 22.5821 40.852 22.5205 41.0068 22.4908C41.161 22.4508 41.3384 22.4512 41.5389 22.492C41.7499 22.5322 41.9106 22.6066 42.0211 22.7151C42.2189 22.8917 43.6401 22.9312 46.2846 22.8336C48.9396 22.7353 50.4552 22.7851 50.8316 22.9829C51.1548 23.1629 51.3393 23.3819 51.3853 23.6402C51.4276 23.836 51.3552 23.9392 51.168 23.9498C51.0952 23.9539 51.0355 24.0043 50.9888 24.1008C50.9415 24.187 50.9214 24.2924 50.9285 24.4172C50.9355 24.542 50.9083 24.7053 50.8467 24.907C50.7845 25.0983 50.7101 25.2591 50.6236 25.3892C50.4591 25.6176 50.3555 25.999 50.3128 26.5336C50.2798 27.0571 50.3069 27.5355 50.3941 27.9688C50.4916 28.4014 50.6236 28.6131 50.79 28.6036C50.8836 28.5983 50.9685 28.6248 51.0449 28.6831C51.1316 28.7408 51.1825 28.8109 51.1976 28.8936C51.21 29.112 51.4486 29.3645 51.9135 29.6512C52.3778 29.9274 52.9336 30.162 53.581 30.3549C54.0688 30.4942 54.4063 30.5585 54.5935 30.5479C54.7911 30.5367 55.0048 30.4412 55.2346 30.2612C55.5642 30.0026 55.9217 29.8676 56.3071 29.8562C56.7023 29.8338 56.9067 29.9422 56.9203 30.1814C56.9261 30.2854 56.8846 30.3816 56.7958 30.4701C56.7063 30.5482 56.5939 30.5911 56.4587 30.5988C56.3339 30.6058 56.2112 30.6493 56.0905 30.7292C55.9699 30.8091 55.8914 30.897 55.8551 30.9929C55.7676 31.29 55.3309 31.4086 54.545 31.3488C53.7597 31.2994 52.9337 31.0853 52.0672 30.7067C51.629 30.5228 51.2532 30.3354 50.9399 30.1445C50.6259 29.9432 50.4665 29.8009 50.4618 29.7177C50.4565 29.6241 50.4261 29.5476 50.3706 29.4881C50.3254 29.4281 50.2717 29.3999 50.2093 29.4034C50.1469 29.4069 50.07 29.3382 49.9785 29.1974C49.8975 29.0559 49.8247 28.8774 49.7604 28.662C49.6067 28.1594 49.4492 27.8658 49.2879 27.781C49.126 27.6859 49.0236 27.2587 48.9806 26.4995C48.9376 25.7403 48.9941 25.3563 49.1501 25.3474C49.2229 25.3433 49.2864 25.2667 49.3405 25.1175C49.3941 24.958 49.4355 24.7678 49.4647 24.5471L49.5306 23.7765L46.7694 23.9329C44.9286 24.0372 43.8701 24.0449 43.5938 23.9563C43.4239 23.9033 43.3097 23.915 43.2515 23.9913C43.2036 24.067 43.187 24.2349 43.2017 24.4949C43.2135 24.7029 43.2594 24.8673 43.3392 24.9879C43.4185 25.0982 43.5153 25.1501 43.6297 25.1436C43.8169 25.133 43.9597 25.4432 44.058 26.074C44.1558 26.6945 44.1846 27.3867 44.1444 28.1506C44.1146 28.9139 44.01 29.4624 43.8306 29.796C43.4737 30.4943 43.2104 30.6345 43.0406 30.2163C42.9178 29.8894 42.8185 29.149 42.7427 27.9952C42.7056 27.34 42.6785 26.8616 42.6614 26.56C42.6437 26.248 42.6096 25.9213 42.5589 25.5799C42.5181 25.2275 42.4789 24.9949 42.4412 24.8823C42.4133 24.7587 42.3525 24.6056 42.2587 24.4231C42.1649 24.2406 42.074 24.1102 41.9861 24.0317C41.9086 23.9526 41.7816 23.8294 41.6052 23.662C41.3848 23.4554 41.1911 23.2577 41.0239 23.0689C40.8665 22.8692 40.786 22.7381 40.7825 22.6757ZM58.9178 25.1072C59.0123 24.9349 59.1197 24.8036 59.2398 24.7133C59.3598 24.6231 59.4575 24.5967 59.5326 24.6342C59.7263 24.738 59.7398 24.8833 59.573 25.0701C59.5037 25.1366 59.457 25.2331 59.4329 25.3597C59.4191 25.4857 59.436 25.5995 59.4835 25.7011C59.52 25.793 59.517 25.9236 59.4744 26.0929C59.4318 26.2623 59.3618 26.4071 59.2643 26.5274C59.1563 26.6482 59.073 26.8355 59.0144 27.0893C58.9551 27.3326 58.9369 27.5632 58.9597 27.781C59.0433 28.7048 58.8355 29.1809 58.3363 29.2091C57.7435 29.2427 57.6194 28.8011 57.9639 27.8843C58.1817 27.3086 58.3357 26.8043 58.426 26.3714C58.526 25.9275 58.69 25.5061 58.9178 25.1072ZM66.2237 20.64C66.2161 20.5048 66.3298 20.3941 66.5648 20.3077C66.8103 20.2208 67.0691 20.1852 67.3413 20.2011C67.6135 20.217 67.795 20.2902 67.8859 20.4207C67.9993 20.5812 68.1964 20.6535 68.4772 20.6376C68.7788 20.6205 69.1355 20.8403 69.5474 21.2969C69.9697 21.7529 70.1524 22.1234 70.0955 22.4083C70.0559 22.6296 70.2648 23.1864 70.7222 24.0786C71.1797 24.9709 71.586 25.6052 71.9412 25.9815C72.1413 26.1997 72.6417 26.4687 73.4423 26.7885C73.9441 26.9897 74.2505 27.1497 74.3616 27.2686C74.4721 27.3771 74.4693 27.5129 74.3533 27.6759C74.1497 27.9483 73.9492 28.0014 73.752 27.8352C73.5646 27.658 73.3721 27.575 73.1745 27.5862C72.9145 27.6009 72.3844 27.3597 71.5842 26.8625C70.7943 26.3647 70.3944 26.0274 70.3844 25.8506C70.3791 25.757 70.3243 25.6192 70.2201 25.4373C70.1159 25.2554 69.9967 25.0848 69.8625 24.9255C69.7173 24.7563 69.5662 24.4832 69.4092 24.1061C69.2626 23.7283 69.153 23.3589 69.0804 22.9979C68.9043 22.1002 68.6915 21.6584 68.4419 21.6725C68.3379 21.6784 68.2318 21.6479 68.1237 21.581C68.0254 21.5031 67.9525 21.4133 67.905 21.3117C67.8575 21.21 67.7485 21.1275 67.578 21.0641C67.4075 21.0007 67.213 20.9752 66.9946 20.9876C66.4954 21.0159 66.2384 20.9 66.2237 20.64ZM59.9292 20.3079C60.2028 19.9794 60.3603 19.814 60.4019 19.8117C60.4539 19.8087 60.922 19.8761 61.8062 20.0138C62.3645 20.1074 62.7246 20.2018 62.8865 20.2969C63.0484 20.3921 63.137 20.5749 63.1523 20.8453C63.1782 21.3029 63.3171 21.5454 63.5691 21.5729C63.8205 21.5899 64.2163 21.3954 64.7567 20.9892C65.4178 20.5031 65.7813 20.2895 65.8472 20.3483C65.9681 20.4563 65.9317 20.7348 65.7381 21.184C65.5438 21.6228 65.3635 21.8468 65.1971 21.8563C64.9787 21.8686 64.7752 22.0523 64.5867 22.4073C64.4079 22.7513 64.3992 22.9657 64.5605 23.0504C64.7328 23.145 64.8331 23.4419 64.8613 23.9411C64.8896 24.4403 64.8232 24.7414 64.6621 24.8444C64.5917 24.8902 64.5349 24.9925 64.4917 25.1514C64.4589 25.3098 64.4473 25.4722 64.4567 25.6386C64.4855 26.1482 64.4282 26.5166 64.2845 26.7438C64.1409 26.9711 63.8819 27.0953 63.5075 27.1165C63.0187 27.1442 62.6626 27.0287 62.4393 26.7701C62.216 26.5115 62.1977 26.1891 62.3845 25.8029C62.4866 25.578 62.5262 25.3567 62.5034 25.1388C62.4801 24.9106 62.3838 24.5927 62.2146 24.1849C62.0936 23.8892 61.9961 23.5504 61.9223 23.1686C61.8479 22.7763 61.8135 22.4444 61.819 22.1728C61.8413 21.4621 61.7903 21.0215 61.6659 20.8512C61.5513 20.6699 61.3063 20.6734 60.9309 20.8616C60.7692 20.9542 60.6286 21.0508 60.5091 21.1515C60.4 21.2516 60.3469 21.3276 60.3499 21.3796C60.3664 21.6708 60.189 22.2234 59.8178 23.0374C59.4466 23.8513 59.1881 24.2624 59.0425 24.2707C58.6577 24.2925 58.5091 24.1548 58.5966 23.8577C58.66 23.6872 58.8048 23.4808 59.031 23.2384C59.435 22.8191 59.6203 22.313 59.5867 21.7202C59.5725 21.4706 59.5994 21.2082 59.6673 20.9331C59.7352 20.658 59.8225 20.4496 59.9292 20.3079ZM77.5755 27.3682L77.941 27.191C77.9514 27.1904 77.9642 27.2315 77.9793 27.3141C77.9938 27.3863 78.0049 27.49 78.0126 27.6252C78.0306 27.7598 78.0441 27.9051 78.0529 28.0611C78.0865 28.6539 77.9785 28.9574 77.7289 28.9715C77.6249 28.9774 77.5336 29.0243 77.4552 29.1122C77.3865 29.1891 77.3551 29.2796 77.361 29.3836C77.3704 29.55 77.3145 29.6679 77.1932 29.7374C77.0719 29.8069 76.9414 29.8038 76.8014 29.7283C76.6725 29.6626 76.5981 29.5468 76.5783 29.381C76.5556 29.1632 76.5338 29.0548 76.513 29.056C76.5026 29.0566 76.4724 29.1679 76.4223 29.3898C76.3643 29.6539 76.2887 29.7938 76.1957 29.8095C76.1027 29.8253 75.935 29.72 75.6927 29.4937C75.5382 29.346 75.4742 29.2296 75.5007 29.1447C75.5272 29.0597 75.6652 28.9162 75.9146 28.7143C76.3152 28.4204 76.6456 28.266 76.9056 28.2513C77.02 28.2448 77.1118 28.2083 77.1811 28.1418C77.2498 28.0649 77.2812 27.9744 77.2753 27.8704C77.2694 27.7664 77.2953 27.671 77.353 27.5843C77.4101 27.4872 77.4842 27.4151 77.5755 27.3682ZM79.8327 24.3921C79.8719 24.3481 79.9211 24.3871 79.9801 24.5089C80.0531 24.6926 80.1106 24.971 80.1527 25.3443C80.2092 25.7897 80.2087 26.1497 80.1512 26.4242C80.1041 26.6981 79.9799 26.9921 79.7786 27.3061C79.1741 28.2376 78.7641 28.459 78.5486 27.9704C78.5237 27.8988 78.4982 27.8168 78.4721 27.7244C78.4175 27.4979 78.4308 27.2728 78.5121 27.0491C78.5927 26.815 78.7545 26.5398 78.9974 26.2235C79.1918 25.9725 79.3554 25.7285 79.488 25.4915C79.6201 25.244 79.6832 25.0683 79.6773 24.9643C79.6631 24.7147 79.7149 24.524 79.8327 24.3921ZM81.4797 20.5897C81.459 20.2257 81.4892 20.0206 81.57 19.9743C81.6508 19.928 81.9499 19.958 82.4672 20.0643C82.963 20.1614 83.2558 20.2648 83.3455 20.3745C83.4346 20.4738 83.4539 20.7231 83.4035 21.1224C83.365 21.3646 83.3615 21.5787 83.3929 21.7647C83.4347 21.9501 83.4984 22.0613 83.584 22.0982C83.6597 22.146 83.7306 22.2933 83.7968 22.54C83.8727 22.7756 83.9192 23.0443 83.9363 23.3459C83.9734 24.0011 84.1513 24.7474 84.47 25.5849C84.7991 26.4218 85.1285 26.9874 85.4582 27.2817C85.8208 27.6055 86.296 27.7977 86.8837 27.8583C87.4714 27.9189 87.8096 27.8111 87.8983 27.5348C87.9334 27.418 88.0058 27.3148 88.1155 27.2251C88.2252 27.1354 88.3375 27.0926 88.4525 27.0965C88.8501 27.1157 89.1404 27.0836 89.3235 27.0002C89.5169 26.9162 89.736 26.7317 89.9807 26.4465C90.1175 26.2823 90.2514 26.1599 90.3825 26.0795C90.5234 25.988 90.6161 25.9671 90.6606 26.0168C90.7919 26.1241 90.7594 26.2877 90.5632 26.5074C90.367 26.7272 90.2762 26.9671 90.291 27.2271C90.2969 27.3311 90.2072 27.4979 90.022 27.7275C89.8367 27.9571 89.6194 28.1728 89.37 28.3748C88.851 28.7902 88.2816 29.052 87.6617 29.1601C87.0418 29.2683 86.4801 29.2062 85.9766 28.9739C85.6338 28.8159 85.2478 28.5404 84.8186 28.1474C84.3895 27.7544 84.1702 27.4747 84.1607 27.3083C84.1519 27.1523 84.0695 27.0787 83.9135 27.0875C83.7991 27.094 83.5754 26.7363 83.2424 26.0144C82.9088 25.2821 82.6683 24.628 82.5209 24.052C82.4657 23.8152 82.363 23.6593 82.2127 23.5843C82.0722 23.4984 81.9425 23.511 81.8236 23.622C81.7041 23.7227 81.6508 23.8874 81.6637 24.1162C81.6657 24.3352 81.5277 24.6613 81.2496 25.0943C80.971 25.517 80.7485 25.7331 80.5821 25.7425C80.4157 25.7519 80.4672 24.7265 80.7365 22.6663C80.764 22.4144 80.8238 22.1815 80.9161 21.9676C81.0077 21.7433 81.0985 21.5973 81.1886 21.5296C81.2792 21.4723 81.3508 21.3535 81.4032 21.1731C81.4654 20.9818 81.4909 20.7873 81.4797 20.5897ZM81.3903 14.8669C81.4888 14.5796 81.6085 14.3903 81.7494 14.2988C81.8897 14.197 82.147 14.1354 82.5214 14.1142C82.9374 14.0907 83.1894 14.1181 83.2773 14.1966C83.3756 14.2745 83.4365 14.5215 83.4601 14.9375C83.4795 15.2807 83.4515 15.5222 83.3759 15.6621C83.3108 15.8015 83.1708 15.9085 82.9559 15.9833C82.2281 16.2123 81.7341 16.2403 81.4739 16.0672C81.2235 15.8832 81.1956 15.4831 81.3903 14.8669ZM92.8634 23.1845C92.9579 23.0123 93.0653 22.881 93.1854 22.7907C93.3054 22.7004 93.4031 22.674 93.4782 22.7115C93.6719 22.8153 93.6853 22.9606 93.5186 23.1474C93.4493 23.214 93.4026 23.3105 93.3785 23.4371C93.3647 23.5631 93.3816 23.6769 93.4291 23.7785C93.4656 23.8703 93.4626 24.0009 93.42 24.1703C93.3774 24.3396 93.3074 24.4844 93.2098 24.6047C93.1019 24.7256 93.0186 24.9129 92.96 25.1666C92.9007 25.41 92.8825 25.6405 92.9053 25.8583C92.9889 26.7822 92.7811 27.2582 92.2819 27.2865C91.6891 27.3201 91.565 26.8785 91.9095 25.9617C92.1273 25.3859 92.2813 24.8816 92.3716 24.4488C92.4716 24.0049 92.6356 23.5835 92.8634 23.1845ZM100.169 18.7174C100.162 18.5822 100.275 18.4714 100.51 18.3851C100.756 18.2981 101.015 18.2626 101.287 18.2785C101.559 18.2944 101.741 18.3676 101.831 18.498C101.945 18.6586 102.142 18.7309 102.423 18.715C102.724 18.6979 103.081 18.9176 103.493 19.3742C103.915 19.8303 104.098 20.2007 104.041 20.4856C104.001 20.707 104.21 21.2638 104.668 22.156C105.125 23.0482 105.532 23.6825 105.887 24.0589C106.087 24.2771 106.587 24.5461 107.388 24.8659C107.89 25.067 108.196 25.227 108.307 25.3459C108.418 25.4544 108.415 25.5902 108.299 25.7533C108.095 26.0257 107.895 26.0788 107.698 25.9126C107.51 25.7354 107.318 25.6524 107.12 25.6636C106.86 25.6783 106.33 25.4371 105.53 24.9398C104.74 24.442 104.34 24.1047 104.33 23.9279C104.325 23.8343 104.27 23.6966 104.166 23.5147C104.062 23.3328 103.942 23.1622 103.808 23.0029C103.663 22.8337 103.512 22.5606 103.355 22.1834C103.208 21.8057 103.099 21.4363 103.026 21.0752C102.85 20.1775 102.637 19.7357 102.387 19.7499C102.283 19.7557 102.177 19.7252 102.069 19.6583C101.971 19.5804 101.898 19.4907 101.851 19.389C101.803 19.2874 101.694 19.2049 101.524 19.1415C101.353 19.0781 101.159 19.0526 100.94 19.065C100.441 19.0932 100.184 18.9774 100.169 18.7174ZM93.8748 18.3853C94.1484 18.0568 94.3059 17.8914 94.3475 17.889C94.3995 17.8861 94.8676 17.9535 95.7518 18.0912C96.3101 18.1848 96.6702 18.2791 96.8321 18.3743C96.994 18.4695 97.0826 18.6522 97.0979 18.9226C97.1238 19.3802 97.2627 19.6228 97.5147 19.6502C97.7661 19.6673 98.1619 19.4727 98.7023 19.0665C99.3634 18.5804 99.7269 18.3668 99.7928 18.4257C99.9137 18.5336 99.8773 18.8122 99.6837 19.2613C99.4894 19.7001 99.3091 19.9242 99.1427 19.9336C98.9243 19.946 98.7208 20.1297 98.5323 20.4847C98.3535 20.8287 98.3448 21.043 98.5061 21.1278C98.6784 21.2224 98.7787 21.5193 98.8069 22.0185C98.8352 22.5177 98.7688 22.8188 98.6077 22.9218C98.5373 22.9675 98.4804 23.0699 98.4373 23.2288C98.4045 23.3872 98.3928 23.5495 98.4023 23.7159C98.4311 24.2255 98.3738 24.5939 98.2301 24.8212C98.0865 25.0484 97.8275 25.1726 97.4531 25.1938C96.9643 25.2215 96.6082 25.1061 96.3849 24.8474C96.1616 24.5888 96.1433 24.2664 96.3301 23.8802C96.4322 23.6554 96.4718 23.434 96.449 23.2162C96.4257 22.988 96.3294 22.67 96.1602 22.2623C96.0392 21.9666 95.9417 21.6278 95.8679 21.2459C95.7935 20.8537 95.7591 20.5217 95.7646 20.2502C95.7869 19.5394 95.7359 19.0989 95.6115 18.9286C95.4969 18.7473 95.2519 18.7507 94.8765 18.9389C94.7148 19.0315 94.5742 19.1282 94.4547 19.2289C94.3456 19.3289 94.2925 19.405 94.2955 19.457C94.312 19.7482 94.1346 20.3008 93.7634 21.1147C93.3921 21.9287 93.1337 22.3398 92.9881 22.348C92.6033 22.3698 92.4547 22.2322 92.5422 21.9351C92.6056 21.7646 92.7504 21.5581 92.9766 21.3158C93.3806 20.8964 93.5659 20.3904 93.5323 19.7976C93.5181 19.548 93.545 19.2856 93.6129 19.0105C93.6808 18.7354 93.7681 18.527 93.8748 18.3853ZM121.837 26.8646C121.822 26.6046 121.846 26.4728 121.908 26.4693C121.981 26.4651 122.071 26.5904 122.18 26.8451C122.227 26.9468 122.243 27.0346 122.226 27.1085C122.209 27.1825 122.165 27.2216 122.092 27.2257C122.029 27.2292 121.97 27.1961 121.914 27.1262C121.868 27.0558 121.842 26.9686 121.837 26.8646ZM113.55 21.4808C113.898 21.3671 114.455 21.346 115.221 21.4174C115.997 21.4882 116.547 21.6136 116.87 21.7935C117.021 21.8789 117.208 21.9518 117.43 22.0122C117.653 22.0726 117.832 22.099 117.967 22.0914C118.196 22.0784 118.34 22.1433 118.4 22.2859C118.47 22.4176 118.52 22.7486 118.55 23.279C118.569 23.6014 118.552 23.9467 118.5 24.3148C118.447 24.6829 118.374 24.9583 118.28 25.141C118.197 25.3231 118.129 25.6034 118.078 25.982C118.025 26.3501 118.009 26.7057 118.028 27.0489L118.083 28.2978L118.659 27.6862C118.955 27.3773 119.513 27.1057 120.335 26.8714C120.982 26.6991 121.311 26.6961 121.32 26.8625C121.336 27.1433 121.226 27.4156 120.991 27.6793C120.766 27.9425 120.518 28.0817 120.247 28.097C120.071 28.107 119.921 28.1364 119.799 28.185C119.677 28.2441 119.618 28.3048 119.621 28.3672C119.625 28.44 119.553 28.5433 119.404 28.6769C119.256 28.8209 119.075 28.9563 118.864 29.0831C118.51 29.2909 118.315 29.4376 118.278 29.5232C118.252 29.6185 118.339 29.7701 118.539 29.9779C118.66 30.0962 118.745 30.2166 118.794 30.339C118.842 30.4615 118.837 30.5453 118.777 30.5904C118.656 30.6703 118.618 31.0115 118.663 31.6141C118.718 32.2266 118.812 32.5916 118.944 32.7094C119.076 32.8271 119.149 33.2924 119.164 34.1054C119.189 34.9178 119.139 35.3275 119.014 35.3346C118.952 35.3381 118.848 35.4483 118.704 35.6651C118.571 35.8918 118.435 36.1551 118.295 36.4552C117.972 37.1934 117.66 37.6805 117.361 37.9166C117.071 38.1521 116.615 38.2875 115.991 38.3228C114.441 38.4002 113.477 37.594 113.099 35.9043C112.956 35.2134 112.896 34.6169 112.92 34.1148C112.955 33.6224 113.071 33.3707 113.268 33.3595C113.445 33.3495 113.806 33.0056 114.352 32.3278C114.898 31.65 115.166 31.2175 115.155 31.0303C115.15 30.9367 115.176 30.8517 115.235 30.7754C115.294 30.7095 115.365 30.6741 115.448 30.6694C115.604 30.6606 115.793 30.4986 116.015 30.1834C116.237 29.8683 116.425 29.4977 116.578 29.0717C116.732 28.6561 116.801 28.3131 116.786 28.0427C116.739 27.2107 116.46 27.0804 115.95 27.6518C115.724 27.9046 115.433 28.0985 115.075 28.2335C114.729 28.3783 114.458 28.5814 114.264 28.8428C114.187 28.9411 114.056 29.032 113.873 29.1154C113.7 29.1982 113.531 29.2443 113.364 29.2537C113.208 29.2625 113.069 29.2965 112.948 29.3556C112.826 29.425 112.768 29.4962 112.772 29.569C112.776 29.6418 112.753 29.69 112.702 29.7138C112.651 29.7375 112.588 29.7255 112.512 29.6776C112.437 29.6401 112.337 29.6353 112.214 29.6632C112.091 29.7014 111.98 29.7651 111.88 29.8542C111.742 29.9873 111.588 30.0325 111.419 29.9899C111.26 29.9572 111.002 29.8205 110.644 29.5799C110.265 29.3302 110.006 29.0892 109.868 28.8571C109.729 28.6249 109.613 28.235 109.52 27.6874C109.398 27.0057 109.356 26.3664 109.395 25.7695C109.435 25.1725 109.532 24.8696 109.688 24.8608C109.751 24.8573 109.784 24.8084 109.789 24.7142C109.794 24.6096 109.776 24.4854 109.737 24.3416C109.635 24.0135 109.681 23.7136 109.874 23.4418C110.078 23.1694 110.327 23.0666 110.623 23.1333C110.74 23.1684 110.87 23.1559 111.012 23.0956C111.165 23.0348 111.281 22.95 111.358 22.8413C111.435 22.7326 111.576 22.6359 111.78 22.5513C111.984 22.4668 112.19 22.4186 112.398 22.4068C112.886 22.3791 113.124 22.2405 113.11 21.9909C113.104 21.8869 113.14 21.7857 113.218 21.6874C113.306 21.5885 113.417 21.5196 113.55 21.4808ZM116.983 22.9609C116.932 22.6195 116.733 22.4169 116.385 22.3531C116.037 22.2789 115.785 22.2619 115.631 22.3019C115.477 22.3419 114.931 22.5503 113.992 22.9268C113.563 23.0972 113.198 23.2744 112.895 23.4585C112.592 23.6321 112.443 23.7554 112.447 23.8282C112.464 24.1298 112.326 24.3671 112.033 24.5402C111.751 24.7127 111.475 24.7231 111.206 24.5714C110.979 24.4486 110.853 24.4349 110.828 24.5302C110.811 24.6146 110.841 24.8633 110.917 25.2764C111.037 25.9165 111.006 26.3042 110.826 26.4396C110.655 26.5536 110.586 26.8914 110.618 27.453C110.649 28.0146 110.759 28.384 110.946 28.5612C111.177 28.7568 111.701 28.7115 112.519 28.4252C113.348 28.1383 114.041 27.7599 114.599 27.2901C115.225 26.7434 115.566 26.4007 115.621 26.262C115.675 26.1232 115.822 26.0471 116.062 26.0335C116.301 26.02 116.407 25.774 116.38 25.2956C116.369 25.1084 116.393 24.8932 116.453 24.6498C116.511 24.3961 116.589 24.1987 116.685 24.0576C116.944 23.6569 117.044 23.2913 116.983 22.9609ZM117.56 30.941C117.346 30.4732 117.06 30.4894 116.702 30.9896C116.625 31.0983 116.51 31.1935 116.358 31.2751C116.218 31.3666 116.085 31.4158 115.96 31.4229C115.658 31.44 115.436 31.5622 115.292 31.7894C115.167 31.9842 115.206 32.1073 115.407 32.1585C115.471 32.1861 115.501 32.2575 115.497 32.3725C115.494 32.4979 115.456 32.6617 115.384 32.864C115.312 33.0663 115.225 33.2695 115.121 33.4736C115.029 33.6771 114.915 33.8818 114.781 34.0876C114.646 34.2935 114.515 34.4574 114.386 34.5795C114.277 34.6899 114.183 34.8674 114.103 35.1119C114.033 35.3559 114.005 35.5922 114.018 35.821C114.036 36.133 114.101 36.3693 114.215 36.5298C114.329 36.7007 114.52 36.8516 114.788 36.9824C115.215 37.1461 115.451 37.1744 115.497 37.0675C115.493 36.9947 115.536 36.9296 115.627 36.8723C115.718 36.8254 115.826 36.7984 115.951 36.7914C116.2 36.7668 116.45 36.5753 116.701 36.2168C116.962 35.8577 117.181 35.3863 117.356 34.8025C117.506 34.3141 117.602 33.6096 117.644 32.6891C117.696 31.768 117.668 31.1853 117.56 30.941ZM133.386 15.8031C133.365 15.4287 133.583 15.3277 134.042 15.4999C134.329 15.5984 134.664 15.7986 135.046 16.1004C135.657 16.577 136.036 16.8112 136.181 16.8029C136.244 16.7994 136.604 17.0867 137.263 17.665C137.931 18.2323 138.706 18.9239 139.587 19.74C140.093 20.2017 140.523 20.6103 140.877 20.9659C141.241 21.3105 141.556 21.6265 141.823 21.9139C142.089 22.191 142.296 22.4297 142.443 22.63C142.589 22.82 142.693 22.9915 142.753 23.1445C142.814 23.2976 142.827 23.4273 142.791 23.5337C142.765 23.629 142.697 23.7111 142.586 23.78C142.516 23.8361 142.459 23.9385 142.416 24.087C142.382 24.2246 142.369 24.3766 142.379 24.543C142.388 24.7094 142.357 24.8885 142.284 25.0804C142.211 25.2723 142.116 25.429 141.998 25.5505C141.691 25.8496 141.053 26.1935 140.084 26.5822C139.125 26.9704 138.6 27.094 138.509 26.9532C138.464 26.8931 138.362 26.8467 138.204 26.8139C138.045 26.7812 137.878 26.7698 137.701 26.7798C137.264 26.8046 136.737 26.5162 136.118 25.9148C135.875 25.6782 135.699 25.5108 135.589 25.4127C135.479 25.3146 135.376 25.2526 135.281 25.2267C135.185 25.1904 135.113 25.1997 135.064 25.2546C135.014 25.2992 134.946 25.3865 134.859 25.5166C134.648 25.8416 134.087 26.0716 133.177 26.2066C132.277 26.341 131.643 26.2883 131.274 26.0483C130.569 25.577 130.897 25.1985 132.258 24.9127C132.289 24.9005 132.325 24.8933 132.367 24.8909C133.099 24.7451 133.65 24.5157 134.018 24.2027C134.386 23.8897 134.617 23.4541 134.711 22.8958C134.798 22.4109 134.929 22.0436 135.102 21.7938C135.315 21.5 135.358 20.7777 135.23 19.6268C135.112 18.465 134.921 17.7663 134.657 17.5309C134.537 17.423 134.43 17.2881 134.337 17.1265C134.254 16.9538 134.209 16.7946 134.201 16.649C134.192 16.5034 134.149 16.3859 134.071 16.2964C133.993 16.207 133.897 16.1655 133.782 16.1719C133.678 16.1778 133.588 16.1464 133.511 16.0778C133.433 15.9987 133.392 15.9071 133.386 15.8031ZM138.623 20.1233C136.723 18.4468 135.731 17.6109 135.648 17.6156C135.565 17.6203 135.668 17.8701 135.957 18.365C136.255 18.8489 136.412 19.2156 136.426 19.4652C136.431 19.5588 136.474 19.6764 136.555 19.8178C136.636 19.9489 136.73 20.0531 136.839 20.1304C137.101 20.3243 137.241 20.5876 137.259 20.9204C137.278 21.2428 137.165 21.4579 136.92 21.5656C136.697 21.6722 136.504 22.0482 136.343 22.6938C136.181 23.3394 136.14 23.8999 136.219 24.3754C136.311 24.9023 136.596 25.3191 137.072 25.626C137.559 25.9323 137.995 25.9807 138.379 25.7711C138.763 25.5511 139.265 25.3766 139.883 25.2477C140.162 25.1902 140.397 25.1038 140.589 24.9887C140.78 24.8631 140.898 24.7364 140.943 24.6086C140.959 24.5347 140.985 24.4341 141.02 24.3069C141.099 24.052 141.157 23.8714 141.192 23.7651C141.228 23.6587 141.251 23.5113 141.261 23.323C141.271 23.1346 141.275 23.0144 141.272 22.9624C141.268 22.9 141.22 22.7827 141.127 22.6107C141.043 22.4276 140.969 22.3014 140.902 22.2321C140.835 22.1629 140.686 22.0148 140.454 21.788C140.233 21.5606 140.04 21.3785 139.876 21.2417C139.711 21.0946 139.441 20.849 139.067 20.505C138.87 20.3388 138.722 20.2116 138.623 20.1233ZM149.131 15.553C149.245 15.3483 149.459 15.2579 149.773 15.2819C150.087 15.2954 150.292 15.4142 150.388 15.6383C150.508 15.9132 150.609 16.7735 150.691 18.2191C150.745 19.1759 150.812 19.8137 150.893 20.1326C150.983 20.4404 151.172 20.7323 151.459 21.0082C151.769 21.3141 151.986 21.4739 152.112 21.4877C152.238 21.5014 152.493 21.3931 152.876 21.1627C153.118 21.0133 153.307 20.8514 153.443 20.6767C153.58 20.5021 153.643 20.3367 153.634 20.1807C153.627 20.0455 153.641 19.93 153.677 19.834C153.724 19.7271 153.778 19.6718 153.84 19.6683C153.996 19.6595 154.148 19.2126 154.296 18.3278C154.455 17.4425 154.487 16.8042 154.391 16.4132C154.35 16.2381 154.345 16.061 154.377 15.8819C154.418 15.6917 154.489 15.5521 154.588 15.463C154.836 15.2299 155.087 15.2522 155.343 15.5298C155.609 15.8069 155.807 16.2548 155.936 16.8735C156.067 17.5338 156.267 18.1275 156.537 18.6548C156.807 19.182 156.95 19.5809 156.965 19.8513C156.971 19.9657 157.003 20.063 157.06 20.1432C157.116 20.2235 157.181 20.2616 157.254 20.2574C157.316 20.2539 157.375 20.2819 157.431 20.3413C157.486 20.4008 157.517 20.4773 157.522 20.5709C157.556 21.1637 157.959 21.553 158.731 21.7388C159.502 21.9142 160.443 21.8453 161.552 21.5321C162.363 21.2983 162.862 21.2649 163.048 21.4317C163.158 21.5194 163.199 21.6005 163.172 21.6751C163.154 21.7386 163.07 21.8061 162.917 21.8773C162.816 21.9248 162.722 22.0188 162.636 22.1593C162.56 22.2992 162.526 22.4315 162.533 22.5563C162.542 22.7123 162.507 22.8343 162.429 22.9222C162.35 22.9997 162.192 23.0817 161.957 23.168C161.732 23.2434 161.316 23.3608 160.71 23.5204C160.587 23.5586 160.368 23.5606 160.053 23.5263C159.748 23.481 159.447 23.4198 159.15 23.3426C158.705 23.2218 158.341 23.0494 158.057 22.8255C157.783 22.5907 157.43 22.1672 156.999 21.5552C156.715 21.1435 156.463 20.7457 156.243 20.3617C156.032 19.9667 155.924 19.7016 155.916 19.5664C155.908 19.4208 155.875 19.2974 155.817 19.1964C155.769 19.0947 155.709 19.046 155.636 19.0501C155.563 19.0542 155.503 19.0942 155.455 19.1699C155.407 19.2457 155.386 19.3303 155.391 19.4239C155.406 19.6735 155.164 20.2871 154.666 21.2648C154.393 21.7914 154.145 22.1864 153.919 22.4495C153.704 22.7017 153.474 22.866 153.228 22.9425C152.786 23.0719 152.38 23.0897 152.01 22.9959C151.65 22.9015 151.463 22.7347 151.449 22.4955C151.444 22.3915 151.418 22.3095 151.373 22.2494C151.327 22.179 151.268 22.1458 151.195 22.15C151.06 22.1576 150.837 21.9042 150.526 21.3897C150.215 20.8648 150.052 20.4776 150.038 20.228C150.032 20.1344 149.986 20.0587 149.9 20.001C149.823 19.9324 149.732 19.901 149.628 19.9068C149.514 19.9133 149.423 19.9706 149.356 20.0788C149.289 20.1869 149.26 20.3189 149.269 20.4749C149.284 20.7349 149.096 21.189 148.705 21.8372C148.314 22.4853 147.878 23.0838 147.398 23.6327C146.918 24.1815 146.568 24.4622 146.35 24.4745C146.152 24.4857 145.987 24.516 145.854 24.5652C145.722 24.6145 145.544 24.708 145.322 24.8457C145.06 24.9962 144.749 25.0347 144.39 24.9611C144.031 24.8876 143.845 24.7416 143.833 24.5232C143.828 24.44 143.926 24.3145 144.125 24.1467C144.334 23.9783 144.581 23.8235 144.865 23.6822C145.494 23.3649 146.211 22.7609 147.016 21.8702C147.831 20.9685 148.229 20.3409 148.209 19.9873C148.193 19.7169 148.349 19.1499 148.676 18.2862C149.012 17.4117 149.257 16.9387 149.409 16.8675C149.45 16.8443 149.456 16.7762 149.429 16.6629C149.411 16.5387 149.363 16.4163 149.283 16.2956C149.203 16.1749 149.149 16.0424 149.119 15.898C149.09 15.7431 149.094 15.6281 149.131 15.553ZM171.137 14.1971C171.133 14.1243 171.218 14.0673 171.393 14.0261C171.578 13.9739 171.811 13.9502 172.093 13.9551C172.501 13.9633 172.764 14.011 172.884 14.0981C173.003 14.1748 173.07 14.3484 173.085 14.6188C173.11 15.0452 172.957 15.299 172.628 15.3803C172.298 15.4511 172.02 15.6181 171.795 15.8813C171.697 15.9912 171.577 16.071 171.433 16.1209C171.29 16.1707 171.171 16.1827 171.075 16.1568C170.98 16.1205 170.855 16.1328 170.702 16.1936C170.559 16.2434 170.438 16.3233 170.34 16.4332C170.252 16.5425 170.122 16.6438 169.95 16.737C169.778 16.8198 169.629 16.8647 169.504 16.8718C169.358 16.88 169.206 16.9565 169.048 17.1011C168.899 17.2451 168.774 17.4296 168.672 17.6545C168.347 18.3615 168.421 19.0302 168.895 19.6607C169.379 20.2802 170.211 20.7964 171.393 21.2094C171.787 21.3436 172.124 21.4132 172.406 21.4181C172.688 21.4126 173.085 21.3379 173.599 21.194C174.081 21.052 174.458 20.9785 174.729 20.9735C175.01 20.9576 175.283 21.0047 175.551 21.1148C175.977 21.2784 176.117 21.4427 175.97 21.6075C175.842 21.7504 175.493 21.9475 174.923 22.1989C174.343 22.4613 174.006 22.6734 173.911 22.8353C173.802 22.9354 173.638 22.9864 173.419 22.9883C173.199 22.9799 172.972 22.925 172.736 22.8235C172.501 22.7117 172.379 22.5934 172.372 22.4686C172.365 22.3542 172.325 22.2834 172.25 22.2564C172.186 22.2183 172.097 22.2233 171.985 22.2714C171.802 22.3548 171.489 22.3465 171.045 22.2464C170.601 22.1463 170.191 22.0026 169.815 21.8152C169.44 21.6279 169.248 21.4614 169.239 21.3158C169.233 21.2014 169.18 21.1 169.081 21.0117C168.993 20.9228 168.885 20.8611 168.758 20.8266C168.516 20.7881 168.271 20.609 168.023 20.2891C167.785 19.9583 167.593 19.604 167.446 19.2263C167.31 18.8376 167.236 18.4609 167.226 18.0963C167.216 17.7317 167.301 17.487 167.482 17.3619C167.552 17.3162 167.6 17.2405 167.625 17.1347C167.65 17.0185 167.644 16.9197 167.608 16.8383C167.572 16.7465 167.571 16.637 167.606 16.5098C167.64 16.3827 167.697 16.2803 167.776 16.2028C168.054 15.9471 168.571 15.5996 169.329 15.1602C170.097 14.7203 170.58 14.4947 170.777 14.4835C170.881 14.4776 170.968 14.4466 171.038 14.3905C171.108 14.3343 171.141 14.2699 171.137 14.1971ZM163.122 3.66469C163.112 3.48789 163.143 3.39743 163.216 3.3933C163.299 3.38859 163.398 3.47169 163.512 3.6426C163.558 3.71304 163.572 3.77485 163.554 3.82803C163.535 3.87081 163.485 3.89455 163.401 3.89927C163.329 3.90339 163.265 3.88612 163.211 3.84747C163.156 3.79842 163.126 3.73749 163.122 3.66469ZM180.019 5.22734C180.129 5.15846 180.183 5.09802 180.181 5.04602C180.177 4.98362 180.211 4.93996 180.283 4.91503C180.365 4.88952 180.454 4.89491 180.55 4.93121C180.655 4.95652 180.748 5.02952 180.828 5.15019C180.918 5.25988 180.966 5.37192 180.972 5.48632C180.979 5.60072 181.018 5.73416 181.089 5.88662C181.16 6.02869 181.239 6.13896 181.327 6.21745C181.733 6.58046 182.09 7.25929 182.397 8.25395C182.703 9.24862 182.755 9.88213 182.551 10.1545C182.357 10.4055 182.362 10.5878 182.567 10.7014C182.76 10.8052 182.871 11.3728 182.898 12.4041C182.925 13.4355 182.841 14.1654 182.646 14.5937C182.489 14.947 182.426 15.227 182.459 15.4338C182.491 15.6302 182.621 15.7219 182.85 15.709C182.902 15.706 182.957 15.656 183.014 15.5589C183.081 15.4507 183.126 15.323 183.149 15.1756C183.212 14.8277 183.458 14.6417 183.884 14.6175C184.071 14.6069 184.251 14.5602 184.424 14.4774C184.607 14.394 184.742 14.2977 184.83 14.1884C185.004 13.9386 185.288 13.7973 185.682 13.7645C186.076 13.7213 186.404 13.8018 186.666 14.0061C186.918 14.2109 187.21 14.3978 187.543 14.5668C187.854 14.7161 188.062 14.986 188.168 15.3765C188.283 15.756 188.248 16.0501 188.062 16.2589C187.875 16.4677 187.788 16.6813 187.8 16.8997C187.806 16.9933 187.761 17.1263 187.667 17.2985C187.582 17.4703 187.477 17.6275 187.349 17.7704C186.996 18.166 186.858 18.4972 186.936 18.7641C187.013 19.0206 187.328 19.3366 187.882 19.7121C189.194 20.5977 189.859 21.1912 189.876 21.4928C189.885 21.6592 190.152 21.858 190.677 22.0891C191.211 22.3197 191.64 22.4258 191.962 22.4076C192.233 22.3922 192.451 22.4686 192.617 22.6365C192.782 22.7941 192.801 22.9443 192.674 23.0872C192.527 23.252 192.249 23.3251 191.841 23.3065C191.434 23.2982 191.013 23.2438 190.58 23.1432C190.146 23.0425 189.757 22.8976 189.413 22.7085C189.068 22.5193 188.891 22.3311 188.88 22.1439C188.875 22.0607 188.747 21.9063 188.494 21.6807C188.241 21.455 187.941 21.2268 187.594 20.9961C186.739 20.4394 186.218 20.0933 186.033 19.9577C185.848 19.8221 185.493 19.717 184.967 19.6425C184.63 19.5885 184.396 19.6018 184.265 19.6822C184.144 19.7621 184.021 19.983 183.895 20.3448C183.697 20.8882 183.688 21.2903 183.87 21.5513C184.097 21.8723 184.158 22.3175 184.055 22.8867C183.952 23.456 183.74 23.8592 183.419 24.0965C183.129 24.3112 182.868 24.399 182.636 24.3599C182.415 24.3307 182.297 24.1809 182.282 23.9105C182.27 23.7025 182.132 23.3869 181.868 22.9636C181.764 22.7817 181.648 22.4857 181.521 22.0756C181.392 21.6551 181.296 21.2484 181.232 20.8556C181.051 19.8642 180.842 19.3962 180.605 19.4513C180.502 19.4676 180.406 19.6191 180.318 19.9058C180.273 20.0335 180.135 20.2605 179.903 20.5866C179.671 20.9127 179.413 21.2403 179.129 21.5694C178.433 22.3601 178.089 22.823 178.096 22.9582C178.099 23.0102 178.051 23.0703 177.95 23.1386C177.86 23.2063 177.743 23.2651 177.6 23.3149C177.303 23.4048 177.126 23.3261 177.07 23.0789C176.991 22.7912 177.105 22.503 177.413 22.2144C177.512 22.1253 177.594 22.0111 177.659 21.8718C177.735 21.7319 177.77 21.6151 177.765 21.5215C177.759 21.4279 177.801 21.3316 177.889 21.2327C177.987 21.1229 178.108 21.043 178.251 20.9931C178.588 20.8697 178.745 20.6 178.722 20.184C178.709 19.9552 178.736 19.7919 178.804 19.6942C178.871 19.5965 179.004 19.542 179.201 19.5308C179.607 19.5079 179.869 19.253 179.987 18.7664C180.105 18.2694 180.095 17.4509 179.958 16.311C179.795 14.9117 179.645 13.9134 179.506 13.3161C179.272 12.3069 179.07 11.0403 178.9 9.51621C178.73 7.99212 178.704 7.15374 178.82 7.00107C178.877 6.90394 178.927 6.7655 178.969 6.58575C179.021 6.39502 179.047 6.22136 179.049 6.06477C179.048 5.67879 179.238 5.4489 179.62 5.37511C179.775 5.34547 179.908 5.29622 180.019 5.22734ZM180.846 7.40278C180.827 7.24737 180.787 7.10353 180.728 6.97128C180.668 6.82862 180.6 6.73856 180.525 6.70108C180.438 6.64339 180.376 6.75122 180.34 7.02457C180.32 7.23433 180.32 7.51082 180.34 7.85402C180.36 8.20762 180.398 8.51324 180.454 8.77088C180.52 9.01754 180.59 9.1388 180.662 9.13468C180.746 9.12997 180.819 9.31883 180.882 9.70128C180.956 10.0831 181.01 10.5757 181.044 11.1789C181.121 12.5413 181.243 13.2177 181.41 13.2083C181.638 13.1954 181.776 13.0363 181.821 12.7312C181.876 12.4151 181.813 12.1317 181.632 11.8811C181.417 11.5907 181.361 11.0618 181.464 10.2944C181.566 9.51651 181.491 8.93646 181.24 8.55422C180.999 8.16099 180.867 7.77718 180.846 7.40278ZM186.646 15.854C186.59 15.4189 186.517 15.1414 186.426 15.0213C186.347 14.9006 186.16 14.8329 185.867 14.8182C185.417 14.7915 185.004 14.961 184.628 15.3266C184.253 15.6922 183.973 16.1879 183.789 16.8139C183.729 17.0364 183.681 17.2113 183.647 17.3384C183.623 17.465 183.614 17.5855 183.62 17.6999C183.627 17.8143 183.647 17.8966 183.681 17.9468C183.726 17.9965 183.802 18.0495 183.909 18.1061C184.027 18.1516 184.149 18.1864 184.275 18.2105C184.412 18.2237 184.6 18.2391 184.841 18.2567C185.271 18.295 185.568 18.2782 185.73 18.2064C185.904 18.1339 186.091 17.9356 186.291 17.6112C186.597 17.1035 186.715 16.5178 186.646 15.854ZM182.96 19.3023C182.942 19.1677 182.889 19.0611 182.801 18.9826C182.723 18.8932 182.638 18.6841 182.546 18.3554C182.464 18.0157 182.402 17.6541 182.36 17.2705L182.187 15.8718L182.236 17.2931C182.289 18.5943 182.433 19.3895 182.668 19.6788C182.757 19.778 182.84 19.7577 182.915 19.6178C182.962 19.5317 182.977 19.4265 182.96 19.3023ZM196.129 12.2494C196.108 11.875 196.326 11.774 196.785 11.9462C197.072 12.0447 197.407 12.2449 197.789 12.5467C198.4 13.0233 198.779 13.2575 198.924 13.2492C198.987 13.2457 199.347 13.533 200.006 14.1113C200.675 14.6786 201.449 15.3702 202.33 16.1863C202.836 16.648 203.266 17.0566 203.62 17.4122C203.984 17.7568 204.299 18.0728 204.566 18.3602C204.832 18.6373 205.039 18.876 205.186 19.0763C205.332 19.2663 205.436 19.4378 205.497 19.5908C205.557 19.7439 205.57 19.8736 205.534 19.98C205.508 20.0753 205.44 20.1574 205.329 20.2263C205.259 20.2824 205.203 20.3848 205.159 20.5333C205.125 20.6709 205.113 20.8229 205.122 20.9893C205.131 21.1557 205.1 21.3348 205.027 21.5267C204.955 21.7186 204.859 21.8753 204.741 21.9968C204.434 22.2959 203.797 22.6398 202.827 23.0285C201.869 23.4167 201.344 23.5403 201.252 23.3995C201.207 23.3394 201.105 23.293 200.947 23.2602C200.788 23.2275 200.621 23.2161 200.444 23.2261C200.007 23.2509 199.48 22.9625 198.861 22.3611C198.618 22.1245 198.442 21.9571 198.332 21.859C198.222 21.7609 198.12 21.6989 198.024 21.673C197.928 21.6367 197.856 21.646 197.807 21.7009C197.757 21.7455 197.689 21.8328 197.602 21.9629C197.391 22.2879 196.831 22.5179 195.92 22.6529C195.02 22.7873 194.386 22.7346 194.017 22.4946C193.313 22.0233 193.641 21.6448 195.002 21.359C195.032 21.3468 195.068 21.3396 195.11 21.3372C195.843 21.1914 196.393 20.962 196.761 20.649C197.13 20.336 197.36 19.9004 197.454 19.3421C197.541 18.8572 197.672 18.4899 197.845 18.2401C198.058 17.9463 198.101 17.224 197.973 16.0731C197.855 14.9113 197.664 14.2126 197.401 13.9772C197.28 13.8692 197.173 13.7344 197.08 13.5728C196.998 13.4001 196.952 13.2409 196.944 13.0953C196.936 12.9497 196.892 12.8322 196.814 12.7427C196.736 12.6532 196.64 12.6118 196.525 12.6182C196.421 12.6241 196.331 12.5927 196.254 12.5241C196.177 12.445 196.135 12.3534 196.129 12.2494ZM201.366 16.5696C199.466 14.8931 198.475 14.0572 198.391 14.0619C198.308 14.0666 198.411 14.3164 198.7 14.8113C198.999 15.2952 199.155 15.6619 199.169 15.9115C199.174 16.0051 199.218 16.1226 199.299 16.2641C199.379 16.3952 199.474 16.4994 199.582 16.5767C199.844 16.7706 199.984 17.0339 200.003 17.3667C200.021 17.6891 199.908 17.9042 199.664 18.0119C199.44 18.1185 199.248 18.4945 199.086 19.1401C198.924 19.7857 198.883 20.3462 198.962 20.8217C199.054 21.3486 199.339 21.7654 199.815 22.0723C200.302 22.3786 200.738 22.427 201.123 22.2174C201.507 21.9974 202.008 21.8229 202.627 21.694C202.905 21.6365 203.14 21.5501 203.332 21.435C203.523 21.3094 203.641 21.1827 203.686 21.0549C203.703 20.981 203.728 20.8804 203.763 20.7532C203.842 20.4983 203.9 20.3177 203.935 20.2114C203.971 20.105 203.994 19.9576 204.004 19.7693C204.015 19.5809 204.018 19.4607 204.015 19.4087C204.012 19.3463 203.963 19.229 203.87 19.057C203.787 18.8739 203.712 18.7477 203.645 18.6784C203.579 18.6092 203.429 18.4611 203.197 18.2343C202.976 18.0069 202.783 17.8248 202.619 17.688C202.454 17.5409 202.184 17.2953 201.81 16.9513C201.613 16.7851 201.465 16.6579 201.366 16.5696Z" fill="white"/>
</svg>
