<svg width="195" height="69" viewBox="0 0 195 69" fill="none" xmlns="http://www.w3.org/2000/svg">
<path d="M2.95358 48.6341C2.93595 48.542 3.0019 48.4711 3.15145 48.4212C3.29903 48.3611 3.47491 48.3381 3.67909 48.352C3.89351 48.364 4.06264 48.4164 4.1865 48.5094C4.40591 48.6583 5.81983 48.5095 8.42825 48.0631C11.0469 47.6147 12.5558 47.4636 12.955 47.6099C13.2992 47.7455 13.5111 47.9383 13.5908 48.1882C13.6587 48.3767 13.6006 48.4886 13.4164 48.5238C13.3448 48.5375 13.2922 48.5953 13.2587 48.6972C13.2232 48.7889 13.2172 48.8961 13.2407 49.0188C13.2642 49.1416 13.2588 49.307 13.2244 49.5151C13.1881 49.713 13.1356 49.8821 13.067 50.0225C12.9342 50.2707 12.882 50.6625 12.9103 51.198C12.9468 51.7213 13.037 52.1919 13.1806 52.6098C13.3345 53.0258 13.4933 53.2181 13.657 53.1868C13.7491 53.1692 13.8368 53.1842 13.9202 53.2318C14.0138 53.2776 14.0735 53.3404 14.0994 53.4202C14.1406 53.6351 14.4105 53.8539 14.9092 54.0765C15.4059 54.289 15.9879 54.448 16.655 54.5536C17.157 54.6272 17.5001 54.6463 17.6842 54.6111C17.8786 54.5739 18.0778 54.4509 18.2817 54.2421C18.5743 53.9422 18.9108 53.7611 19.2913 53.6988C19.6801 53.6244 19.897 53.7048 19.9421 53.9401C19.9617 54.0424 19.9333 54.1433 19.8568 54.2428C19.7785 54.332 19.6728 54.3894 19.5398 54.4149C19.417 54.4384 19.3011 54.4977 19.1921 54.5928C19.083 54.6879 19.0168 54.7854 18.9935 54.8854C18.9461 55.1914 18.5289 55.3667 17.742 55.4114C16.9571 55.4662 16.1101 55.3632 15.2011 55.1025C14.7424 54.9782 14.3452 54.8421 14.0093 54.6943C13.6715 54.5363 13.4947 54.4163 13.479 54.3345C13.4614 54.2424 13.4211 54.1706 13.3582 54.119C13.3056 54.0654 13.2485 54.0445 13.1871 54.0563C13.1258 54.068 13.0404 54.0101 12.9312 53.8826C12.8321 53.7531 12.7364 53.5858 12.6442 53.3807C12.4254 52.9029 12.2305 52.6327 12.0594 52.57C11.8863 52.4971 11.7283 52.0872 11.5853 51.3403C11.4423 50.5935 11.4475 50.2054 11.601 50.176C11.6726 50.1623 11.7254 50.0779 11.7593 49.9229C11.7913 49.7577 11.8072 49.5638 11.807 49.3411L11.7704 48.5685L9.05417 49.0887C7.24331 49.4354 6.19509 49.5831 5.9095 49.5317C5.73406 49.5017 5.6225 49.5283 5.57482 49.6117C5.53738 49.6931 5.54315 49.8617 5.59213 50.1175C5.63131 50.3221 5.69846 50.4789 5.79358 50.588C5.88674 50.6868 5.9896 50.7254 6.10214 50.7039C6.28629 50.6686 6.46881 50.9572 6.64969 51.5695C6.82862 52.1716 6.94866 52.8539 7.00982 53.6164C7.08121 54.377 7.05008 54.9344 6.91642 55.2888C6.65498 56.0283 6.41249 56.202 6.18894 55.8099C6.02394 55.5021 5.82761 54.7814 5.59993 53.6477C5.47651 53.0032 5.3864 52.5326 5.32959 52.2359C5.27082 51.929 5.19376 51.6096 5.09842 51.2779C5.01136 50.934 4.9417 50.7087 4.88946 50.602C4.84549 50.4832 4.76495 50.3395 4.64785 50.171C4.53074 50.0025 4.42342 49.8852 4.32591 49.819C4.23862 49.7509 4.09648 49.6455 3.89948 49.503C3.65373 49.3273 3.43551 49.157 3.24482 48.992C3.06241 48.8148 2.96533 48.6955 2.95358 48.6341ZM21.5231 44.9989C21.8854 44.675 22.2662 44.4483 22.6656 44.3187C23.0651 44.1892 23.3387 44.2058 23.4865 44.3684C23.606 44.494 23.9067 44.569 24.3886 44.5934C24.8194 44.6275 25.2871 44.7713 25.7917 45.0247C26.2943 45.2678 26.6831 45.554 26.9583 45.8831C27.0695 46.0209 27.1881 46.2527 27.3142 46.5786C27.4485 46.8923 27.545 47.2026 27.6038 47.5095C27.7198 48.06 27.7423 48.4269 27.6714 48.6102C27.5984 48.7832 27.3214 49.0537 26.8404 49.4215C26.2566 49.8621 25.6914 50.1506 25.1448 50.2871C24.5962 50.4134 23.9854 50.4084 23.3124 50.2721C22.6618 50.1421 22.3006 50.084 22.229 50.0977C21.9835 50.1447 22.3024 50.6193 23.1857 51.5213C23.832 52.1824 24.6647 52.654 25.6838 52.9361C26.3686 53.1338 26.8857 53.231 27.2351 53.2277C27.5947 53.2225 28.1769 53.1057 28.9816 52.8774C30.5234 52.4549 31.5665 52.3082 32.1109 52.4373C32.3332 52.4902 32.3752 52.5988 32.237 52.7631C31.7955 53.2825 30.8657 53.6886 29.4476 53.9813C28.0313 54.2843 26.8554 54.3186 25.9196 54.0842C25.151 53.8919 24.3186 53.5051 23.4224 52.9237C22.5365 52.3403 21.8844 51.7599 21.4663 51.1824L20.3333 49.5857C20.1171 49.2877 19.9782 49.0333 19.9166 48.8223C19.8653 48.6094 19.8643 48.3551 19.9137 48.0593C20.0165 47.4881 20.2111 46.9258 20.4975 46.3725C20.7923 45.807 21.1341 45.3491 21.5231 44.9989ZM25.234 45.7678C24.7958 45.6396 24.3445 45.6094 23.8802 45.6771C23.4262 45.7428 23.0277 45.8774 22.6849 46.0809C22.342 46.2845 22.065 46.5549 21.8539 46.8923C21.6427 47.2297 21.551 47.5814 21.5786 47.9473C21.6219 48.395 21.604 48.7167 21.5247 48.9121C21.4747 49.0384 21.561 49.1014 21.7837 49.1012C21.8899 49.1021 22.0146 49.0888 22.1578 49.0614C22.3727 49.0202 22.572 49.0086 22.7557 49.0264C22.9394 49.0443 23.0586 49.0851 23.1132 49.1489C23.1659 49.2024 23.3455 49.2264 23.652 49.2207C23.9585 49.2151 24.301 49.176 24.6795 49.1035C25.3343 48.9781 25.7296 48.8547 25.8654 48.7332C26.0261 48.5752 26.1037 48.2051 26.0982 47.6228C26.1074 47.5044 26.1091 47.2919 26.1035 46.9854C26.0928 46.542 26.044 46.2597 25.9572 46.1384C25.8684 46.007 25.6273 45.8834 25.234 45.7678ZM35.6615 43.2303C35.591 42.862 35.5843 42.6882 35.6413 42.7091C35.6535 42.7174 35.6728 42.7349 35.6991 42.7617C35.8221 42.9609 35.8701 43.2115 35.8431 43.5137C35.8209 43.73 35.777 43.7225 35.7115 43.4911C35.6978 43.4195 35.6811 43.3326 35.6615 43.2303ZM35.5522 40.499C36.0402 40.2782 36.5451 40.1179 37.0669 40.018C37.5989 39.9162 38.0781 39.8986 38.5045 39.9655C38.9412 40.0303 39.1801 40.1702 39.2212 40.385C39.2506 40.5385 39.3374 40.5484 39.4815 40.4148C39.6791 40.2284 39.9471 40.1877 40.2853 40.2927C40.6236 40.3976 40.8163 40.5728 40.8633 40.8183C40.9279 41.156 41.1412 41.55 41.5032 42.0003C41.6467 42.1956 41.7785 42.4408 41.8986 42.736C42.0271 43.019 42.1026 43.2749 42.1252 43.5039C42.3113 44.9743 42.5885 45.6743 42.9568 45.6038C43.0591 45.5842 43.151 45.5931 43.2324 45.6305C43.3119 45.6578 43.3575 45.702 43.3692 45.7634C43.4025 45.9374 43.7225 46.0299 44.3292 46.041C44.9441 46.0399 45.5546 45.9601 46.1606 45.8017C46.8772 45.6114 47.2531 45.6084 47.2884 45.7925C47.3021 45.8641 47.2739 45.9385 47.2038 46.0155C47.142 46.0804 47.0599 46.1226 46.9576 46.1422C46.8553 46.1618 46.7732 46.204 46.7114 46.2689C46.6496 46.3338 46.6246 46.3969 46.6363 46.4583C46.65 46.5299 46.5288 46.6168 46.2726 46.7188C46.0144 46.8107 45.6961 46.8929 45.3175 46.9654C44.7139 47.0809 44.2591 47.115 43.953 47.0675C43.6552 47.0079 43.1921 46.8049 42.5637 46.4586C41.6179 45.9503 41.0836 45.7079 40.9609 45.7314C40.9097 45.7412 40.8428 45.8071 40.76 45.929C40.6856 46.0387 40.6161 46.1739 40.5514 46.3348C40.495 46.4835 40.4152 46.6207 40.3121 46.7465C40.2069 46.8621 40.1083 46.9287 40.0162 46.9464C39.9344 46.962 39.8706 47.0167 39.8249 47.1103C39.7772 47.1936 39.7642 47.2916 39.7857 47.4041C39.8151 47.5576 39.7877 47.6636 39.7034 47.7222C39.6275 47.7685 39.4772 47.7867 39.2525 47.7767C38.8563 47.7571 38.5391 47.9557 38.3007 48.3726C38.1742 48.5983 38.0628 48.7363 37.9664 48.7866C37.8802 48.8349 37.7844 48.8055 37.679 48.6984C37.5819 48.5791 37.4832 48.5344 37.3829 48.5642C37.2825 48.594 37.1396 48.7062 36.9542 48.9008C36.7234 49.1359 36.4229 49.2836 36.0527 49.3439C35.6804 49.394 35.4757 49.3218 35.4385 49.1274C35.4267 49.0661 35.3536 49.0164 35.2191 48.9785C35.0826 48.9304 34.9235 48.9026 34.7417 48.895C34.5599 48.8873 34.4008 48.8595 34.2643 48.8114C34.1259 48.753 34.0498 48.688 34.0361 48.6164C34.0224 48.5448 33.9595 48.4932 33.8474 48.4617C33.7455 48.4281 33.623 48.4251 33.4797 48.4525C33.2956 48.4878 33.1538 48.4672 33.0543 48.3908C32.965 48.3124 32.8979 48.1556 32.8528 47.9203C32.7745 47.5111 32.6068 47.1614 32.3497 46.8712C32.1897 46.7003 32.0991 46.5321 32.078 46.3664C32.0569 46.2007 32.0915 45.9661 32.1819 45.6624C32.2387 45.4607 32.316 45.2549 32.4137 45.0453C32.5217 44.8337 32.6117 44.6945 32.6837 44.6277C32.7558 44.5609 32.8068 44.4398 32.8369 44.2643C32.8669 44.0889 32.8663 43.9193 32.8349 43.7556C32.7996 43.5714 32.8071 43.4162 32.8571 43.29C32.9072 43.1637 32.9885 43.0898 33.101 43.0683C33.2033 43.0487 33.2834 42.9962 33.3413 42.9109C33.4095 42.8236 33.4347 42.7339 33.4171 42.6419C33.3799 42.4475 33.6013 42.1081 34.0812 41.6238C34.5612 41.1395 35.0515 40.7645 35.5522 40.499ZM38.5868 41.1429C38.2285 40.9888 37.8971 40.9197 37.5926 40.9355C37.2861 40.9412 37.0791 41.0233 36.9715 41.1817C36.8991 41.3017 36.7593 41.4027 36.5523 41.4847C35.923 41.7431 35.4839 41.9704 35.2351 42.1665C34.9966 42.3606 34.873 42.6017 34.8645 42.8897C34.853 43.051 34.7891 43.2435 34.6729 43.4673C34.5649 43.6789 34.4398 43.8566 34.2977 44.0005C34.1536 44.1341 34.0348 44.2895 33.9415 44.4664C33.8583 44.6414 33.8265 44.7801 33.8461 44.8824C33.8637 44.9745 33.8395 45.0693 33.7733 45.1668C33.7154 45.2521 33.6353 45.3046 33.533 45.3242C33.4 45.3496 33.3194 45.4552 33.2914 45.6409C33.2613 45.8163 33.2865 46.1138 33.3668 46.5333C33.5098 47.2801 33.6989 47.631 33.9342 47.5859C34.0366 47.5664 34.1416 47.5887 34.2493 47.6529C34.3654 47.7049 34.4536 47.7782 34.5141 47.8726C34.6552 48.1108 35.0848 48.1664 35.8029 48.0395C36.519 47.9024 37.2044 47.6598 37.859 47.3117C38.5237 46.9617 38.8645 46.6366 38.8813 46.3364C38.8885 46.2078 38.9446 46.0857 39.0498 45.9701C39.1549 45.8545 39.2689 45.7849 39.3916 45.7614C39.5246 45.736 39.6683 45.6554 39.8226 45.5198C39.9872 45.3823 40.113 45.2362 40.2001 45.0816C40.3411 44.8213 40.3994 44.5715 40.3748 44.3323C40.3482 44.0828 40.2201 43.6354 39.9905 42.99C39.6431 42.0065 39.4399 41.4992 39.3809 41.4681L38.5868 41.1429ZM52.3299 31.1615C52.422 30.6454 52.7467 30.6521 53.3042 31.1817C53.4076 31.2786 53.5252 31.394 53.6568 31.5278C53.9949 31.9085 54.2426 32.3437 54.4 32.8332C54.5656 33.3106 54.8281 34.4323 55.1875 36.1983C55.5253 37.8518 55.7778 38.9489 55.945 39.4896C56.1224 40.0283 56.3538 40.4613 56.6391 40.7885C56.8255 40.9861 57.0233 41.2717 57.2327 41.6452C57.4402 42.0085 57.5957 42.35 57.6993 42.6695C57.9348 43.3456 58.2789 43.8684 58.7314 44.2378C59.184 44.6072 59.6455 44.7468 60.1162 44.6567C60.2901 44.6234 60.4587 44.6176 60.6219 44.6394C60.7852 44.6612 60.8941 44.7039 60.9488 44.7677C61.0014 44.8213 61.1657 44.8482 61.4415 44.8484C61.7275 44.8466 62.0444 44.8125 62.3923 44.7459C62.9243 44.644 63.2678 44.61 63.4228 44.644C63.5758 44.6677 63.6546 44.7746 63.6592 44.9646C63.6609 45.2507 63.4333 45.4745 62.9764 45.6363C62.5175 45.7878 61.9195 45.8493 61.1822 45.8207C60.4449 45.7922 59.691 45.6767 58.9205 45.4743C58.3395 45.3204 58.0392 45.1923 58.0196 45.09C58 44.9877 57.7761 44.7601 57.348 44.4072C57.0071 44.1225 56.8272 44.0138 56.8082 44.081C56.7956 44.1259 56.8142 44.2231 56.8641 44.3726C56.9614 44.7146 56.9705 45.0946 56.8915 45.5128C56.8105 45.9207 56.6572 46.3107 56.4314 46.6827C56.2057 47.0547 55.9249 47.416 55.589 47.7667C55.2634 48.1154 54.9045 48.4016 54.5125 48.6251C54.1307 48.8467 53.7391 49.0171 53.3377 49.1364C52.9363 49.2557 52.5418 49.2729 52.1544 49.188C51.357 49.0119 50.5385 48.5588 49.6987 47.8287C48.8589 47.0986 48.3783 46.4164 48.2568 45.7821C48.2294 45.6389 48.2453 45.4449 48.3045 45.2002C48.3739 44.9536 48.4738 44.7277 48.6042 44.5224C48.9025 44.0305 49.121 43.5379 49.2599 43.0446C49.409 42.5494 49.7575 42.1539 50.3054 41.8581C50.8533 41.5622 51.3512 41.504 51.7992 41.6834C52.1902 41.8419 52.4896 41.827 52.6975 41.6387C52.8868 41.4645 53.2471 41.3796 53.7782 41.384C54.3196 41.3864 54.7969 41.47 55.2103 41.6348C55.6013 41.7932 55.7871 41.7948 55.768 41.6393C55.7366 41.4757 55.4673 41.0659 54.9599 40.41C54.6203 39.9659 54.3777 39.5298 54.2321 39.1017C54.0947 38.6613 53.9221 37.7875 53.7143 36.4804C53.576 35.6478 53.414 34.8569 53.2281 34.1076C53.0403 33.3481 52.8821 32.8269 52.7537 32.5439C52.615 32.2629 52.5039 31.9872 52.4203 31.7169C52.347 31.4446 52.3168 31.2594 52.3299 31.1615ZM54.6301 42.5095C54.038 42.4638 53.3893 42.5933 52.6841 42.898C51.9768 43.1925 51.5328 43.5321 51.3519 43.9167C51.2293 44.1629 51.1373 44.2919 51.076 44.3037C51.0146 44.3154 50.8885 44.2388 50.6979 44.0738C50.5174 43.9068 50.3872 43.8363 50.3073 43.8622C50.2275 43.8881 50.1046 44.0495 49.9387 44.3464C49.6921 44.7755 49.6366 45.3164 49.7722 45.9692C49.8568 46.356 49.9911 46.6697 50.1751 46.9102C50.3571 47.1405 50.6787 47.4077 51.1399 47.7118C51.4549 47.9167 51.7486 48.0937 52.0212 48.2431C52.302 48.3802 52.4792 48.447 52.5527 48.4435C52.7267 48.4102 53.1301 48.1633 53.7631 47.7027C54.3942 47.2319 54.7864 46.9818 54.9399 46.9524C55.1343 46.9152 55.2789 46.5905 55.3738 45.9784C55.4688 45.3663 55.4732 44.6973 55.3873 43.9713C55.36 43.5523 55.3156 43.2373 55.254 43.0264C55.1905 42.8052 55.1221 42.6698 55.049 42.6202C54.9739 42.5603 54.8343 42.5234 54.6301 42.5095ZM66.5315 43.3488L66.8704 43.1248C66.8807 43.1228 66.8987 43.1618 66.9246 43.2417C66.9486 43.3113 66.9733 43.4126 66.9988 43.5456C67.0345 43.6767 67.067 43.8189 67.0964 43.9724C67.208 44.5556 67.1411 44.8706 66.8956 44.9177C66.7933 44.9372 66.709 44.9958 66.6428 45.0933C66.5849 45.1786 66.5658 45.2725 66.5854 45.3748C66.6167 45.5385 66.5769 45.6628 66.4659 45.7477C66.3549 45.8325 66.225 45.8468 66.0763 45.7904C65.9399 45.7423 65.8508 45.6374 65.8093 45.4757C65.7579 45.2628 65.722 45.1583 65.7015 45.1622C65.6913 45.1642 65.676 45.2784 65.6558 45.505C65.6331 45.7745 65.5768 45.9232 65.4867 45.9511C65.3965 45.9789 65.2164 45.8967 64.9463 45.7045C64.7737 45.5785 64.6949 45.4716 64.7099 45.3839C64.7249 45.2962 64.8427 45.1357 65.0632 44.9026C65.4215 44.5583 65.7285 44.3616 65.9843 44.3126C66.0968 44.2911 66.183 44.2427 66.2429 44.1676C66.3008 44.0823 66.3199 43.9885 66.3003 43.8862C66.2808 43.7839 66.2938 43.6859 66.3395 43.5923C66.3833 43.4885 66.4473 43.4073 66.5315 43.3488ZM68.3754 40.1003C68.4085 40.0515 68.4623 40.0836 68.537 40.1966C68.6336 40.369 68.7275 40.6374 68.8184 41.0018C68.9334 41.4358 68.9805 41.7927 68.9598 42.0724C68.9494 42.3502 68.8651 42.658 68.7071 42.9958C68.231 43.9991 67.8539 44.2728 67.5757 43.817C67.5415 43.7493 67.5054 43.6714 67.4673 43.5832C67.3833 43.366 67.3667 43.1411 67.4177 42.9086C67.4667 42.6659 67.5906 42.3717 67.7896 42.0261C67.9492 41.7516 68.079 41.4881 68.1791 41.2356C68.2773 40.9728 68.3166 40.7903 68.297 40.688C68.25 40.4425 68.2761 40.2466 68.3754 40.1003ZM69.5052 36.1135C69.4366 35.7555 69.4393 35.5481 69.5133 35.4915C69.5873 35.4349 69.8877 35.4251 70.4145 35.4622C70.9189 35.4929 71.2227 35.5566 71.3261 35.6535C71.4276 35.7401 71.4797 35.9847 71.4825 36.3872C71.4764 36.6323 71.5012 36.845 71.557 37.0252C71.6229 37.2035 71.7007 37.3052 71.7904 37.3305C71.8718 37.3679 71.9616 37.5045 72.0598 37.7403C72.1662 37.9638 72.2479 38.2239 72.3047 38.5206C72.4281 39.1652 72.7031 39.8814 73.1297 40.6694C73.5666 41.4555 73.9679 41.9726 74.3336 42.2207C74.7359 42.4937 75.2323 42.6214 75.8228 42.6037C76.4134 42.5861 76.7343 42.4345 76.7857 42.1489C76.8051 42.0285 76.8632 41.9166 76.9601 41.8133C77.0569 41.7099 77.1626 41.6525 77.2771 41.6412C77.6737 41.6077 77.9573 41.5375 78.1277 41.4306C78.3084 41.3218 78.5011 41.1098 78.706 40.7949C78.8198 40.614 78.9364 40.475 79.0557 40.3779C79.1832 40.2686 79.2724 40.2357 79.3231 40.279C79.4674 40.368 79.4568 40.5344 79.2914 40.7782C79.126 41.022 79.0677 41.2718 79.1167 41.5276C79.1363 41.6299 79.0695 41.8071 78.9162 42.0591C78.763 42.3112 78.5761 42.5538 78.3556 42.7869C77.8961 43.2673 77.3662 43.6021 76.7661 43.7913C76.166 43.9804 75.601 43.9932 75.0712 43.8295C74.7105 43.7182 74.2915 43.4962 73.8141 43.1634C73.3367 42.8305 73.0824 42.5823 73.051 42.4186C73.0217 42.2651 72.9302 42.2031 72.7768 42.2325C72.6642 42.254 72.3952 41.929 71.9696 41.2575C71.5421 40.5757 71.2173 39.9591 70.995 39.4078C70.909 39.1803 70.7866 39.0393 70.6277 38.9849C70.4771 38.9183 70.3501 38.9479 70.247 39.0737C70.1418 39.1893 70.1108 39.3596 70.1539 39.5847C70.1848 39.8015 70.0911 40.143 69.8728 40.609C69.6525 41.0648 69.4605 41.3084 69.2968 41.3397C69.1331 41.3711 69.0485 40.3479 69.0431 38.2702C69.037 38.0168 69.0655 37.778 69.1287 37.5538C69.1898 37.3194 69.2606 37.1626 69.3409 37.0836C69.4232 37.0148 69.4784 36.8876 69.5065 36.7019C69.5428 36.5041 69.5424 36.3079 69.5052 36.1135ZM68.6599 30.4528C68.7195 30.155 68.8131 29.9515 68.9407 29.8422C69.0663 29.7227 69.3132 29.6277 69.6815 29.5571C70.0908 29.4788 70.3441 29.4727 70.4417 29.5389C70.5494 29.6031 70.6425 29.8398 70.7208 30.249C70.7855 30.5867 70.7896 30.8298 70.7332 30.9785C70.6871 31.1252 70.5625 31.2498 70.3594 31.3523C69.6682 31.6756 69.1823 31.7686 68.9015 31.6315C68.6289 31.4822 68.5484 31.0892 68.6599 30.4528ZM81.132 37.1804C81.203 36.9971 81.292 36.8528 81.3991 36.7474C81.5062 36.6421 81.5995 36.603 81.6789 36.6302C81.8846 36.7075 81.9172 36.8497 81.7765 37.057C81.7167 37.1321 81.6832 37.2339 81.676 37.3626C81.679 37.4893 81.7108 37.5998 81.7713 37.6943C81.8196 37.7805 81.8339 37.9104 81.8141 38.0838C81.7943 38.2573 81.744 38.4101 81.6632 38.5423C81.5722 38.6764 81.5144 38.873 81.4898 39.1323C81.4633 39.3813 81.4757 39.6123 81.5271 39.8251C81.7321 40.7298 81.5891 41.2292 81.098 41.3232C80.5148 41.4349 80.3334 41.0135 80.5537 40.0592C80.6935 39.4598 80.7795 38.9395 80.8117 38.4985C80.8522 38.0453 80.9589 37.6059 81.132 37.1804ZM87.7831 31.7864C87.7577 31.6534 87.8557 31.5286 88.0773 31.4119C88.3092 31.2933 88.561 31.2238 88.8329 31.2036C89.1048 31.1834 89.2944 31.2319 89.4017 31.3492C89.5353 31.4933 89.7403 31.5389 90.0165 31.4861C90.3132 31.4292 90.6959 31.5999 91.1645 31.998C91.6434 32.3942 91.8735 32.7373 91.8548 33.0272C91.8447 33.2519 92.1254 33.7761 92.6968 34.6C93.2682 35.424 93.7548 35.9989 94.1567 36.325C94.3839 36.5148 94.9155 36.7153 95.7514 36.9265C96.2753 37.0595 96.6002 37.1776 96.726 37.2808C96.8498 37.3737 96.8651 37.5087 96.7717 37.6856C96.6058 37.9826 96.4142 38.0617 96.1967 37.923C95.9875 37.7722 95.7857 37.7153 95.5914 37.7526C95.3356 37.8015 94.7782 37.6325 93.9193 37.2455C93.0706 36.8565 92.6296 36.575 92.5962 36.4011C92.5786 36.309 92.5061 36.1797 92.3788 36.0132C92.2515 35.8467 92.1107 35.6933 91.9566 35.5531C91.7903 35.4047 91.6044 35.1539 91.3989 34.8008C91.2037 34.4458 91.0462 34.0941 90.9265 33.7459C90.6333 32.8793 90.3639 32.4695 90.1184 32.5165C90.0161 32.5361 89.9069 32.5199 89.7909 32.4679C89.6831 32.4037 89.599 32.3243 89.5385 32.2298C89.478 32.1354 89.359 32.068 89.1816 32.0277C89.0042 31.9875 88.8081 31.9879 88.5932 32.029C88.1021 32.1231 87.8321 32.0422 87.7831 31.7864ZM81.5 32.2895C81.7277 31.9277 81.862 31.7429 81.9029 31.7351C81.9541 31.7253 82.427 31.7302 83.3217 31.7498C83.8874 31.7688 84.2568 31.8147 84.4298 31.8876C84.6029 31.9605 84.7149 32.13 84.7658 32.396C84.852 32.8462 85.0218 33.0682 85.2752 33.0621C85.5266 33.0458 85.8933 32.8006 86.3752 32.3265C86.9662 31.7572 87.2983 31.4975 87.3714 31.5471C87.5055 31.6381 87.5063 31.919 87.3737 32.3898C87.2392 32.8504 87.09 33.0964 86.9264 33.1277C86.7115 33.1689 86.5341 33.3778 86.3941 33.7546C86.2624 34.1192 86.2821 34.3329 86.4532 34.3956C86.6365 34.4666 86.7752 34.7476 86.8692 35.2387C86.9632 35.7297 86.9372 36.037 86.7912 36.1604C86.7274 36.215 86.6846 36.324 86.6628 36.4872C86.6513 36.6485 86.6612 36.811 86.6925 36.9747C86.7885 37.476 86.7804 37.8488 86.668 38.093C86.5557 38.3373 86.3154 38.4946 85.9471 38.5652C85.4662 38.6572 85.098 38.5899 84.8425 38.363C84.5869 38.1362 84.5262 37.8191 84.6603 37.4116C84.7317 37.1752 84.7417 36.9505 84.6904 36.7377C84.637 36.5145 84.4996 36.2121 84.278 35.8303C84.1189 35.5532 83.9775 35.2302 83.8538 34.8615C83.7282 34.4825 83.6502 34.1581 83.6197 33.8882C83.5479 33.1807 83.4391 32.7508 83.2932 32.5984C83.1557 32.4339 82.9133 32.4697 82.5661 32.7058C82.4181 32.819 82.2915 32.9334 82.1863 33.049C82.0914 33.1626 82.0489 33.245 82.0587 33.2962C82.1135 33.5826 82.0108 34.1538 81.7504 35.0097C81.4901 35.8656 81.2883 36.3073 81.1451 36.3347C80.7665 36.4072 80.601 36.2904 80.6484 35.9844C80.6887 35.8069 80.805 35.5832 80.9972 35.313C81.3422 34.844 81.4589 34.3178 81.3472 33.7347C81.3002 33.4891 81.2921 33.2255 81.323 32.9439C81.354 32.6622 81.413 32.4441 81.5 32.2895ZM110.337 36.9972C110.288 36.7414 110.295 36.6076 110.356 36.5959C110.428 36.5822 110.534 36.6944 110.675 36.9325C110.736 37.027 110.762 37.112 110.756 37.1875C110.749 37.263 110.71 37.3077 110.638 37.3214C110.577 37.3331 110.514 37.3081 110.449 37.2463C110.394 37.1825 110.357 37.0995 110.337 36.9972ZM101.412 32.7563C101.742 32.5976 102.291 32.503 103.06 32.4726C103.838 32.4401 104.4 32.4917 104.744 32.6274C104.905 32.692 105.099 32.7396 105.328 32.77C105.557 32.8005 105.737 32.803 105.87 32.7776C106.095 32.7345 106.247 32.7796 106.326 32.9131C106.413 33.0343 106.506 33.3558 106.606 33.8776C106.667 34.1948 106.696 34.5392 106.693 34.911C106.689 35.2828 106.653 35.5655 106.584 35.759C106.526 35.9505 106.496 36.2373 106.495 36.6193C106.492 36.9911 106.522 37.3458 106.587 37.6834L106.807 38.9141L107.297 38.2317C107.549 37.8864 108.066 37.5434 108.849 37.2025C109.469 36.9461 109.794 36.8997 109.825 37.0634C109.878 37.3397 109.805 37.6241 109.607 37.9166C109.418 38.2072 109.191 38.378 108.925 38.4289C108.751 38.4622 108.607 38.5111 108.492 38.5755C108.379 38.6502 108.328 38.7182 108.34 38.7796C108.354 38.8512 108.296 38.9631 108.166 39.1152C108.038 39.2776 107.877 39.4356 107.684 39.5893C107.361 39.842 107.187 40.0132 107.162 40.1029C107.149 40.2009 107.255 40.3396 107.48 40.5192C107.616 40.6205 107.716 40.7285 107.781 40.8435C107.845 40.9584 107.851 41.0422 107.797 41.0949C107.688 41.19 107.695 41.5333 107.819 42.1247C107.955 42.7244 108.096 43.0739 108.243 43.1732C108.389 43.2724 108.523 43.724 108.645 44.5279C108.778 45.3298 108.782 45.7425 108.66 45.766C108.598 45.7778 108.51 45.9006 108.396 46.1346C108.294 46.3769 108.194 46.656 108.095 46.9718C107.872 47.7463 107.628 48.2704 107.362 48.544C107.107 48.8156 106.672 49.0102 106.058 49.1278C104.532 49.4094 103.47 48.7378 102.872 47.1128C102.639 46.4469 102.5 45.8636 102.458 45.3627C102.427 44.8701 102.509 44.6052 102.703 44.568C102.877 44.5347 103.19 44.146 103.641 43.402C104.093 42.658 104.301 42.1939 104.265 42.0097C104.248 41.9177 104.263 41.8299 104.311 41.7466C104.36 41.6734 104.426 41.629 104.508 41.6134C104.661 41.584 104.827 41.3984 105.006 41.0567C105.184 40.7149 105.321 40.3228 105.417 39.8802C105.514 39.4479 105.538 39.0988 105.487 38.8328C105.33 38.0143 105.037 37.922 104.606 38.5559C104.416 38.8362 104.153 39.067 103.816 39.2481C103.492 39.4375 103.251 39.6745 103.093 39.9592C103.029 40.067 102.912 40.1743 102.741 40.2812C102.581 40.3861 102.419 40.4542 102.255 40.4856C102.102 40.5149 101.969 40.567 101.856 40.6416C101.745 40.7265 101.696 40.8048 101.71 40.8764C101.724 40.948 101.707 40.9989 101.66 41.0292C101.612 41.0595 101.548 41.0559 101.467 41.0184C101.387 40.9912 101.288 40.9996 101.169 41.0436C101.052 41.0978 100.951 41.1756 100.864 41.277C100.744 41.4272 100.598 41.4924 100.424 41.4726C100.263 41.4611 99.9888 41.3597 99.6022 41.1686C99.1932 40.9712 98.9048 40.7665 98.737 40.5547C98.5691 40.3429 98.4026 39.9718 98.2374 39.4413C98.0263 38.7818 97.9007 38.1535 97.8606 37.5567C97.8206 36.9598 97.8773 36.6467 98.0308 36.6173C98.0921 36.6055 98.1191 36.5527 98.1117 36.4586C98.1024 36.3543 98.0686 36.2335 98.0105 36.0962C97.866 35.7845 97.8715 35.4811 98.0272 35.1862C98.193 34.8893 98.427 34.7543 98.7292 34.7813C98.8496 34.8007 98.9765 34.7711 99.1099 34.6925C99.2536 34.612 99.3565 34.5127 99.4188 34.3947C99.481 34.2767 99.6076 34.1624 99.7985 34.0516C99.9894 33.9408 100.187 33.8658 100.392 33.8266C100.873 33.7345 101.09 33.5657 101.043 33.3202C101.023 33.2179 101.045 33.1128 101.109 33.0051C101.184 32.8954 101.285 32.8125 101.412 32.7563ZM105.01 33.7695C104.915 33.4378 104.691 33.2633 104.337 33.2461C103.982 33.2187 103.731 33.235 103.583 33.2951C103.436 33.3551 102.922 33.6339 102.041 34.1313C101.639 34.3568 101.3 34.5808 101.024 34.8032C100.747 35.0154 100.615 35.1574 100.629 35.229C100.685 35.5257 100.58 35.7792 100.313 35.9894C100.056 36.1977 99.7836 36.2445 99.4965 36.1298C99.2562 36.038 99.1295 36.041 99.1164 36.139C99.1116 36.2247 99.174 36.4673 99.3035 36.8668C99.5068 37.4854 99.5281 37.8737 99.3675 38.0318C99.2132 38.1674 99.1889 38.5114 99.2947 39.0639C99.4004 39.6163 99.5579 39.968 99.7671 40.1189C100.021 40.2823 100.535 40.1681 101.308 39.776C102.092 39.382 102.729 38.9154 103.22 38.376C103.768 37.7512 104.06 37.3665 104.096 37.2217C104.132 37.077 104.268 36.9821 104.503 36.937C104.739 36.892 104.811 36.6341 104.721 36.1635C104.686 35.9794 104.681 35.7628 104.708 35.5137C104.733 35.2545 104.783 35.0486 104.86 34.896C105.064 34.4645 105.114 34.0891 105.01 33.7695ZM106.638 41.6033C106.363 41.1679 106.082 41.2218 105.794 41.7649C105.731 41.8829 105.63 41.9923 105.491 42.0933C105.363 42.2026 105.238 42.269 105.115 42.2925C104.818 42.3493 104.614 42.4998 104.502 42.7441C104.404 42.9537 104.458 43.0706 104.664 43.0948C104.731 43.1137 104.771 43.1804 104.782 43.2949C104.795 43.4196 104.78 43.587 104.735 43.7971C104.69 44.0071 104.63 44.2201 104.555 44.4361C104.49 44.65 104.404 44.8679 104.298 45.0898C104.192 45.3116 104.084 45.4915 103.972 45.6295C103.879 45.7533 103.809 45.9417 103.762 46.1947C103.726 46.4457 103.729 46.6837 103.772 46.9088C103.831 47.2157 103.927 47.4412 104.06 47.5853C104.196 47.7396 104.405 47.8639 104.689 47.9582C105.133 48.064 105.371 48.0608 105.403 47.9487C105.389 47.8771 105.423 47.8069 105.506 47.7381C105.59 47.6796 105.693 47.6385 105.816 47.615C106.06 47.5578 106.282 47.3349 106.483 46.9463C106.695 46.5558 106.849 46.0596 106.946 45.4578C107.03 44.9538 107.032 44.2429 106.951 43.325C106.881 42.4051 106.777 41.8312 106.638 41.6033ZM120.323 24.5058C120.252 24.1375 120.455 24.0084 120.933 24.1185C121.23 24.1782 121.589 24.3323 122.007 24.5809C122.676 24.9725 123.082 25.1546 123.226 25.1272C123.287 25.1154 123.682 25.3526 124.412 25.8387C125.15 26.3125 126.009 26.8957 126.99 27.5881C127.553 27.9789 128.033 28.3271 128.431 28.6327C128.837 28.9261 129.191 29.1977 129.494 29.4473C129.794 29.6868 130.03 29.8961 130.203 30.0752C130.373 30.2442 130.498 30.4004 130.579 30.5441C130.659 30.6878 130.689 30.8147 130.668 30.9248C130.654 31.0228 130.598 31.1132 130.497 31.1962C130.435 31.261 130.392 31.37 130.368 31.523C130.353 31.6638 130.361 31.8161 130.392 31.9798C130.424 32.1435 130.416 32.3252 130.369 32.5251C130.323 32.7249 130.249 32.8928 130.148 33.0289C129.883 33.3658 129.297 33.7911 128.387 34.3046C127.488 34.8161 126.984 35.0081 126.875 34.8805C126.822 34.827 126.715 34.7944 126.554 34.7829C126.393 34.7713 126.225 34.7822 126.051 34.8155C125.622 34.8978 125.06 34.6818 124.368 34.1674C124.096 33.9649 123.899 33.8224 123.777 33.7396C123.655 33.6569 123.545 33.609 123.447 33.596C123.347 33.5727 123.277 33.5915 123.235 33.6525C123.192 33.7032 123.136 33.7987 123.068 33.9391C122.901 34.2892 122.376 34.5913 121.491 34.8455C120.617 35.0978 119.981 35.1294 119.584 34.9402C118.823 34.5662 119.098 34.1476 120.41 33.6844C120.438 33.6683 120.473 33.6564 120.514 33.6485C121.221 33.4071 121.736 33.1069 122.06 32.748C122.384 32.3891 122.555 31.9267 122.574 31.361C122.596 30.8688 122.677 30.4874 122.816 30.2169C122.988 29.8975 122.935 29.1759 122.656 28.0521C122.386 26.916 122.104 26.2487 121.812 26.0502C121.677 25.9592 121.554 25.8397 121.441 25.6917C121.336 25.5315 121.27 25.3798 121.242 25.2365C121.215 25.0933 121.156 24.9825 121.067 24.9041C120.978 24.8258 120.877 24.7974 120.764 24.8189C120.662 24.8385 120.568 24.8194 120.483 24.7614C120.396 24.6933 120.342 24.6081 120.323 24.5058ZM126.085 28.0955C123.98 26.685 122.887 25.9875 122.805 26.0032C122.723 26.0189 122.858 26.2529 123.21 26.7052C123.57 27.1454 123.773 27.4882 123.82 27.7337C123.838 27.8258 123.896 27.9366 123.995 28.0661C124.092 28.1854 124.2 28.2762 124.318 28.3384C124.603 28.496 124.776 28.7385 124.839 29.0659C124.9 29.3831 124.816 29.6112 124.588 29.7503C124.381 29.8855 124.24 30.2837 124.165 30.945C124.09 31.6063 124.123 32.1674 124.264 32.6282C124.426 33.1382 124.763 33.5138 125.275 33.755C125.799 33.9942 126.237 33.9846 126.59 33.726C126.942 33.4571 127.416 33.2179 128.012 33.0083C128.28 32.9145 128.502 32.7978 128.677 32.6583C128.85 32.5085 128.95 32.3674 128.977 32.2348C128.984 32.1593 128.996 32.0562 129.014 31.9256C129.059 31.6624 129.092 31.4758 129.113 31.3656C129.135 31.2555 129.138 31.1064 129.123 30.9183C129.108 30.7302 129.096 30.6106 129.086 30.5594C129.074 30.4981 129.011 30.3882 128.896 30.23C128.789 30.0595 128.698 29.9444 128.623 29.8845C128.548 29.8247 128.38 29.6977 128.12 29.5035C127.871 29.3074 127.655 29.1524 127.475 29.0385C127.292 28.9144 126.992 28.7067 126.576 28.4152C126.358 28.2765 126.195 28.17 126.085 28.0955ZM135.897 22.1759C135.982 21.958 136.182 21.8402 136.497 21.8223C136.81 21.7942 137.029 21.8849 137.154 22.0943C137.309 22.3509 137.523 23.1903 137.795 24.6124C137.975 25.5536 138.126 26.1769 138.249 26.4823C138.379 26.7756 138.605 27.0399 138.925 27.2755C139.273 27.5378 139.51 27.6674 139.636 27.6643C139.763 27.6613 140.001 27.5202 140.351 27.2412C140.571 27.0612 140.737 26.8756 140.849 26.6845C140.961 26.4934 141.002 26.3211 140.972 26.1676C140.947 26.0346 140.946 25.9182 140.969 25.8182C141.001 25.7061 141.047 25.6442 141.109 25.6325C141.262 25.6031 141.354 25.1401 141.383 24.2435C141.424 23.3449 141.371 22.7081 141.224 22.333C141.16 22.165 141.132 21.9901 141.14 21.8083C141.156 21.6144 141.207 21.4667 141.294 21.3652C141.508 21.1014 141.761 21.0902 142.051 21.3316C142.351 21.5711 142.606 21.9889 142.816 22.5851C143.033 23.2223 143.311 23.7843 143.648 24.2712C143.985 24.7582 144.179 25.1347 144.23 25.4007C144.252 25.5132 144.296 25.6055 144.363 25.6775C144.429 25.7496 144.499 25.7788 144.57 25.7651C144.632 25.7533 144.694 25.7732 144.757 25.8248C144.82 25.8764 144.86 25.9482 144.877 26.0403C144.989 26.6235 145.44 26.9561 146.23 27.0381C147.018 27.11 147.941 26.9174 148.999 26.4602C149.772 26.1213 150.262 26.0222 150.469 26.1628C150.589 26.2353 150.64 26.3103 150.623 26.3878C150.615 26.4531 150.54 26.5311 150.398 26.6219C150.303 26.6824 150.223 26.788 150.156 26.9386C150.1 27.0873 150.083 27.223 150.107 27.3458C150.136 27.4992 150.118 27.6247 150.052 27.7222C149.984 27.8095 149.839 27.9115 149.617 28.0282C149.404 28.1327 149.007 28.3041 148.427 28.5424C148.31 28.5966 148.093 28.6275 147.777 28.6351C147.468 28.6306 147.162 28.6097 146.858 28.5724C146.401 28.5115 146.017 28.3888 145.706 28.2045C145.403 28.0079 144.997 27.6348 144.489 27.0851C144.153 26.7147 143.85 26.3536 143.582 26.0021C143.321 25.6384 143.178 25.39 143.153 25.257C143.125 25.1138 143.076 24.9959 143.005 24.9034C142.945 24.8089 142.879 24.7685 142.807 24.7822C142.735 24.7959 142.681 24.8435 142.643 24.9249C142.606 25.0063 142.596 25.0931 142.614 25.1851C142.661 25.4307 142.502 26.0709 142.138 27.1057C141.938 27.6638 141.743 28.0882 141.555 28.3788C141.375 28.6572 141.168 28.8506 140.934 28.959C140.514 29.1455 140.114 29.2168 139.734 29.1728C139.365 29.1269 139.158 28.9863 139.113 28.751C139.093 28.6487 139.057 28.5707 139.004 28.5172C138.949 28.4534 138.886 28.4284 138.815 28.4421C138.682 28.4676 138.427 28.2459 138.051 27.777C137.673 27.2979 137.46 26.9355 137.413 26.69C137.396 26.5979 137.34 26.529 137.247 26.4833C137.161 26.4254 137.067 26.4063 136.965 26.4258C136.853 26.4474 136.77 26.5162 136.718 26.6322C136.666 26.7482 136.655 26.883 136.684 27.0364C136.733 27.2922 136.607 27.7672 136.305 28.4613C136.003 29.1555 135.65 29.8063 135.247 30.4139C134.844 31.0214 134.534 31.3457 134.32 31.3869C134.125 31.4241 133.965 31.4759 133.84 31.5423C133.715 31.6087 133.552 31.7248 133.35 31.8907C133.11 32.0746 132.807 32.1538 132.441 32.1284C132.076 32.1029 131.872 31.9827 131.831 31.7679C131.816 31.6861 131.895 31.5488 132.071 31.3562C132.256 31.1616 132.48 30.9755 132.743 30.7978C133.325 30.4001 133.955 29.7066 134.636 28.7173C135.324 27.7158 135.635 27.0411 135.569 26.6932C135.518 26.4272 135.597 25.8446 135.807 24.9454C136.025 24.034 136.204 23.5329 136.346 23.4422C136.383 23.4139 136.381 23.3454 136.339 23.2368C136.305 23.116 136.24 23.001 136.145 22.892C136.05 22.7829 135.979 22.6587 135.931 22.5194C135.881 22.3699 135.87 22.2554 135.897 22.1759ZM157.53 17.9223C157.516 17.8507 157.593 17.7829 157.761 17.7189C157.937 17.6427 158.166 17.5884 158.446 17.556C158.851 17.5102 159.118 17.5227 159.248 17.5932C159.377 17.6535 159.466 17.8166 159.517 18.0826C159.597 18.5021 159.48 18.7739 159.164 18.8979C158.847 19.0118 158.594 19.214 158.405 19.5046C158.323 19.6265 158.214 19.7216 158.078 19.79C157.943 19.8583 157.826 19.886 157.728 19.8729C157.628 19.8496 157.506 19.8782 157.363 19.9588C157.227 20.0271 157.118 20.1222 157.036 20.2441C156.963 20.3641 156.848 20.4816 156.69 20.5968C156.529 20.7017 156.388 20.7659 156.265 20.7894C156.122 20.8168 155.981 20.9127 155.843 21.0771C155.715 21.2394 155.615 21.4388 155.544 21.6752C155.315 22.419 155.477 23.0721 156.03 23.6343C156.592 24.1844 157.485 24.586 158.711 24.8392C159.119 24.9202 159.463 24.9444 159.743 24.912C160.021 24.8694 160.405 24.7428 160.895 24.5323C161.355 24.3277 161.718 24.205 161.986 24.1643C162.262 24.1114 162.54 24.1219 162.819 24.1957C163.264 24.3015 163.424 24.4458 163.3 24.6286C163.193 24.7871 162.873 25.0286 162.341 25.3532C161.801 25.6899 161.495 25.9448 161.422 26.1178C161.327 26.2315 161.171 26.3037 160.954 26.3346C160.735 26.3553 160.503 26.3309 160.256 26.2615C160.007 26.1818 159.871 26.0806 159.848 25.9578C159.826 25.8453 159.777 25.7805 159.699 25.7636C159.63 25.7344 159.543 25.751 159.438 25.8135C159.268 25.9204 158.956 25.9536 158.503 25.9131C158.05 25.8726 157.625 25.7843 157.227 25.6483C156.83 25.5122 156.618 25.3726 156.59 25.2294C156.569 25.1168 156.503 25.0233 156.393 24.9489C156.294 24.8725 156.179 24.8256 156.048 24.8081C155.803 24.802 155.537 24.6569 155.249 24.3726C154.969 24.0761 154.732 23.7503 154.537 23.3953C154.35 23.0281 154.227 22.6645 154.169 22.3044C154.11 21.9444 154.163 21.6905 154.325 21.5427C154.389 21.488 154.426 21.4066 154.438 21.2984C154.447 21.18 154.428 21.0828 154.382 21.0069C154.333 20.9206 154.318 20.8122 154.335 20.6816C154.353 20.551 154.396 20.4421 154.464 20.3548C154.705 20.0646 155.172 19.6517 155.865 19.116C156.568 18.5784 157.017 18.2909 157.211 18.2537C157.314 18.2341 157.396 18.1919 157.458 18.127C157.519 18.0622 157.543 17.9939 157.53 17.9223ZM148.193 8.54211C148.159 8.36818 148.179 8.27436 148.25 8.26065C148.332 8.24498 148.441 8.31431 148.576 8.46864C148.631 8.53242 148.653 8.59185 148.642 8.64692C148.63 8.69176 148.583 8.72202 148.501 8.73769C148.429 8.7514 148.364 8.7427 148.305 8.71157C148.244 8.67021 148.206 8.61372 148.193 8.54211ZM165.148 7.85691C165.248 7.77398 165.294 7.70693 165.284 7.65578C165.272 7.5944 165.3 7.54662 165.368 7.51244C165.446 7.47631 165.535 7.46989 165.635 7.49318C165.743 7.50428 165.845 7.56436 165.94 7.67342C166.043 7.77029 166.106 7.87499 166.127 7.98753C166.149 8.10007 166.205 8.22719 166.296 8.3689C166.385 8.50037 166.478 8.5992 166.575 8.66538C167.026 8.97143 167.47 9.59715 167.905 10.5425C168.341 11.4879 168.475 12.109 168.31 12.4059C168.15 12.6804 168.179 12.8604 168.397 12.946C168.603 13.0233 168.787 13.5713 168.951 14.59C169.114 15.6087 169.127 16.3433 168.991 16.7936C168.881 17.1646 168.857 17.4504 168.916 17.6511C168.974 17.8415 169.115 17.9152 169.34 17.8721C169.392 17.8623 169.439 17.8055 169.483 17.7017C169.535 17.5857 169.562 17.4531 169.566 17.304C169.583 16.9507 169.801 16.7339 170.221 16.6536C170.405 16.6183 170.577 16.5482 170.737 16.4433C170.908 16.3364 171.029 16.223 171.102 16.1031C171.241 15.8325 171.504 15.6549 171.89 15.5702C172.275 15.4753 172.611 15.5118 172.898 15.6796C173.174 15.8494 173.489 15.996 173.841 16.1194C174.169 16.2263 174.411 16.4663 174.568 16.8394C174.732 17.2003 174.736 17.4966 174.579 17.7282C174.421 17.9598 174.363 18.183 174.405 18.3979C174.422 18.4899 174.396 18.6276 174.325 18.8109C174.264 18.9922 174.18 19.1621 174.072 19.3206C173.774 19.7594 173.682 20.106 173.794 20.3602C173.904 20.6042 174.259 20.8758 174.857 21.1749C176.275 21.8791 177.012 22.3795 177.069 22.6762C177.101 22.8399 177.391 23.0016 177.942 23.1614C178.502 23.3192 178.941 23.3678 179.258 23.3071C179.524 23.2561 179.751 23.3029 179.937 23.4475C180.122 23.5818 180.161 23.7282 180.053 23.8866C179.929 24.0695 179.664 24.1786 179.257 24.2141C178.852 24.2598 178.428 24.2614 177.985 24.219C177.542 24.1765 177.137 24.0844 176.771 23.9424C176.404 23.8005 176.203 23.6375 176.168 23.4533C176.152 23.3715 176.004 23.2354 175.724 23.0452C175.444 22.8549 175.116 22.6683 174.742 22.4855C173.82 22.0469 173.258 21.7726 173.057 21.6627C172.856 21.5527 172.489 21.4956 171.958 21.4912C171.617 21.4823 171.387 21.5264 171.268 21.6235C171.159 21.7186 171.066 21.9538 170.989 22.3291C170.864 22.8939 170.909 23.2937 171.123 23.5284C171.391 23.8166 171.511 24.2496 171.484 24.8276C171.456 25.4055 171.3 25.8332 171.013 26.1108C170.754 26.3619 170.507 26.4835 170.272 26.4755C170.049 26.4757 169.912 26.3428 169.861 26.0768C169.822 25.8722 169.644 25.5775 169.326 25.1929C169.199 25.0264 169.045 24.7483 168.864 24.3587C168.682 23.9588 168.533 23.5684 168.417 23.1874C168.106 22.2288 167.837 21.7925 167.61 21.8784C167.509 21.9083 167.435 22.0711 167.385 22.3669C167.357 22.4995 167.25 22.7427 167.064 23.0967C166.877 23.4506 166.664 23.8094 166.426 24.1732C165.841 25.0489 165.561 25.5532 165.587 25.6862C165.596 25.7374 165.556 25.8035 165.466 25.8844C165.385 25.9634 165.277 26.0371 165.142 26.1055C164.859 26.2339 164.674 26.1793 164.586 25.9416C164.469 25.6668 164.544 25.3661 164.811 25.0394C164.897 24.938 164.964 24.8139 165.01 24.6672C165.066 24.5185 165.085 24.3981 165.068 24.3061C165.05 24.214 165.079 24.1131 165.153 24.0034C165.236 23.8815 165.345 23.7864 165.48 23.718C165.798 23.551 165.918 23.263 165.84 22.8537C165.797 22.6286 165.802 22.4632 165.856 22.3574C165.91 22.2516 166.034 22.1801 166.229 22.1429C166.628 22.0665 166.854 21.7793 166.907 21.2812C166.958 20.773 166.84 19.963 166.553 18.8513C166.207 17.4858 165.925 16.5162 165.71 15.9424C165.344 14.9731 164.976 13.7443 164.606 12.256C164.236 10.7678 164.099 9.94028 164.194 9.77354C164.238 9.66971 164.269 9.52594 164.287 9.34222C164.313 9.14631 164.316 8.97064 164.297 8.81522C164.245 8.43277 164.403 8.17972 164.772 8.05608C164.922 8.00624 165.047 7.93985 165.148 7.85691ZM166.256 9.90384C166.216 9.75234 166.158 9.61498 166.081 9.49178C166.003 9.35834 165.924 9.27802 165.844 9.25081C165.751 9.2051 165.704 9.32014 165.703 9.59593C165.712 9.80643 165.748 10.0805 165.813 10.4181C165.88 10.7659 165.958 11.0638 166.048 11.3118C166.146 11.5475 166.231 11.6585 166.303 11.6448C166.384 11.6291 166.482 11.8067 166.595 12.1774C166.719 12.5461 166.838 13.0272 166.951 13.6206C167.208 14.9608 167.418 15.6152 167.582 15.5839C167.807 15.5408 167.922 15.365 167.926 15.0566C167.939 14.7359 167.839 14.4634 167.627 14.239C167.375 13.9795 167.25 13.4626 167.25 12.6884C167.248 11.9039 167.098 11.3388 166.798 10.9931C166.507 10.6352 166.326 10.2721 166.256 9.90384ZM173.122 17.514C173.009 17.0902 172.9 16.8247 172.794 16.7176C172.699 16.6085 172.505 16.5661 172.213 16.5903C171.763 16.6233 171.376 16.8459 171.052 17.258C170.728 17.67 170.516 18.1984 170.417 18.8432C170.387 19.0717 170.363 19.2513 170.345 19.3819C170.338 19.5106 170.345 19.6312 170.367 19.7437C170.388 19.8563 170.419 19.9352 170.46 19.9804C170.511 20.0238 170.593 20.0663 170.707 20.1081C170.829 20.1377 170.955 20.1561 171.084 20.1633C171.221 20.1583 171.41 20.1486 171.651 20.1342C172.082 20.1153 172.374 20.0595 172.525 19.9667C172.688 19.8721 172.847 19.6507 173.003 19.3026C173.238 18.7591 173.278 18.1629 173.122 17.514ZM169.924 21.4194C169.888 21.2883 169.822 21.1897 169.724 21.1236C169.635 21.0452 169.523 20.8492 169.389 20.5355C169.263 20.2096 169.153 19.8594 169.061 19.4848L168.704 18.1213L168.941 19.5236C169.165 20.8064 169.413 21.5756 169.685 21.8311C169.786 21.9178 169.865 21.8867 169.922 21.7381C169.957 21.6464 169.958 21.5402 169.924 21.4194ZM182.045 12.6872C181.975 12.3189 182.178 12.1898 182.655 12.3C182.953 12.3596 183.311 12.5137 183.73 12.7623C184.399 13.1539 184.805 13.336 184.948 13.3086C185.009 13.2968 185.405 13.534 186.134 14.0201C186.872 14.494 187.731 15.0771 188.712 15.7696C189.275 16.1603 189.755 16.5085 190.153 16.8141C190.56 17.1075 190.914 17.3791 191.216 17.6288C191.517 17.8682 191.753 18.0775 191.925 18.2566C192.095 18.4256 192.221 18.5819 192.301 18.7255C192.382 18.8692 192.411 18.9961 192.39 19.1062C192.377 19.2042 192.32 19.2946 192.219 19.3776C192.157 19.4424 192.115 19.5514 192.091 19.7044C192.075 19.8452 192.083 19.9975 192.115 20.1612C192.146 20.3249 192.138 20.5067 192.092 20.7065C192.045 20.9063 191.971 21.0742 191.87 21.2103C191.606 21.5473 191.019 21.9725 190.11 22.486C189.211 22.9975 188.707 23.1895 188.597 23.0619C188.545 23.0084 188.438 22.9758 188.277 22.9643C188.115 22.9528 187.948 22.9636 187.774 22.9969C187.344 23.0792 186.783 22.8632 186.09 22.3488C185.818 22.1464 185.621 22.0038 185.5 21.9211C185.378 21.8383 185.268 21.7904 185.17 21.7774C185.07 21.7541 184.999 21.7729 184.958 21.8339C184.915 21.8846 184.859 21.9801 184.79 22.1205C184.624 22.4706 184.098 22.7727 183.214 23.0269C182.339 23.2792 181.704 23.3108 181.307 23.1216C180.546 22.7476 180.821 22.329 182.132 21.8658C182.161 21.8497 182.196 21.8378 182.237 21.8299C182.943 21.5885 183.459 21.2884 183.782 20.9294C184.106 20.5705 184.277 20.1081 184.296 19.5424C184.319 19.0502 184.4 18.6689 184.539 18.3983C184.711 18.079 184.657 17.3574 184.379 16.2335C184.108 15.0974 183.827 14.4301 183.534 14.2316C183.4 14.1406 183.276 14.0211 183.163 13.8731C183.058 13.7129 182.992 13.5612 182.965 13.4179C182.937 13.2747 182.879 13.1639 182.79 13.0856C182.7 13.0072 182.599 12.9788 182.487 13.0003C182.385 13.0199 182.291 13.0008 182.205 12.9429C182.118 12.8747 182.065 12.7895 182.045 12.6872ZM187.807 16.277C185.702 14.8664 184.609 14.1689 184.527 14.1846C184.445 14.2003 184.58 14.4343 184.932 14.8866C185.292 15.3268 185.496 15.6696 185.543 15.9152C185.56 16.0072 185.619 16.118 185.718 16.2475C185.815 16.3668 185.922 16.4576 186.04 16.5199C186.325 16.6775 186.499 16.92 186.561 17.2473C186.622 17.5645 186.539 17.7926 186.311 17.9317C186.103 18.0669 185.962 18.4651 185.887 19.1264C185.812 19.7877 185.845 20.3488 185.987 20.8096C186.148 21.3196 186.485 21.6952 186.998 21.9364C187.521 22.1756 187.959 22.166 188.313 21.9074C188.664 21.6385 189.138 21.3993 189.734 21.1897C190.003 21.0959 190.224 20.9792 190.399 20.8397C190.572 20.6899 190.672 20.5488 190.7 20.4162C190.707 20.3407 190.719 20.2376 190.736 20.107C190.781 19.8438 190.814 19.6572 190.836 19.547C190.857 19.4369 190.86 19.2878 190.846 19.0997C190.831 18.9116 190.818 18.792 190.809 18.7409C190.797 18.6795 190.733 18.5697 190.618 18.4114C190.511 18.241 190.42 18.1258 190.345 18.0659C190.27 18.0061 190.103 17.8791 189.843 17.6849C189.593 17.4888 189.378 17.3338 189.197 17.2199C189.014 17.0959 188.715 16.8881 188.298 16.5966C188.081 16.458 187.917 16.3514 187.807 16.277Z" fill="white"/>
</svg>
