<svg width="214" height="215" viewBox="0 0 214 215" fill="none" xmlns="http://www.w3.org/2000/svg">
<mask id="path-1-inside-1_24_290" fill="white">
<path fill-rule="evenodd" clip-rule="evenodd" d="M212.584 107.787C212.584 166.166 165.259 213.491 106.88 213.491C48.5012 213.491 1.17581 166.166 1.17581 107.787C1.17581 49.4079 48.5012 2.08252 106.88 2.08252C165.259 2.08252 212.584 49.4079 212.584 107.787ZM89.298 129.289L89.3001 129.291L87.501 156.235C84.8179 156.235 84.5943 155.442 84.0552 153.529C83.9062 153.001 83.7331 152.387 83.4772 151.68L74.4915 122.109L74.497 122.111L134.988 83.9469C137.844 82.2157 140.466 83.1459 138.314 85.0556L89.3003 129.287L89.298 129.289ZM74.4915 122.109L48.3669 113.955C42.7247 112.229 42.6824 108.35 49.633 105.562L151.454 66.3013C156.105 64.1895 160.594 67.4194 158.819 74.5368L141.478 156.249C140.266 162.055 136.759 163.444 131.897 160.761L105.483 141.247L92.7862 153.592L92.6696 153.706C91.2482 155.09 90.0736 156.235 87.501 156.235L150.924 72.552L73.4071 118.54L74.4915 122.109Z"/>
</mask>
<path fill-rule="evenodd" clip-rule="evenodd" d="M212.584 107.787C212.584 166.166 165.259 213.491 106.88 213.491C48.5012 213.491 1.17581 166.166 1.17581 107.787C1.17581 49.4079 48.5012 2.08252 106.88 2.08252C165.259 2.08252 212.584 49.4079 212.584 107.787ZM89.298 129.289L89.3001 129.291L87.501 156.235C84.8179 156.235 84.5943 155.442 84.0552 153.529C83.9062 153.001 83.7331 152.387 83.4772 151.68L74.4915 122.109L74.497 122.111L134.988 83.9469C137.844 82.2157 140.466 83.1459 138.314 85.0556L89.3003 129.287L89.298 129.289ZM74.4915 122.109L48.3669 113.955C42.7247 112.229 42.6824 108.35 49.633 105.562L151.454 66.3013C156.105 64.1895 160.594 67.4194 158.819 74.5368L141.478 156.249C140.266 162.055 136.759 163.444 131.897 160.761L105.483 141.247L92.7862 153.592L92.6696 153.706C91.2482 155.09 90.0736 156.235 87.501 156.235L150.924 72.552L73.4071 118.54L74.4915 122.109Z" fill="url(#paint0_linear_24_290)"/>
<path d="M89.3001 129.291L92.2934 129.491L92.4029 127.851L91.0803 126.876L89.3001 129.291ZM89.298 129.289L87.2304 127.116L84.6382 129.581L87.5178 131.704L89.298 129.289ZM87.501 156.235L87.5009 159.235H87.501V156.235ZM84.0552 153.529L86.9427 152.715L84.0552 153.529ZM83.4772 151.68L80.6068 152.552L80.6296 152.627L80.6564 152.701L83.4772 151.68ZM74.497 122.111L73.6018 124.974L74.9251 125.388L76.0978 124.648L74.497 122.111ZM134.988 83.9469L133.433 81.3813L133.41 81.3952L133.387 81.4096L134.988 83.9469ZM138.314 85.0556L136.323 82.8119L136.314 82.8201L136.304 82.8284L138.314 85.0556ZM89.3003 129.287L87.2904 127.06L87.2613 127.086L87.2328 127.113L89.3003 129.287ZM48.3669 113.955L49.2608 111.091L49.2528 111.089L49.2447 111.086L48.3669 113.955ZM49.633 105.562L48.5537 102.763L48.5349 102.77L48.5161 102.778L49.633 105.562ZM151.454 66.3013L152.534 69.1004L152.615 69.069L152.695 69.0329L151.454 66.3013ZM158.819 74.5368L155.908 73.8106L155.895 73.8621L155.884 73.9141L158.819 74.5368ZM141.478 156.249L138.544 155.626L138.542 155.636L141.478 156.249ZM131.897 160.761L130.114 163.174L130.274 163.292L130.448 163.388L131.897 160.761ZM105.483 141.247L107.266 138.834L105.217 137.32L103.392 139.096L105.483 141.247ZM92.7862 153.592L90.6949 151.441L90.6933 151.443L92.7862 153.592ZM92.6696 153.706L90.5767 151.556L90.5762 151.557L92.6696 153.706ZM150.924 72.552L153.314 74.364L149.393 69.9719L150.924 72.552ZM73.4071 118.54L71.8764 115.96L69.8525 117.161L70.5367 119.413L73.4071 118.54ZM106.88 216.491C166.916 216.491 215.584 167.823 215.584 107.787H209.584C209.584 164.509 163.602 210.491 106.88 210.491V216.491ZM-1.82419 107.787C-1.82419 167.823 46.8444 216.491 106.88 216.491V210.491C50.1581 210.491 4.17581 164.509 4.17581 107.787H-1.82419ZM106.88 -0.91748C46.8444 -0.91748 -1.82419 47.7511 -1.82419 107.787H4.17581C4.17581 51.0648 50.1581 5.08252 106.88 5.08252V-0.91748ZM215.584 107.787C215.584 47.7511 166.916 -0.91748 106.88 -0.91748V5.08252C163.602 5.08252 209.584 51.0648 209.584 107.787H215.584ZM91.0803 126.876L91.0782 126.875L87.5178 131.704L87.5199 131.706L91.0803 126.876ZM90.4943 156.434L92.2934 129.491L86.3067 129.091L84.5077 156.035L90.4943 156.434ZM87.5011 153.235C86.949 153.235 86.7131 153.191 86.6512 153.175C86.6327 153.17 86.6784 153.18 86.7608 153.223C86.8484 153.268 86.9485 153.337 87.0442 153.428C87.2366 153.611 87.2751 153.758 87.2253 153.635C87.2004 153.573 87.1654 153.475 87.1155 153.313C87.0649 153.148 87.0124 152.962 86.9427 152.715L81.1678 154.343C81.2889 154.773 81.4493 155.356 81.6622 155.883C81.8898 156.446 82.253 157.15 82.904 157.77C84.2589 159.062 86.0373 159.235 87.5009 159.235L87.5011 153.235ZM86.9427 152.715C86.7938 152.187 86.5949 151.478 86.2979 150.658L80.6564 152.701C80.8712 153.295 81.0186 153.814 81.1678 154.343L86.9427 152.715ZM86.3476 150.808L77.3619 121.237L71.6211 122.981L80.6068 152.552L86.3476 150.808ZM75.3923 119.248L75.3868 119.246L73.5962 124.972L73.6018 124.974L75.3923 119.248ZM133.387 81.4096L72.8963 119.574L76.0978 124.648L136.589 86.4841L133.387 81.4096ZM140.306 87.2993C141.012 86.6721 142.043 85.5385 142.102 83.9444C142.135 83.0404 141.838 82.1684 141.256 81.4772C140.714 80.8337 140.047 80.485 139.502 80.298C138.446 79.9358 137.329 79.9936 136.41 80.1828C135.434 80.3839 134.416 80.7859 133.433 81.3813L136.543 86.5124C136.989 86.2422 137.369 86.1112 137.621 86.0595C137.929 85.996 137.869 86.081 137.556 85.9737C137.383 85.9142 137.009 85.7498 136.665 85.3409C136.281 84.8844 136.085 84.2974 136.106 83.7221C136.125 83.2104 136.306 82.8875 136.366 82.7928C136.43 82.6914 136.446 82.7029 136.323 82.8119L140.306 87.2993ZM91.3102 131.514L140.324 87.2828L136.304 82.8284L87.2904 127.06L91.3102 131.514ZM91.3655 131.463L91.3679 131.461L87.2328 127.113L87.2304 127.116L91.3655 131.463ZM75.3853 119.245L49.2608 111.091L47.4731 116.819L73.5977 124.973L75.3853 119.245ZM49.2447 111.086C48.0883 110.733 47.501 110.347 47.2659 110.125C47.0819 109.952 47.2998 110.084 47.2628 110.455C47.2371 110.713 47.1323 110.553 47.6965 110.055C48.2413 109.573 49.2081 108.965 50.75 108.347L48.5161 102.778C46.5826 103.554 44.9482 104.476 43.7225 105.559C42.516 106.626 41.4712 108.067 41.2924 109.859C41.1025 111.763 41.9545 113.363 43.1481 114.489C44.2906 115.567 45.8244 116.314 47.4891 116.824L49.2447 111.086ZM50.7123 108.361L152.534 69.1004L150.375 63.5022L48.5537 102.763L50.7123 108.361ZM152.695 69.0329C154.174 68.3611 155.064 68.7304 155.461 69.1144C155.9 69.539 156.644 70.861 155.908 73.8106L161.729 75.2631C162.769 71.0952 162.157 67.2436 159.632 64.8018C157.066 62.3195 153.386 62.1297 150.214 63.5697L152.695 69.0329ZM155.884 73.9141L138.544 155.626L144.413 156.871L161.753 75.1596L155.884 73.9141ZM138.542 155.636C138.02 158.136 137.184 158.791 136.823 158.953C136.447 159.123 135.428 159.283 133.346 158.134L130.448 163.388C133.228 164.922 136.393 165.729 139.289 164.423C142.201 163.11 143.725 160.168 144.415 156.862L138.542 155.636ZM133.679 158.348L107.266 138.834L103.7 143.66L130.114 163.174L133.679 158.348ZM103.392 139.096L90.6949 151.441L94.8776 155.743L107.574 143.397L103.392 139.096ZM90.6933 151.443L90.5767 151.556L94.7626 155.855L94.8792 155.741L90.6933 151.443ZM90.5762 151.557C89.815 152.298 89.4281 152.653 89.0136 152.893C88.7032 153.073 88.2898 153.235 87.501 153.235V159.235C89.2849 159.235 90.7451 158.824 92.0204 158.085C93.1917 157.407 94.1028 156.498 94.7631 155.854L90.5762 151.557ZM148.533 70.7399L85.1101 154.423L89.8919 158.047L153.314 74.364L148.533 70.7399ZM74.9378 121.121L152.454 75.1321L149.393 69.9719L71.8764 115.96L74.9378 121.121ZM77.3619 121.237L76.2775 117.668L70.5367 119.413L71.6211 122.981L77.3619 121.237Z" fill="#B4A79A" mask="url(#path-1-inside-1_24_290)"/>
<defs>
<linearGradient id="paint0_linear_24_290" x1="137.863" y1="180.039" x2="85.0111" y2="56.788" gradientUnits="userSpaceOnUse">
<stop stop-color="#B4A79A"/>
<stop offset="1" stop-color="#B4A79A"/>
</linearGradient>
</defs>
</svg>
