<svg width="266" height="55" viewBox="0 0 266 55" fill="none" xmlns="http://www.w3.org/2000/svg">
<path d="M26.4432 3.74054C26.6628 3.52068 26.84 3.41712 26.9748 3.42988C27.1097 3.44264 27.2643 3.57761 27.4388 3.83477C27.6414 4.126 27.5714 4.42281 27.2289 4.72521C26.8864 5.02762 26.3801 5.23605 25.7101 5.3505C25.4336 5.39757 25.1971 5.46413 25.0006 5.55016C24.8051 5.62583 24.704 5.69996 24.6971 5.77255C24.6912 5.83477 24.6443 5.88788 24.5565 5.93188C24.4686 5.97588 24.3572 5.9915 24.2224 5.97874C23.9311 5.96162 23.6077 6.06181 23.2523 6.27928C23.1086 6.35986 22.9141 6.42515 22.6687 6.47517C22.4233 6.52518 22.2073 6.54136 22.0207 6.52369C21.834 6.50602 21.6501 6.51477 21.4688 6.54993C21.298 6.58608 21.1884 6.63849 21.1401 6.70715C21.0917 6.77582 20.7643 6.80761 20.158 6.80253C19.5526 6.78708 18.8091 6.73764 17.9276 6.65421L14.8788 6.36563L14.8459 7.21004C14.8048 7.86533 14.6517 8.9861 14.3864 10.5723C14.1222 12.1482 13.8627 13.4525 13.608 14.4851C13.2085 16.1633 12.8677 20.2065 12.5855 26.6146C12.5504 27.4274 12.4984 27.9771 12.4294 28.2635C12.3699 28.5613 12.2778 28.7043 12.1534 28.6925C10.9816 28.5816 10.7296 25.0526 11.3977 18.1055C11.5926 16.1568 11.7577 14.7442 11.8929 13.8677C12.0386 12.9921 12.2214 12.2769 12.4413 11.7223C12.8136 10.774 13.0506 9.54082 13.1524 8.02283L13.3037 5.7614L10.2555 5.30023C8.95567 5.10396 7.82062 4.9913 6.85029 4.96223C5.88094 4.9228 4.72177 4.95434 3.37277 5.05684C3.0454 5.08864 2.82729 4.90581 2.71842 4.50837C2.64864 4.25065 2.63744 4.09264 2.68481 4.03434C2.74354 3.96666 2.90771 3.94558 3.17734 3.9711C3.34326 3.9868 3.50127 3.9756 3.65136 3.93749C3.81183 3.90036 3.92191 3.84277 3.98161 3.76471C4.02997 3.69605 4.11784 3.65205 4.24523 3.63272C4.38298 3.61437 4.51212 3.63182 4.63264 3.68508C4.76451 3.72895 4.87809 3.74494 4.97339 3.73303C5.06967 3.71075 5.12075 3.6685 5.12664 3.60628C5.14136 3.45073 6.98749 3.56792 10.665 3.95785C13.7524 4.28147 15.4935 4.51427 15.8881 4.65626C16.1 4.73909 16.2151 4.84939 16.2334 4.98715C16.2666 5.18909 16.3746 5.31964 16.5574 5.37879C16.7411 5.42757 17.1413 5.45499 17.7581 5.46105C18.72 5.46839 19.4468 5.41686 19.9386 5.30645C20.1311 5.2619 20.3368 5.24474 20.5556 5.25499C20.7753 5.25486 20.9304 5.27477 21.0207 5.31471C21.1102 5.36503 21.2714 5.37506 21.5044 5.3448C21.7375 5.31454 21.9735 5.25317 22.2124 5.1607C22.7772 4.94211 23.2463 4.85048 23.6196 4.88582C23.7752 4.90054 23.9564 4.86538 24.1632 4.78033C24.3804 4.69625 24.5576 4.5927 24.6949 4.46966C24.8321 4.34663 24.9937 4.2416 25.1798 4.15459C25.3659 4.06757 25.5212 4.02995 25.6457 4.04173C25.7701 4.05351 25.9083 4.02997 26.0604 3.97112C26.2125 3.91227 26.3401 3.83541 26.4432 3.74054ZM34.5233 7.25193C34.6368 7.15804 34.7738 7.09253 34.9343 7.05541C35.0957 7.00791 35.232 7.00511 35.3431 7.04702C35.4552 7.07856 35.5017 7.1405 35.4825 7.23285C35.4505 7.46002 35.2832 7.67961 34.9807 7.89162C34.6885 8.10462 34.357 8.23542 33.9861 8.28403C33.7738 8.31625 33.4739 8.44481 33.0864 8.66972C32.7103 8.88523 32.3571 9.13431 32.0269 9.41695C31.7989 9.6151 31.6338 9.75642 31.5316 9.84092C31.4398 9.9264 31.3347 10.042 31.2163 10.1877C31.1082 10.3345 31.0352 10.4427 30.9972 10.5123C30.9706 10.5726 30.9324 10.6997 30.8827 10.8938C30.8442 11.0785 30.8182 11.2435 30.8044 11.3887C30.802 11.5245 30.796 11.7541 30.7863 12.0775C30.7507 12.7856 30.7648 13.2997 30.8287 13.6196C30.9029 13.9405 31.078 14.3024 31.3537 14.7052C31.5282 14.9623 31.7118 15.1785 31.9044 15.3537C32.0971 15.5289 32.2359 15.61 32.3209 15.5972C32.4068 15.5739 32.5344 15.6069 32.7039 15.6962C32.8837 15.7864 33.0501 15.9068 33.2033 16.0574C33.3565 16.2079 33.5728 16.3539 33.8524 16.4955C34.132 16.637 34.3895 16.7346 34.6251 16.7883C35.4751 16.9839 36.7791 17.3009 38.5373 17.7393C39.1092 17.8876 39.373 18.0852 39.3287 18.3322C39.2948 18.5801 38.9942 18.7714 38.4269 18.906C38.0097 19.0025 37.547 19.0267 37.0388 18.9786C36.6127 18.9488 36.0745 18.9972 35.4242 19.124C34.7843 19.2518 34.2193 19.418 33.729 19.6228C33.2502 19.8181 33.0029 19.9987 32.9872 20.1646C32.9725 20.3202 32.8821 20.3901 32.7162 20.3744C32.5399 20.3577 32.1287 20.6118 31.4827 21.1366C30.8366 21.6614 30.5052 22.0119 30.4885 22.1882C30.4807 22.2712 30.4484 22.3361 30.3916 22.3831C30.3452 22.431 30.2857 22.4515 30.2131 22.4446C30.0161 22.426 29.6645 22.8792 29.1584 23.8044C28.6627 24.7306 28.3927 25.427 28.3486 25.8937C28.3211 26.184 28.3066 26.3919 28.3052 26.5173C28.3038 26.6428 28.3565 26.8047 28.4633 27.0032C28.5701 27.2016 28.7 27.3761 28.8532 27.5266C29.0054 27.6875 29.2732 27.9535 29.6566 28.3246C30.2213 28.8803 30.7971 29.2644 31.3838 29.4769C31.9706 29.6893 33.1292 29.9403 34.8596 30.2296C36.2912 30.4697 37.1762 30.6268 37.5145 30.7006C37.8528 30.7745 38.6427 30.8859 39.8842 31.0348C40.9296 31.1547 41.4734 31.2689 41.5154 31.3775C41.5416 31.4323 41.5088 31.5025 41.417 31.5879C41.3356 31.6744 41.1929 31.7446 40.989 31.7985C40.7851 31.8525 40.5903 31.8654 40.4046 31.8374C39.9399 31.7725 39.5333 31.8125 39.1848 31.9574C39.0441 32.0068 38.7597 32.027 38.3315 32.0179C37.9128 32.0201 37.4767 31.984 37.0234 31.9097L33.6018 31.4132C33.0966 31.334 32.6047 31.2247 32.1262 31.0852C31.6476 30.9458 31.3053 30.8035 31.0993 30.6584C30.6177 30.3303 30.2783 30.157 30.0813 30.1383C29.9983 30.1305 29.8548 30.0436 29.6508 29.8778C29.4571 29.713 29.2565 29.5109 29.049 29.2716C28.8415 29.0322 28.6305 28.8291 28.4161 28.6623C28.2121 28.4965 28.0582 28.4087 27.9545 28.3989C27.8508 28.3891 27.7646 28.36 27.6959 28.3117C27.6367 28.2747 27.6095 28.2302 27.6144 28.1784C27.6271 28.0436 27.4566 27.7449 27.1028 27.2824C26.4035 26.3792 26.2587 25.7534 26.6684 25.405C26.8974 25.1965 27.4071 24.4548 28.1974 23.1798C28.5684 22.5767 29.0526 21.9372 29.6502 21.2613C30.2582 20.5864 30.8218 20.0486 31.3411 19.6478C31.8613 19.2367 32.1948 19.0852 32.3415 19.1932C32.3904 19.2292 32.4546 19.2144 32.534 19.1487C32.6135 19.0829 32.6803 18.9846 32.7346 18.8538C32.7898 18.7125 32.8794 18.5954 33.0033 18.5025C33.1375 18.4106 33.2669 18.3705 33.3913 18.3823C33.7024 18.4117 33.9095 18.379 34.0127 18.2842C34.1479 18.1819 34.1641 18.0107 34.0613 17.7708C33.9584 17.5309 33.8085 17.4016 33.6115 17.383C33.5077 17.3731 33.4216 17.3441 33.3529 17.2957C33.2956 17.238 33.2704 17.1728 33.2772 17.1002C33.2831 17.038 33.2559 16.9936 33.1957 16.9669C33.1354 16.9403 33.0572 16.9381 32.9609 16.9604C32.7032 17.0302 32.3298 16.885 31.8407 16.5248C31.363 16.1552 30.8904 15.6763 30.4229 15.0879C29.9554 14.4996 29.626 13.9452 29.4346 13.4249C29.2105 12.8073 29.1289 12.177 29.1898 11.534C29.262 10.8817 29.4565 10.4293 29.7734 10.1767C30.1347 9.89704 30.432 9.57466 30.6654 9.20961C30.7631 9.06191 30.8847 8.9374 31.0303 8.83609C31.176 8.73477 31.2954 8.68853 31.3888 8.69737C31.4925 8.70718 31.5836 8.68442 31.662 8.62907C31.7405 8.57371 31.7842 8.49937 31.793 8.40604C31.8107 8.21937 32.0439 8.02172 32.4926 7.81308C32.9517 7.60541 33.3751 7.499 33.7627 7.49384C34.0654 7.50156 34.319 7.42093 34.5233 7.25193ZM35.9409 7.19778C36.0312 7.01798 36.3724 6.95087 36.9645 6.99645C37.5566 7.04203 38.2129 7.18263 38.9335 7.41824C39.6551 7.64349 40.2369 7.90783 40.679 8.21125C41.3968 8.69772 41.7459 9.04466 41.7262 9.25206C41.7061 9.35479 41.6138 9.44545 41.4494 9.52406C41.3729 9.55867 41.3013 9.6513 41.2347 9.80195C41.1691 9.94222 41.1275 10.1057 41.1098 10.2924C41.0932 10.4687 41.036 10.6307 40.9383 10.7784C40.8406 10.9261 40.7276 11.0148 40.5992 11.0445C40.4708 11.0742 40.2946 11.1673 40.0705 11.324C39.8464 11.4807 39.6421 11.6497 39.4575 11.831C39.2843 12.0029 39.0767 12.1507 38.8348 12.2743C38.5939 12.3875 38.3957 12.4368 38.2401 12.422C38.095 12.4083 37.9365 12.4247 37.7646 12.4712C37.5938 12.5074 37.4635 12.5578 37.3736 12.6225C37.2591 12.7268 37.1034 12.7696 36.9063 12.751C36.7197 12.7333 36.5685 12.6719 36.4529 12.5668C36.3373 12.4617 36.3061 12.3489 36.3594 12.2283C36.4393 12.0476 36.853 11.8775 37.6005 11.718C38.3584 11.5596 38.8522 11.5383 39.0819 11.6542C39.3115 11.7701 39.4396 11.6881 39.4661 11.4081C39.4769 11.294 39.5117 11.2031 39.5704 11.1354C39.6301 11.0574 39.6963 11.0218 39.7689 11.0287C39.8415 11.0355 39.9034 10.9891 39.9547 10.8893C40.0174 10.7801 40.0565 10.6426 40.0722 10.4767C40.1095 10.0826 40.2081 9.81464 40.368 9.67283C40.5393 9.52163 40.5757 9.2478 40.4772 8.85133C40.397 8.59263 40.2915 8.43616 40.1606 8.38192C40.0307 8.3173 39.7451 8.2955 39.3036 8.31649C38.6301 8.35738 38.2451 8.27909 38.1487 8.08162C38.1038 8.00412 37.9541 7.92718 37.6997 7.85079C37.4567 7.76501 37.1797 7.70739 36.8686 7.67795C36.4227 7.63574 36.1347 7.58233 36.0048 7.51772C35.8853 7.45409 35.864 7.34744 35.9409 7.19778ZM55.4983 9.83365C55.921 9.01568 56.4254 8.44085 57.0113 8.10917C57.5973 7.77749 57.9576 7.61803 58.0925 7.63079C58.3102 7.65141 58.1254 10.4328 57.5381 15.9751C57.3073 18.1923 57.2746 19.3664 57.4401 19.4971C57.5192 19.5465 57.5701 19.6716 57.5929 19.8726C57.6271 20.0641 57.6334 20.274 57.6118 20.5021C57.5971 20.6577 57.5863 20.7718 57.5794 20.8444C57.5829 20.9179 57.5968 20.9925 57.621 21.068C57.6453 21.1436 57.6668 21.1927 57.6856 21.2154C57.7147 21.2391 57.7853 21.2667 57.8975 21.2982C58.0105 21.3194 58.1142 21.3292 58.2086 21.3277C58.3132 21.3271 58.4806 21.3273 58.7108 21.3281C59.4831 21.3489 60.1599 21.4391 60.7412 21.5988C61.0869 21.7047 61.3119 21.815 61.4161 21.9295C61.5214 22.0336 61.5622 22.2101 61.5386 22.459C61.5043 22.822 61.338 23.0312 61.0398 23.0867C60.7425 23.1318 60.1383 23.0484 59.2272 22.8366C58.3056 22.6238 57.7937 22.5597 57.6916 22.6442C57.6472 22.6714 57.6425 22.7756 57.6777 22.9568C57.7232 23.139 57.7979 23.3448 57.9017 23.5744C58.1534 24.1214 58.265 24.5452 58.2365 24.846C58.2081 25.1467 58.2952 25.5526 58.498 26.0635C58.7111 26.5755 58.8034 26.9818 58.775 27.2825C58.7426 27.6248 58.8345 28.256 59.0509 29.1763C59.2672 30.0967 59.4895 30.7874 59.7179 31.2484C59.9622 31.7633 60.3034 32.1932 60.7416 32.5381C61.1892 32.8944 61.5438 33.0169 61.8054 32.9056C62.2616 32.7291 62.8131 32.6505 63.46 32.6699C64.1069 32.6892 64.4993 32.7996 64.6372 33.001C64.9036 33.3924 64.5966 33.6511 63.7162 33.7771C63.2822 33.8301 62.72 33.8554 62.0297 33.8529C61.2554 33.8528 60.7307 33.8136 60.4556 33.7353C60.1806 33.6569 59.879 33.4714 59.5509 33.1788C59.175 32.8398 58.7778 32.2267 58.3596 31.3396C57.9517 30.4535 57.7664 29.8134 57.8037 29.4193C57.8154 29.2948 57.7956 29.1726 57.7442 29.0527C57.7022 28.9441 57.6411 28.8703 57.5611 28.8313C57.4801 28.8027 57.3995 28.6591 57.3194 28.4004C57.2486 28.153 57.2021 27.8713 57.1797 27.5553C57.1165 26.7855 57.0054 25.9693 56.8464 25.1068C56.8335 25.0218 56.8137 24.8996 56.7869 24.7402C56.723 24.4202 56.6814 24.1965 56.6621 24.0692C56.6438 23.9314 56.6071 23.7657 56.5522 23.5722C56.4982 23.3683 56.4582 23.239 56.432 23.1842C56.4171 23.12 56.3721 23.0425 56.297 22.9517C56.2229 22.8505 56.1656 22.7927 56.1251 22.7784C56.0846 22.7641 55.9979 22.7402 55.8651 22.7067C55.7426 22.6742 55.6394 22.6592 55.5554 22.6617C55.4725 22.6539 55.3268 22.6453 55.1184 22.6361C55.0251 22.6272 54.9525 22.6204 54.9006 22.6155C53.9323 22.5656 53.1726 22.5774 52.6215 22.6508C52.2403 22.6985 51.991 22.79 51.8736 22.9253C51.7571 23.0503 51.6324 23.3734 51.4993 23.8944C51.3003 24.6708 51.0037 25.4274 50.6096 26.1644L49.6936 27.8826C49.4771 28.2911 49.2793 28.6124 49.1001 28.8466C48.9201 29.0911 48.7114 29.4167 48.4741 29.8232C48.2368 30.2297 47.7369 30.7579 46.9744 31.4077C46.2212 32.0688 45.7409 32.3896 45.5335 32.3699C45.4402 32.3611 45.3605 32.3745 45.2943 32.4101C45.2282 32.4457 45.1926 32.4894 45.1877 32.5412C45.171 32.7175 44.7968 32.9123 44.0652 33.1256C43.3429 33.3502 42.8768 33.4107 42.6668 33.3071C42.2677 33.1019 42.2469 32.8802 42.6042 32.642C42.8273 32.4957 43.2218 32.3081 43.7875 32.0791C44.765 31.7008 45.5561 31.2473 46.1607 30.7186C46.7653 30.1898 47.3305 29.4691 47.8564 28.5562C48.0557 28.2193 48.2488 28.0022 48.4359 27.9048C48.5125 27.8702 48.5835 27.7828 48.6491 27.6425C48.7147 27.5022 48.7544 27.3595 48.7681 27.2143C48.8034 26.841 48.9558 26.4473 49.2252 26.0334C49.4955 25.609 49.7192 25.0704 49.896 24.4175C50.0833 23.7656 50.2327 23.2932 50.3441 23.0003C50.4116 22.8393 50.4121 22.7242 50.3454 22.6551C50.289 22.587 50.1364 22.5412 49.8875 22.5176C49.7216 22.5019 49.569 22.4561 49.4297 22.3801C49.2904 22.3042 49.2096 22.218 49.1873 22.1218C49.1567 22.0038 49.1102 21.9418 49.048 21.9359C48.9867 21.9197 48.8828 21.9674 48.7362 22.0791C48.4988 22.2659 48.1712 22.3552 47.7535 22.347C47.3367 22.3285 46.9749 22.2263 46.6682 22.0403C46.3624 21.8439 46.2213 21.6213 46.2449 21.3724C46.2635 21.1754 46.3691 21.0546 46.5617 21.01C46.7853 20.9684 47.4572 21.0006 48.5772 21.1066L50.8638 21.3231L50.9595 20.312C50.987 20.0216 51.0427 19.7653 51.1265 19.543C51.2207 19.3217 51.3169 19.1896 51.4151 19.1466C51.656 19.0334 51.8791 18.3901 52.0843 17.2167C52.1719 16.7332 52.2744 16.3139 52.3917 15.9588C52.51 15.5933 52.6064 15.4036 52.681 15.3898C52.7669 15.3665 52.8407 15.3055 52.9024 15.2067C52.964 15.1079 53.0007 14.9963 53.0125 14.8718C53.041 14.5711 53.3596 13.8584 53.9683 12.7336L55.4983 9.83365ZM56.3139 14.9803C56.6812 11.5413 56.8182 9.81733 56.7249 9.80849C56.6316 9.79966 56.5687 9.96635 56.5363 10.3086C56.5039 10.6508 56.2867 11.122 55.8846 11.7222C55.4825 12.3224 55.2682 12.7625 55.2417 13.0425C55.2162 13.3121 55.141 13.4986 55.0161 13.6019C54.8231 13.7615 54.5381 14.3413 54.1609 15.3415C53.7941 16.3426 53.5876 17.0869 53.5415 17.5743C53.516 17.844 53.4485 18.1148 53.339 18.387C53.2399 18.6601 53.1383 18.8493 53.0342 18.9545C52.9197 19.0588 52.7911 19.2559 52.6486 19.5458C52.5174 19.8264 52.4164 20.1203 52.3454 20.4274L52.0542 21.5142L53.1919 21.4336C54.1928 21.3609 55.112 21.3223 55.9494 21.3179C56.0852 21.3203 56.1566 21.2852 56.1634 21.2126C56.1713 21.1296 56.1238 20.9682 56.0209 20.7282C55.9275 20.4997 55.9007 19.9531 55.9407 19.0884C55.9807 18.2237 56.1051 16.8544 56.3139 14.9803ZM77.8831 11.4502C78.4958 11.278 79.2382 11.2279 80.1103 11.3C80.9928 11.3731 81.7192 11.5464 82.2897 11.8202C82.7812 12.0446 83.1616 12.3369 83.4309 12.6972C83.7116 13.0482 83.9267 13.5394 84.0762 14.1708C84.1776 14.5362 84.178 14.8083 84.0774 14.9871C83.9768 15.1659 83.655 15.4703 83.1121 15.9002C82.7942 16.1631 82.4623 16.4089 82.1162 16.6378C81.7816 16.8572 81.5335 16.9907 81.3721 17.0382C80.9944 17.1594 80.6614 17.3057 80.3731 17.4772C80.1851 17.585 79.9925 17.6296 79.7955 17.6109C79.5984 17.5923 79.4478 17.5257 79.3435 17.4112C79.2496 17.2977 79.2412 17.1661 79.3181 17.0164C79.3694 16.9166 79.5009 16.7983 79.7127 16.6614C79.9358 16.5151 80.1777 16.3915 80.4384 16.2906C81.0343 16.075 81.5313 15.7977 81.9296 15.4587C82.3279 15.1197 82.5588 14.7806 82.6223 14.4413C82.6937 14.0191 82.5377 13.6224 82.1543 13.2513C81.7812 12.8811 81.288 12.62 80.6746 12.4677C80.0716 12.3165 79.4102 12.2853 78.6903 12.3741L76.4128 12.7235C76.0731 12.7751 75.7791 12.8414 75.5308 12.9226C75.2928 13.0047 75.1709 13.0768 75.165 13.1391C75.1591 13.2013 75.1179 13.2497 75.0414 13.2843C74.9752 13.3199 74.8903 13.3328 74.7866 13.323C74.4237 13.2886 73.8138 13.707 72.9571 14.578C72.1013 15.4387 71.3027 16.4147 70.5612 17.5059C69.83 18.5981 69.4389 19.4139 69.3878 19.9531C69.3397 20.4613 69.1457 21.0184 68.8059 21.6245C68.6273 21.9633 68.4972 22.3434 68.4154 22.7646C68.3337 23.1859 68.2896 23.7624 68.2831 24.4942C68.2636 25.6956 68.2997 26.7506 68.3916 27.6592C68.4835 28.5677 68.6095 29.0609 68.7695 29.1388C68.8401 29.1665 68.8923 29.2237 68.9259 29.3106C68.9709 29.3881 68.9899 29.4631 68.9831 29.5357C68.9624 29.7535 69.3457 30.292 70.1328 31.1513C70.9293 32.0219 71.5657 32.5948 72.0418 32.8701C72.5274 33.1567 73.1221 33.3961 73.8259 33.5882C74.54 33.7814 75.644 34.001 77.1379 34.247C80.2802 34.7642 82.003 35.0789 82.3063 35.1913C82.4757 35.2806 82.5545 35.3875 82.5428 35.5119C82.5202 35.7505 82.26 35.8462 81.7622 35.799C81.5548 35.7794 81.361 35.782 81.1808 35.8068C81.0109 35.8326 80.9028 35.8694 80.8564 35.9173C80.7711 36.0453 79.7338 36.0046 77.7447 35.7954C75.7555 35.5862 74.353 35.3698 73.5372 35.1461C72.8739 34.9682 72.543 34.8166 72.5444 34.6911C72.5483 34.6496 72.5853 34.5904 72.6554 34.5133C72.7822 34.3893 72.817 34.2984 72.7596 34.2407C72.7117 34.1943 72.5478 34.1578 72.2678 34.1313C71.5729 34.0656 70.733 33.5989 69.7478 32.7314C68.7617 31.8742 68.099 31.0268 67.7598 30.189C67.4888 29.5146 67.2856 29.1187 67.1503 29.0013C67.0149 28.8838 66.9483 28.5375 66.9504 27.9622C66.9535 27.3766 66.8406 26.8008 66.6117 26.2351C66.4771 25.8875 66.4103 25.5987 66.4112 25.3686C66.4234 25.1291 66.5052 24.8177 66.6565 24.4344C66.9144 23.8101 67.1111 23.1696 67.2465 22.5127C67.3932 21.8465 67.5762 21.3511 67.7952 21.0266C68.0153 20.6916 68.1725 20.2461 68.267 19.6901C68.3595 19.1547 68.7368 18.3743 69.3989 17.3488C70.0723 16.3139 70.8105 15.3689 71.6134 14.5136C72.2081 13.8689 72.9213 13.2981 73.753 12.8014C74.5848 12.3046 75.2081 12.0759 75.6229 12.1151C75.737 12.1259 75.8323 12.114 75.9088 12.0794C75.9967 12.0354 76.044 11.9771 76.0509 11.9045C76.0578 11.8319 76.1051 11.7736 76.193 11.7297C76.2809 11.6857 76.387 11.6695 76.5115 11.6813C76.8132 11.6994 77.2704 11.6224 77.8831 11.4502ZM100.919 11.496C101.42 11.397 101.886 11.5039 102.317 11.8167C102.758 12.1305 103.017 12.5473 103.093 13.0673C103.154 13.523 103.32 13.7113 103.589 13.6321C103.663 13.6183 103.721 13.6133 103.763 13.6172C103.816 13.6117 103.844 13.6406 103.849 13.7038C103.865 13.7576 103.868 13.8364 103.858 13.9401C103.849 14.0334 103.821 14.1616 103.774 14.3246C103.638 14.8767 103.474 15.5674 103.28 16.3966C103.204 16.7556 103.066 17.1611 102.867 17.613C102.678 18.0556 102.481 18.4241 102.276 18.7185C102.08 19.0139 101.904 19.3268 101.747 19.6573C101.602 19.9783 101.521 20.2218 101.505 20.3877C101.489 20.564 101.439 20.7058 101.355 20.813C101.283 20.9108 101.19 20.9543 101.076 20.9435C100.817 20.919 100.667 21.1245 100.625 21.56C100.609 21.7363 100.557 21.8988 100.469 22.0475C100.382 22.1962 100.285 22.2864 100.177 22.318C99.9089 22.3868 99.7101 23.1057 99.5805 24.4745C99.4509 25.8434 99.4426 27.3127 99.5557 28.8824C99.6602 30.4304 99.6703 31.6504 99.5859 32.5422C99.5506 32.9155 99.5466 33.2343 99.5739 33.4984C99.6012 33.7626 99.646 33.8976 99.7082 33.9035C99.7808 33.9104 99.8396 33.9526 99.8845 34.0301C99.9295 34.1076 99.9471 34.1982 99.9373 34.3019C99.9275 34.4056 99.9816 34.552 100.1 34.741C100.218 34.9301 100.363 35.106 100.536 35.2689C100.796 35.5132 101.078 35.6811 101.383 35.7728C101.698 35.8758 102.224 35.957 102.961 36.0163C104.166 36.1094 104.877 36.1715 105.094 36.2025C105.227 36.2256 105.311 36.2806 105.345 36.3675C105.389 36.4554 105.376 36.5379 105.306 36.6149C105.236 36.692 105.133 36.7242 104.998 36.7114C104.905 36.7026 104.788 36.7281 104.646 36.7879C104.503 36.8581 104.385 36.9411 104.293 37.037C104.027 37.3048 103.47 37.3777 102.624 37.2557C101.777 37.1441 101.027 36.8848 100.375 36.4778C100.068 36.2918 99.8075 36.1154 99.5931 35.9487C99.3891 35.7829 99.29 35.6689 99.2959 35.6066C99.3008 35.5548 99.2637 35.5042 99.1847 35.4549C99.116 35.4065 99.0298 35.3774 98.9261 35.3676C98.8328 35.3588 98.7481 35.3141 98.672 35.2337C98.6063 35.1542 98.5783 35.0626 98.5881 34.9589C98.5979 34.8552 98.5809 34.7594 98.5369 34.6716C98.4919 34.5941 98.4383 34.5524 98.3761 34.5465C98.3035 34.5396 98.2452 34.4922 98.2012 34.4044C98.1572 34.3165 98.1411 34.2103 98.1528 34.0859C98.1813 33.7852 98.097 33.2383 97.9 32.4454C97.8154 32.1235 97.7524 31.5734 97.7109 30.7952C97.6799 30.018 97.6747 29.2433 97.6955 28.471C97.7665 26.6152 97.6966 25.6408 97.4857 25.5475C97.4057 25.5086 97.3316 25.5173 97.2635 25.5736C97.1964 25.6196 97.1574 25.6996 97.1466 25.8137C97.1358 25.9277 97.1057 26.0243 97.0564 26.1033C97.0081 26.172 96.9528 26.2034 96.8905 26.1975C96.8387 26.1926 96.7101 26.2798 96.5048 26.4592C96.2995 26.6385 96.0799 26.8584 95.846 27.1188C95.6121 27.3791 95.3764 27.6027 95.139 27.7895C94.9129 27.9669 94.7532 28.0512 94.6599 28.0424C94.4318 28.0208 94.3615 28.1554 94.449 28.4462C94.5376 28.7266 94.5992 29.0149 94.634 29.3112C94.6687 29.6075 94.7301 30.3405 94.8182 31.5102C94.8745 32.3526 94.8738 32.9123 94.8162 33.1894C94.768 33.4778 94.602 33.8492 94.3184 34.3037C94.0367 34.7374 93.763 35.0306 93.4975 35.1834C93.2413 35.3475 92.7493 35.5154 92.0215 35.6872C91.1862 35.8906 90.5154 35.9579 90.0092 35.8891C89.5124 35.8316 89.2787 35.6473 89.3082 35.3362C89.318 35.2325 89.2952 35.1414 89.2399 35.0629C89.1835 34.9948 89.1087 34.9563 89.0154 34.9475C88.6835 34.9161 88.3288 34.5738 87.9511 33.9207C87.5725 33.278 87.3781 32.6789 87.3679 32.1234C87.3593 30.8879 88.1022 30.0584 89.5967 29.6349C90.2104 29.4523 90.6628 29.2597 90.954 29.0571C91.077 28.9745 91.2191 28.9095 91.3806 28.862C91.5534 28.8051 91.6968 28.7821 91.8109 28.7929C91.925 28.8037 92.0254 28.7923 92.1123 28.7586C92.2002 28.7146 92.2471 28.6615 92.253 28.5993C92.2687 28.4334 92.4179 28.2382 92.7007 28.0139C92.87 27.8834 92.9702 27.7098 93.0012 27.493C93.0435 27.2668 93.0378 26.8844 92.9842 26.3457C92.9082 25.491 92.9143 24.5969 93.0026 23.6636C93.091 22.7303 93.2173 22.2243 93.3817 22.1457C93.4469 22.1205 93.5379 21.878 93.6546 21.4182C93.7827 20.949 93.9027 20.4006 94.0144 19.7729C94.1271 19.1348 94.2418 18.5859 94.3586 18.1261C94.4867 17.6569 94.5787 17.404 94.6344 17.3675C94.7006 17.3319 94.7662 17.1916 94.8312 16.9466C94.8972 16.6913 94.945 16.4081 94.9744 16.097C95.0353 15.454 95.0247 15.1234 94.9427 15.1052C94.8919 15.0899 94.7936 15.1329 94.648 15.2343C94.458 15.3628 93.9654 15.426 93.1704 15.424C92.3868 15.4126 91.6344 15.3466 90.9134 15.2261C90.1924 15.1055 89.8128 14.9702 89.7747 14.8201C89.7525 14.7238 89.6665 14.6372 89.5168 14.5603C89.3785 14.4739 89.2108 14.4214 89.0138 14.4028C88.8271 14.3851 88.5982 14.3164 88.327 14.1965C88.0663 14.0777 87.8338 13.9353 87.6298 13.7695C87.4258 13.6037 87.1985 13.4619 86.9481 13.344C86.709 13.2168 86.5117 13.1458 86.3562 13.1311C86.0243 13.0997 85.8073 13.0163 85.705 12.8811C85.614 12.7365 85.6519 12.5569 85.8187 12.3425C85.9041 12.2146 85.9986 12.1555 86.1023 12.1653C86.207 12.1648 86.3581 12.2262 86.5557 12.3495C86.8906 12.5696 87.3173 12.7041 87.8359 12.7532C88.3544 12.8023 88.7063 13.0082 88.8917 13.3711C88.9703 13.5354 89.0985 13.6731 89.2764 13.7841C89.4542 13.8951 89.6416 13.96 89.8387 13.9786C90.0357 13.9973 90.2096 14.0399 90.3602 14.1065C90.5222 14.1636 90.6205 14.2305 90.6551 14.307C90.7421 14.4931 91.2553 14.5992 92.1945 14.6254C93.1337 14.6515 93.7055 14.58 93.9098 14.411C94.0006 14.3359 94.1216 14.2741 94.2726 14.2257C94.4237 14.1772 94.5563 14.1583 94.6704 14.1691C94.7948 14.1809 94.9365 14.1211 95.0954 13.9896C95.2553 13.8478 95.3918 13.6776 95.5047 13.4791C95.6596 13.1694 95.8032 12.9789 95.9355 12.9077C96.0791 12.8272 96.2843 12.8152 96.551 12.8718C96.6952 12.8959 96.7969 12.9265 96.8562 12.9635C96.9164 12.9901 96.9705 13.0266 97.0185 13.073C97.0777 13.11 97.1062 13.1964 97.1038 13.3322C97.1024 13.4576 97.0948 13.5929 97.0811 13.7381C97.0683 13.8729 97.0425 14.0902 97.0037 14.39C96.8546 15.4117 96.6149 16.6185 96.2843 18.0102C95.9652 19.3925 95.7412 20.156 95.6124 20.3008C95.5443 20.3571 95.4541 20.6468 95.3418 21.1698C95.2295 21.6928 95.1264 22.2847 95.0325 22.9454C94.787 24.544 94.5868 25.4981 94.4319 25.8078C94.3027 26.0676 94.3418 26.2074 94.5492 26.227C94.7991 26.2402 95.0514 26.1176 95.306 25.8592C95.3874 25.7727 95.4533 25.6848 95.5036 25.5954C95.5796 25.4561 95.6748 25.3343 95.7893 25.23C95.9142 25.1268 96.0181 25.079 96.1011 25.0869C96.184 25.0948 96.2709 25.0611 96.3617 24.986C96.4525 24.9109 96.5194 24.8126 96.5623 24.6911C96.6841 24.3992 96.9523 24.0531 97.3668 23.6529C97.6906 23.3278 97.8955 22.9862 97.9817 22.6282C98.0689 22.2598 98.092 21.6289 98.051 20.7357C98.04 20.4103 98.0556 20.1345 98.0979 19.9083C98.1412 19.6717 98.2068 19.5314 98.2947 19.4874C98.4818 19.3901 98.4775 19.2693 98.2819 19.1252C98.0966 18.9822 98.0858 18.1022 98.2493 16.4854C98.3529 15.5012 98.4611 14.8 98.5739 14.3817C98.6878 13.953 98.8646 13.5773 99.1044 13.2548C99.4996 12.7271 99.7571 12.3278 99.877 12.0566C99.9396 11.9474 100.065 11.839 100.253 11.7312C100.452 11.6141 100.674 11.5357 100.919 11.496ZM101.887 15.5271C101.965 15.252 102.015 14.9532 102.035 14.6307C102.065 14.3093 102.059 13.9895 102.016 13.6716C101.983 13.3546 101.926 13.1294 101.844 12.9961C101.709 12.7636 101.6 12.6435 101.517 12.6356C101.434 12.6278 101.248 12.72 100.957 12.9122C100.79 13.0219 100.646 13.1652 100.524 13.3421C100.403 13.5189 100.341 13.6752 100.339 13.811C100.299 14.7804 100.263 15.6088 100.229 16.2961C100.195 16.9835 100.157 17.5554 100.114 18.0117C100.082 18.4586 100.046 18.7847 100.005 18.9902C99.9651 19.1956 99.9189 19.2959 99.8671 19.291C99.8049 19.2851 99.7481 19.332 99.6968 19.4318C99.6569 19.5222 99.6352 19.6405 99.6318 19.7866C99.6192 20.1412 99.6754 20.3767 99.8004 20.4932C99.8853 20.4803 99.9445 20.4074 99.978 20.2746C100.003 20.0153 100.169 19.6439 100.476 19.1603C100.589 18.9617 100.709 18.6853 100.837 18.3312C100.975 17.9781 101.068 17.6573 101.116 17.3689C101.175 17.0815 101.253 16.8064 101.351 16.5436C101.46 16.2818 101.554 16.1181 101.633 16.0524C101.724 15.9773 101.809 15.8022 101.887 15.5271ZM93.2266 30.4179C93.2165 30.0821 93.1864 29.7915 93.1364 29.5461C93.0968 29.3017 93.0562 29.1776 93.0147 29.1736C92.8997 29.1732 92.431 29.427 91.6086 29.9351C90.7976 30.4339 90.3242 30.682 90.1884 30.6796C89.979 30.6807 89.7053 30.8641 89.3673 31.2297C89.0406 31.5859 88.8294 31.9374 88.7338 32.2841C88.5515 32.8842 88.7239 33.4393 89.2511 33.9496C89.7773 34.4703 90.4337 34.7207 91.2203 34.701C91.7654 34.6898 92.1458 34.595 92.3615 34.4167C92.5772 34.2383 92.7757 33.8542 92.9571 33.2645C93.1099 32.7558 93.2 32.3563 93.2275 32.0659C93.255 31.7756 93.2547 31.2262 93.2266 30.4179ZM114.696 14.8404C114.81 14.7465 114.947 14.681 115.107 14.6439C115.269 14.5964 115.405 14.5936 115.516 14.6355C115.628 14.667 115.675 14.729 115.655 14.8213C115.623 15.0485 115.456 15.2681 115.154 15.4801C114.861 15.6931 114.53 15.8239 114.159 15.8725C113.947 15.9047 113.647 16.0333 113.259 16.2582C112.883 16.4737 112.53 16.7228 112.2 17.0054C111.972 17.2036 111.807 17.3449 111.705 17.4294C111.613 17.5149 111.508 17.6305 111.389 17.7762C111.281 17.9229 111.208 18.0311 111.17 18.1008C111.144 18.161 111.105 18.2882 111.056 18.4823C111.017 18.667 110.991 18.832 110.977 18.9771C110.975 19.1129 110.969 19.3425 110.959 19.666C110.924 20.3741 110.938 20.8882 111.002 21.2081C111.076 21.529 111.251 21.8909 111.527 22.2937C111.701 22.5508 111.885 22.767 112.077 22.9422C112.27 23.1174 112.409 23.1985 112.494 23.1856C112.58 23.1624 112.707 23.1954 112.877 23.2847C113.057 23.3749 113.223 23.4953 113.376 23.6458C113.529 23.7963 113.746 23.9424 114.025 24.0839C114.305 24.2255 114.562 24.3231 114.798 24.3768C115.648 24.5724 116.952 24.8894 118.71 25.3278C119.282 25.4761 119.546 25.6737 119.502 25.9206C119.468 26.1686 119.167 26.3598 118.6 26.4945C118.183 26.591 117.72 26.6152 117.212 26.5671C116.786 26.5373 116.247 26.5857 115.597 26.7125C114.957 26.8403 114.392 27.0065 113.902 27.2112C113.423 27.4066 113.176 27.5872 113.16 27.7531C113.145 27.9087 113.055 27.9786 112.889 27.9629C112.713 27.9462 112.302 28.2003 111.656 28.725C111.009 29.2498 110.678 29.6004 110.661 29.7767C110.654 29.8596 110.621 29.9246 110.565 29.9715C110.518 30.0195 110.459 30.04 110.386 30.0331C110.189 30.0145 109.837 30.4677 109.331 31.3929C108.836 32.3191 108.566 33.0155 108.521 33.4821C108.494 33.7725 108.48 33.9804 108.478 34.1058C108.477 34.2313 108.529 34.3932 108.636 34.5916C108.743 34.7901 108.873 34.9646 109.026 35.1151C109.178 35.276 109.446 35.542 109.829 35.9131C110.394 36.4688 110.97 36.8529 111.557 37.0653C112.143 37.2778 113.302 37.5287 115.033 37.8181C116.464 38.0582 117.349 38.2152 117.687 38.2891C118.026 38.363 118.816 38.4744 120.057 38.6233C121.103 38.7431 121.646 38.8574 121.688 38.966C121.715 39.0208 121.682 39.0909 121.59 39.1764C121.509 39.2629 121.366 39.3331 121.162 39.387C120.958 39.441 120.763 39.4539 120.578 39.4259C120.113 39.361 119.706 39.401 119.358 39.5458C119.217 39.5953 118.933 39.6155 118.504 39.6063C118.086 39.6085 117.65 39.5725 117.196 39.4982L113.775 39.0017C113.27 38.9225 112.778 38.8132 112.299 38.6737C111.821 38.5342 111.478 38.392 111.272 38.2469C110.791 37.9188 110.451 37.7454 110.254 37.7268C110.171 37.7189 110.028 37.6321 109.824 37.4663C109.63 37.3015 109.429 37.0994 109.222 36.86C109.014 36.6207 108.803 36.4176 108.589 36.2508C108.385 36.085 108.231 35.9972 108.127 35.9874C108.024 35.9776 107.938 35.9485 107.869 35.9001C107.81 35.8631 107.782 35.8187 107.787 35.7669C107.8 35.6321 107.63 35.3334 107.276 34.8709C106.576 33.9677 106.432 33.3419 106.841 32.9935C107.07 32.785 107.58 32.0433 108.37 30.7683C108.741 30.1652 109.226 29.5257 109.823 28.8498C110.431 28.1749 110.995 27.6371 111.514 27.2363C112.034 26.8252 112.368 26.6736 112.514 26.7817C112.563 26.8177 112.627 26.8029 112.707 26.7371C112.786 26.6714 112.853 26.5731 112.908 26.4422C112.963 26.301 113.052 26.1839 113.176 26.091C113.31 25.9991 113.44 25.959 113.564 25.9708C113.875 26.0002 114.082 25.9675 114.186 25.8726C114.321 25.7703 114.337 25.5992 114.234 25.3593C114.131 25.1194 113.981 24.9901 113.784 24.9714C113.681 24.9616 113.594 24.9325 113.526 24.8842C113.469 24.8264 113.443 24.7613 113.45 24.6887C113.456 24.6265 113.429 24.582 113.369 24.5554C113.308 24.5288 113.23 24.5266 113.134 24.5489C112.876 24.6187 112.503 24.4734 112.014 24.1133C111.536 23.7437 111.063 23.2647 110.596 22.6764C110.128 22.0881 109.799 21.5337 109.608 21.0134C109.383 20.3958 109.302 19.7655 109.363 19.1225C109.435 18.4702 109.629 18.0177 109.946 17.7652C110.308 17.4855 110.605 17.1631 110.838 16.7981C110.936 16.6504 111.058 16.5259 111.203 16.4246C111.349 16.3233 111.468 16.277 111.562 16.2858C111.665 16.2957 111.756 16.2729 111.835 16.2175C111.913 16.1622 111.957 16.0878 111.966 15.9945C111.984 15.8079 112.217 15.6102 112.666 15.4016C113.125 15.1939 113.548 15.0875 113.936 15.0823C114.238 15.09 114.492 15.0094 114.696 14.8404ZM116.114 14.7863C116.204 14.6065 116.545 14.5393 117.137 14.5849C117.729 14.6305 118.386 14.7711 119.106 15.0067C119.828 15.232 120.41 15.4963 120.852 15.7997C121.57 16.2862 121.919 16.6331 121.899 16.8405C121.879 16.9433 121.787 17.0339 121.622 17.1125C121.546 17.1471 121.474 17.2398 121.408 17.3904C121.342 17.5307 121.3 17.6942 121.283 17.8808C121.266 18.0571 121.209 18.2191 121.111 18.3668C121.014 18.5145 120.9 18.6032 120.772 18.6329C120.644 18.6626 120.468 18.7558 120.243 18.9125C120.019 19.0692 119.815 19.2382 119.63 19.4195C119.457 19.5914 119.25 19.7392 119.008 19.8628C118.767 19.976 118.569 20.0252 118.413 20.0105C118.268 19.9968 118.109 20.0132 117.938 20.0597C117.767 20.0958 117.636 20.1463 117.547 20.211C117.432 20.3153 117.276 20.3581 117.079 20.3394C116.893 20.3218 116.741 20.2604 116.626 20.1553C116.51 20.0501 116.479 19.9373 116.532 19.8168C116.612 19.636 117.026 19.4659 117.773 19.3065C118.531 19.148 119.025 19.1268 119.255 19.2427C119.484 19.3586 119.613 19.2765 119.639 18.9965C119.65 18.8825 119.685 18.7916 119.743 18.7239C119.803 18.6458 119.869 18.6103 119.942 18.6171C120.014 18.624 120.076 18.5775 120.128 18.4778C120.19 18.3686 120.229 18.2311 120.245 18.0651C120.282 17.6711 120.381 17.4031 120.541 17.2613C120.712 17.1101 120.749 16.8363 120.65 16.4398C120.57 16.1811 120.464 16.0246 120.334 15.9704C120.204 15.9058 119.918 15.884 119.477 15.905C118.803 15.9459 118.418 15.8676 118.322 15.6701C118.277 15.5926 118.127 15.5157 117.873 15.4393C117.63 15.3535 117.353 15.2959 117.041 15.2664C116.596 15.2242 116.308 15.1708 116.178 15.1062C116.058 15.0426 116.037 14.9359 116.114 14.7863ZM133.294 12.6927C133.3 12.6305 133.341 12.5769 133.419 12.5319C133.496 12.4869 133.587 12.4693 133.691 12.4791C133.794 12.4889 133.879 12.5388 133.943 12.6286C134.019 12.7091 134.053 12.7959 134.044 12.8893C134.02 13.1485 134.091 13.2756 134.259 13.2706C134.438 13.2666 134.617 13.1423 134.797 12.8977C134.918 12.7209 135.021 12.6312 135.105 12.6287C135.2 12.6168 135.335 12.6871 135.509 12.8395C135.789 13.0858 136.113 13.31 136.481 13.5123C136.629 13.5996 136.756 13.7005 136.86 13.815C136.965 13.9191 137.015 14.0075 137.008 14.0801C137.002 14.1423 137.033 14.2028 137.1 14.2615C137.178 14.3212 137.269 14.356 137.373 14.3658C137.477 14.3756 137.561 14.4254 137.626 14.5152C137.69 14.6051 137.716 14.7174 137.704 14.8522C137.692 14.9767 137.751 15.1235 137.882 15.2928C138.024 15.4527 138.204 15.5953 138.422 15.7206C138.909 15.9969 139.405 16.4467 139.911 17.0701C140.417 17.6934 140.75 18.2638 140.91 18.7812C141.095 19.3742 141.115 20.2655 140.971 21.4551C140.837 22.6457 140.627 23.3739 140.341 23.6398C140.055 23.8952 139.907 24.0748 139.897 24.1785C139.887 24.2822 139.553 24.6115 138.893 25.1665C138.621 25.3918 138.391 25.6055 138.205 25.8076C138.03 26.0002 137.955 26.124 137.981 26.1788C138.313 27.0995 138.556 27.7346 138.711 28.0842C138.868 28.4233 139.009 28.6407 139.136 28.7365C139.225 28.7972 139.294 28.8927 139.344 29.023C139.395 29.1533 139.414 29.2807 139.402 29.4052C139.374 29.7059 139.468 30.034 139.686 30.3894C139.777 30.534 139.844 30.7653 139.887 31.0833C139.931 31.3909 139.945 31.6904 139.928 31.9817C139.885 32.4277 139.906 32.7644 139.989 32.992C140.073 33.2092 140.279 33.4642 140.607 33.7568C140.819 33.9547 141.157 34.196 141.622 34.4806C142.087 34.7549 142.546 34.9971 142.997 35.2072C143.749 35.5504 144.3 35.7543 144.65 35.8188C145.01 35.8842 145.59 35.8869 146.391 35.8266C147.571 35.7395 148.194 35.7357 148.26 35.8152C148.288 35.8492 148.232 35.9382 148.093 36.0819C147.964 36.2267 147.787 36.3878 147.561 36.5652C147.03 36.9753 146.464 37.1571 145.861 37.1106C145.268 37.0754 144.856 37.1149 144.626 37.2291C144.516 37.2815 144.375 37.2786 144.203 37.2204C144.03 37.1726 143.861 37.0782 143.696 36.937C143.54 36.8176 143.347 36.7051 143.116 36.5996C142.896 36.495 142.703 36.4349 142.537 36.4192C142.381 36.4045 142.132 36.3234 141.791 36.176C141.459 36.0295 141.145 35.8638 140.849 35.6788C140.126 35.2441 139.557 34.6304 139.14 33.8376C138.723 33.0448 138.523 32.1783 138.538 31.2381C138.531 30.8713 138.509 30.5501 138.473 30.2745C138.436 29.999 138.392 29.8588 138.34 29.8539C138.226 29.8431 138.058 29.6284 137.836 29.2098C137.624 28.7922 137.46 28.3686 137.344 27.939C137.266 27.6596 136.908 27.3485 136.271 27.0056C135.634 26.6628 135.035 26.4649 134.475 26.4119C134.226 26.3884 134.01 26.347 133.828 26.2879C133.646 26.2183 133.558 26.1525 133.564 26.0902C133.58 25.9243 133.353 25.8872 132.884 25.9788C132.319 26.0823 131.85 26.0169 131.474 25.7826C131.11 25.5389 130.885 25.1565 130.798 24.6356C130.786 24.5403 130.764 24.5539 130.731 24.6764C130.653 24.9515 130.568 25.5137 130.478 26.3631C130.391 27.171 130.352 27.7481 130.361 28.0942C130.381 28.431 130.454 28.6052 130.578 28.617C130.744 28.6327 130.799 28.9885 130.744 29.6843C130.7 30.3707 130.574 31.0912 130.367 31.8458C130.17 32.6014 129.968 33.0741 129.762 33.2639C129.419 33.5663 129.174 33.8936 129.025 34.2457C128.659 35.1318 128.154 35.5496 127.51 35.4991C126.866 35.4486 126.104 34.9266 125.225 33.9331L123.891 32.4414L124.001 30.2859C124.025 29.7022 124.027 29.127 124.007 28.5601C123.989 27.9829 123.952 27.5975 123.897 27.4039C123.842 27.2104 123.815 26.9986 123.816 26.7685C123.827 26.5393 123.859 26.3645 123.913 26.244C124.065 25.9654 124.227 25.0182 124.401 23.4024C124.529 22.274 124.724 21.3246 124.985 20.5541C125.256 19.7846 125.517 19.4116 125.766 19.4352C125.828 19.4411 125.878 19.4092 125.916 19.3395C125.965 19.2605 125.995 19.1691 126.005 19.0654C126.014 18.9617 126.049 18.876 126.107 18.8083C126.166 18.7407 126.227 18.7098 126.289 18.7157C126.351 18.7215 126.424 18.6709 126.507 18.5637C126.602 18.4471 126.677 18.3182 126.732 18.1769C126.872 17.803 127.031 17.4518 127.209 17.1234C127.386 16.7949 127.554 16.4027 127.712 15.9468C127.773 15.7434 127.885 15.5552 128.048 15.3822C128.222 15.2103 128.4 15.0912 128.584 15.0249C128.757 14.968 128.911 14.8884 129.046 14.7861C129.183 14.6735 129.255 14.5705 129.264 14.4771C129.272 14.3942 129.354 14.2973 129.511 14.1866C129.68 14.0666 129.872 13.9697 130.088 13.896C130.618 13.7159 130.888 13.5688 130.899 13.4548C130.903 13.4133 131.018 13.3614 131.243 13.299C131.48 13.2273 131.763 13.1703 132.091 13.1282C132.421 13.0756 132.699 13.0078 132.927 12.9247C133.165 12.8426 133.287 12.7653 133.294 12.6927ZM135.591 15.2801C134.658 14.7523 133.747 14.4829 132.859 14.4721C131.982 14.4519 131.147 14.6973 130.356 15.2083C129.576 15.71 128.933 16.4286 128.426 17.3641C127.942 18.2705 127.598 18.8657 127.393 19.1498C127.2 19.4245 127.031 19.5549 126.886 19.5412C126.761 19.5294 126.491 20.2782 126.077 21.7874C125.662 23.2967 125.453 24.2815 125.452 24.7417C125.454 25.1604 125.425 25.5187 125.366 25.8165C125.317 26.1049 125.209 26.4766 125.04 26.9314C124.899 27.3157 124.826 27.5965 124.819 27.7737C124.824 27.9416 124.886 28.0678 125.003 28.1521C125.22 28.2982 125.252 28.7354 125.099 29.4638C124.946 30.1923 124.957 30.6276 125.132 30.7697C125.21 30.8294 125.268 30.9395 125.305 31.0999C125.342 31.2604 125.352 31.4288 125.336 31.6051C125.297 32.0095 125.45 32.4425 125.793 32.904C126.138 33.3551 126.496 33.6035 126.869 33.6492C127.128 33.6738 127.429 33.5297 127.773 33.2169C128.127 32.9051 128.352 32.5707 128.448 32.2136C128.511 31.9997 128.699 31.395 129.013 30.3993C129.191 29.8407 129.305 29.3597 129.353 28.9562C129.402 28.5528 129.397 28.1024 129.34 27.6052C129.29 27.2448 129.276 26.626 129.296 25.749C129.326 24.873 129.378 23.9938 129.451 23.1113C129.631 20.9938 129.745 19.5608 129.795 18.8121C129.845 18.0635 129.977 17.6627 130.192 17.6097C130.407 17.5464 130.491 17.7688 130.442 18.277C130.422 18.4947 130.439 18.6952 130.495 18.8784C130.552 19.0512 130.625 19.1627 130.715 19.2131C130.906 19.2939 131.036 19.6306 131.106 20.2231C131.175 20.8156 131.175 21.5899 131.106 22.546L131.039 23.7481L132.194 23.983C132.965 24.1292 133.727 24.2537 134.481 24.3565C135.236 24.4489 135.667 24.5368 135.775 24.6202C135.911 24.7272 136.196 24.7019 136.629 24.5441C137.063 24.3863 137.47 24.1738 137.851 23.9064C138.232 23.639 138.432 23.412 138.449 23.2253C138.456 23.1528 138.505 23.0737 138.597 22.9882C138.7 22.8934 138.818 22.8155 138.949 22.7547C139.135 22.6677 139.266 22.497 139.343 22.2427C139.42 21.9779 139.488 21.4821 139.546 20.7552C139.612 19.7256 139.538 18.96 139.324 18.4585C139.11 17.9569 138.635 17.4515 137.898 16.9423C137.25 16.4939 136.889 16.219 136.815 16.1178C136.742 16.0063 136.334 15.727 135.591 15.2801ZM159.522 15.4891C160.004 15.3674 160.371 15.3079 160.622 15.3107C160.883 15.3145 161.383 15.5031 162.122 15.8765C162.871 16.2508 163.355 16.5582 163.573 16.7985C163.801 17.0399 164.198 17.3808 164.763 17.8215C165.143 18.119 165.366 18.3599 165.432 18.544C165.509 18.7291 165.519 19.0701 165.461 19.5669C165.409 20.0118 165.313 20.3585 165.174 20.607C165.037 20.8451 164.769 21.1284 164.372 21.457C164.111 21.673 163.816 21.8596 163.487 22.0168C163.169 22.175 162.915 22.2556 162.727 22.2587C162.255 22.2664 161.957 22.3219 161.832 22.4251C161.672 22.5669 161.532 22.606 161.413 22.5424C161.293 22.4788 161.243 22.3484 161.261 22.1514C161.271 22.0477 161.311 21.9625 161.38 21.8958C161.46 21.8197 161.542 21.7856 161.625 21.7934C161.708 21.8013 161.906 21.6997 162.219 21.4887C162.542 21.2786 162.88 21.0229 163.233 20.7215L164.532 19.6045L164.05 19.0566C163.33 18.2561 162.529 17.6571 161.646 17.2596C160.773 16.8631 160.054 16.7793 159.488 17.0083C159.01 17.1933 158.726 17.3233 158.635 17.3984C158.498 17.5214 158.238 17.6695 157.855 17.8425C157.484 18.0062 157.191 18.1145 156.977 18.1675C156.838 18.1962 156.699 18.2824 156.56 18.4262C156.432 18.5606 156.34 18.7088 156.283 18.8708C156.226 19.0328 156.138 19.1815 156.021 19.3168C155.915 19.4428 155.813 19.517 155.717 19.5392C155.61 19.5709 155.514 19.6403 155.431 19.7475C155.358 19.8557 155.315 19.9772 155.302 20.112C155.273 20.4231 155.117 20.7432 154.834 21.0722C154.517 21.4398 154.33 21.9243 154.273 22.5258C154.216 23.1273 154.298 23.6425 154.519 24.0715C154.857 24.6999 155.259 25.214 155.723 25.6137C156.199 26.004 156.85 26.369 157.675 26.7088C158.108 26.8858 158.474 27.0564 158.773 27.2207C159.072 27.3746 159.219 27.4775 159.214 27.5293C159.201 27.6641 159.325 27.7438 159.584 27.7683C159.698 27.7791 159.803 27.8309 159.899 27.9237C160.006 28.0071 160.075 28.1078 160.106 28.2258C160.143 28.3862 160.232 28.4941 160.373 28.5493C160.516 28.5942 160.756 28.596 161.095 28.5548C161.464 28.527 161.779 28.5673 162.041 28.6757C162.313 28.7852 162.707 29.0422 163.223 29.4469C163.983 30.0419 164.663 30.7079 165.263 31.4448C165.873 32.1827 166.211 32.7588 166.276 33.173C166.302 33.3429 166.345 33.4934 166.406 33.6248C166.468 33.7457 166.525 33.8086 166.577 33.8135C166.691 33.8243 166.78 34.042 166.844 34.4667C166.919 34.8923 166.957 35.3772 166.958 35.9213C166.96 36.4551 166.926 36.9803 166.856 37.4969C166.796 38.0144 166.711 38.3621 166.6 38.5399C166.503 38.6876 166.311 38.8892 166.025 39.1446C165.749 39.4115 165.453 39.6608 165.138 39.8925C164.383 40.4594 163.848 40.869 163.531 41.1215C163.407 41.2144 163.275 41.2804 163.135 41.3195C162.995 41.369 162.89 41.3695 162.821 41.3212C162.763 41.2738 162.697 41.2571 162.622 41.2709C162.557 41.2962 162.505 41.3436 162.467 41.4132C162.44 41.4839 162.33 41.5415 162.137 41.586C161.955 41.6316 161.749 41.6487 161.52 41.6375C161.291 41.6263 161.07 41.6419 160.856 41.6845C160.654 41.7281 160.527 41.7894 160.478 41.8685C160.336 42.0433 159.721 42.1787 158.635 42.2747C157.558 42.3716 156.621 42.3771 155.824 42.2911C154.923 42.1954 154.202 41.9598 153.662 41.5843C153.447 41.4279 153.239 41.3036 153.038 41.2113C152.847 41.1305 152.729 41.1088 152.683 41.1464C152.58 41.2412 152.419 41.1737 152.2 40.9437C151.98 40.7241 151.791 40.6225 151.633 40.6389C151.124 40.7058 150.614 40.3437 150.103 39.5524C149.602 38.7725 149.3 37.8703 149.198 36.8457C149.168 36.4976 149.173 36.2783 149.213 36.1879C149.265 36.0882 149.394 36.0481 149.601 36.0677C149.84 36.0903 150.059 36.3151 150.259 36.7421C150.47 37.1701 150.557 37.5811 150.519 37.9752C150.458 38.6285 151.255 39.2638 152.913 39.8811C154.378 40.4279 155.965 40.6879 157.673 40.6613C159.38 40.645 160.836 40.3486 162.042 39.7721C162.251 39.6663 162.447 39.5855 162.63 39.5296C162.822 39.485 162.938 39.4803 162.977 39.5153C163.025 39.5513 163.183 39.4878 163.45 39.3247C163.727 39.1625 164.03 38.9453 164.359 38.6731C164.879 38.2619 165.213 37.9378 165.361 37.7007C165.521 37.4542 165.616 37.1127 165.647 36.6761C165.775 35.0979 165.573 33.8075 165.04 32.8049C164.756 32.2653 164.347 31.7767 163.813 31.339C163.28 30.8909 162.879 30.7065 162.61 30.7857C162.491 30.8267 162.371 30.8206 162.251 30.7673C162.131 30.7037 162.046 30.6119 161.994 30.492C161.942 30.3824 161.791 30.2583 161.543 30.1197C161.295 29.981 161.022 29.8768 160.725 29.8068C160.44 29.7275 160.153 29.6062 159.865 29.4429C159.577 29.2796 159.377 29.1299 159.264 28.9936C159.151 28.8574 159.001 28.7333 158.813 28.6213C158.636 28.5 158.485 28.4334 158.361 28.4216C158.236 28.4098 158.109 28.3716 157.979 28.307C157.86 28.2434 157.783 28.1733 157.748 28.0968C157.712 28.0306 157.624 27.9648 157.484 27.8992C157.344 27.8336 157.191 27.7929 157.025 27.7772C156.859 27.7615 156.706 27.7157 156.567 27.6397C156.438 27.5647 156.357 27.4786 156.325 27.3814C156.302 27.2851 156.178 27.1634 155.951 27.0164C155.735 26.8704 155.481 26.7365 155.189 26.6147C154.876 26.4909 154.618 26.3461 154.414 26.1803C154.21 26.0145 154.099 25.8524 154.083 25.6939C154.055 25.5448 153.999 25.4191 153.915 25.317C153.841 25.2158 153.757 25.1608 153.664 25.1519C153.425 25.1294 153.286 24.7238 153.245 23.9352C153.215 23.1476 153.284 22.3642 153.452 21.5849C153.621 20.7952 153.826 20.3909 154.069 20.372C154.227 20.3556 154.346 20.2674 154.424 20.1074C154.512 19.9483 154.573 19.6873 154.608 19.3243C154.671 18.6503 154.822 18.3245 155.061 18.3471C155.154 18.3559 155.253 18.3077 155.357 18.2025C155.473 18.0879 155.559 17.9444 155.618 17.772C155.677 17.5892 155.764 17.4406 155.88 17.3259C155.995 17.2113 156.11 17.1594 156.224 17.1702C156.317 17.179 156.402 17.1713 156.477 17.1471C156.553 17.1228 156.588 17.0843 156.582 17.0315C156.573 16.6853 156.641 16.4668 156.786 16.3758C156.931 16.2745 157.243 16.2464 157.72 16.2916C158.394 16.3554 158.742 16.268 158.765 16.0295C158.773 15.9362 158.851 15.8389 158.996 15.7376C159.153 15.6269 159.328 15.544 159.522 15.4891ZM185.873 17.9833C186.355 17.8615 186.722 17.802 186.973 17.8049C187.234 17.8087 187.734 17.9972 188.473 18.3706C189.222 18.745 189.706 19.0523 189.924 19.2927C190.152 19.534 190.549 19.875 191.114 20.3156C191.494 20.6132 191.717 20.854 191.783 21.0382C191.86 21.2233 191.87 21.5643 191.812 22.0611C191.759 22.506 191.664 22.8527 191.525 23.1012C191.388 23.3392 191.12 23.6226 190.723 23.9512C190.462 24.1671 190.167 24.3537 189.838 24.5109C189.52 24.6691 189.266 24.7498 189.077 24.7529C188.606 24.7605 188.308 24.816 188.183 24.9193C188.023 25.0611 187.883 25.1002 187.764 25.0366C187.644 24.9729 187.594 24.8426 187.612 24.6456C187.622 24.5419 187.662 24.4567 187.731 24.39C187.811 24.3139 187.893 24.2797 187.976 24.2876C188.059 24.2954 188.257 24.1939 188.57 23.9828C188.893 23.7728 189.231 23.517 189.584 23.2156L190.883 22.0986L190.401 21.5508C189.681 20.7503 188.88 20.1513 187.997 19.7538C187.124 19.3573 186.405 19.2735 185.839 19.5025C185.361 19.6874 185.077 19.8175 184.986 19.8926C184.849 20.0156 184.589 20.1636 184.206 20.3367C183.835 20.5004 183.542 20.6087 183.328 20.6616C183.189 20.6903 183.05 20.7766 182.911 20.9204C182.783 21.0548 182.691 21.203 182.634 21.365C182.576 21.5269 182.489 21.6756 182.372 21.811C182.266 21.937 182.164 22.0111 182.068 22.0334C181.961 22.0651 181.865 22.1345 181.782 22.2417C181.709 22.3499 181.666 22.4714 181.653 22.6062C181.624 22.9173 181.468 23.2374 181.185 23.5664C180.868 23.934 180.681 24.4185 180.624 25.02C180.567 25.6215 180.649 26.1367 180.87 26.5657C181.208 27.1941 181.61 27.7081 182.074 28.1078C182.55 28.4982 183.2 28.8632 184.026 29.2029C184.459 29.3799 184.825 29.5506 185.124 29.7149C185.423 29.8687 185.57 29.9716 185.565 30.0235C185.552 30.1583 185.676 30.238 185.935 30.2625C186.049 30.2733 186.154 30.3251 186.25 30.4179C186.357 30.5012 186.426 30.6019 186.457 30.7199C186.494 30.8804 186.583 30.9882 186.724 31.0435C186.866 31.0883 187.107 31.0902 187.446 31.049C187.815 31.0211 188.13 31.0614 188.392 31.1699C188.664 31.2794 189.058 31.5364 189.574 31.941C190.334 32.5361 191.014 33.2021 191.614 33.939C192.224 34.6768 192.562 35.2529 192.627 35.6672C192.653 35.837 192.696 35.9876 192.757 36.1189C192.819 36.2399 192.876 36.3028 192.928 36.3077C193.042 36.3185 193.131 36.5362 193.195 36.9608C193.27 37.3864 193.308 37.8713 193.309 38.4155C193.311 38.9493 193.277 39.4745 193.207 39.991C193.147 40.5085 193.062 40.8562 192.951 41.0341C192.853 41.1818 192.662 41.3833 192.376 41.6388C192.1 41.9056 191.804 42.1549 191.489 42.3867C190.734 42.9535 190.199 43.3632 189.882 43.6157C189.758 43.7086 189.626 43.7746 189.486 43.8137C189.346 43.8631 189.241 43.8637 189.172 43.8154C189.114 43.768 189.048 43.7512 188.973 43.7651C188.908 43.7903 188.856 43.8378 188.818 43.9074C188.791 43.978 188.681 44.0356 188.488 44.0802C188.306 44.1257 188.1 44.1429 187.871 44.1316C187.642 44.1204 187.421 44.1361 187.207 44.1787C187.004 44.2223 186.878 44.2836 186.829 44.3626C186.687 44.5375 186.072 44.6729 184.986 44.7688C183.909 44.8658 182.972 44.8712 182.175 44.7853C181.274 44.6895 180.553 44.4539 180.013 44.0784C179.798 43.922 179.59 43.7977 179.389 43.7055C179.198 43.6246 179.08 43.603 179.034 43.6405C178.931 43.7354 178.77 43.6678 178.551 43.4378C178.331 43.2182 178.142 43.1166 177.984 43.133C177.475 43.2 176.965 42.8378 176.454 42.0466C175.953 41.2667 175.651 40.3644 175.549 39.3398C175.519 38.9917 175.524 38.7725 175.564 38.6821C175.615 38.5823 175.745 38.5422 175.952 38.5619C176.191 38.5845 176.41 38.8092 176.61 39.2363C176.821 39.6643 176.908 40.0753 176.87 40.4694C176.808 41.1227 177.606 41.758 179.264 42.3753C180.729 42.922 182.316 43.1821 184.024 43.1554C185.731 43.1391 187.187 42.8427 188.393 42.2663C188.602 42.1605 188.798 42.0796 188.981 42.0237C189.173 41.9792 189.289 41.9744 189.328 42.0094C189.376 42.0455 189.534 41.9819 189.801 41.8188C190.078 41.6567 190.381 41.4395 190.71 41.1672C191.23 40.7561 191.564 40.4319 191.712 40.1948C191.872 39.9483 191.967 39.6068 191.998 39.1703C192.126 37.592 191.924 36.3016 191.391 35.299C191.107 34.7595 190.698 34.2708 190.164 33.8332C189.631 33.3851 189.23 33.2006 188.961 33.2798C188.842 33.3209 188.722 33.3148 188.602 33.2615C188.482 33.1979 188.397 33.1061 188.345 32.9861C188.293 32.8765 188.142 32.7524 187.894 32.6138C187.646 32.4752 187.373 32.3709 187.076 32.301C186.791 32.2216 186.504 32.1003 186.216 31.937C185.928 31.7738 185.728 31.624 185.615 31.4878C185.502 31.3516 185.352 31.2275 185.164 31.1155C184.987 30.9941 184.836 30.9275 184.712 30.9158C184.587 30.904 184.46 30.8658 184.33 30.8012C184.211 30.7375 184.134 30.6675 184.099 30.591C184.063 30.5248 183.975 30.4589 183.835 30.3933C183.695 30.3277 183.542 30.2871 183.376 30.2714C183.21 30.2557 183.057 30.2099 182.918 30.1339C182.789 30.0589 182.708 29.9728 182.676 29.8755C182.653 29.7792 182.529 29.6576 182.302 29.5106C182.086 29.3645 181.832 29.2306 181.54 29.1088C181.227 28.9851 180.969 28.8403 180.765 28.6745C180.561 28.5087 180.45 28.3465 180.434 28.188C180.406 28.0389 180.35 27.9133 180.266 27.8111C180.192 27.7099 180.108 27.6549 180.015 27.6461C179.776 27.6235 179.637 27.2179 179.596 26.4294C179.566 25.6418 179.635 24.8583 179.803 24.079C179.972 23.2893 180.177 22.8851 180.42 22.8661C180.578 22.8498 180.697 22.7615 180.775 22.6015C180.863 22.4425 180.924 22.1815 180.958 21.8185C181.022 21.1444 181.173 20.8187 181.412 20.8412C181.505 20.8501 181.604 20.8019 181.708 20.6966C181.824 20.582 181.91 20.4385 181.969 20.2661C182.028 20.0834 182.115 19.9347 182.231 19.8201C182.346 19.7055 182.461 19.6535 182.575 19.6643C182.668 19.6732 182.753 19.6655 182.828 19.6412C182.904 19.617 182.939 19.5785 182.933 19.5256C182.924 19.1795 182.992 18.9609 183.137 18.87C183.282 18.7687 183.594 18.7406 184.071 18.7858C184.745 18.8496 185.093 18.7622 185.116 18.5237C185.124 18.4303 185.202 18.333 185.347 18.2317C185.504 18.121 185.679 18.0382 185.873 17.9833ZM198.454 20.5395C198.557 20.3296 198.849 20.2316 199.329 20.2457C199.819 20.2607 200.117 20.3778 200.222 20.597C200.318 20.7945 200.184 20.9962 199.819 21.2024C199.455 21.3981 199.071 21.4769 198.667 21.4386C198.189 21.4038 197.938 21.516 197.913 21.7753C197.902 21.8894 197.856 21.9948 197.773 22.0917C197.691 22.1885 197.596 22.2527 197.488 22.2844C197.392 22.3067 197.278 22.4006 197.148 22.5661C197.028 22.7222 196.939 22.8916 196.88 23.0743C196.776 23.3993 196.589 23.6589 196.319 23.8531C196.061 24.038 195.867 24.0509 195.735 23.892C195.66 23.8012 195.71 23.3822 195.885 22.6349C196.072 21.8783 196.336 21.4639 196.678 21.3916C196.817 21.3629 196.936 21.3166 197.036 21.2529C197.148 21.1797 197.207 21.112 197.213 21.0498C197.219 20.9772 197.277 20.9251 197.384 20.8934C197.493 20.8514 197.615 20.8368 197.75 20.8495C197.895 20.8633 198.033 20.8397 198.164 20.7789C198.307 20.7087 198.403 20.6289 198.454 20.5395ZM200.619 20.2109C200.637 20.0242 200.688 19.8773 200.771 19.7701C200.854 19.6629 200.953 19.6147 201.067 19.6254C201.171 19.6353 201.257 19.6695 201.324 19.7283C201.392 19.787 201.422 19.8526 201.415 19.9252C201.41 19.9874 201.456 20.1069 201.554 20.2836C201.653 20.45 201.768 20.6178 201.899 20.7871C202.397 21.3784 202.771 21.9683 203.018 22.5567C203.277 23.1358 203.386 23.6483 203.344 24.0942C203.32 24.3431 203.336 24.6219 203.39 24.9304C203.445 25.239 203.521 25.4869 203.618 25.674C203.751 25.9272 203.822 26.2269 203.831 26.5731C203.841 26.9088 203.788 27.4113 203.673 28.0805C203.595 28.5649 203.548 29.0052 203.532 29.4012C203.516 29.7869 203.537 30.0138 203.593 30.0819C203.753 30.2748 203.728 31.3659 203.519 33.355C203.309 35.3442 203.106 36.4393 202.909 36.6404C202.782 36.7748 202.72 36.8736 202.724 36.9368C202.729 37 202.806 37.0701 202.956 37.147C203.096 37.2126 203.179 37.3878 203.204 37.6727C203.229 37.9577 203.209 38.4527 203.142 39.1579C203.052 40.1119 203.13 41.1657 203.376 42.319C203.632 43.4838 203.965 44.3418 204.373 44.8931C204.605 45.1977 204.996 45.3811 205.545 45.4435C206.092 45.5163 206.487 45.4333 206.73 45.1947C206.823 45.0988 206.935 45.0153 207.067 44.9441C207.199 44.8833 207.311 44.8573 207.404 44.8662C207.56 44.8809 207.841 44.7348 208.246 44.4279C208.662 44.122 209.418 43.4925 210.512 42.5393C210.899 42.2097 211.157 41.9202 211.285 41.6708C211.513 41.2529 211.865 40.0202 212.342 37.9726C212.399 37.6955 212.522 37.1683 212.711 36.391C212.929 35.4176 213.039 34.1986 213.041 32.734C213.055 31.26 212.955 30.3821 212.741 30.1003C212.685 30.0321 212.644 29.908 212.62 29.7278C212.595 29.5475 212.591 29.3693 212.608 29.193C212.644 28.8093 212.513 27.8709 212.215 26.3778C211.917 24.8847 211.685 24.0153 211.52 23.7695C211.392 23.5691 211.323 23.2015 211.31 22.6667C211.291 22.2045 211.403 21.9065 211.646 21.7725C211.9 21.6292 212.203 21.6892 212.555 21.9527C212.858 22.1802 213.134 22.3057 213.383 22.3292C213.486 22.339 213.571 22.3837 213.637 22.4632C213.713 22.5436 213.746 22.6357 213.736 22.7394C213.723 22.8846 213.771 22.9781 213.882 23.02C213.995 23.0516 214.214 23.0566 214.54 23.0352C215.1 22.9835 215.497 22.8798 215.731 22.7241C215.953 22.5882 216.549 22.5348 217.52 22.5639C218.491 22.5825 219.195 22.6648 219.631 22.8108C219.894 22.9089 220.023 22.9787 220.019 23.0201C220.024 23.0834 219.75 23.2144 219.197 23.4132C218.905 23.5111 218.574 23.5896 218.202 23.6486C217.83 23.7076 217.53 23.7314 217.3 23.7202C216.75 23.6786 216.295 23.7245 215.938 23.858L214.862 24.2742C214.71 24.333 214.529 24.3682 214.319 24.3797C214.12 24.3818 213.955 24.3557 213.824 24.3015C213.652 24.2329 213.523 24.2155 213.436 24.2491C213.36 24.2837 213.314 24.3788 213.3 24.5343C213.266 24.8869 213.326 25.4209 213.478 26.1364C213.641 26.8424 213.806 27.3131 213.972 27.5486C214.092 27.7169 214.17 27.8813 214.208 28.0417C214.255 28.2032 214.253 28.3338 214.202 28.4336C214.162 28.524 214.08 28.5633 213.955 28.5515C213.883 28.5446 213.817 28.575 213.758 28.6427C213.71 28.7114 213.681 28.7976 213.671 28.9013C213.661 29.005 213.683 29.1012 213.738 29.1901C213.804 29.2696 213.883 29.3137 213.976 29.3225C214.215 29.3451 214.352 29.4993 214.388 29.7852C214.434 30.0721 214.4 30.6548 214.285 31.5333C214.16 32.5259 214.205 33.1528 214.421 33.4139C214.59 33.6182 214.607 34.4883 214.472 36.0241C214.349 37.5505 214.188 38.3619 213.991 38.4583C213.936 38.4845 213.875 38.6304 213.808 38.8961C213.741 39.1618 213.692 39.4606 213.66 39.7925C213.613 40.2902 213.505 40.7142 213.336 41.0644C213.168 41.4043 212.835 41.8802 212.338 42.4923C212.007 42.89 211.646 43.2744 211.255 43.6455C210.874 44.0279 210.578 44.2824 210.367 44.4089C210.146 44.5345 209.955 44.6733 209.794 44.8255C209.642 44.9891 209.562 45.1227 209.552 45.2264C209.542 45.3301 209.491 45.4299 209.398 45.5257C209.316 45.6225 209.221 45.6816 209.114 45.7029C209.017 45.7355 208.923 45.7946 208.831 45.8801C208.749 45.9666 208.704 46.0565 208.695 46.1498C208.687 46.2431 208.634 46.3061 208.536 46.3388C208.439 46.3714 208.315 46.3596 208.163 46.3034C208.031 46.2595 207.876 46.2448 207.696 46.2592C207.516 46.284 207.37 46.333 207.259 46.4062C206.89 46.6538 206.344 46.78 205.622 46.7849C204.909 46.8011 204.401 46.6903 204.1 46.4524C203.672 46.1085 203.323 45.7564 203.054 45.3961C202.784 45.0461 202.659 44.7623 202.679 44.5445C202.688 44.4512 202.676 44.361 202.642 44.2742C202.607 44.1976 202.559 44.1564 202.497 44.1505C202.124 44.1152 201.858 43.0542 201.699 40.9675C201.552 38.8818 201.571 36.5817 201.756 34.0671C201.878 32.3417 201.98 30.3791 202.062 28.1792C202.155 25.9802 202.185 24.6176 202.151 24.0912C202.116 23.5752 201.962 22.9904 201.689 22.3368C201.417 21.6728 201.154 21.2502 200.899 21.0692C200.811 21.0085 200.738 20.8917 200.681 20.7189C200.624 20.5461 200.604 20.3768 200.619 20.2109ZM230.856 25.9292C231.468 25.757 232.211 25.707 233.083 25.7791C233.965 25.8521 234.692 26.0255 235.262 26.2992C235.754 26.5236 236.134 26.816 236.403 27.1763C236.684 27.5272 236.899 28.0184 237.049 28.6499C237.15 29.0153 237.151 29.2873 237.05 29.4662C236.949 29.645 236.628 29.9493 236.085 30.3793C235.767 30.6421 235.435 30.888 235.089 31.1168C234.754 31.3363 234.506 31.4697 234.345 31.5172C233.967 31.6384 233.634 31.7848 233.346 31.9563C233.158 32.0641 232.965 32.1086 232.768 32.09C232.571 32.0713 232.42 32.0047 232.316 31.8902C232.222 31.7767 232.214 31.6451 232.291 31.4955C232.342 31.3957 232.473 31.2773 232.685 31.1404C232.908 30.9941 233.15 30.8706 233.411 30.7697C234.007 30.554 234.504 30.2767 234.902 29.9377C235.3 29.5988 235.531 29.2596 235.595 28.9204C235.666 28.4981 235.51 28.1015 235.127 27.7303C234.754 27.3602 234.261 27.099 233.647 26.9468C233.044 26.7956 232.383 26.7643 231.663 26.8531L229.385 27.2026C229.046 27.2542 228.752 27.3205 228.503 27.4016C228.265 27.4837 228.143 27.5559 228.138 27.6181C228.132 27.6803 228.09 27.7288 228.014 27.7634C227.948 27.799 227.863 27.8118 227.759 27.802C227.396 27.7677 226.786 28.186 225.93 29.0571C225.074 29.9178 224.275 30.8937 223.534 31.985C222.803 33.0772 222.411 33.8929 222.36 34.4322C222.312 34.9403 222.118 35.4974 221.778 36.1035C221.6 36.4424 221.47 36.8224 221.388 37.2437C221.306 37.6649 221.262 38.2415 221.256 38.9733C221.236 40.1747 221.272 41.2297 221.364 42.1382C221.456 43.0467 221.582 43.54 221.742 43.6179C221.813 43.6455 221.865 43.7028 221.898 43.7897C221.943 43.8672 221.962 43.9422 221.956 44.0148C221.935 44.2326 222.318 44.7711 223.105 45.6303C223.902 46.5009 224.538 47.0738 225.014 47.3491C225.5 47.6357 226.095 47.8751 226.798 48.0673C227.513 48.2604 228.617 48.48 230.11 48.7261C233.253 49.2432 234.976 49.558 235.279 49.6704C235.448 49.7597 235.527 49.8666 235.515 49.991C235.493 50.2295 235.233 50.3252 234.735 50.2781C234.527 50.2585 234.334 50.261 234.153 50.2858C233.983 50.3116 233.875 50.3485 233.829 50.3964C233.744 50.5243 232.706 50.4837 230.717 50.2745C228.728 50.0653 227.326 49.8489 226.51 49.6251C225.846 49.4473 225.515 49.2956 225.517 49.1702C225.521 49.1287 225.558 49.0694 225.628 48.9924C225.755 48.8683 225.789 48.7775 225.732 48.7197C225.684 48.6733 225.52 48.6369 225.24 48.6104C224.545 48.5446 223.706 48.078 222.72 47.2105C221.734 46.3533 221.072 45.5058 220.732 44.6681C220.461 43.9937 220.258 43.5978 220.123 43.4803C219.987 43.3629 219.921 43.0165 219.923 42.4413C219.926 41.8556 219.813 41.2799 219.584 40.7142C219.45 40.3666 219.383 40.0778 219.384 39.8477C219.396 39.6082 219.478 39.2968 219.629 38.9135C219.887 38.2892 220.084 37.6486 220.219 36.9918C220.366 36.3256 220.549 35.8302 220.768 35.5056C220.988 35.1707 221.145 34.7252 221.24 34.1691C221.332 33.6338 221.709 32.8534 222.371 31.8279C223.045 30.793 223.783 29.8479 224.586 28.9927C225.181 28.3479 225.894 27.7772 226.726 27.2804C227.557 26.7837 228.181 26.5549 228.595 26.5942C228.71 26.605 228.805 26.5931 228.881 26.5585C228.969 26.5145 229.017 26.4562 229.023 26.3836C229.03 26.311 229.078 26.2527 229.166 26.2087C229.253 26.1647 229.36 26.1486 229.484 26.1604C229.786 26.1785 230.243 26.1014 230.856 25.9292ZM257.128 28.5886C257.247 28.4429 257.384 28.3198 257.54 28.2195C257.706 28.1201 257.841 28.0754 257.945 28.0852C258.09 28.0989 258.167 28.1742 258.175 28.311C258.194 28.4384 258.144 28.69 258.025 29.0658C257.83 29.6857 257.706 30.218 257.654 30.663C257.596 31.0551 257.511 31.2354 257.399 31.2038C257.35 31.1678 257.298 31.2204 257.242 31.3617C257.198 31.5039 257.163 31.6995 257.14 31.9484C257.092 32.4565 256.941 32.9445 256.687 33.4123C256.435 33.8697 256.2 34.0881 255.982 34.0675C255.899 34.0596 255.833 34.09 255.785 34.1587C255.748 34.218 255.745 34.3014 255.777 34.409C255.837 34.6554 255.492 34.9889 254.74 35.4096C253.99 35.8199 253.452 36.1404 253.127 36.3712C252.813 36.5926 252.487 36.7814 252.147 36.9377C251.743 37.1191 251.553 37.3051 251.577 37.4957C251.601 37.6863 251.845 37.9188 252.311 38.193C252.548 38.3411 252.762 38.5182 252.951 38.7245C253.152 38.9214 253.262 39.0887 253.281 39.2265C253.31 39.3549 253.387 39.4877 253.51 39.6249C253.643 39.763 253.786 39.8602 253.937 39.9164C254.099 39.9736 254.277 40.137 254.472 40.4065C254.676 40.677 254.855 40.9973 255.008 41.3676C255.248 41.9343 255.375 42.4172 255.389 42.8162C255.415 43.2058 255.356 43.943 255.211 45.028L254.873 47.4443L255.665 48.5238C256.026 49.0184 256.326 49.3345 256.564 49.4721C256.812 49.6211 257.27 49.7482 257.941 49.8535C258.25 49.9037 258.461 49.9394 258.574 49.9606C258.697 49.9827 258.854 49.9871 259.043 49.9736C259.242 49.9715 259.375 49.9579 259.44 49.9326C259.504 49.9178 259.64 49.8575 259.849 49.7517C260.058 49.6459 260.225 49.5413 260.35 49.4381C260.484 49.3461 260.714 49.1848 261.039 48.954C261.666 48.5216 262.116 48.245 262.389 48.1244C262.662 48.0037 262.86 48.0068 262.984 48.1337C263.109 48.2501 263.156 48.3644 263.125 48.4765C263.093 48.5886 262.963 48.7437 262.735 48.9419C262.348 49.2715 262.145 49.54 262.125 49.7474C262.118 49.8303 262.075 49.8943 261.997 49.9393C261.919 49.9947 261.828 50.0174 261.724 50.0076C261.631 49.9988 261.524 50.0201 261.404 50.0715C261.283 50.1333 261.187 50.2079 261.116 50.2953C261.055 50.3838 260.897 50.51 260.641 50.6741C260.384 50.8486 260.107 51.0107 259.81 51.1605C259.163 51.4759 258.547 51.5694 257.963 51.4408C257.388 51.3236 256.553 50.915 255.458 50.2149C253.978 49.2692 253.27 48.4593 253.334 47.7852C253.345 47.6608 253.318 47.5065 253.252 47.3223C253.186 47.1382 253.101 46.9785 252.999 46.8432C252.851 46.6409 252.772 46.4817 252.762 46.3656C252.763 46.2402 252.827 46.1155 252.954 45.9915C253.07 45.8768 253.183 45.4533 253.294 44.721C253.406 43.9782 253.469 43.2622 253.482 42.5728C253.505 41.8845 253.465 41.5354 253.361 41.5256C253.299 41.5197 253.251 41.4785 253.216 41.402C253.193 41.3161 253.186 41.2212 253.196 41.1175C253.206 41.0138 253.193 40.9237 253.159 40.8472C253.125 40.7603 253.077 40.7139 253.015 40.708C252.88 40.6953 252.576 40.4258 252.102 39.8997C251.601 39.3396 251.088 38.951 250.565 38.734C250.053 38.5077 249.57 38.462 249.118 38.5971C248.322 38.8252 247.814 39.002 247.593 39.1276C247.383 39.2438 247.305 39.3986 247.36 39.5921C247.392 39.6998 247.382 39.8087 247.329 39.9188C247.288 40.0299 247.228 40.108 247.15 40.153C247.019 40.2138 246.952 40.3121 246.95 40.4479C246.959 40.5743 247.023 40.7844 247.141 41.0781C247.455 41.8507 247.577 42.715 247.508 43.6711C247.46 44.399 247.318 44.7412 247.081 44.6979C247.04 44.694 246.994 44.674 246.946 44.638C246.858 44.5669 246.784 44.628 246.724 44.8211C246.683 44.9218 246.655 45.05 246.641 45.2056C246.621 45.413 246.565 45.6169 246.473 45.8175C246.381 46.018 246.285 46.1501 246.184 46.2139C246.083 46.288 245.972 46.4083 245.852 46.5748C245.732 46.7413 245.643 46.9055 245.586 47.0675C245.484 47.3718 245.152 47.7798 244.591 48.2917C244.029 48.814 243.649 49.0658 243.452 49.0472C243.4 49.0423 243.335 49.0727 243.255 49.1384C243.175 49.2145 243.114 49.3029 243.073 49.4037C242.97 49.6032 242.586 49.682 241.921 49.6399C241.264 49.6092 240.627 49.4861 240.009 49.2706C239.401 49.0666 239.107 48.8556 239.128 48.6379C239.146 48.4408 239.401 48.2923 239.892 48.1923C240.382 48.1026 240.825 48.1184 241.221 48.2396C241.71 48.3801 242.173 48.4134 242.609 48.3396C243.055 48.2667 243.289 48.1162 243.311 47.8881C243.32 47.7844 243.355 47.6935 243.415 47.6154C243.474 47.5477 243.534 47.5169 243.596 47.5227C243.669 47.5296 243.73 47.4935 243.779 47.4145C243.838 47.3468 243.872 47.2611 243.882 47.1574C243.891 47.0641 243.92 46.9779 243.969 46.8989C244.028 46.8312 244.088 46.8003 244.151 46.8062C244.348 46.8248 244.552 46.6035 244.763 46.1421C244.983 45.6922 245.165 45.1548 245.308 44.5301C245.461 43.9063 245.559 43.2564 245.602 42.5804C245.657 41.895 245.624 41.353 245.505 40.9546C245.365 40.4392 245.348 38.9622 245.454 36.5238C245.569 34.0864 245.727 32.3592 245.928 31.3424C245.948 31.2396 245.984 30.8663 246.034 30.2224C246.07 29.734 246.059 29.4661 246 29.4187C245.943 29.361 245.73 29.4036 245.361 29.5465C245.155 29.6212 244.846 29.6809 244.433 29.7255C244.032 29.7608 243.64 29.7655 243.255 29.7396C242.703 29.7083 242.261 29.6298 241.927 29.5041C241.594 29.3783 241.207 29.1586 240.766 28.8448C240.032 28.3045 239.503 27.9248 239.178 27.7058C238.874 27.499 238.705 27.232 238.674 26.9046C238.645 26.6508 238.74 26.5342 238.958 26.5548C239.176 26.5755 239.853 26.9378 240.989 27.6417C241.533 27.9757 242.129 28.2623 242.776 28.5014C243.423 28.7405 243.969 28.8812 244.415 28.9234C244.872 28.9562 245.11 28.8741 245.129 28.6771C245.136 28.6045 245.173 28.5452 245.24 28.4992C245.317 28.4542 245.408 28.4367 245.512 28.4465C245.615 28.4563 245.717 28.4293 245.818 28.3656C245.918 28.3018 245.994 28.2149 246.046 28.1047C246.175 27.8553 246.47 27.7786 246.931 27.8746C247.24 27.9351 247.433 28.0424 247.513 28.1964C247.603 28.3514 247.663 28.7077 247.694 29.2652C247.731 30.0952 247.791 30.5613 247.876 30.6635C247.913 30.7089 247.899 30.8017 247.834 30.942C247.768 31.0823 247.676 31.2305 247.556 31.3866C247.356 31.6292 247.244 31.8174 247.22 31.9512C247.209 32.0756 247.279 32.2707 247.432 32.5362C247.647 32.9124 247.735 33.3079 247.696 33.7227C247.668 34.1281 247.526 34.3605 247.269 34.4199C247.172 34.4526 247.078 34.5064 246.987 34.5815C246.908 34.6473 246.865 34.7112 246.859 34.7735C246.843 34.9394 246.923 34.9784 247.099 34.8904C247.197 34.8473 247.298 34.8934 247.4 35.0287C247.503 35.1536 247.571 35.3222 247.603 35.5345C247.647 35.7374 247.636 35.9038 247.572 36.0337C247.533 36.1137 247.464 36.1804 247.364 36.2338C247.265 36.2872 247.174 36.31 247.091 36.3021C246.987 36.2923 246.911 36.3217 246.863 36.3904C246.825 36.46 246.821 36.5539 246.852 36.6719C246.915 36.8871 247.137 37.0337 247.517 37.1115C247.908 37.1799 248.17 37.121 248.302 36.9347C248.411 36.788 248.886 36.5714 249.729 36.285L251.921 35.5194C252.504 35.3235 253.194 34.8866 253.991 34.2086C254.788 33.5307 255.36 32.8995 255.708 32.3151C255.847 32.0667 255.992 31.7456 256.145 31.352C256.298 30.948 256.405 30.5919 256.466 30.2837C256.537 29.9661 256.636 29.6407 256.762 29.3073C256.898 28.9749 257.02 28.7353 257.128 28.5886Z" fill="white"/>
</svg>
